<?xml version="1.0" standalone="no"?>
<!DOCTYPE svg PUBLIC "-//W3C//DTD SVG 20010904//EN"
 "http://www.w3.org/TR/2001/REC-SVG-20010904/DTD/svg10.dtd">
<svg version="1.0" xmlns="http://www.w3.org/2000/svg"
 width="2048.000000pt" height="2048.000000pt" viewBox="0 0 2048.000000 2048.000000"
 preserveAspectRatio="xMidYMid meet">
<metadata>
Created by potrace 1.16, written by Peter Selinger 2001-2019
</metadata>
<g transform="translate(0.000000,2048.000000) scale(0.100000,-0.100000)"
fill="#474973" stroke="none">
<path d="M18545 20132 c-3 -3 -13 -7 -23 -8 -9 -2 -33 -6 -52 -10 -19 -4 -42
-8 -50 -10 -32 -6 -96 -28 -109 -38 -7 -6 -19 -11 -26 -12 -23 -3 -198 -101
-222 -123 -12 -12 -27 -21 -33 -21 -5 0 -10 -4 -10 -10 0 -5 -5 -10 -11 -10
-16 0 -169 -101 -169 -111 0 -5 -7 -9 -15 -9 -8 0 -15 -4 -15 -10 0 -5 -7 -10
-15 -10 -8 0 -20 -9 -27 -20 -7 -11 -18 -20 -25 -20 -7 0 -13 -5 -13 -11 0 -5
-5 -7 -10 -4 -6 3 -13 -1 -16 -9 -3 -9 -10 -16 -15 -16 -10 0 -120 -83 -206
-155 -32 -27 -87 -72 -180 -146 -57 -44 -103 -85 -103 -90 0 -5 -6 -9 -14 -9
-7 0 -19 -7 -26 -15 -7 -9 -65 -58 -129 -109 -64 -52 -141 -117 -171 -144 -30
-28 -75 -68 -100 -90 -192 -170 -915 -887 -975 -966 -17 -22 -53 -63 -80 -90
-28 -28 -79 -84 -115 -125 -36 -41 -90 -102 -120 -135 -31 -34 -69 -77 -85
-96 -17 -19 -59 -66 -95 -105 -36 -39 -83 -92 -105 -118 -46 -55 -63 -74 -165
-186 -41 -46 -78 -92 -82 -102 -4 -10 -11 -19 -16 -19 -5 0 -57 -55 -115 -122
-57 -68 -119 -136 -136 -152 -17 -17 -31 -33 -31 -38 0 -4 -31 -40 -70 -79
-38 -40 -70 -76 -70 -81 0 -6 -12 -22 -27 -37 -46 -46 -73 -78 -73 -88 0 -4
-13 -19 -30 -33 -16 -14 -30 -29 -30 -33 0 -5 -15 -23 -32 -41 -18 -18 -48
-50 -67 -72 -18 -21 -47 -55 -65 -74 -17 -20 -51 -60 -76 -90 -25 -29 -52 -61
-60 -70 -8 -8 -47 -54 -86 -100 -39 -47 -92 -107 -117 -135 -26 -27 -47 -56
-47 -62 0 -7 -4 -13 -10 -13 -5 0 -24 -20 -42 -44 -18 -24 -58 -77 -89 -117
-122 -163 -159 -215 -159 -225 0 -7 -7 -15 -16 -18 -8 -3 -13 -10 -10 -15 4
-5 -1 -17 -10 -25 -8 -9 -12 -16 -7 -16 4 0 1 -5 -7 -10 -8 -5 -44 -9 -80 -9
-69 0 -93 -4 -147 -22 -35 -11 -36 -10 -112 53 -8 7 -24 14 -35 15 -11 2 -23
8 -26 13 -8 13 -135 18 -175 7 -16 -5 -39 -10 -50 -11 -11 -2 -20 -4 -20 -5 0
-2 -11 -5 -25 -7 -13 -2 -27 -8 -30 -12 -3 -4 -23 -13 -46 -20 -47 -14 -148
-77 -182 -114 -20 -22 -28 -25 -60 -18 -49 11 -279 30 -362 30 -36 0 -90 2
-120 4 -183 13 -511 38 -605 46 -143 13 -760 12 -990 0 -155 -9 -236 -16 -415
-36 -87 -10 -146 -15 -160 -15 -8 0 -46 -4 -85 -9 -125 -16 -623 -39 -795 -37
-63 0 -151 -2 -195 -6 -44 -4 -127 -7 -184 -7 l-104 0 -47 44 c-26 24 -65 53
-86 64 -62 31 -182 55 -234 46 -62 -11 -64 -11 -70 -14 -3 -1 -15 -3 -28 -6
-13 -2 -36 -11 -53 -19 -29 -16 -69 -7 -69 15 0 11 -105 94 -115 91 -4 -2 -11
1 -14 7 -3 5 -37 22 -76 38 -67 27 -77 28 -225 28 -167 0 -239 -13 -354 -62
l-59 -26 -30 35 c-85 97 -158 178 -209 232 -32 33 -58 64 -58 68 0 3 -16 20
-35 36 -19 17 -35 35 -35 40 0 6 -28 38 -62 71 -35 34 -97 98 -138 143 -252
274 -637 661 -830 834 -14 12 -57 51 -96 86 -39 35 -90 81 -115 102 -24 21
-55 48 -69 61 -71 65 -260 226 -266 226 -4 0 -17 10 -29 23 -60 59 -107 102
-114 102 -4 0 -21 14 -37 31 -16 17 -45 41 -64 54 -19 13 -46 34 -60 46 -147
137 -203 186 -230 202 -14 9 -29 20 -35 26 -20 21 -153 136 -158 136 -2 0 -22
16 -43 35 -21 19 -41 35 -45 35 -4 0 -29 20 -55 45 -27 25 -55 45 -62 45 -7 0
-15 6 -18 14 -5 12 -126 112 -131 108 -1 0 -24 20 -50 45 -26 25 -104 93 -173
152 -68 58 -145 125 -171 149 -25 23 -49 42 -53 42 -6 0 -30 19 -69 56 -12 12
-32 24 -45 28 -12 4 -20 11 -17 16 5 8 -45 50 -59 50 -3 0 -16 10 -30 23 -41
38 -107 91 -138 111 -16 10 -42 30 -57 45 -115 109 -476 381 -507 381 -6 0
-15 7 -18 16 -3 8 -10 12 -16 9 -5 -3 -10 -2 -10 4 0 11 -56 41 -75 41 -7 0
-16 7 -19 16 -3 8 -10 12 -16 9 -5 -3 -10 -2 -10 3 0 10 -185 100 -220 106
-14 3 -26 5 -27 7 -2 1 -6 2 -10 4 -5 1 -20 7 -35 13 -24 10 -96 24 -173 33
-122 15 -376 -5 -430 -34 -11 -6 -28 -12 -38 -14 -34 -6 -102 -46 -155 -90
-54 -46 -136 -156 -125 -167 4 -3 1 -6 -5 -6 -14 0 -25 -53 -24 -112 0 -27 -3
-48 -7 -48 -4 0 -8 -14 -9 -30 0 -17 -3 -38 -7 -48 -6 -20 18 -204 31 -242 3
-8 8 -30 10 -49 3 -19 8 -39 11 -45 8 -12 9 -15 18 -61 3 -16 9 -39 12 -50 4
-11 8 -26 9 -34 9 -47 28 -119 38 -136 6 -11 11 -24 12 -30 2 -37 30 -150 51
-205 3 -8 8 -24 10 -35 2 -11 6 -27 10 -35 3 -8 7 -22 8 -30 3 -23 34 -108 50
-141 9 -16 15 -31 15 -34 0 -3 0 -6 1 -7 0 -2 2 -10 4 -18 1 -8 16 -51 33 -95
17 -44 54 -143 82 -220 29 -77 60 -155 71 -173 11 -19 17 -38 14 -43 -4 -5 -2
-9 2 -9 5 0 10 -10 10 -22 1 -13 7 -24 13 -26 5 -2 10 -10 10 -18 0 -7 9 -33
20 -56 11 -24 33 -79 51 -123 17 -44 36 -91 41 -105 6 -14 12 -29 14 -35 3
-12 68 -162 99 -230 13 -28 27 -63 30 -78 4 -15 10 -27 14 -27 4 0 8 -6 8 -12
1 -16 112 -278 144 -339 13 -24 24 -49 25 -55 1 -7 17 -47 37 -90 19 -44 40
-94 47 -111 7 -18 16 -33 21 -33 5 0 8 -3 7 -7 -1 -5 3 -23 9 -41 7 -18 13
-36 13 -40 1 -4 8 -17 16 -29 8 -13 12 -23 9 -23 -3 0 3 -17 14 -37 10 -21 20
-42 20 -48 1 -5 9 -20 17 -32 8 -13 12 -23 9 -23 -3 0 8 -26 24 -59 17 -32 27
-61 24 -65 -4 -3 0 -6 7 -6 7 0 11 -3 7 -6 -3 -3 -1 -18 5 -33 5 -14 30 -82
54 -150 25 -69 49 -131 55 -138 7 -7 8 -13 4 -13 -4 0 -2 -7 5 -15 7 -8 9 -15
5 -15 -4 0 -2 -6 4 -13 6 -8 8 -16 5 -20 -3 -3 0 -16 7 -29 7 -12 14 -31 16
-41 2 -10 9 -28 15 -40 7 -12 13 -24 14 -27 0 -3 3 -12 6 -20 3 -8 22 -69 43
-135 73 -236 137 -417 155 -435 3 -3 6 -16 8 -30 1 -13 7 -27 13 -31 6 -3 10
-8 8 -10 -4 -7 13 -53 24 -68 6 -7 12 -20 13 -28 4 -23 106 -236 120 -248 6
-6 14 -20 18 -33 4 -12 12 -22 17 -22 6 0 7 -5 4 -10 -3 -6 1 -13 9 -16 9 -3
14 -9 11 -14 -2 -4 7 -17 20 -28 21 -18 30 -43 27 -73 -1 -3 4 -73 9 -155 6
-82 10 -162 10 -178 -1 -15 3 -94 9 -174 12 -169 0 -386 -31 -580 -11 -67 -17
-127 -14 -132 3 -6 2 -10 -2 -10 -9 0 -40 -170 -37 -197 1 -7 -3 -13 -8 -13
-6 0 -8 -12 -5 -30 4 -18 2 -30 -4 -30 -6 0 -9 -15 -8 -33 2 -18 0 -37 -4 -44
-4 -6 -7 -26 -7 -45 -1 -37 -6 -108 -10 -123 -2 -5 -4 -21 -5 -35 -2 -14 -8
-61 -14 -105 -9 -71 -39 -477 -39 -530 0 -34 -11 -295 -17 -400 -7 -107 16
-524 31 -565 3 -8 8 -33 11 -55 2 -22 9 -58 14 -80 6 -22 11 -47 13 -55 1 -8
6 -34 11 -58 4 -23 11 -45 16 -48 4 -2 6 -11 3 -18 -3 -8 -1 -17 4 -20 6 -3 8
-15 5 -26 -3 -12 0 -20 8 -20 7 0 10 -3 6 -6 -3 -3 8 -43 25 -88 16 -44 32
-91 34 -103 4 -21 85 -235 102 -270 5 -10 20 -40 33 -68 13 -27 26 -52 29 -55
3 -3 5 -9 6 -15 3 -24 17 -55 26 -55 5 0 6 -4 3 -10 -3 -5 -1 -10 4 -10 6 0
10 -4 8 -8 -3 -12 45 -112 55 -112 5 0 7 -4 3 -9 -3 -5 2 -16 10 -25 9 -8 15
-18 15 -21 -1 -11 53 -110 64 -117 6 -4 7 -8 2 -8 -5 0 -2 -8 7 -17 8 -10 19
-30 22 -45 4 -16 11 -28 17 -28 5 0 6 -4 3 -10 -3 -5 -1 -10 5 -10 6 0 8 -4 5
-10 -3 -5 -1 -10 5 -10 6 0 8 -4 5 -10 -3 -5 -1 -10 4 -10 6 0 10 -3 9 -8 0
-4 1 -14 5 -22 27 -70 71 -194 83 -235 8 -27 18 -57 21 -65 4 -8 7 -18 7 -22
1 -3 4 -9 8 -13 4 -4 4 -13 1 -21 -3 -8 0 -14 7 -14 6 0 9 -4 5 -9 -3 -5 -1
-12 5 -16 5 -3 10 -19 10 -34 0 -15 5 -32 12 -39 7 -7 9 -12 6 -12 -6 0 21
-113 38 -160 3 -8 5 -16 5 -17 0 -2 5 -17 10 -35 6 -18 12 -44 14 -58 2 -14
13 -64 25 -112 17 -74 32 -190 32 -263 0 -34 38 -349 44 -369 4 -10 8 -35 10
-55 2 -20 6 -56 9 -81 9 -67 13 -109 19 -170 3 -30 9 -68 13 -85 3 -16 5 -42
4 -57 -1 -14 3 -29 9 -33 5 -3 8 -10 5 -15 -3 -5 0 -40 6 -77 6 -37 13 -90 15
-118 3 -27 7 -66 9 -85 2 -19 6 -57 8 -85 6 -70 28 -208 34 -218 3 -4 7 -27 9
-50 7 -58 64 -289 75 -303 5 -6 6 -14 2 -17 -3 -4 -1 -13 5 -20 7 -8 9 -17 5
-20 -3 -4 -1 -12 5 -19 6 -7 11 -16 11 -20 1 -5 1 -9 2 -10 0 -2 3 -14 5 -28
2 -13 10 -28 17 -32 6 -4 8 -8 3 -8 -5 0 -3 -7 4 -15 7 -8 10 -15 6 -15 -4 0
3 -18 14 -40 11 -22 18 -40 16 -40 -4 0 73 -178 109 -252 10 -21 23 -38 27
-38 5 0 6 -4 3 -10 -3 -5 -1 -10 5 -10 6 0 8 -4 5 -10 -3 -6 -2 -10 3 -10 6 0
20 -21 32 -47 36 -78 250 -394 314 -465 9 -10 16 -22 16 -28 0 -5 5 -10 10
-10 6 0 10 -7 10 -15 0 -8 5 -15 10 -15 6 0 10 -7 10 -15 0 -8 9 -20 20 -27
11 -7 20 -18 20 -24 0 -7 7 -15 16 -18 8 -3 13 -10 9 -15 -3 -6 6 -17 19 -26
14 -9 28 -26 32 -37 3 -11 70 -86 148 -165 77 -80 143 -148 146 -151 3 -4 27
-25 54 -46 26 -22 59 -50 72 -63 13 -12 27 -23 32 -23 6 0 17 -11 26 -25 9
-14 21 -23 25 -20 5 3 11 -1 14 -9 3 -8 27 -29 54 -47 26 -18 52 -39 56 -46 4
-7 14 -13 21 -13 8 0 16 -7 20 -15 3 -8 12 -15 20 -15 9 0 23 -11 32 -25 9
-14 23 -25 30 -25 8 0 14 -4 14 -8 0 -11 184 -142 199 -142 6 0 11 -4 11 -9 0
-9 207 -147 238 -159 9 -3 23 -12 30 -19 7 -7 19 -13 27 -13 7 0 16 -7 19 -16
3 -8 10 -12 16 -9 5 3 10 1 10 -4 0 -6 7 -11 15 -11 8 0 15 -5 15 -11 0 -5 5
-7 10 -4 6 3 10 2 10 -3 0 -6 51 -38 113 -72 61 -35 141 -80 177 -101 36 -21
74 -41 85 -45 11 -5 29 -16 39 -26 10 -9 23 -15 28 -12 4 3 8 0 8 -6 0 -6 4
-9 9 -6 5 4 11 3 13 -1 3 -7 88 -48 213 -103 22 -10 78 -35 124 -56 47 -22 87
-39 90 -39 4 -1 16 -6 27 -13 12 -6 24 -8 28 -5 3 3 6 1 6 -6 0 -7 4 -10 9 -6
5 3 12 1 16 -5 4 -6 11 -8 16 -5 5 4 9 1 9 -5 0 -6 5 -8 10 -5 6 3 10 2 10 -3
0 -7 69 -36 90 -37 3 -1 15 -6 26 -13 12 -6 24 -8 28 -5 3 3 6 2 6 -4 0 -10
75 -36 94 -33 5 1 12 -2 15 -7 9 -13 92 -43 102 -37 5 3 9 1 9 -4 0 -8 51 -24
85 -27 6 0 16 -4 23 -8 7 -5 26 -9 42 -9 17 -1 30 -5 30 -10 0 -5 6 -8 13 -7
6 1 19 -1 27 -4 8 -3 101 -24 205 -46 200 -43 343 -79 360 -92 17 -12 117 -39
126 -33 5 3 9 0 9 -5 0 -6 4 -11 8 -11 5 0 77 -45 160 -100 82 -55 155 -100
161 -100 6 0 15 -9 21 -20 6 -11 17 -20 25 -20 8 0 15 -4 15 -10 0 -5 6 -10
14 -10 8 0 16 -6 19 -13 6 -17 197 -127 220 -127 9 0 17 -4 17 -9 0 -9 54 -35
66 -31 4 1 10 -2 13 -8 8 -12 71 -33 82 -26 5 3 9 0 9 -6 0 -6 4 -9 9 -5 5 3
12 1 16 -5 4 -6 10 -8 15 -5 5 3 11 1 14 -4 5 -8 73 -28 117 -34 8 -2 20 -6
27 -11 7 -4 16 -5 19 -2 3 3 11 2 17 -3 15 -13 137 -43 144 -37 3 3 11 1 17
-4 7 -6 39 -12 71 -15 32 -3 81 -10 109 -15 27 -6 101 -12 165 -15 63 -3 135
-7 160 -10 64 -8 856 -8 910 -1 25 4 52 7 60 7 8 1 44 8 80 16 36 8 76 17 90
18 14 2 50 6 80 10 30 4 99 20 155 36 106 32 122 36 157 44 23 5 113 33 138
42 19 8 18 7 60 17 19 5 40 11 45 14 6 4 16 7 24 9 8 1 18 7 22 15 4 7 11 9
15 6 4 -4 16 -2 28 4 11 7 24 13 29 14 4 1 9 3 12 4 8 4 17 7 53 15 17 4 32
12 32 18 0 6 3 7 7 4 3 -4 17 0 30 8 13 9 23 13 23 11 0 -4 116 25 155 38 6 2
13 4 17 5 5 1 32 10 62 22 39 14 66 18 91 13 24 -4 35 -3 35 6 0 8 10 9 29 5
19 -4 34 -1 44 9 9 9 23 13 31 10 9 -3 16 -1 16 6 0 6 4 9 9 6 5 -4 35 0 68 9
58 14 125 26 173 30 14 1 25 3 25 4 0 5 54 12 280 41 50 7 97 14 105 17 8 3
38 7 65 9 28 2 93 15 145 29 110 30 131 35 145 38 6 2 16 6 23 10 6 5 12 5 12
1 0 -3 11 1 25 10 14 9 25 13 25 9 0 -5 4 -3 8 3 4 6 31 18 60 28 52 16 179
72 237 103 17 9 62 32 100 52 39 20 73 41 77 46 5 7 8 7 8 0 0 -6 3 -6 8 0 4
6 45 28 92 49 47 21 108 48 135 61 28 12 79 35 115 50 36 16 70 34 76 42 6 7
14 10 17 6 4 -3 7 -2 7 3 0 5 23 18 51 29 30 12 61 33 75 51 13 17 53 50 89
75 36 24 65 47 65 51 0 5 6 8 14 8 8 0 16 3 18 8 2 4 29 24 61 45 31 21 57 42
57 48 0 5 6 9 13 9 16 0 115 75 184 139 29 28 57 51 61 51 8 2 233 212 297
278 22 23 46 42 52 42 7 0 16 6 20 13 4 6 114 117 244 245 130 127 233 232
231 232 -3 0 5 11 18 25 12 13 26 23 30 20 8 -5 240 230 240 243 0 5 29 35 65
67 36 31 65 62 65 68 0 7 44 55 97 107 119 115 163 164 163 181 0 7 3 9 6 6 6
-6 49 41 49 53 0 3 21 26 46 53 25 26 63 73 85 105 21 31 42 59 45 62 17 14
99 121 99 130 0 5 4 10 8 10 13 0 152 197 240 340 42 69 122 226 122 241 0 6
8 23 18 37 15 22 95 213 97 232 0 3 3 10 6 15 9 15 68 196 73 225 3 14 5 27 6
30 1 3 1 13 0 24 -1 10 3 15 8 12 7 -4 10 7 10 26 0 18 3 51 7 73 4 22 8 54 9
70 2 17 4 35 6 40 20 62 13 996 -7 1028 -3 6 -7 42 -9 81 -2 39 -5 114 -8 166
-3 52 -8 165 -11 250 -2 85 -11 225 -20 310 -9 99 -13 194 -9 265 4 61 1 167
-6 240 -6 72 -13 153 -16 180 -2 28 -6 79 -9 115 -3 36 -10 91 -16 122 -13 75
-13 423 0 564 9 94 26 187 82 463 5 24 6 47 3 52 -3 5 0 9 7 9 7 0 9 10 6 29
-4 16 -2 31 3 33 5 2 11 19 14 38 3 19 10 60 17 90 7 30 12 70 12 88 0 17 5
32 10 32 5 0 7 17 4 40 -3 22 -1 43 5 46 5 3 8 20 7 38 -1 17 2 39 6 49 4 9 5
27 2 39 -4 12 -2 27 2 32 18 21 32 472 21 626 -6 80 -14 154 -17 165 -3 11 -8
36 -9 55 -7 67 -13 115 -19 150 -4 19 -7 42 -7 50 0 8 -2 22 -5 30 -7 17 -9
30 -17 82 -3 20 -11 49 -17 65 -16 40 -21 65 -20 91 0 12 -3 22 -8 22 -5 0 -9
10 -9 23 0 24 -91 309 -101 317 -6 5 -13 26 -15 50 -1 9 -5 20 -9 27 -4 6 -4
18 -1 26 3 8 0 18 -5 22 -6 3 -9 11 -6 16 4 5 3 15 -1 21 -8 13 -9 17 -19 88
-3 25 -8 52 -12 60 -19 47 -18 474 2 605 12 81 18 122 19 143 0 12 5 22 10 22
5 0 6 18 2 40 -4 27 -3 40 5 40 8 0 9 13 5 40 -4 25 -2 40 4 40 6 0 9 19 8 43
0 23 4 76 10 117 6 41 13 92 15 112 3 20 11 43 19 51 18 19 134 255 140 287 2
8 5 17 8 20 5 4 27 69 36 103 1 4 3 9 4 12 1 3 4 10 5 15 1 6 4 12 5 15 1 3 4
10 5 15 1 6 4 12 5 15 1 3 3 8 5 13 1 4 7 20 13 35 7 15 11 31 10 35 -1 4 6
25 15 46 10 21 24 66 33 98 8 33 19 67 25 76 12 22 80 213 81 230 1 6 5 12 10
12 4 0 7 3 7 8 -1 4 0 10 1 15 1 4 4 12 5 17 1 6 4 12 5 15 1 3 3 8 5 13 1 4
7 21 14 37 7 17 14 35 15 40 1 6 5 16 9 23 5 6 5 12 0 12 -4 0 -3 4 3 8 10 7
46 101 42 112 -1 3 5 16 12 30 8 14 15 27 15 30 0 3 6 15 13 28 7 12 10 22 6
22 -3 0 -1 7 6 15 7 8 9 15 4 15 -5 0 -4 4 2 8 6 4 28 52 48 107 21 55 50 134
66 175 54 142 90 246 90 263 0 9 5 19 10 22 6 3 10 15 10 26 0 10 5 19 12 19
6 0 8 3 5 7 -4 3 -2 12 4 20 6 7 8 13 4 13 -4 0 -3 6 2 13 6 6 14 26 18 42 10
36 10 36 19 57 4 9 8 22 10 30 1 7 5 18 8 24 8 12 105 315 113 349 2 11 16 50
29 88 14 37 23 67 20 67 -4 0 -1 7 6 15 7 8 9 15 5 15 -4 0 -2 6 4 14 6 8 11
18 10 22 -1 5 5 25 14 45 9 20 18 47 20 60 2 13 7 31 10 39 17 45 125 407 132
445 9 45 11 51 18 63 5 6 6 12 3 12 -3 0 3 22 13 48 11 27 22 61 25 78 7 43
18 85 28 114 14 37 40 138 43 165 2 17 5 30 6 30 1 0 3 9 5 20 10 58 14 78 32
165 11 52 23 120 27 150 4 30 9 66 11 80 14 90 18 168 17 340 -1 107 -4 211
-6 230 -3 19 -8 57 -11 85 -4 27 -9 59 -13 70 -4 11 -7 27 -8 35 -3 30 -49
160 -57 160 -4 0 -5 7 -2 15 4 8 1 15 -7 15 -7 0 -9 3 -6 6 8 8 -31 77 -90
161 -97 137 -278 261 -398 274 -17 2 -34 6 -40 10 -12 8 -192 8 -200 1z m147
-599 c43 -41 107 -174 99 -207 -1 -5 1 -16 5 -25 3 -9 9 -29 11 -46 9 -48 7
-344 -1 -410 -5 -33 -8 -67 -8 -75 0 -8 -4 -28 -8 -45 -5 -16 -12 -50 -15 -75
-8 -57 -11 -72 -18 -90 -4 -8 -18 -69 -32 -135 -14 -66 -33 -147 -41 -180 -9
-33 -18 -67 -19 -75 -2 -8 -4 -15 -6 -15 -1 0 -3 -9 -5 -20 -1 -11 -5 -29 -7
-40 -3 -11 -7 -27 -9 -35 -1 -8 -7 -18 -11 -21 -4 -3 -10 -19 -12 -35 -2 -16
-4 -30 -6 -31 -1 -2 -2 -6 -4 -10 -1 -5 -4 -15 -8 -23 -6 -16 -19 -68 -22 -85
0 -5 -7 -23 -13 -39 -7 -16 -14 -36 -16 -45 -2 -9 -6 -23 -9 -31 -4 -8 -8 -24
-10 -35 -2 -11 -7 -27 -10 -35 -4 -8 -8 -24 -10 -35 -2 -11 -17 -63 -34 -115
-18 -52 -33 -106 -35 -120 -2 -14 -9 -35 -16 -47 -6 -12 -14 -32 -16 -45 -3
-13 -5 -24 -7 -25 -1 -2 -2 -6 -4 -10 -1 -5 -7 -20 -13 -35 -6 -15 -13 -40
-16 -55 -2 -15 -5 -30 -6 -33 -1 -3 -2 -8 -1 -12 0 -5 -4 -8 -11 -8 -6 0 -8
-3 -5 -7 4 -3 3 -11 -2 -17 -12 -14 -42 -116 -34 -116 3 0 1 -6 -5 -12 -5 -7
-22 -51 -37 -98 -15 -47 -36 -112 -48 -145 -12 -33 -22 -63 -23 -67 -1 -5 -3
-10 -4 -13 -1 -3 -3 -8 -4 -12 -1 -5 -4 -12 -7 -18 -8 -13 -23 -68 -21 -77 1
-5 -3 -8 -9 -8 -5 0 -7 -4 -4 -10 3 -5 1 -10 -6 -10 -7 0 -9 -3 -6 -7 4 -3 2
-12 -4 -20 -6 -7 -8 -13 -4 -13 4 0 2 -7 -5 -15 -7 -8 -9 -15 -5 -15 4 0 2 -6
-4 -13 -6 -8 -12 -22 -14 -33 -2 -10 -9 -29 -15 -41 -7 -13 -9 -23 -5 -23 4 0
3 -4 -3 -8 -12 -7 -60 -141 -56 -155 1 -4 -5 -15 -13 -23 -8 -9 -13 -19 -10
-24 3 -5 1 -11 -5 -15 -6 -4 -8 -11 -5 -16 4 -5 2 -9 -3 -9 -8 0 -18 -30 -22
-68 -1 -4 -7 -14 -14 -22 -10 -12 -40 -88 -51 -130 -1 -3 -10 -23 -20 -45 -15
-35 -92 -242 -99 -270 -5 -17 -26 -69 -37 -90 -5 -12 -12 -30 -14 -40 -2 -11
-4 -21 -5 -22 -2 -2 -4 -7 -5 -13 -1 -5 -4 -12 -5 -15 -1 -3 -4 -9 -5 -15 -1
-5 -3 -12 -4 -15 0 -3 -1 -8 -2 -12 -1 -5 -9 -24 -19 -43 -27 -53 -108 -321
-126 -414 -24 -132 -34 -217 -33 -281 1 -51 -4 -93 -11 -102 -2 -2 -4 -7 -5
-13 -1 -5 -4 -12 -5 -15 -1 -3 -3 -8 -5 -12 -1 -5 -4 -15 -8 -23 -61 -156
-140 -408 -172 -545 -1 -5 -7 -23 -14 -40 -7 -16 -13 -45 -14 -62 -1 -18 -5
-33 -9 -33 -3 0 -9 -22 -13 -48 -3 -26 -8 -61 -11 -77 -14 -89 -17 -145 -17
-290 0 -176 8 -294 24 -358 6 -23 10 -54 10 -69 -1 -16 4 -28 10 -28 6 0 8 -8
4 -19 -3 -11 -1 -22 5 -26 6 -3 8 -10 5 -14 -6 -10 67 -284 90 -338 9 -21 26
-67 36 -103 11 -36 23 -72 26 -80 3 -8 7 -28 9 -44 2 -16 9 -34 14 -41 5 -7 8
-14 5 -16 -2 -3 0 -22 6 -44 5 -22 12 -53 14 -70 3 -16 8 -43 11 -60 10 -40
11 -50 19 -124 4 -35 11 -74 15 -87 16 -40 5 -566 -14 -681 -9 -57 -15 -106
-14 -110 1 -5 -4 -34 -11 -66 -7 -32 -10 -61 -7 -64 3 -4 2 -11 -3 -17 -5 -6
-12 -34 -14 -61 -3 -28 -7 -57 -10 -65 -11 -31 -25 -85 -26 -100 0 -8 -16 -90
-35 -183 -72 -345 -95 -634 -76 -967 6 -118 16 -244 21 -280 5 -36 9 -76 9
-89 0 -13 5 -53 11 -90 6 -36 10 -145 10 -241 0 -96 4 -204 9 -240 20 -136 24
-194 41 -510 6 -113 13 -227 16 -255 4 -56 8 -102 17 -220 9 -121 6 -674 -4
-720 -4 -22 -11 -49 -13 -60 -3 -11 -15 -60 -25 -110 -55 -248 -82 -364 -97
-405 -9 -25 -18 -49 -19 -55 -1 -5 -13 -30 -26 -55 -12 -25 -23 -47 -22 -50 0
-3 -6 -9 -14 -13 -8 -4 -14 -12 -14 -18 0 -5 -16 -35 -35 -65 -19 -30 -36 -60
-38 -67 -1 -7 -5 -14 -8 -17 -3 -3 -25 -34 -49 -69 -23 -35 -49 -71 -56 -80
-42 -52 -114 -151 -114 -157 0 -3 -11 -15 -25 -26 -14 -11 -25 -26 -25 -34 0
-8 -4 -14 -10 -14 -5 0 -10 -6 -10 -14 0 -8 -14 -24 -30 -36 -17 -12 -28 -25
-26 -29 3 -4 -8 -18 -25 -30 -16 -12 -27 -26 -24 -30 2 -5 -6 -16 -20 -25 -14
-9 -25 -23 -25 -30 0 -8 -7 -16 -15 -20 -8 -3 -20 -17 -27 -31 -6 -14 -17 -25
-25 -25 -7 0 -13 -3 -13 -7 -1 -8 -30 -41 -244 -268 -143 -153 -741 -748 -875
-872 -46 -43 -114 -108 -150 -144 -37 -36 -71 -68 -78 -70 -6 -2 -50 -41 -98
-86 -48 -46 -91 -83 -96 -83 -5 0 -12 -7 -15 -15 -4 -8 -12 -15 -20 -15 -8 0
-19 -9 -26 -20 -7 -11 -17 -20 -23 -20 -6 0 -22 -11 -37 -25 -15 -14 -32 -25
-38 -25 -6 0 -13 -7 -16 -15 -4 -8 -10 -15 -16 -15 -14 0 -138 -89 -168 -120
-14 -14 -29 -27 -35 -29 -5 -2 -28 -18 -50 -36 -73 -60 -236 -166 -246 -160
-5 4 -9 2 -9 -3 0 -5 -6 -9 -12 -9 -7 0 -42 -14 -78 -30 -36 -17 -110 -50
-165 -74 -55 -24 -102 -47 -103 -52 -2 -4 -8 -5 -13 -1 -5 3 -9 0 -9 -7 0 -7
-3 -9 -6 -6 -4 3 -16 1 -28 -5 -11 -7 -30 -13 -41 -15 -10 -2 -22 -7 -25 -12
-3 -4 -23 -14 -45 -21 -22 -7 -46 -17 -52 -23 -7 -5 -13 -6 -13 -2 0 4 -7 2
-15 -5 -8 -7 -15 -9 -15 -5 0 4 -7 2 -15 -5 -8 -7 -15 -10 -15 -7 0 3 -39 -5
-87 -19 -49 -14 -106 -27 -128 -30 -22 -2 -51 -7 -65 -10 -14 -3 -47 -8 -73
-10 -27 -3 -110 -16 -185 -30 -75 -14 -147 -26 -159 -25 -12 0 -24 -3 -27 -8
-3 -4 -34 -9 -68 -10 -35 -2 -81 -5 -103 -7 -22 -2 -49 -4 -59 -4 -11 -1 -28
-6 -38 -11 -11 -6 -28 -12 -39 -15 -10 -2 -29 -6 -41 -9 -39 -9 -67 -15 -95
-20 -116 -24 -382 -101 -473 -138 -14 -5 -29 -11 -35 -13 -62 -19 -142 -51
-147 -59 -4 -5 -8 -6 -8 -2 0 5 -6 5 -12 0 -7 -4 -24 -9 -38 -11 -14 -2 -27
-7 -28 -13 -2 -5 -8 -7 -13 -3 -5 3 -9 1 -9 -4 0 -5 -10 -10 -22 -10 -26 0
-136 -27 -176 -44 -33 -14 -22 -11 -172 -43 -69 -14 -132 -27 -140 -27 -8 0
-22 -2 -30 -5 -8 -4 -26 -7 -40 -9 -14 -1 -52 -6 -85 -9 -74 -9 -332 -9 -610
-1 -343 10 -440 17 -565 40 -41 8 -88 16 -105 19 -46 9 -66 14 -114 31 -24 9
-47 13 -52 10 -5 -3 -9 -1 -9 4 0 5 -26 15 -57 22 -32 7 -79 23 -105 36 -27
14 -48 21 -48 17 0 -4 -7 2 -16 13 -8 10 -12 12 -8 4 5 -10 0 -9 -14 4 -12 11
-22 15 -22 11 0 -5 -7 0 -15 11 -8 10 -15 16 -15 12 0 -4 -12 4 -26 17 -15 14
-31 25 -35 25 -4 0 -20 11 -35 25 -15 14 -33 25 -40 25 -7 0 -14 4 -16 8 -6
16 -373 263 -387 260 -3 -1 -19 4 -36 11 -16 7 -37 14 -45 16 -8 2 -17 4 -20
5 -3 1 -8 2 -12 1 -5 0 -8 3 -8 8 0 5 -15 13 -33 17 -39 10 -38 9 -57 16 -22
9 -113 38 -130 43 -8 2 -16 4 -17 4 -2 1 -6 1 -10 2 -5 0 -14 5 -21 11 -7 6
-15 8 -19 5 -3 -4 -13 -2 -22 2 -9 5 -36 12 -61 15 -78 10 -98 14 -132 24 -18
6 -82 20 -143 32 -60 12 -117 24 -125 27 -8 4 -19 8 -25 9 -5 1 -13 3 -17 4
-5 1 -12 4 -18 5 -5 1 -12 4 -15 5 -3 1 -9 4 -15 5 -5 1 -12 4 -15 5 -3 1 -9
4 -15 5 -5 1 -11 3 -12 5 -2 1 -10 3 -18 5 -17 4 -199 75 -280 109 -30 13 -66
27 -79 31 -13 4 -60 24 -105 45 -45 20 -93 40 -108 44 -16 3 -28 11 -28 17 0
6 -4 8 -9 4 -5 -3 -16 1 -24 9 -8 8 -23 16 -33 18 -10 2 -21 6 -24 9 -7 8 -92
47 -110 51 -8 2 -17 6 -20 9 -10 11 -124 69 -137 69 -7 0 -13 4 -13 8 0 5 -26
21 -58 37 -31 15 -62 35 -69 44 -7 9 -13 12 -13 8 0 -4 -9 0 -20 10 -10 10
-50 34 -87 53 -37 19 -70 38 -73 41 -3 3 -32 23 -65 44 -33 20 -82 51 -109 69
-27 17 -53 30 -58 29 -4 -2 -8 1 -8 6 0 4 -32 28 -71 52 -39 24 -89 61 -112
81 -22 20 -44 35 -48 33 -4 -3 -9 2 -13 10 -3 8 -12 15 -21 15 -8 0 -15 4 -15
8 0 8 -95 82 -106 82 -3 0 -15 11 -26 25 -11 14 -23 23 -27 20 -4 -2 -18 9
-30 26 -12 16 -26 27 -32 24 -5 -4 -9 -2 -9 3 0 4 -28 30 -62 58 -92 72 -398
382 -398 402 0 4 -11 19 -25 34 -14 15 -25 32 -25 37 0 6 -9 16 -20 23 -11 7
-20 18 -20 24 0 6 -11 23 -25 38 -13 14 -22 26 -19 26 7 0 -68 94 -78 98 -5 2
-8 10 -8 17 0 7 -7 15 -15 19 -8 3 -15 12 -15 21 0 8 -4 15 -10 15 -5 0 -10 4
-10 9 0 12 -101 165 -112 169 -4 2 -8 8 -8 14 0 5 -12 30 -27 56 -16 26 -28
49 -28 52 -3 20 -18 50 -26 50 -6 0 -8 4 -5 9 3 4 -6 23 -19 41 -13 18 -22 37
-20 41 3 4 1 10 -5 14 -6 4 -8 11 -5 16 4 5 1 9 -5 9 -6 0 -9 4 -6 9 4 5 2 11
-2 13 -14 5 -99 283 -127 413 -15 66 -29 127 -32 135 -3 8 -7 31 -10 50 -2 19
-11 87 -19 150 -9 63 -18 135 -20 160 -2 25 -6 63 -9 85 -2 22 -4 53 -5 68 0
16 -3 34 -7 40 -4 7 -8 26 -9 42 -1 17 -5 53 -9 80 -3 28 -6 61 -6 75 0 14 -3
32 -6 40 -4 8 -8 29 -9 45 -5 70 -16 163 -25 205 -13 61 -18 95 -25 160 -3 30
-8 71 -10 90 -3 19 -6 44 -6 55 -2 85 -20 284 -29 318 -14 51 -18 72 -24 115
-4 32 -40 173 -52 202 -10 26 -23 74 -27 105 -2 11 -5 21 -6 23 -3 2 -3 4 -13
55 -5 20 -12 37 -17 37 -6 0 -10 13 -10 28 0 16 -3 32 -7 36 -4 4 -9 18 -11
32 -5 38 -53 187 -64 202 -6 6 -8 12 -4 12 7 0 -33 111 -45 124 -5 6 -9 18 -9
28 0 10 -4 18 -10 18 -5 0 -9 3 -7 8 4 12 -45 122 -55 122 -5 0 -6 5 -3 10 3
6 1 10 -6 10 -7 0 -10 3 -6 6 7 7 -60 146 -75 155 -5 3 -9 8 -8 10 4 8 -24 59
-32 59 -4 0 -7 3 -6 8 4 14 -14 52 -24 52 -6 0 -9 3 -5 6 3 3 -8 29 -25 57
-17 29 -31 58 -31 65 0 6 -4 12 -9 12 -5 0 -6 5 -3 10 3 6 1 10 -5 10 -6 0 -8
5 -5 10 3 5 1 10 -6 10 -7 0 -10 3 -7 6 5 5 -30 96 -88 229 -9 22 -18 46 -20
53 -1 8 -6 21 -10 30 -9 20 -8 18 -18 59 -4 18 -12 33 -17 33 -6 0 -8 4 -4 9
3 5 1 20 -4 33 -19 47 -24 63 -23 70 1 4 -3 20 -9 35 -15 40 -44 169 -53 243
-24 187 -29 368 -16 668 17 396 17 413 29 547 5 61 9 119 10 130 3 60 9 114
14 122 3 4 8 35 11 68 14 141 17 163 26 216 6 31 8 64 4 73 -3 9 -1 23 6 31 6
8 11 27 9 42 -1 15 1 35 4 43 4 8 8 42 10 75 1 33 5 65 8 70 18 33 18 528 1
559 -3 5 -6 21 -8 35 -1 14 -5 44 -8 66 -4 22 -9 56 -12 75 -2 19 -6 46 -8 60
-3 14 -7 43 -10 65 -3 22 -9 51 -12 65 -4 14 -8 32 -9 40 -1 8 -9 40 -18 70
-62 208 -71 251 -78 365 -4 66 -13 140 -20 165 -7 25 -12 48 -11 52 1 4 -6 26
-14 50 -9 24 -18 59 -21 78 -3 19 -10 41 -15 48 -6 6 -7 12 -4 12 4 0 2 9 -4
19 -5 11 -13 37 -16 58 -3 21 -12 50 -20 65 -8 16 -12 28 -9 28 4 0 3 6 -2 13
-4 6 -9 21 -10 32 -2 11 -6 27 -10 35 -3 8 -8 24 -10 34 -2 11 -17 61 -33 110
-16 50 -32 103 -36 119 -3 15 -10 27 -16 27 -5 0 -7 4 -4 8 3 5 -1 20 -9 35
-8 15 -11 27 -7 27 3 0 1 5 -5 11 -6 6 -9 18 -6 25 3 8 0 14 -7 14 -7 0 -10 7
-6 15 3 8 1 15 -4 15 -6 0 -10 10 -10 23 0 12 -6 31 -14 42 -7 11 -14 23 -14
28 -1 17 -15 73 -20 82 -4 6 -8 19 -9 30 -2 10 -7 22 -11 25 -4 3 -8 12 -9 20
-2 22 -72 219 -86 244 -6 12 -12 24 -13 29 -1 4 -2 8 -3 10 -2 1 -4 12 -7 25
-2 13 -10 33 -16 45 -7 12 -11 25 -10 30 1 4 -3 7 -8 7 -5 0 -9 3 -9 8 3 16
-14 72 -22 72 -5 0 -9 7 -9 15 0 8 -13 45 -29 82 -17 38 -42 100 -57 138 -15
39 -43 104 -62 145 -19 41 -36 80 -38 87 -1 7 -17 45 -36 85 -46 99 -61 131
-64 143 -1 6 -25 63 -53 127 -28 65 -51 122 -51 128 0 5 -4 10 -10 10 -5 0 -9
3 -8 8 5 12 -33 102 -43 102 -5 0 -8 3 -7 8 1 4 -3 17 -10 30 -7 12 -10 22 -7
22 3 0 -2 15 -12 33 -9 17 -18 34 -18 37 -2 10 -46 124 -53 134 -3 6 -7 16 -8
21 -1 6 -12 33 -25 60 -12 28 -23 53 -24 58 -2 4 -4 10 -5 15 -1 4 -2 10 -1
15 0 4 -4 7 -10 7 -5 0 -7 5 -4 10 3 6 1 10 -5 10 -6 0 -8 5 -5 10 3 6 1 10
-4 10 -6 0 -10 3 -9 8 3 8 -41 132 -53 147 -4 6 -20 48 -37 95 -17 47 -51 139
-77 205 -26 66 -54 140 -63 165 -8 25 -20 48 -26 52 -6 4 -7 8 -3 8 4 0 2 10
-5 23 -7 12 -13 24 -13 27 -3 20 -40 118 -48 129 -6 7 -12 18 -13 25 -1 6 -8
25 -15 41 -7 17 -12 33 -11 38 1 4 -3 7 -10 7 -6 0 -9 3 -5 6 3 4 -2 23 -12
43 -11 20 -20 41 -21 46 -1 6 -7 19 -13 30 -6 11 -10 23 -9 28 1 4 -3 7 -8 7
-6 0 -10 7 -10 16 0 8 -11 35 -25 60 -14 25 -25 49 -25 54 0 18 -123 260 -132
260 -5 0 -6 5 -3 10 3 5 2 10 -2 10 -14 0 -15 68 -1 76 7 5 22 9 33 10 36 4
269 5 290 1 52 -10 200 -75 263 -114 28 -19 60 -37 69 -40 9 -4 25 -15 35 -25
10 -10 25 -18 33 -18 8 0 15 -4 15 -10 0 -5 6 -10 14 -10 8 0 17 -7 20 -16 3
-8 10 -13 15 -10 5 4 11 2 13 -3 1 -5 35 -33 73 -61 86 -63 143 -109 164 -132
8 -10 21 -18 28 -18 7 0 17 -9 23 -20 6 -11 17 -20 25 -20 8 0 22 -11 31 -25
9 -14 21 -25 26 -25 6 0 19 -11 30 -25 11 -14 25 -25 31 -25 7 0 18 -9 25 -20
7 -11 19 -20 27 -20 8 0 15 -4 15 -9 0 -4 32 -32 72 -62 40 -29 104 -80 144
-114 39 -33 99 -82 133 -110 66 -54 121 -101 161 -139 14 -13 61 -54 105 -90
44 -37 85 -71 90 -76 15 -16 181 -149 260 -210 39 -29 74 -59 78 -67 4 -7 14
-13 22 -13 8 0 22 -11 31 -25 9 -14 21 -25 26 -25 6 0 23 -12 38 -27 65 -63
87 -83 93 -83 3 0 18 -12 34 -27 54 -51 155 -138 166 -142 6 -2 22 -17 35 -32
13 -16 28 -29 34 -29 5 0 24 -15 43 -32 84 -83 100 -98 106 -98 3 0 23 -15 44
-32 242 -209 509 -444 610 -539 33 -31 78 -72 100 -92 84 -75 545 -546 730
-746 27 -30 69 -74 93 -99 23 -25 42 -48 42 -52 0 -3 11 -13 25 -20 13 -7 27
-21 30 -30 3 -9 32 -45 65 -79 33 -35 60 -65 60 -68 0 -14 221 -238 270 -274
32 -23 65 -57 74 -76 9 -19 36 -46 62 -63 41 -26 54 -29 118 -27 59 2 83 8
146 39 73 35 105 49 125 53 6 1 32 10 58 19 26 9 56 16 66 16 10 0 21 3 25 7
3 4 30 6 58 4 38 -2 63 -11 94 -31 23 -16 44 -26 48 -23 3 4 6 0 6 -7 0 -7 3
-10 7 -7 3 4 12 2 20 -4 7 -6 13 -8 13 -4 0 4 7 2 15 -5 8 -7 15 -9 15 -5 0 4
6 3 13 -3 13 -11 105 -14 122 -4 5 4 16 7 23 8 29 5 100 44 106 59 3 8 27 25
53 37 106 47 109 47 181 -17 66 -57 135 -99 146 -88 3 4 6 2 6 -4 0 -6 68 -11
183 -13 100 -2 238 -5 307 -7 69 -3 198 -4 288 -3 108 1 162 -2 162 -9 0 -7
32 -11 85 -11 51 0 85 4 85 10 0 7 60 10 168 9 252 -2 332 0 344 7 6 4 27 8
47 9 20 1 56 6 81 9 46 8 78 11 210 22 105 9 801 9 1005 1 167 -7 230 -12 310
-23 22 -3 52 -6 66 -8 14 -1 31 -6 37 -10 6 -3 28 -7 49 -7 42 0 145 -7 153
-10 3 -1 34 -3 70 -4 36 0 130 -7 210 -14 143 -12 249 -9 326 10 21 5 44 11
49 12 31 7 75 31 75 40 0 6 2 8 5 5 8 -8 66 51 86 87 15 27 54 55 89 63 8 2
24 6 35 8 50 12 153 4 205 -15 55 -19 71 -20 140 -6 19 4 40 8 45 9 24 4 75
29 75 36 0 11 47 5 62 -7 7 -6 40 -18 73 -28 33 -9 80 -23 105 -31 61 -19 128
-12 192 19 87 43 313 255 493 461 33 38 85 96 115 128 30 33 57 66 60 72 5 14
46 59 100 112 19 18 35 37 36 41 0 5 26 35 57 68 31 33 57 66 57 72 0 7 11 20
25 29 14 9 25 20 25 25 0 5 15 23 33 42 48 50 131 146 141 164 4 8 25 32 45
52 20 20 71 79 115 131 43 52 86 102 95 110 28 26 161 177 161 182 0 3 15 21
33 40 42 45 101 111 157 177 25 29 51 59 58 66 6 8 12 18 12 23 0 6 6 12 13
15 8 3 76 76 153 164 169 193 261 295 315 349 23 23 39 43 38 45 -2 3 40 49
94 103 53 55 97 104 97 109 0 5 43 50 95 101 52 51 95 96 95 101 0 11 316 325
327 325 4 0 65 59 134 130 70 72 131 130 135 130 4 0 38 30 75 68 37 37 84 81
105 97 21 17 54 45 74 62 19 18 94 81 165 140 72 59 132 110 135 113 3 4 13
11 22 16 9 5 40 30 70 56 29 26 82 70 118 99 36 28 76 61 90 72 13 12 32 27
41 32 10 6 33 25 53 43 19 17 39 32 43 32 5 0 27 15 50 33 23 17 58 43 78 57
20 14 42 31 50 38 7 6 18 12 24 12 5 0 15 8 20 18 6 9 11 14 11 9 0 -4 32 16
71 45 101 73 262 152 317 156 38 3 50 -2 74 -25z"/>
<path d="M17644 18477 c-17 -12 -38 -29 -46 -37 -34 -33 -69 -60 -78 -60 -5 0
-19 -13 -32 -30 -12 -16 -26 -30 -30 -30 -5 0 -19 -11 -32 -25 -13 -14 -28
-25 -33 -25 -5 0 -23 -15 -39 -32 -16 -18 -68 -67 -114 -108 -123 -109 -659
-650 -644 -650 3 0 -61 -69 -102 -110 -19 -19 -34 -40 -34 -47 0 -7 -16 -24
-35 -38 -19 -15 -33 -31 -32 -35 1 -5 -18 -29 -43 -53 -25 -25 -54 -55 -66
-68 -44 -51 -104 -127 -104 -132 0 -4 -17 -23 -38 -45 -44 -45 -162 -189 -162
-198 0 -3 -11 -15 -25 -26 -14 -11 -25 -24 -25 -29 0 -5 -8 -18 -17 -28 -52
-58 -97 -114 -233 -288 -82 -106 -156 -206 -164 -222 -9 -16 -22 -31 -31 -35
-9 -3 -14 -10 -11 -15 3 -5 -1 -11 -9 -15 -8 -3 -15 -10 -15 -15 0 -6 -12 -23
-26 -38 -28 -30 -114 -150 -114 -159 0 -3 -6 -11 -12 -18 -7 -7 -40 -50 -73
-95 -33 -45 -79 -108 -102 -139 -24 -31 -43 -62 -43 -69 0 -6 -4 -13 -9 -15
-18 -6 -231 -318 -231 -338 0 -6 -5 -10 -11 -10 -5 0 -7 -4 -4 -10 3 -5 2 -10
-4 -10 -5 0 -35 -50 -66 -111 -59 -119 -68 -165 -40 -218 22 -43 62 -56 134
-46 26 4 53 16 68 31 13 13 28 24 32 24 5 0 41 39 81 86 80 95 142 174 136
174 -2 0 13 19 34 42 21 22 44 53 52 67 16 33 27 47 55 73 12 12 20 24 18 28
-3 5 2 11 11 14 9 4 14 9 11 12 -2 3 5 15 17 28 11 12 39 48 61 80 22 31 57
81 77 109 20 29 47 67 60 85 13 18 37 50 55 70 18 20 40 52 50 71 10 18 28 45
41 60 44 51 182 242 182 251 0 6 4 10 8 10 7 0 75 89 77 100 0 3 13 18 28 34
15 16 27 33 27 37 0 4 12 21 26 36 49 54 54 60 54 65 0 4 9 17 20 30 41 48
146 182 170 217 14 20 31 40 37 44 7 4 13 13 13 19 0 6 6 16 14 22 21 17 216
264 216 273 0 5 12 20 28 35 45 44 62 64 62 75 0 6 7 13 15 17 8 3 15 10 15
15 0 6 12 23 26 38 49 53 54 60 54 65 0 3 16 22 35 42 19 21 35 42 35 48 0 5
12 22 28 37 37 37 62 69 62 81 0 6 4 10 9 10 5 0 24 20 42 45 19 25 49 63 66
83 18 20 33 42 33 49 0 6 3 13 8 15 7 3 59 64 165 192 18 22 39 51 48 65 9 14
45 57 80 94 35 38 68 76 73 85 5 10 22 28 38 41 15 13 28 28 28 32 0 5 8 17
18 28 9 10 28 33 42 51 55 71 76 96 92 108 10 7 30 33 44 58 22 38 25 49 16
70 -15 31 -55 31 -98 1z"/>
<path d="M2906 17784 c-7 -18 22 -114 35 -114 5 0 8 -3 7 -7 -4 -14 53 -114
67 -120 8 -3 15 -9 15 -15 0 -10 51 -87 72 -110 7 -7 25 -31 39 -53 32 -49
110 -143 167 -202 23 -24 42 -47 42 -52 0 -4 37 -45 82 -91 45 -47 83 -88 83
-91 0 -3 19 -26 42 -50 88 -92 123 -132 123 -139 0 -4 9 -10 20 -13 11 -3 23
-13 26 -24 4 -10 21 -34 39 -53 174 -186 261 -282 524 -574 79 -89 163 -181
186 -206 63 -67 195 -216 328 -369 65 -75 126 -143 135 -151 9 -9 22 -23 27
-32 24 -38 127 -158 135 -158 6 0 10 -6 10 -12 0 -7 15 -30 33 -50 17 -20 49
-61 70 -91 21 -29 47 -59 58 -65 10 -7 19 -17 19 -23 0 -10 1 -12 55 -73 19
-21 35 -45 35 -52 0 -8 3 -14 8 -14 4 0 12 -9 17 -19 12 -22 127 -189 147
-211 7 -9 19 -27 27 -42 43 -83 125 -136 184 -120 29 8 112 72 94 72 -4 0 -1
13 7 29 18 33 15 139 -5 186 -7 17 -13 32 -14 35 -1 3 -5 14 -9 25 -5 11 -15
38 -23 60 -20 55 -92 185 -103 185 -4 0 -10 10 -14 23 -3 12 -38 63 -78 112
-40 50 -77 96 -83 103 -5 8 -23 29 -40 47 -16 18 -57 64 -90 101 -33 37 -89
100 -125 139 -36 39 -87 95 -115 125 -48 52 -141 150 -309 323 -42 44 -76 83
-76 88 0 5 -11 14 -25 19 -14 5 -25 16 -25 23 0 8 -38 50 -85 95 -47 45 -85
86 -85 92 0 5 -7 10 -15 10 -9 0 -19 9 -23 19 -8 23 -157 177 -184 192 -10 5
-18 15 -18 21 0 11 -55 68 -424 441 -91 92 -166 172 -166 177 0 6 -5 10 -11
10 -16 0 -59 42 -59 58 0 7 -4 11 -9 8 -9 -6 -45 31 -54 57 -4 9 -11 16 -16
15 -6 -2 -59 47 -118 107 -59 61 -139 138 -178 172 -38 33 -96 84 -128 112
-31 28 -61 51 -65 51 -5 0 -18 9 -29 20 -60 55 -144 79 -157 44z"/>
<path d="M13263 12558 c-21 -11 -39 -24 -41 -29 -2 -5 -10 -9 -17 -9 -18 0
-129 -123 -152 -169 -10 -20 -26 -42 -36 -49 -9 -7 -15 -17 -12 -22 3 -4 2
-10 -3 -12 -15 -6 -71 -104 -88 -153 -20 -58 -27 -165 -14 -200 13 -33 40 -45
116 -52 94 -8 164 29 284 148 81 81 180 210 180 236 0 6 8 25 17 44 23 45 29
140 12 182 -13 33 -72 96 -92 98 -72 9 -120 5 -154 -13z"/>
<path d="M8010 12312 c-59 -23 -98 -69 -110 -129 -7 -30 -9 -62 -5 -71 4 -9 9
-28 11 -42 7 -37 68 -122 128 -177 75 -68 106 -93 117 -93 5 0 9 -4 9 -9 0 -5
8 -11 18 -15 9 -3 33 -15 52 -27 19 -12 42 -23 50 -24 8 -2 15 -4 15 -5 0 -1
11 -4 25 -7 39 -7 55 -11 55 -13 0 -1 24 -3 53 -4 28 -2 52 1 52 6 0 4 3 7 8
7 53 -9 82 30 82 108 -1 95 -61 185 -222 330 -62 57 -122 111 -133 121 -49 46
-148 67 -205 44z"/>
<path d="M13647 11553 c-4 -3 -18 -7 -75 -19 -32 -6 -182 -82 -182 -92 0 -4
-13 -13 -29 -20 -32 -14 -251 -218 -251 -233 0 -6 -11 -22 -24 -36 -13 -14
-30 -37 -38 -52 -7 -14 -20 -34 -29 -44 -19 -20 -119 -199 -123 -219 -2 -7
-12 -33 -24 -58 -11 -25 -23 -56 -26 -70 -3 -14 -9 -40 -15 -57 -5 -18 -8 -33
-6 -33 2 0 -3 -19 -12 -42 -30 -81 -24 -288 9 -288 4 0 8 -5 8 -11 0 -6 10
-25 23 -42 12 -18 23 -39 25 -47 5 -24 68 -153 88 -179 57 -74 187 -190 250
-223 73 -38 184 -84 197 -80 4 1 7 -3 7 -9 0 -6 8 -8 19 -4 11 3 22 1 26 -5 4
-6 15 -8 26 -5 10 4 24 3 30 -1 12 -7 208 -8 249 0 62 11 89 19 150 40 83 30
160 68 160 78 0 4 7 8 15 8 31 0 193 162 234 235 33 59 95 211 111 275 7 25
18 56 25 70 7 14 15 39 18 55 3 17 8 39 11 50 63 257 68 326 28 413 -21 46
-54 80 -73 75 -4 -1 -9 12 -12 30 -3 18 -10 46 -17 62 -6 17 -11 32 -11 35 0
3 -6 12 -13 20 -7 8 -18 29 -25 45 -6 17 -25 46 -41 65 -16 19 -39 48 -52 63
-29 35 -50 56 -85 85 -15 13 -41 34 -56 48 -44 38 -160 93 -233 110 -58 13
-246 19 -257 7z m177 -343 c26 -11 50 -19 54 -19 12 -1 75 -35 94 -52 10 -9
31 -22 46 -30 66 -33 153 -125 185 -195 10 -21 30 -62 44 -89 l25 -50 -37 -90
c-21 -50 -46 -107 -57 -129 -11 -21 -21 -46 -23 -56 -9 -45 -134 -222 -205
-288 -31 -28 -166 -96 -200 -100 -14 -1 -36 -5 -49 -8 -23 -5 -23 -4 -17 49
14 109 -33 253 -91 282 -12 6 -27 16 -34 22 -8 6 -25 13 -39 15 -14 1 -28 7
-32 13 -11 16 -119 -12 -162 -42 -22 -16 -44 -37 -50 -48 -6 -11 -14 -22 -18
-25 -4 -3 -11 -23 -15 -43 -5 -21 -13 -37 -18 -35 -14 4 -71 81 -80 107 -3 11
-11 21 -16 21 -6 0 -7 5 -4 10 3 6 2 10 -3 10 -10 0 -9 36 3 65 5 11 16 40 25
65 25 65 104 224 113 228 4 2 5 8 1 13 -3 5 -1 9 5 9 5 0 13 9 16 21 4 12 14
29 23 39 10 10 55 62 102 117 90 105 145 147 264 200 86 38 92 38 150 13z"/>
<path d="M7695 11294 c-85 -20 -121 -32 -197 -67 -49 -22 -88 -44 -88 -49 0
-5 -4 -6 -10 -3 -5 3 -10 1 -10 -4 0 -6 -7 -11 -15 -11 -8 0 -15 -5 -15 -11 0
-5 -4 -7 -10 -4 -5 3 -10 1 -10 -4 0 -6 -5 -11 -11 -11 -6 0 -17 -6 -24 -12
-27 -24 -40 -33 -65 -44 -43 -20 -192 -166 -232 -228 -21 -33 -43 -78 -49
-100 -6 -23 -15 -46 -20 -52 -5 -6 -6 -14 -2 -17 3 -4 2 -7 -4 -7 -14 0 -40
-65 -48 -121 -4 -24 -8 -46 -11 -50 -3 -6 -10 -43 -21 -124 -14 -98 -6 -223
23 -345 3 -14 8 -35 10 -47 2 -12 9 -35 16 -50 6 -16 12 -34 14 -42 1 -8 6
-17 11 -20 4 -3 14 -24 22 -46 14 -41 60 -117 74 -123 4 -2 7 -9 7 -15 1 -30
168 -184 265 -244 54 -34 125 -66 125 -56 0 3 7 0 15 -7 8 -7 15 -9 15 -5 0 4
7 2 15 -5 8 -7 15 -9 15 -5 0 4 6 2 14 -4 47 -39 382 -30 434 11 6 6 12 7 12
3 0 -4 7 -2 15 5 8 7 15 9 15 5 0 -4 7 -1 17 6 9 8 18 13 20 12 1 -2 4 -3 6
-2 1 0 9 2 17 4 8 1 31 12 50 23 19 12 49 28 65 35 102 47 345 232 345 262 0
7 10 19 23 28 28 18 83 118 96 175 9 44 -8 152 -29 177 -6 7 -7 15 -3 19 12
11 14 37 15 141 0 131 -3 185 -11 185 -4 0 -7 8 -8 18 -1 22 -13 92 -19 114
-3 10 -7 30 -10 45 -3 15 -8 31 -12 37 -3 6 -8 18 -9 27 -8 54 -131 269 -153
269 -6 0 -10 6 -10 13 0 16 -131 143 -200 194 -64 47 -170 108 -170 98 0 -4
-6 -3 -12 3 -7 5 -29 13 -48 17 -43 9 -208 15 -235 9z m195 -369 c69 -32 90
-46 100 -66 6 -10 17 -19 25 -19 8 0 22 -12 32 -27 16 -27 46 -63 89 -107 21
-21 128 -226 118 -226 -3 0 -2 -6 3 -12 4 -7 8 -16 9 -20 1 -5 2 -9 4 -10 1
-2 3 -11 5 -20 2 -9 10 -39 18 -65 9 -26 23 -92 33 -146 9 -55 23 -105 32
-114 11 -11 13 -19 5 -32 -17 -27 -40 -24 -60 9 -19 33 -95 87 -134 96 -13 3
-34 8 -47 11 -43 10 -114 -18 -163 -66 -54 -53 -78 -116 -85 -224 -4 -76 -9
-91 -31 -83 -8 3 -20 3 -26 -1 -12 -7 -35 -11 -112 -16 -56 -4 -132 16 -214
57 -55 28 -181 142 -181 163 0 7 -4 13 -10 13 -5 0 -10 7 -10 15 0 8 -4 15
-10 15 -5 0 -10 7 -10 15 0 8 -4 23 -10 33 -10 17 -26 58 -30 77 -1 6 -6 16
-12 23 -6 6 -7 12 -3 12 4 0 2 6 -4 13 -13 17 -19 56 -27 177 -8 128 -8 147
-3 206 4 51 5 53 63 90 32 22 65 45 72 52 7 7 15 12 16 11 8 -3 58 25 58 33 0
4 7 8 15 8 8 0 15 5 15 11 0 5 4 8 9 5 5 -3 20 3 34 14 14 11 30 20 36 20 6 0
27 9 48 19 34 18 94 43 100 42 2 0 22 7 45 16 91 34 123 33 198 -2z"/>
<path d="M11230 9214 c-14 -2 -101 -8 -195 -14 -93 -6 -201 -15 -240 -20 -38
-5 -110 -12 -160 -15 -49 -3 -112 -8 -140 -10 -27 -2 -95 -6 -150 -10 -111 -7
-177 -13 -239 -21 -45 -7 -51 -8 -146 -25 -36 -6 -94 -12 -130 -14 -119 -4
-185 -38 -286 -148 -55 -60 -84 -117 -84 -165 0 -10 -5 -23 -12 -30 -24 -24
22 -218 64 -267 75 -89 176 -160 263 -186 25 -7 45 -18 45 -23 0 -5 3 -6 7 -3
3 4 11 3 17 -2 17 -14 236 -80 286 -86 25 -3 59 -7 75 -9 55 -7 110 -19 120
-26 12 -9 96 -29 140 -34 17 -2 30 -5 30 -6 0 -1 14 -3 30 -5 17 -2 41 -7 55
-11 14 -4 28 -7 33 -6 4 1 7 -3 7 -9 0 -5 4 -8 9 -4 5 3 12 1 15 -4 3 -5 22
-12 43 -16 20 -3 53 -13 73 -21 l36 -14 -7 -83 c-8 -87 -18 -301 -23 -482 -3
-102 -5 -110 -27 -124 -13 -9 -27 -20 -31 -26 -4 -5 -8 -7 -8 -3 0 18 -108
-85 -185 -177 -32 -38 -65 -74 -72 -78 -7 -4 -13 -15 -13 -22 0 -8 -4 -15 -10
-15 -5 0 -27 -26 -47 -57 -21 -32 -41 -59 -45 -61 -5 -2 -8 -10 -8 -17 0 -7
-7 -16 -16 -19 -8 -3 -13 -10 -9 -15 3 -6 -1 -13 -9 -18 -26 -14 -169 -237
-159 -247 4 -3 1 -6 -5 -6 -7 0 -12 -5 -12 -11 0 -6 -13 -29 -28 -52 -15 -23
-36 -60 -46 -82 -11 -22 -25 -52 -33 -67 -21 -42 -17 -118 10 -151 24 -31 82
-42 127 -25 33 12 96 79 195 207 44 57 92 117 107 135 15 17 28 37 28 44 0 6
4 12 8 12 8 0 122 152 131 174 5 13 22 33 44 54 9 9 17 22 17 29 0 7 5 13 10
13 6 0 10 7 10 15 0 8 4 15 9 15 8 0 75 96 150 215 14 22 27 42 29 45 3 4 82
-79 82 -87 0 -2 19 -28 43 -56 23 -28 47 -58 52 -66 6 -7 25 -29 43 -47 17
-18 32 -37 32 -43 0 -6 16 -23 35 -38 19 -15 35 -33 35 -40 0 -6 11 -20 25
-31 14 -11 25 -23 25 -27 0 -19 185 -234 222 -258 57 -37 112 -35 142 6 17 24
21 43 21 111 0 78 -3 88 -44 172 -78 157 -193 345 -256 420 -81 96 -181 196
-223 222 -45 28 -52 44 -58 120 -3 48 -9 95 -17 147 -3 17 -9 59 -12 95 -4 36
-9 68 -11 71 -1 3 -10 39 -18 79 -16 75 -13 89 20 90 5 0 19 8 30 18 11 9 35
26 54 37 19 10 60 37 90 60 75 55 95 65 127 65 32 0 139 30 195 54 21 9 41 17
45 17 5 1 17 6 28 12 11 6 23 10 28 9 4 -1 7 3 7 9 0 5 5 7 10 4 6 -3 10 -1
10 6 0 7 3 9 7 6 3 -4 21 4 39 18 18 14 36 25 40 25 23 0 255 170 285 210 13
17 39 46 57 66 83 87 102 220 53 364 -16 47 -34 86 -40 88 -6 2 -11 10 -11 17
0 34 -127 114 -182 115 -15 0 -29 4 -33 9 -3 6 -13 10 -23 10 -9 0 -66 5 -126
11 -101 10 -419 19 -476 14z m325 -299 c50 -4 108 -9 130 -11 174 -13 176 -13
193 -53 36 -82 26 -97 -113 -176 -55 -32 -102 -60 -105 -64 -3 -3 -31 -19 -62
-36 -32 -16 -58 -33 -58 -37 0 -3 -16 -12 -35 -18 -19 -6 -35 -16 -35 -21 0
-5 -5 -9 -11 -9 -16 0 -178 -97 -209 -125 -25 -22 -85 -55 -101 -55 -5 0 -43
-17 -86 -37 -43 -21 -81 -36 -85 -35 -5 1 -8 -3 -8 -9 0 -5 -4 -8 -9 -4 -5 3
-12 1 -16 -5 -10 -16 -34 -12 -57 10 -12 11 -47 28 -78 37 -30 10 -57 21 -60
25 -3 4 -17 9 -30 12 -14 3 -54 13 -90 21 -148 35 -290 64 -360 76 -41 6 -81
16 -89 23 -8 6 -16 10 -18 8 -13 -11 -298 79 -319 101 -4 4 -15 7 -24 7 -9 0
-25 9 -35 20 -10 11 -22 20 -26 20 -15 0 -48 33 -43 42 3 4 0 8 -7 8 -7 0 -9
3 -6 7 4 3 1 16 -7 27 -7 12 -12 32 -10 46 6 41 27 100 36 100 4 0 8 6 8 14 0
8 20 26 44 40 43 25 49 26 163 21 65 -3 172 -1 238 5 156 12 333 19 690 26
159 3 290 6 291 7 5 5 317 -2 399 -8z"/>
<path d="M14863 8390 c-13 -5 -24 -15 -25 -22 -5 -45 -4 -69 4 -74 4 -3 6 -10
3 -15 -4 -5 -1 -9 5 -9 6 0 9 -4 5 -9 -3 -6 0 -13 7 -18 7 -4 36 -53 63 -108
28 -55 52 -102 55 -105 3 -3 6 -9 7 -15 1 -5 16 -41 34 -80 18 -38 32 -73 31
-77 -1 -5 3 -8 10 -8 6 0 8 -3 5 -6 -3 -4 -1 -16 5 -28 7 -11 13 -23 13 -26 8
-41 19 -70 26 -70 6 0 7 -4 4 -10 -3 -5 0 -20 7 -32 7 -13 13 -26 14 -30 1 -5
3 -10 4 -13 1 -3 4 -9 5 -15 1 -5 4 -13 5 -17 1 -5 2 -11 1 -15 0 -4 4 -20 10
-35 6 -15 13 -39 15 -53 2 -14 7 -38 11 -55 3 -16 8 -41 10 -55 6 -44 10 -305
4 -315 -3 -5 -6 -16 -7 -25 -1 -8 -12 -53 -24 -100 -11 -47 -22 -92 -23 -100
-2 -8 -8 -24 -14 -35 -9 -17 -35 -90 -38 -105 -1 -3 -11 -24 -23 -47 -12 -23
-22 -48 -22 -54 0 -14 -77 -149 -132 -231 -21 -32 -36 -58 -33 -58 3 0 -4 -10
-15 -22 -12 -13 -29 -36 -37 -52 -9 -17 -26 -41 -39 -55 -13 -14 -59 -69 -101
-121 -43 -52 -97 -112 -120 -133 -24 -22 -40 -43 -37 -48 3 -5 -1 -9 -8 -9
-13 0 -84 -85 -107 -128 -26 -49 8 -94 79 -107 46 -9 147 -9 185 -1 29 7 135
55 145 67 3 3 12 8 20 11 37 14 145 106 241 205 102 106 229 263 229 283 0 6
4 10 8 10 10 0 125 174 149 225 10 22 24 46 31 53 7 8 10 18 7 23 -4 5 -1 9 4
9 6 0 10 3 9 8 -1 4 3 16 9 27 6 11 11 23 12 28 0 4 8 21 16 37 8 16 15 31 14
32 0 2 5 16 11 32 6 16 12 36 14 45 2 9 6 23 9 31 4 8 8 26 9 40 2 14 6 30 10
35 14 23 26 111 35 251 6 93 -11 279 -26 298 -5 6 -9 16 -10 21 0 20 -13 80
-19 90 -4 5 -7 16 -8 23 -2 8 -6 21 -10 30 -4 9 -8 22 -9 27 -2 6 -17 41 -34
77 -17 37 -31 72 -31 78 0 5 -4 10 -10 10 -5 0 -9 3 -8 8 3 11 -63 136 -76
144 -6 4 -11 11 -11 16 0 16 -105 182 -115 182 -6 0 -10 5 -10 11 0 29 -179
219 -206 219 -8 0 -14 4 -14 8 0 5 -18 18 -40 31 -45 25 -133 36 -167 21z"/>
<path d="M6127 7875 c-37 -14 -137 -103 -137 -122 0 -6 -9 -18 -19 -27 -15
-14 -81 -157 -87 -186 0 -3 -6 -23 -12 -45 -6 -22 -14 -57 -18 -79 -3 -21 -8
-48 -11 -60 -11 -46 -14 -315 -4 -386 14 -105 20 -141 26 -175 11 -56 88 -290
113 -345 14 -30 26 -57 26 -60 5 -22 30 -70 38 -70 5 0 6 -4 3 -10 -3 -5 -1
-10 6 -10 7 0 9 -3 6 -7 -8 -7 54 -123 65 -123 5 0 8 -5 8 -12 0 -16 100 -168
111 -168 5 0 9 -5 9 -11 0 -34 185 -239 300 -331 142 -114 301 -168 493 -168
109 0 127 7 127 46 0 26 -44 63 -130 112 -36 20 -86 51 -112 69 -26 18 -51 33
-56 33 -4 0 -16 11 -26 25 -10 14 -22 25 -27 25 -9 0 -189 174 -189 183 0 4
-27 40 -60 81 -33 41 -60 78 -60 83 0 5 -8 18 -18 29 -9 10 -31 45 -47 76 -17
32 -34 58 -38 58 -5 0 -6 4 -3 8 3 5 -3 18 -14 29 -10 12 -16 24 -13 27 4 3 1
6 -5 6 -7 0 -12 4 -12 9 0 4 -21 53 -47 107 -26 55 -48 101 -48 104 -1 3 -23
70 -49 150 -26 80 -50 156 -52 170 -2 14 -7 39 -11 55 -38 176 -42 335 -14
505 26 160 31 176 76 246 55 85 59 108 28 144 -28 34 -55 37 -116 15z"/>
<path d="M14543 7744 c-18 -8 -33 -21 -33 -29 0 -8 -4 -15 -10 -15 -23 0 -9
-59 21 -89 57 -58 137 -29 139 49 0 53 -2 70 -12 64 -4 -3 -8 -1 -8 4 0 9 -44
33 -58 31 -4 0 -22 -7 -39 -15z"/>
<path d="M6970 7412 c-44 -21 -73 -108 -45 -135 6 -7 14 -20 18 -30 7 -19 46
-37 82 -37 98 0 141 127 65 191 -34 29 -75 33 -120 11z"/>
<path d="M14043 7212 c-54 -8 -71 -92 -28 -130 25 -22 70 -29 91 -14 34 23 40
88 10 121 -20 22 -41 28 -73 23z"/>
<path d="M14685 7068 c-62 -33 -86 -102 -59 -166 16 -39 91 -78 127 -66 12 4
28 9 36 10 8 2 24 12 35 24 29 29 29 128 1 160 -33 37 -106 57 -140 38z"/>
<path d="M6529 7009 c-42 -45 -41 -105 2 -148 25 -26 38 -31 77 -31 72 1 113
43 108 111 -6 72 -36 99 -111 99 -40 0 -52 -5 -76 -31z"/>
<path d="M7260 6989 c-95 -38 -105 -166 -16 -203 63 -26 127 -10 150 38 33 70
14 127 -52 156 -50 23 -48 22 -82 9z"/>
<path d="M14126 6654 c-28 -26 -36 -40 -34 -64 1 -16 6 -30 11 -30 4 0 6 -4 3
-8 -8 -14 32 -42 68 -47 45 -8 82 9 101 44 22 43 19 67 -12 101 -42 46 -90 47
-137 4z"/>
<path d="M7688 6414 c-35 -19 -48 -43 -48 -91 0 -94 110 -144 181 -82 25 22
30 36 32 91 1 31 -5 43 -33 68 -38 34 -86 39 -132 14z"/>
<path d="M14392 6300 c-27 -11 -40 -42 -34 -82 4 -23 13 -34 38 -44 48 -20 83
-9 100 32 30 71 -28 124 -104 94z"/>
<path d="M7052 6259 c-65 -25 -90 -100 -55 -160 33 -56 113 -63 162 -14 35 34
36 112 3 148 -12 13 -28 24 -35 24 -6 0 -21 2 -32 6 -11 3 -30 1 -43 -4z"/>
<path d="M11818 5190 c-43 -27 -78 -54 -78 -60 0 -5 -6 -10 -14 -10 -8 0 -24
-13 -36 -30 -12 -16 -27 -30 -35 -30 -7 0 -28 -14 -46 -31 -19 -18 -47 -40
-64 -49 -62 -36 -170 -103 -175 -109 -7 -8 -124 -64 -129 -61 -2 1 -7 -2 -10
-7 -3 -5 -62 -26 -131 -47 -149 -45 -166 -49 -280 -64 -90 -12 -370 -8 -425 6
-27 7 -59 14 -70 17 -33 7 -200 78 -203 87 -2 4 -8 8 -13 8 -6 0 -15 4 -22 10
-53 43 -118 90 -126 90 -5 0 -11 3 -13 8 -1 4 -21 22 -43 41 -22 18 -80 73
-130 120 -49 48 -101 95 -115 104 -34 23 -67 21 -81 -4 -13 -25 -4 -98 18
-149 9 -19 15 -38 15 -42 -1 -5 3 -8 9 -8 5 0 7 -4 4 -10 -3 -5 -1 -10 6 -10
7 0 10 -3 6 -6 -3 -3 8 -28 24 -55 16 -28 29 -52 29 -54 0 -3 23 -40 52 -82
69 -102 215 -253 304 -313 94 -63 276 -152 335 -164 8 -2 21 -6 29 -9 8 -4 33
-9 55 -12 22 -3 51 -7 65 -10 107 -22 256 -22 405 -1 17 3 50 7 75 11 25 3 49
11 55 16 5 5 18 9 28 9 10 0 31 6 45 14 15 8 56 24 92 36 36 12 72 28 80 35 8
8 17 13 20 13 13 -2 50 14 50 23 0 5 7 9 15 9 8 0 24 9 35 20 11 11 24 20 29
20 5 0 16 6 23 13 7 7 46 34 86 61 39 27 72 53 72 57 0 4 6 9 14 11 32 8 265
230 266 254 0 7 7 15 16 18 15 6 57 89 57 114 0 6 3 12 7 12 9 0 11 14 15 100
2 42 -1 80 -7 87 -6 7 -8 13 -4 13 3 0 -2 9 -11 20 -31 36 -87 27 -175 -30z"/>
</g>
</svg>
