<?xml version="1.0" standalone="no"?>
<!DOCTYPE svg PUBLIC "-//W3C//DTD SVG 20010904//EN"
 "http://www.w3.org/TR/2001/REC-SVG-20010904/DTD/svg10.dtd">
<svg version="1.0" xmlns="http://www.w3.org/2000/svg"
 width="2048.000000pt" height="2048.000000pt" viewBox="0 0 2048.000000 2048.000000"
 preserveAspectRatio="xMidYMid meet">
<metadata>
Created by potrace 1.16, written by Peter Selinger 2001-2019
</metadata>
<g transform="translate(0.000000,2048.000000) scale(0.100000,-0.100000)"
fill="#474973" stroke="none">
<path d="M18290 18726 c-3 -2 -30 -7 -60 -9 -81 -7 -117 -14 -174 -34 -28 -9
-54 -18 -58 -19 -5 -1 -9 -2 -10 -4 -2 -1 -10 -3 -18 -5 -44 -9 -337 -146
-350 -163 -3 -4 -35 -23 -72 -41 -38 -19 -68 -39 -68 -44 0 -4 -4 -5 -10 -2
-5 3 -10 1 -10 -4 0 -6 -7 -11 -15 -11 -8 0 -15 -4 -15 -10 0 -5 -5 -10 -11
-10 -15 0 -229 -142 -229 -152 0 -5 -6 -8 -14 -8 -8 0 -17 -7 -20 -16 -3 -8
-10 -12 -16 -9 -6 3 -13 -1 -16 -9 -3 -9 -12 -16 -19 -16 -7 0 -27 -13 -45
-30 -18 -16 -35 -30 -37 -30 -9 0 -208 -152 -211 -161 -2 -5 -10 -9 -18 -9 -7
0 -21 -11 -30 -25 -9 -14 -19 -23 -23 -20 -4 2 -29 -16 -56 -40 -27 -25 -51
-45 -53 -45 -5 0 -96 -75 -134 -109 -9 -9 -23 -21 -30 -26 -20 -16 -128 -107
-173 -146 -22 -18 -61 -55 -86 -81 -26 -27 -51 -48 -56 -48 -6 0 -29 -19 -52
-42 -23 -24 -61 -60 -84 -80 -47 -41 -93 -82 -257 -229 -177 -159 -543 -530
-768 -777 -18 -21 -56 -62 -83 -92 -28 -30 -71 -79 -97 -107 -26 -29 -68 -74
-94 -99 -27 -26 -48 -52 -48 -57 0 -6 -24 -33 -52 -61 -53 -51 -174 -185 -212
-235 -12 -14 -31 -34 -43 -44 -13 -10 -21 -23 -18 -28 4 -5 -1 -9 -9 -9 -9 0
-16 -3 -16 -7 0 -5 -31 -42 -70 -83 -38 -41 -70 -78 -70 -81 0 -4 -21 -29 -46
-55 -60 -64 -127 -139 -172 -191 -50 -57 -134 -149 -185 -200 -23 -24 -39 -43
-35 -43 3 0 -6 -13 -20 -28 -39 -42 -124 -141 -179 -208 -17 -21 -50 -61 -72
-89 -23 -27 -41 -55 -41 -62 0 -7 -4 -13 -10 -13 -5 0 -10 -6 -10 -14 0 -8 -6
-16 -13 -19 -6 -2 -28 -35 -47 -73 -50 -99 -43 -95 -106 -72 -55 20 -130 21
-204 4 -22 -5 -28 0 -49 39 -27 51 -114 135 -140 135 -9 0 -22 5 -29 12 -7 7
-12 8 -12 3 0 -6 -5 -3 -10 5 -7 11 -28 15 -87 15 -68 -1 -87 -5 -147 -34 -37
-18 -83 -47 -102 -63 -28 -25 -39 -29 -62 -22 -15 4 -31 9 -37 9 -5 1 -22 7
-36 13 -15 6 -44 14 -65 18 -47 10 -45 9 -64 17 -8 3 -22 5 -30 5 -8 0 -35 3
-60 6 -69 8 -136 15 -230 21 -139 10 -192 14 -286 24 -49 5 -96 9 -104 9 -8 0
-44 3 -80 6 -82 8 -292 16 -765 31 -200 7 -404 16 -435 20 -14 1 -65 6 -115
10 -104 9 -115 10 -135 18 -8 3 -22 5 -30 5 -15 0 -56 5 -141 16 -73 10 -193
15 -526 26 -358 11 -880 -6 -1098 -36 -22 -2 -47 -5 -55 -5 -8 -1 -22 -3 -30
-6 -15 -6 -34 -9 -105 -18 -22 -3 -51 -7 -65 -9 -14 -3 -47 -7 -75 -10 -27 -4
-59 -9 -70 -13 -22 -7 -25 -8 -100 -18 -27 -3 -93 -16 -145 -26 -52 -11 -105
-22 -118 -24 -12 -3 -33 -7 -47 -10 -14 -2 -35 -7 -48 -9 -22 -4 -33 -7 -92
-21 -16 -5 -51 -18 -76 -31 l-46 -23 -24 30 c-34 41 -126 72 -214 71 -59 0
-110 -6 -110 -12 0 -1 -9 -3 -20 -5 -13 -3 -36 13 -68 46 -28 27 -56 49 -63
49 -8 0 -14 3 -14 8 0 22 -141 76 -215 83 -155 13 -332 -13 -411 -62 -30 -18
-30 -18 -47 1 -9 11 -17 22 -17 24 0 11 -102 116 -287 297 -90 89 -186 192
-268 289 -77 92 -138 162 -172 197 -17 18 -29 33 -27 33 2 0 -5 10 -15 23 -33
39 -138 161 -170 197 -17 19 -43 50 -58 69 -16 18 -44 51 -63 72 -62 71 -98
113 -156 184 -32 39 -64 77 -73 86 -9 9 -34 38 -56 65 -141 170 -376 404 -549
549 -26 21 -58 48 -70 60 -73 65 -223 185 -232 185 -4 0 -17 10 -29 23 -41 39
-129 107 -141 107 -3 0 -15 11 -26 25 -11 14 -26 25 -34 25 -8 0 -14 4 -14 8
0 5 -12 15 -26 23 -15 8 -43 29 -62 46 -20 18 -42 33 -49 33 -7 0 -13 5 -13
10 0 6 -7 10 -15 10 -8 0 -15 5 -15 10 0 6 -7 13 -16 17 -9 3 -27 16 -40 28
-12 12 -40 30 -60 41 -20 10 -48 29 -62 42 -14 12 -31 22 -38 22 -8 0 -14 5
-14 10 0 6 -7 10 -15 10 -8 0 -15 5 -15 10 0 6 -7 10 -15 10 -8 0 -15 5 -15
10 0 6 -6 10 -14 10 -8 0 -16 4 -18 9 -4 11 -145 101 -158 101 -6 0 -10 5 -10
10 0 6 -4 10 -10 10 -5 0 -19 8 -30 18 -11 9 -23 15 -27 14 -3 -2 -9 1 -12 6
-10 15 -133 92 -148 92 -7 0 -13 5 -13 12 0 6 -3 8 -7 5 -3 -4 -11 0 -17 7
-13 17 -166 98 -166 88 0 -4 -4 -1 -9 6 -9 14 -183 92 -206 92 -8 0 -15 4 -15
9 0 7 -23 17 -60 26 -3 0 -14 6 -25 11 -20 11 -134 42 -170 47 -11 1 -24 5
-30 9 -5 3 -62 7 -125 7 -85 1 -126 -2 -153 -14 -20 -8 -37 -13 -37 -10 0 14
-107 -51 -144 -88 -52 -51 -105 -135 -111 -173 -2 -16 -8 -44 -14 -62 -5 -18
-10 -35 -10 -37 1 -22 -15 -99 -42 -205 -35 -135 -32 -475 5 -655 8 -38 17
-83 20 -100 3 -16 8 -41 11 -55 3 -14 8 -36 10 -50 11 -67 19 -105 31 -145 2
-5 6 -23 9 -40 3 -16 8 -37 12 -45 3 -8 7 -19 8 -25 2 -5 8 -30 15 -55 7 -25
14 -54 17 -65 2 -11 5 -24 7 -30 2 -5 6 -28 11 -50 4 -22 10 -44 14 -50 3 -5
7 -19 8 -30 2 -11 11 -42 20 -70 9 -27 18 -59 20 -70 2 -11 9 -38 15 -60 6
-22 12 -43 14 -47 1 -5 2 -9 4 -10 1 -2 3 -11 6 -20 2 -10 6 -26 8 -35 3 -10
5 -19 6 -20 2 -2 4 -7 5 -13 1 -5 4 -12 5 -15 1 -3 3 -9 4 -14 0 -5 4 -13 9
-17 4 -4 7 -15 7 -25 0 -10 7 -39 16 -65 9 -25 17 -54 19 -63 9 -47 19 -77 28
-88 5 -7 7 -13 4 -13 -3 0 8 -39 25 -87 16 -49 32 -99 34 -113 3 -14 21 -70
40 -125 19 -55 36 -107 38 -115 2 -8 10 -35 17 -60 7 -25 13 -48 15 -52 1 -5
3 -10 4 -13 1 -3 4 -9 5 -15 1 -5 4 -13 5 -17 1 -5 2 -11 1 -16 -1 -4 10 -34
23 -67 14 -33 23 -60 21 -60 -2 0 2 -18 10 -40 8 -22 14 -42 15 -45 0 -3 0 -6
1 -7 0 -2 2 -14 5 -28 2 -14 7 -32 11 -40 3 -8 7 -19 8 -25 2 -5 15 -48 30
-95 15 -47 28 -92 30 -100 13 -61 48 -177 61 -201 8 -16 14 -31 14 -34 0 -3 0
-6 1 -7 0 -2 2 -10 4 -18 1 -8 9 -35 16 -60 7 -25 13 -48 15 -52 1 -5 2 -9 4
-10 1 -2 4 -16 6 -32 3 -16 11 -44 19 -63 8 -18 15 -37 16 -41 1 -4 11 -32 21
-62 11 -30 21 -59 22 -65 1 -5 5 -16 9 -22 5 -7 5 -13 1 -13 -3 0 -1 -7 6 -15
7 -8 9 -15 5 -15 -4 0 -2 -7 5 -15 7 -8 10 -15 6 -15 -4 0 0 -13 9 -30 8 -16
14 -31 13 -33 -2 -2 3 -11 11 -20 7 -10 11 -17 8 -17 -3 0 1 -17 10 -37 8 -21
20 -49 26 -63 11 -27 14 -35 16 -49 0 -5 7 -16 14 -23 8 -7 22 -37 31 -66 10
-28 22 -52 27 -52 6 0 8 -4 5 -9 -4 -5 -3 -11 1 -13 11 -4 49 -78 58 -113 5
-16 9 -34 11 -40 2 -5 6 -23 9 -40 3 -16 11 -50 17 -75 5 -25 12 -58 14 -75 3
-16 7 -41 11 -55 3 -14 5 -29 4 -34 -1 -5 3 -48 8 -95 24 -193 31 -420 29
-956 0 -220 -1 -528 -1 -685 -1 -157 2 -319 6 -360 4 -41 9 -99 12 -128 2 -29
9 -61 14 -71 6 -10 8 -21 5 -23 -2 -3 5 -45 16 -94 27 -120 28 -123 35 -167 3
-21 12 -54 19 -72 8 -18 12 -35 10 -38 -3 -2 1 -17 7 -33 7 -16 14 -38 16 -48
2 -11 8 -25 14 -33 6 -7 9 -13 5 -13 -4 0 0 -13 9 -30 8 -16 15 -32 14 -35 -1
-9 13 -70 19 -80 4 -5 8 -19 9 -30 2 -11 6 -27 10 -35 3 -8 8 -24 10 -35 2
-11 6 -27 10 -35 3 -8 7 -21 9 -28 1 -8 6 -21 10 -30 8 -18 9 -24 18 -62 3
-14 7 -35 10 -47 13 -51 17 -70 21 -107 3 -21 8 -43 11 -48 6 -9 7 -17 19 -93
3 -22 10 -56 15 -75 10 -38 16 -95 27 -260 8 -126 8 -118 -3 -400 -14 -352
-10 -653 11 -845 1 -16 6 -61 9 -100 4 -38 9 -78 12 -89 4 -10 8 -33 10 -50 2
-17 5 -42 8 -56 2 -14 7 -45 11 -70 3 -24 9 -49 13 -54 3 -6 7 -17 8 -26 1 -8
5 -28 9 -45 4 -16 8 -39 10 -50 2 -11 6 -31 10 -45 4 -14 7 -33 7 -42 -1 -10
4 -20 9 -23 5 -4 7 -11 3 -16 -3 -5 0 -16 6 -24 7 -8 10 -15 7 -15 -6 0 21
-98 31 -115 4 -5 7 -14 8 -20 8 -42 26 -107 35 -131 7 -16 13 -32 14 -36 2 -5
4 -10 5 -13 1 -3 4 -9 5 -15 1 -5 3 -11 5 -12 1 -2 3 -10 5 -18 1 -8 12 -37
22 -65 26 -66 30 -78 31 -88 0 -4 8 -19 16 -33 9 -13 14 -24 11 -24 -4 0 10
-30 29 -68 19 -37 42 -86 52 -109 9 -24 21 -43 26 -43 5 0 7 -4 4 -9 -4 -5 -3
-11 2 -13 4 -1 20 -30 36 -63 30 -66 124 -218 138 -223 4 -2 8 -10 8 -17 0 -8
6 -18 13 -22 7 -4 21 -21 31 -38 37 -59 141 -195 148 -195 5 0 8 -4 8 -10 0
-11 24 -43 58 -75 12 -12 22 -27 22 -33 0 -7 11 -19 25 -28 14 -9 25 -22 25
-30 0 -7 6 -17 13 -21 6 -4 17 -15 22 -24 27 -45 139 -174 219 -254 100 -99
183 -175 191 -175 3 0 25 -19 48 -42 24 -24 65 -63 93 -87 27 -23 65 -58 84
-77 19 -19 40 -34 46 -34 7 0 14 -7 18 -15 3 -8 10 -15 16 -15 6 0 26 -15 44
-33 17 -17 63 -56 101 -85 111 -83 114 -86 148 -113 18 -14 48 -34 66 -45 19
-10 45 -27 57 -38 12 -10 25 -17 28 -17 4 1 14 -5 22 -14 9 -8 22 -15 30 -15
8 0 14 -3 14 -7 0 -5 26 -21 58 -38 31 -16 59 -32 62 -36 5 -7 98 -50 115 -53
6 -1 21 -9 35 -18 14 -9 45 -24 70 -33 25 -9 53 -21 64 -27 10 -5 27 -11 39
-13 11 -3 29 -12 39 -22 11 -10 22 -17 24 -15 5 3 100 -39 144 -63 31 -18 128
-65 240 -118 47 -22 115 -55 152 -74 38 -18 68 -31 68 -28 0 3 26 -9 57 -27
32 -18 59 -31 61 -30 1 2 43 -20 92 -48 49 -27 94 -50 98 -50 5 0 16 -8 25
-18 9 -10 36 -28 59 -41 56 -28 75 -41 105 -68 14 -12 35 -25 47 -29 11 -4 23
-9 26 -13 11 -14 99 -71 109 -71 6 0 11 -4 11 -9 0 -5 8 -11 17 -15 22 -7 48
-24 80 -53 14 -12 38 -28 54 -35 16 -7 29 -16 29 -19 0 -4 14 -12 30 -19 17
-7 30 -16 30 -20 0 -3 12 -13 28 -21 15 -8 32 -18 37 -22 25 -20 125 -81 170
-104 28 -14 62 -34 77 -45 16 -11 28 -16 28 -11 0 4 4 3 8 -3 11 -16 329 -174
336 -167 3 4 6 1 6 -5 0 -13 100 -67 100 -55 0 5 4 3 8 -3 7 -11 311 -163 336
-169 15 -3 39 -13 116 -47 62 -28 177 -74 193 -77 4 0 8 -1 10 -2 1 0 9 -2 17
-5 8 -2 55 -18 104 -35 49 -17 101 -32 115 -34 14 -2 26 -4 26 -5 0 -1 9 -3
20 -5 11 -2 34 -6 50 -10 17 -4 37 -8 45 -9 8 -1 23 -6 33 -10 10 -5 21 -6 24
-3 3 4 14 2 24 -4 32 -17 207 -49 297 -55 191 -12 516 -6 602 11 14 3 50 8 80
11 30 3 69 7 85 9 17 1 59 6 95 9 36 4 71 9 79 12 18 6 184 23 296 30 130 8
242 20 288 30 16 3 38 7 50 9 12 2 41 6 64 9 24 3 69 13 100 22 32 8 69 17 83
20 14 3 33 7 42 10 17 5 46 12 88 20 43 9 103 24 155 41 60 19 80 25 80 23 0
-1 14 4 30 10 27 10 43 15 80 23 6 2 16 6 23 10 6 5 12 6 12 3 0 -6 141 53
158 66 6 6 12 7 12 4 0 -4 10 -1 23 6 12 7 25 11 30 10 4 -1 7 3 7 8 0 5 3 9
8 9 17 -3 32 2 46 17 9 8 24 17 35 19 41 8 360 173 389 202 7 7 19 13 26 13
14 0 159 90 164 102 2 4 10 8 18 8 8 0 14 5 14 10 0 6 7 10 15 10 8 0 20 9 27
20 7 11 18 20 25 20 7 0 13 5 13 10 0 6 5 10 11 10 7 0 30 15 53 33 23 18 70
54 106 80 36 25 79 57 95 71 17 14 35 30 42 36 7 5 15 10 19 10 4 0 14 8 23
18 9 10 32 28 51 40 20 11 48 34 62 49 15 15 44 42 64 58 36 29 98 83 133 115
9 8 29 21 44 29 15 8 27 18 27 23 0 4 7 8 15 8 8 0 15 5 15 10 0 6 6 10 14 10
7 0 24 10 38 23 13 12 41 31 61 42 20 11 37 23 37 27 0 5 5 8 11 8 12 0 102
61 107 73 2 4 10 7 17 7 11 0 92 55 132 90 7 5 17 10 23 10 5 0 10 3 10 8 0 4
13 13 30 20 16 7 39 24 52 37 13 14 27 25 31 25 9 0 99 59 107 70 3 4 15 10
28 14 12 4 22 12 22 17 0 5 7 9 15 9 8 0 15 3 15 8 0 4 9 12 19 17 11 6 35 18
55 29 20 10 36 22 36 27 0 5 7 9 15 9 8 0 15 4 15 9 0 5 8 11 18 14 9 3 33 14
52 25 19 11 62 32 95 47 33 15 74 39 91 51 17 13 36 24 42 24 6 0 17 6 24 12
7 7 30 22 51 32 20 11 37 23 37 28 0 4 7 8 15 8 8 0 15 5 15 10 0 6 7 10 15
10 8 0 15 3 15 8 0 4 9 12 19 17 40 21 131 87 131 96 0 5 6 9 13 9 8 0 27 13
43 30 16 16 33 30 37 30 9 0 26 13 63 48 14 12 28 22 32 22 4 0 25 16 47 36
61 54 90 78 107 89 21 14 168 135 196 163 12 12 26 22 30 22 4 0 15 8 25 18
18 18 43 39 125 102 28 22 52 45 52 50 0 5 8 11 18 14 9 3 32 21 51 38 19 18
48 43 65 56 17 12 76 64 131 115 54 51 131 121 170 157 71 65 155 148 155 153
0 2 28 32 63 68 34 35 78 84 98 109 47 57 144 204 138 208 -2 2 4 8 14 13 9 6
17 15 17 20 0 6 12 26 26 45 15 19 23 34 18 34 -5 0 1 6 12 14 11 8 29 33 39
55 11 22 23 41 28 41 4 0 7 7 7 15 0 8 4 15 10 15 5 0 22 21 37 48 15 26 49
81 75 122 26 41 48 81 48 88 0 6 4 12 8 12 10 0 37 50 34 63 -1 4 2 7 7 7 5 0
14 15 21 33 6 17 18 44 26 59 9 16 12 28 8 28 -3 0 0 10 8 22 13 20 52 114 53
128 1 3 6 14 11 25 9 16 20 50 29 85 0 3 6 15 13 28 7 12 10 22 6 22 -3 0 -2
6 4 13 18 22 134 366 136 405 0 12 4 22 9 22 4 0 7 7 7 15 0 9 20 86 45 172
24 86 42 159 40 164 -3 4 0 11 6 14 5 4 8 13 5 20 -3 8 -1 15 4 17 5 2 11 19
13 38 2 19 7 42 11 50 13 32 44 150 39 150 -3 0 -1 6 5 13 9 12 33 110 30 125
0 4 2 14 5 22 8 20 46 217 49 253 1 15 6 27 11 27 5 0 7 13 5 30 -3 16 0 30 4
30 5 0 8 15 7 33 -2 18 0 38 4 44 4 7 8 29 8 50 0 21 3 63 6 93 2 30 7 80 9
110 3 30 8 89 11 130 13 140 8 318 -12 500 -7 68 -7 331 0 455 3 61 8 142 10
180 2 39 6 77 9 85 2 8 7 47 10 85 5 64 9 90 19 150 2 11 7 28 12 38 4 9 5 24
1 32 -3 8 -1 15 5 15 6 0 10 15 8 33 -1 17 2 40 6 50 4 9 5 29 2 42 -2 14 0
28 5 31 5 3 8 18 7 32 -1 15 1 34 4 42 8 21 49 259 51 293 0 15 5 27 10 27 5
0 6 18 3 40 -3 22 -1 43 5 46 5 3 8 20 7 38 -1 17 2 39 6 49 4 9 5 29 3 42 -3
14 -1 25 4 25 5 0 9 15 7 33 -1 17 1 39 4 47 21 56 32 197 32 405 0 203 -5
281 -26 415 -7 50 -9 114 -4 190 10 139 11 148 18 180 4 14 8 52 11 85 2 33
11 77 20 98 9 21 14 42 11 47 -3 4 -2 10 3 12 6 2 38 90 48 131 1 4 3 9 4 12
1 3 4 10 5 15 1 6 4 12 5 15 1 3 4 10 5 15 1 6 4 12 5 15 1 3 4 10 5 15 1 6 4
12 5 15 1 3 4 10 5 15 1 6 4 12 5 15 1 3 3 8 5 13 1 4 7 20 13 35 7 15 11 31
10 35 -1 4 3 17 10 29 6 12 14 32 16 45 3 13 5 24 7 26 1 1 3 7 4 12 1 6 4 12
5 15 1 3 3 8 4 13 1 4 4 12 7 17 7 10 69 208 74 235 2 8 4 16 5 18 2 1 4 7 5
12 1 6 4 12 5 15 1 3 3 8 5 13 1 4 4 14 8 22 9 23 88 263 92 280 2 8 4 16 5
18 2 1 3 5 5 10 1 4 4 14 8 22 19 50 38 106 38 115 0 6 4 15 9 20 6 9 31 74
36 98 1 4 3 9 4 12 1 3 3 8 5 13 2 7 10 29 40 97 19 45 76 204 79 220 1 6 8
20 14 33 7 12 10 22 7 22 -3 0 2 11 11 25 9 14 13 25 9 25 -4 0 -2 7 5 15 7 8
9 15 5 15 -4 0 -2 6 4 13 6 8 8 17 4 20 -3 4 -1 7 5 7 7 0 12 7 12 15 0 8 16
58 36 111 20 53 37 103 39 112 2 10 4 18 5 20 2 1 3 5 5 10 1 4 4 14 8 22 28
73 80 229 81 243 0 9 4 17 9 17 5 0 7 6 4 14 -3 8 -2 16 3 18 5 2 10 17 12 33
2 17 6 32 9 35 7 6 87 237 92 265 2 11 8 29 14 40 11 20 53 140 57 160 1 6 5
16 9 23 5 6 6 12 3 12 -3 0 4 21 15 48 24 53 61 160 64 182 1 8 8 28 14 45 7
16 13 42 14 57 1 15 5 28 8 28 7 0 42 133 42 157 0 7 4 13 8 13 8 0 30 120 24
131 -3 4 -1 9 3 11 8 3 63 277 67 333 1 17 5 38 10 48 4 9 5 24 2 32 -4 8 -2
17 4 21 6 3 9 20 8 38 -2 17 0 36 4 43 4 6 7 26 7 45 0 18 3 67 7 108 10 103
10 282 0 355 -5 33 -8 67 -9 75 0 8 -2 22 -5 30 -3 8 -7 29 -9 45 -5 43 -54
175 -65 175 -5 0 -8 3 -6 8 3 12 -35 92 -45 92 -4 0 -8 6 -8 14 0 15 -96 136
-143 180 -49 45 -126 105 -182 140 -71 46 -235 122 -235 109 0 -3 -6 -1 -13 5
-7 6 -37 13 -67 16 -30 4 -73 9 -95 12 -22 3 -42 3 -45 0z m114 -599 c51 -22
137 -93 167 -137 13 -19 28 -38 34 -42 5 -4 6 -8 1 -8 -4 0 -1 -11 8 -25 9
-14 14 -25 12 -25 -3 0 2 -24 11 -52 11 -39 15 -91 14 -193 -1 -147 -6 -228
-14 -242 -5 -10 -30 -200 -27 -209 1 -4 -3 -10 -9 -13 -6 -4 -12 -32 -13 -64
-2 -31 -7 -57 -11 -57 -5 0 -8 -12 -6 -27 1 -16 -1 -35 -4 -43 -3 -8 -11 -42
-17 -75 -6 -33 -20 -94 -31 -135 -11 -41 -22 -84 -24 -95 -2 -11 -11 -41 -19
-67 -8 -27 -13 -48 -10 -48 3 0 2 -6 -3 -12 -4 -7 -8 -15 -8 -18 -1 -3 -9 -23
-19 -45 -9 -21 -18 -46 -19 -55 -2 -8 -5 -19 -9 -25 -3 -5 -9 -26 -14 -45 -11
-49 -11 -49 -14 -55 -1 -3 -4 -9 -5 -15 -1 -5 -4 -12 -5 -15 -1 -3 -3 -8 -4
-12 -1 -5 -7 -18 -14 -30 -7 -13 -10 -23 -7 -23 3 0 -2 -11 -11 -25 -9 -14
-13 -25 -9 -25 4 0 2 -7 -5 -15 -7 -8 -9 -15 -5 -15 4 0 3 -6 -3 -12 -6 -7
-10 -15 -10 -18 2 -9 -34 -114 -48 -142 -8 -15 -16 -37 -18 -50 -3 -13 -5 -24
-7 -25 -1 -2 -3 -7 -4 -13 -1 -5 -4 -12 -5 -15 -1 -3 -4 -9 -5 -15 -1 -5 -4
-12 -5 -15 -1 -3 -3 -8 -4 -12 -1 -5 -19 -60 -40 -123 -21 -63 -38 -123 -39
-132 -1 -10 -4 -18 -8 -18 -3 0 -10 -19 -15 -42 -10 -56 -11 -62 -14 -70 -1
-5 -3 -11 -4 -15 -1 -5 -13 -39 -27 -78 -47 -129 -59 -167 -53 -176 3 -5 0 -9
-5 -9 -6 0 -10 -3 -9 -7 1 -5 -6 -26 -16 -48 -9 -21 -18 -46 -19 -55 -2 -8 -9
-26 -17 -40 -7 -14 -13 -27 -13 -30 1 -6 -6 -26 -23 -72 -8 -21 -11 -38 -8
-38 4 0 1 -6 -5 -13 -6 -8 -8 -17 -4 -20 3 -4 2 -7 -4 -7 -9 0 -14 -11 -28
-62 -2 -5 -4 -10 -5 -13 -1 -3 -3 -8 -5 -12 -1 -5 -7 -21 -14 -38 -7 -16 -14
-37 -16 -45 -2 -8 -10 -33 -19 -55 -51 -137 -75 -209 -70 -216 3 -5 1 -9 -4
-9 -8 0 -24 -51 -27 -85 0 -5 -4 -15 -8 -21 -11 -18 -46 -134 -40 -134 3 0 0
-7 -7 -15 -6 -8 -9 -19 -5 -25 3 -5 2 -10 -4 -10 -9 0 -27 -71 -24 -97 0 -7
-3 -13 -7 -13 -4 0 -10 -15 -14 -32 -4 -18 -18 -69 -31 -113 -14 -44 -26 -91
-27 -105 -2 -14 -5 -27 -8 -30 -8 -8 -72 -253 -74 -282 0 -16 -5 -28 -10 -28
-4 0 -6 -9 -3 -20 3 -11 1 -20 -5 -20 -6 0 -8 -9 -5 -20 3 -11 1 -23 -5 -26
-5 -3 -8 -15 -5 -25 3 -11 1 -19 -3 -19 -7 0 -17 -37 -25 -90 0 -3 -4 -11 -8
-17 -5 -7 -6 -17 -2 -22 3 -5 0 -13 -6 -16 -5 -4 -8 -13 -5 -20 3 -8 1 -15 -4
-17 -5 -2 -11 -21 -13 -44 -2 -23 -7 -46 -11 -52 -3 -5 -3 -17 0 -26 4 -9 1
-16 -6 -16 -8 0 -10 -9 -6 -24 3 -14 1 -28 -5 -31 -6 -4 -8 -13 -5 -20 2 -7 1
-16 -4 -21 -17 -18 -39 -204 -39 -331 0 -73 -3 -138 -7 -145 -4 -6 -9 -121
-10 -255 -1 -133 -5 -247 -9 -252 -3 -5 -5 -22 -5 -38 -1 -41 -7 -86 -15 -106
-4 -9 -5 -26 -2 -37 3 -11 1 -23 -5 -26 -5 -3 -8 -18 -7 -32 1 -15 -1 -34 -4
-42 -3 -8 -9 -42 -12 -75 -9 -96 -14 -128 -26 -163 -6 -18 -8 -39 -5 -47 3 -8
1 -15 -5 -15 -6 0 -10 -12 -8 -27 1 -16 -2 -36 -6 -45 -4 -10 -5 -24 -2 -32 3
-8 2 -16 -3 -18 -5 -2 -11 -30 -13 -63 -3 -33 -7 -67 -10 -75 -7 -22 -49 -290
-51 -325 -1 -16 -5 -35 -9 -42 -4 -7 -8 -27 -8 -45 0 -18 -3 -60 -5 -93 -3
-33 -6 -94 -9 -135 -2 -41 -7 -136 -11 -210 -10 -172 -10 -316 -1 -405 28
-273 26 -432 -8 -725 -29 -254 -28 -243 -37 -251 -5 -3 -9 -28 -10 -57 -2 -29
-6 -52 -9 -52 -4 0 -9 -21 -13 -47 -3 -27 -17 -95 -31 -153 -14 -58 -27 -112
-28 -120 -2 -8 -5 -19 -8 -25 -7 -11 -32 -112 -34 -135 0 -9 -4 -20 -7 -25 -7
-11 -50 -162 -53 -185 -1 -8 -5 -22 -8 -30 -4 -8 -8 -24 -10 -35 -2 -11 -7
-27 -10 -35 -4 -8 -8 -26 -10 -40 -2 -14 -9 -37 -15 -51 -5 -14 -13 -39 -16
-55 -3 -16 -16 -64 -30 -106 -13 -43 -22 -78 -20 -78 3 0 2 -6 -3 -12 -4 -7
-8 -16 -9 -20 -1 -5 -3 -10 -4 -13 -1 -3 -3 -8 -5 -12 -1 -5 -10 -26 -20 -48
-9 -22 -19 -47 -20 -55 -2 -8 -4 -17 -5 -20 -1 -3 -2 -8 -1 -12 0 -5 -4 -8
-10 -8 -5 0 -8 -4 -4 -9 3 -5 1 -12 -4 -15 -5 -3 -12 -18 -16 -33 -3 -16 -13
-41 -20 -58 -20 -44 -75 -189 -74 -198 0 -4 -7 -15 -16 -23 -8 -9 -15 -22 -15
-30 0 -8 -4 -14 -9 -14 -5 0 -13 -10 -17 -22 -4 -13 -9 -25 -13 -28 -18 -15
-129 -188 -124 -194 3 -3 2 -6 -4 -6 -10 0 -93 -119 -93 -132 0 -3 -14 -20
-30 -38 -17 -18 -33 -43 -36 -56 -3 -13 -10 -24 -15 -24 -5 0 -9 -7 -9 -15 0
-8 -4 -15 -10 -15 -5 0 -10 -7 -10 -15 0 -8 -4 -15 -10 -15 -5 0 -10 -5 -10
-10 0 -6 -8 -19 -17 -30 -10 -10 -27 -35 -38 -56 -11 -20 -33 -51 -50 -69
-102 -109 -254 -262 -277 -280 -15 -11 -87 -74 -160 -140 -73 -66 -164 -146
-203 -177 -38 -31 -80 -66 -93 -77 -12 -12 -27 -21 -32 -21 -6 0 -15 -9 -22
-20 -7 -11 -19 -20 -26 -20 -7 0 -15 -7 -18 -15 -4 -8 -10 -15 -15 -15 -12 0
-113 -79 -117 -91 -2 -5 -9 -9 -15 -9 -7 0 -38 -24 -69 -53 -31 -28 -69 -61
-84 -72 -15 -11 -32 -24 -38 -30 -6 -5 -31 -23 -55 -40 -24 -16 -45 -35 -48
-42 -3 -7 -10 -13 -16 -13 -8 0 -42 -25 -140 -106 -9 -7 -21 -14 -27 -14 -5 0
-13 -6 -17 -13 -4 -6 -17 -18 -28 -25 -11 -7 -35 -22 -52 -33 -18 -12 -33 -25
-33 -31 0 -5 -5 -6 -10 -3 -6 3 -13 -1 -16 -9 -3 -9 -10 -14 -14 -11 -5 3 -16
-5 -25 -17 -8 -13 -16 -21 -18 -19 -3 5 -77 -32 -77 -40 0 -6 -15 -12 -48 -19
-4 -1 -14 -8 -23 -16 -9 -8 -19 -11 -22 -7 -4 3 -7 1 -7 -5 0 -7 -3 -11 -7
-10 -19 3 -133 -52 -133 -64 0 -5 -7 -8 -15 -8 -8 0 -15 -5 -15 -11 0 -5 -4
-8 -8 -5 -5 3 -18 -4 -30 -14 -12 -11 -24 -20 -28 -20 -11 0 -178 -112 -182
-122 -2 -4 -7 -6 -11 -4 -4 3 -22 -8 -39 -23 -17 -16 -32 -27 -34 -25 -2 2
-28 -16 -58 -39 -30 -24 -90 -67 -132 -96 -43 -29 -78 -57 -78 -62 0 -5 -7 -9
-15 -9 -8 0 -15 -4 -15 -10 0 -5 -6 -10 -13 -10 -7 0 -27 -13 -45 -29 -17 -16
-41 -32 -52 -36 -11 -3 -20 -11 -20 -16 0 -5 -5 -9 -11 -9 -6 0 -28 -14 -49
-30 -21 -17 -42 -30 -47 -30 -5 0 -18 -8 -29 -18 -10 -9 -31 -23 -46 -29 -16
-7 -28 -17 -28 -23 0 -5 -7 -10 -15 -10 -8 0 -15 -4 -15 -10 0 -5 -5 -10 -11
-10 -10 0 -186 -135 -220 -169 -8 -9 -39 -34 -67 -56 -29 -21 -52 -43 -52 -47
0 -4 -7 -8 -15 -8 -9 0 -18 -7 -21 -15 -4 -8 -12 -15 -18 -15 -7 0 -30 -15
-52 -33 -35 -29 -78 -62 -249 -188 -62 -46 -207 -139 -258 -164 -21 -11 -49
-30 -64 -42 -14 -13 -34 -23 -45 -23 -10 0 -18 -4 -18 -9 0 -5 -15 -14 -32
-21 -18 -7 -75 -33 -125 -57 -51 -24 -95 -44 -98 -44 -2 0 -33 -13 -67 -29
-35 -17 -70 -30 -79 -30 -9 0 -19 -3 -23 -7 -4 -5 -12 -9 -17 -9 -5 -1 -10 -2
-11 -4 -2 -1 -10 -3 -19 -5 -9 -1 -74 -19 -145 -39 -71 -20 -145 -39 -164 -42
-19 -4 -41 -11 -47 -17 -7 -5 -13 -7 -13 -4 0 3 -15 1 -32 -4 -18 -6 -42 -12
-53 -14 -11 -3 -33 -8 -50 -11 -16 -3 -34 -9 -40 -12 -5 -3 -16 -7 -25 -8 -8
-1 -33 -5 -55 -8 -84 -14 -164 -23 -260 -30 -27 -2 -79 -7 -115 -11 -36 -3
-78 -8 -95 -10 -118 -12 -166 -18 -205 -26 -25 -5 -61 -12 -80 -14 -52 -7
-121 -15 -160 -19 -19 -2 -62 -7 -95 -11 -124 -16 -473 -9 -503 9 -5 3 -32 8
-58 10 -27 2 -56 6 -64 9 -21 8 -222 50 -237 50 -7 0 -13 3 -13 7 0 4 -19 10
-42 14 -64 11 -71 12 -98 23 -14 6 -41 14 -60 19 -50 11 -50 11 -55 14 -3 1
-8 3 -12 4 -84 22 -241 79 -350 127 -24 11 -47 19 -53 19 -6 0 -27 11 -48 24
-20 13 -62 34 -92 47 -30 12 -114 51 -187 86 -72 35 -136 63 -142 63 -6 0 -11
5 -11 12 0 6 -3 9 -6 5 -6 -6 -124 51 -134 64 -3 4 -38 26 -79 49 -41 23 -92
55 -114 71 -22 16 -46 29 -54 29 -7 0 -13 5 -13 10 0 6 -4 10 -10 10 -5 0 -18
6 -27 14 -10 8 -83 58 -163 111 -80 52 -150 100 -157 105 -7 6 -16 10 -22 10
-5 0 -11 4 -13 9 -3 8 -95 72 -147 101 -14 8 -28 17 -31 20 -3 3 -22 14 -42
25 -21 11 -38 23 -38 27 0 3 -10 10 -22 13 -13 4 -51 25 -85 46 -35 22 -63 36
-63 32 0 -5 -4 -3 -8 4 -10 16 -118 64 -126 56 -3 -4 -6 -1 -6 5 0 7 -9 12
-20 12 -11 0 -20 4 -20 9 0 8 -32 24 -51 26 -3 0 -21 8 -40 17 -19 9 -119 59
-224 111 -104 52 -238 119 -297 150 -60 31 -108 54 -108 51 0 -3 -7 2 -16 10
-8 9 -21 16 -29 16 -7 0 -15 3 -17 8 -3 7 -143 103 -163 111 -5 2 -21 15 -34
28 -14 12 -29 23 -33 23 -5 0 -16 8 -27 17 -10 10 -31 28 -47 40 -37 29 -153
121 -227 181 -32 26 -63 49 -70 51 -6 2 -25 18 -42 35 -18 17 -45 42 -62 56
-88 74 -168 149 -288 270 -202 204 -205 208 -205 219 0 6 -9 16 -20 23 -11 7
-20 18 -20 24 0 6 -12 22 -28 36 -15 14 -34 36 -42 48 -8 13 -25 34 -37 47
-13 13 -23 27 -23 31 0 4 -14 22 -30 40 -16 18 -30 35 -30 38 0 7 -64 88 -72
92 -5 2 -8 9 -8 16 0 6 -8 19 -17 28 -23 22 -43 46 -43 52 0 6 -113 183 -129
202 -10 12 -131 260 -154 316 -8 20 -13 39 -9 42 3 3 0 6 -6 6 -7 0 -11 3 -11
7 1 5 0 10 -1 13 -1 3 -3 13 -5 22 -2 14 -50 150 -73 208 -3 8 -7 20 -8 25 -1
6 -3 13 -4 18 -1 4 -4 12 -5 17 -1 6 -3 11 -4 13 -2 1 -4 13 -7 27 -2 14 -7
32 -11 40 -3 8 -8 24 -10 35 -2 10 -13 49 -24 85 -12 36 -23 81 -26 100 -3 19
-9 43 -15 53 -5 9 -7 21 -4 25 2 4 -2 34 -10 67 -15 65 -25 121 -26 145 0 8
-5 35 -10 60 -6 25 -12 59 -13 75 -1 17 -6 68 -10 115 -4 47 -9 315 -10 595
-3 497 -6 593 -21 665 -8 39 -9 49 -17 102 -12 78 -20 108 -28 114 -5 3 -7 9
-4 13 2 5 0 23 -6 42 -6 19 -12 43 -14 54 -2 11 -6 31 -10 45 -3 14 -9 39 -12
55 -3 17 -9 37 -14 46 -4 9 -6 19 -3 22 3 3 2 12 -2 19 -5 7 -10 23 -12 36 -1
12 -8 35 -14 50 -6 15 -12 34 -13 42 -3 27 -28 125 -34 135 -7 12 -8 19 -16
65 -3 19 -9 42 -12 50 -3 8 -7 24 -8 36 -2 11 -9 40 -15 65 -24 89 -31 144
-44 344 -3 50 -8 101 -11 115 -3 14 -7 57 -10 95 -3 39 -7 93 -10 120 -16 177
-18 364 -6 570 11 183 5 615 -10 685 -6 30 -12 71 -14 90 -4 34 -8 65 -20 148
-3 20 -8 53 -10 72 -2 19 -6 50 -10 67 -3 18 -7 46 -10 62 -7 48 -26 115 -37
129 -6 6 -8 12 -5 12 3 0 1 15 -4 33 -11 33 -16 55 -23 85 -10 44 -29 108 -34
117 -4 6 -7 15 -8 20 -1 6 -16 39 -33 75 -51 102 -62 140 -65 215 -2 39 -6 77
-8 85 -12 40 -31 107 -33 120 -2 8 -4 15 -5 15 -1 0 -3 8 -5 17 -3 19 -23 85
-32 108 -4 8 -7 18 -8 23 -2 4 -3 8 -5 10 -1 1 -3 9 -5 17 -3 8 -15 49 -29 90
-62 190 -87 266 -90 280 -3 8 -5 16 -5 18 -1 1 -1 3 0 5 0 1 -5 16 -11 32 -12
30 -17 48 -26 95 -8 40 -32 119 -41 133 -4 6 -8 17 -10 22 -10 46 -13 59 -18
75 -3 10 -8 28 -10 39 -17 77 -27 116 -34 126 -3 6 -7 18 -8 28 -2 10 -13 48
-25 85 -12 37 -21 68 -20 69 1 2 -5 21 -13 43 -8 22 -12 40 -9 40 3 0 2 6 -3
13 -8 12 -8 14 -18 59 -3 15 -10 40 -17 55 -6 16 -12 33 -14 38 -15 61 -26
104 -30 124 -3 14 -7 29 -10 33 -3 5 -8 23 -11 41 -3 17 -20 80 -39 140 -19
60 -34 116 -34 126 0 9 -5 22 -12 29 -7 7 -9 12 -5 12 3 0 2 12 -4 28 -6 15
-13 37 -15 49 -2 12 -9 35 -16 50 -6 16 -12 33 -13 38 -2 6 -9 30 -16 55 -7
25 -13 48 -15 53 -1 4 -2 8 -4 10 -1 1 -3 9 -5 17 -8 42 -28 111 -47 160 -11
30 -21 62 -23 70 -5 24 -36 133 -42 150 -8 19 -7 18 -17 60 -5 19 -13 44 -20
55 -6 11 -11 25 -12 30 -1 22 -27 131 -32 140 -7 12 -9 18 -18 65 -3 19 -11
41 -16 48 -6 6 -8 12 -5 12 4 0 0 19 -9 41 -8 23 -16 51 -19 63 -2 12 -7 32
-10 46 -3 14 -8 36 -11 50 -2 14 -7 36 -11 50 -15 60 -19 77 -27 125 -2 17
-10 53 -16 80 -14 58 -17 80 -25 155 -19 170 -22 268 -11 320 4 19 9 44 11 55
5 25 20 80 33 123 6 17 8 32 5 32 -3 0 -1 6 4 13 6 6 13 25 17 40 5 22 11 27
31 24 28 -3 216 -96 227 -112 5 -7 8 -7 8 0 0 6 3 5 8 -1 10 -15 154 -104 168
-104 7 0 14 -7 18 -15 3 -8 12 -15 21 -15 8 0 15 -3 15 -7 0 -5 17 -19 38 -33
31 -21 69 -49 147 -108 6 -4 33 -26 61 -50 27 -23 53 -42 57 -42 4 0 24 -15
43 -32 20 -18 43 -37 52 -42 10 -5 21 -15 25 -23 4 -7 15 -13 22 -13 8 0 15
-5 15 -10 0 -6 8 -14 17 -17 9 -4 26 -14 38 -24 54 -46 114 -91 155 -116 25
-15 51 -35 58 -45 7 -10 18 -18 23 -18 9 0 21 -8 54 -37 7 -7 16 -13 20 -13 4
0 12 -6 19 -12 8 -7 24 -20 36 -28 13 -8 30 -23 39 -32 8 -10 19 -18 24 -18 4
0 18 -9 30 -21 12 -12 47 -39 77 -62 30 -22 69 -52 86 -66 17 -14 41 -33 54
-41 13 -8 37 -28 55 -45 17 -16 58 -52 91 -78 101 -83 151 -128 282 -254 69
-68 130 -123 134 -123 4 0 8 -6 8 -13 0 -7 12 -24 27 -38 16 -14 71 -76 123
-139 52 -63 109 -129 125 -148 55 -61 70 -78 109 -128 21 -27 51 -62 67 -79
48 -52 114 -129 137 -159 12 -16 44 -54 72 -85 27 -31 70 -82 96 -113 26 -32
50 -58 55 -58 5 0 9 -7 9 -14 0 -8 16 -27 35 -42 19 -14 35 -31 35 -38 0 -6
13 -24 29 -41 72 -74 141 -148 141 -153 0 -10 435 -442 446 -442 5 0 20 -13
32 -30 13 -16 29 -30 37 -30 8 0 15 -4 15 -10 0 -5 7 -10 15 -10 8 0 15 -3 15
-8 0 -9 96 -54 130 -60 42 -8 108 -4 131 8 11 6 42 17 67 25 26 7 87 27 137
45 77 28 99 32 151 27 82 -8 81 -7 122 -45 20 -19 44 -40 53 -48 19 -17 89
-47 89 -38 0 4 6 1 14 -5 12 -10 86 -8 125 3 9 3 29 8 46 10 16 3 39 13 51 23
13 10 38 31 58 46 50 40 99 45 167 16 45 -20 70 -24 154 -23 55 0 118 4 140 8
22 3 69 9 105 11 36 3 71 8 79 10 7 3 45 8 83 11 38 3 108 12 156 20 137 22
145 23 187 29 36 5 59 8 135 20 14 2 49 6 79 9 30 3 66 7 80 10 40 9 232 26
351 31 253 13 940 6 1120 -10 19 -2 67 -6 105 -9 122 -11 224 -23 265 -31 14
-2 52 -7 85 -10 89 -7 147 -14 191 -20 77 -12 120 -16 304 -29 36 -3 121 -7
190 -10 69 -4 148 -8 175 -11 28 -3 106 -7 175 -10 69 -3 152 -8 185 -10 33
-3 92 -7 130 -10 96 -8 137 -12 230 -23 44 -6 89 -10 100 -10 49 -1 214 -16
286 -27 24 -3 60 -8 79 -10 19 -2 62 -9 95 -15 97 -17 221 -23 257 -11 18 6
50 12 71 13 21 1 41 6 43 10 3 5 10 6 15 3 5 -4 9 -1 9 4 0 6 7 11 15 11 7 0
18 6 22 13 4 7 21 21 37 31 33 21 38 18 81 -56 17 -28 42 -60 57 -71 31 -23
104 -38 132 -27 29 11 66 45 66 60 0 7 2 11 5 8 4 -3 24 -2 46 3 46 11 128 -7
194 -41 35 -18 51 -20 130 -14 88 6 205 44 205 65 0 5 7 9 15 9 8 0 23 8 33
18 9 9 31 27 47 40 85 66 755 719 755 737 0 6 14 19 30 28 17 10 30 22 30 26
0 4 48 57 108 118 174 179 213 222 210 228 -2 3 11 14 29 25 18 10 40 31 50
46 10 16 54 64 98 109 124 125 205 212 205 219 0 5 54 62 202 211 27 28 46 54
42 58 -4 4 0 7 9 7 10 0 17 4 17 9 0 16 609 641 625 641 2 0 32 27 67 59 35
33 86 80 113 105 28 25 64 58 81 73 17 15 52 45 77 66 26 21 52 43 59 50 7 7
74 66 148 131 74 66 147 131 162 145 15 14 51 44 79 66 29 22 68 55 87 73 19
17 37 32 40 32 5 0 11 4 64 53 14 13 33 27 42 30 9 4 16 11 16 17 0 5 5 10 11
10 12 0 101 69 107 82 2 5 8 8 13 8 10 0 132 91 137 103 2 4 10 7 18 7 8 0 17
7 20 15 4 8 13 15 20 15 8 0 17 7 20 15 4 8 10 15 15 15 5 0 59 34 121 75 145
97 167 111 201 126 15 7 27 16 27 20 0 4 11 10 24 13 14 3 31 12 38 19 16 15
130 71 141 69 4 -1 7 3 7 9 0 5 5 7 10 4 6 -3 10 -1 10 6 0 7 3 10 6 6 4 -3
21 1 38 10 17 10 34 16 39 15 4 -1 7 2 7 6 0 5 6 9 13 10 19 1 59 11 64 16 10
10 132 -2 167 -17z"/>
<path d="M16416 16314 c-7 -6 -35 -24 -62 -40 -28 -16 -73 -48 -100 -71 -27
-23 -87 -72 -134 -108 -47 -37 -98 -80 -115 -96 -236 -230 -406 -403 -501
-514 -29 -33 -71 -83 -95 -111 -24 -28 -57 -68 -74 -88 -16 -21 -39 -48 -51
-60 -11 -11 -38 -43 -59 -71 -22 -27 -44 -54 -51 -60 -6 -5 -26 -30 -45 -55
-18 -25 -38 -50 -44 -56 -5 -6 -21 -26 -35 -44 -14 -18 -30 -38 -35 -44 -6 -6
-41 -49 -78 -96 -37 -47 -87 -110 -112 -141 -25 -31 -45 -61 -45 -67 0 -6 -4
-12 -8 -14 -13 -5 -102 -124 -102 -136 0 -6 -4 -12 -9 -14 -14 -4 -101 -139
-101 -155 0 -7 -4 -13 -9 -13 -5 0 -28 -39 -52 -87 -23 -49 -46 -96 -51 -106
-16 -32 -17 -113 -3 -140 7 -15 25 -39 39 -54 23 -24 34 -28 87 -30 78 -2 115
19 193 107 32 36 73 81 92 101 19 21 34 40 34 43 0 3 8 14 18 25 42 45 180
232 195 264 6 15 15 27 18 27 4 0 22 24 40 53 18 28 36 54 40 57 7 5 95 129
157 220 20 30 45 64 56 75 10 11 35 45 55 75 39 60 56 82 84 108 9 9 17 22 17
29 0 7 5 13 10 13 6 0 10 4 10 8 0 5 18 28 40 52 22 24 40 47 40 51 0 5 12 21
26 36 50 55 54 60 54 68 0 4 10 18 23 29 12 12 29 32 37 45 8 12 30 39 49 59
18 20 54 64 79 97 26 33 51 66 57 73 5 7 18 21 28 30 9 9 17 20 17 24 0 5 8
17 18 27 47 52 62 69 62 74 0 3 13 20 29 39 25 28 117 153 163 222 7 10 32 44
54 75 23 31 51 74 63 96 12 22 33 58 46 80 27 45 32 77 12 93 -16 14 -56 11
-71 -4z"/>
<path d="M2913 16179 c-19 -19 -16 -63 7 -89 11 -13 20 -26 20 -30 0 -3 12
-20 28 -37 15 -17 41 -48 57 -69 68 -85 188 -214 276 -298 129 -122 564 -545
597 -580 15 -16 108 -111 207 -213 188 -192 198 -202 360 -378 218 -237 244
-265 315 -345 138 -156 303 -327 352 -366 60 -48 102 -67 150 -70 94 -5 143
47 147 156 2 62 -1 72 -54 175 -31 61 -62 115 -70 121 -8 6 -15 16 -15 23 0 6
-4 11 -10 11 -5 0 -10 6 -10 14 0 8 -13 27 -28 44 -15 16 -40 47 -55 68 -124
176 -672 733 -1071 1089 -37 33 -89 79 -114 103 -40 37 -103 90 -213 179 -12
10 -29 26 -38 36 -9 10 -43 38 -76 61 -33 24 -78 60 -100 80 -22 19 -43 36
-46 36 -3 0 -26 16 -50 35 -24 19 -50 35 -56 35 -7 0 -13 5 -13 10 0 6 -6 10
-14 10 -8 0 -16 4 -18 10 -3 10 -68 47 -178 100 -148 72 -263 103 -287 79z"/>
<path d="M11427 12462 c-10 -10 -17 -26 -17 -35 0 -9 -5 -17 -10 -17 -14 0
-10 -94 5 -135 32 -84 58 -125 114 -177 34 -32 68 -58 76 -58 8 0 15 -4 15
-10 0 -5 7 -10 15 -10 8 0 15 -5 15 -10 0 -8 171 -98 200 -105 3 -1 18 -7 34
-14 16 -6 38 -13 50 -16 11 -2 21 -4 21 -6 0 -11 224 -16 274 -5 64 13 164 67
209 111 75 75 51 97 -128 115 -63 6 -119 15 -125 19 -5 5 -26 12 -45 15 -68
14 -238 85 -268 113 -7 6 -28 17 -47 24 -19 7 -35 17 -35 21 0 4 -7 8 -15 8
-8 0 -15 4 -15 9 0 7 -76 61 -151 106 -9 6 -31 25 -47 43 -24 26 -38 32 -69
32 -26 0 -46 -6 -56 -18z"/>
<path d="M7430 12039 c-24 -11 -47 -23 -50 -27 -3 -4 -22 -16 -43 -27 -21 -11
-53 -34 -72 -50 -18 -17 -50 -43 -72 -58 -80 -55 -207 -199 -246 -277 -45 -90
-50 -127 -22 -144 11 -6 23 -15 26 -19 8 -11 112 -7 187 8 35 7 91 27 123 44
32 17 59 28 59 25 0 -3 14 5 31 17 17 12 48 31 70 43 123 67 259 191 259 238
0 10 4 18 9 18 18 0 19 75 1 115 -15 37 -70 108 -70 91 0 -3 -13 0 -30 9 -40
21 -106 18 -160 -6z"/>
<path d="M12700 11016 c-3 -3 -30 -8 -60 -11 -73 -8 -127 -21 -197 -45 -71
-26 -257 -112 -261 -122 -2 -5 -10 -8 -18 -8 -8 0 -14 -4 -14 -10 0 -6 -4 -9
-9 -7 -11 3 -101 -64 -101 -75 0 -4 -6 -8 -14 -8 -20 0 -180 -153 -226 -215
-29 -39 -72 -117 -85 -155 -10 -29 -19 -49 -30 -71 -8 -14 -16 -36 -19 -50 -3
-13 -10 -44 -16 -68 -15 -63 -6 -256 15 -311 9 -25 22 -60 28 -77 7 -18 15
-33 19 -33 3 0 12 -16 18 -35 6 -19 16 -35 21 -35 5 0 9 -7 9 -15 0 -8 9 -20
20 -27 11 -7 20 -18 20 -23 0 -28 204 -195 239 -195 5 0 11 -5 13 -10 4 -13
131 -60 162 -60 12 0 57 -9 98 -19 123 -32 463 -54 568 -37 14 2 45 7 70 10
63 9 118 25 125 36 3 6 13 10 21 10 22 0 116 46 141 70 12 11 27 20 33 20 6 0
13 7 16 15 4 8 10 15 16 15 24 0 146 143 192 225 26 48 49 92 50 99 1 6 4 16
8 21 7 12 36 152 37 180 5 141 0 350 -9 385 -6 25 -13 56 -16 70 -2 14 -7 32
-11 40 -3 8 -7 20 -8 26 -2 7 -25 51 -51 98 -55 99 -200 254 -258 275 -6 2
-25 15 -42 28 -17 12 -35 23 -39 23 -4 0 -31 11 -59 25 -28 13 -64 27 -81 30
-16 2 -41 8 -55 11 -33 9 -254 17 -260 10z m210 -373 c88 -37 128 -62 173
-110 66 -70 106 -133 113 -181 3 -20 8 -46 11 -57 7 -25 7 -154 0 -175 -3 -8
-8 -33 -11 -56 -6 -44 -45 -147 -58 -152 -4 -2 -8 -7 -8 -12 0 -12 -72 -83
-100 -98 -74 -41 -107 -56 -124 -59 -11 -2 -24 -7 -30 -12 -6 -4 -37 -13 -69
-20 -115 -25 -192 -31 -426 -32 l-193 0 -52 51 c-66 66 -86 88 -86 98 0 4 -7
15 -15 25 -8 9 -12 17 -10 17 3 0 0 10 -7 23 -15 28 -17 37 -25 122 -6 80 12
162 52 230 30 50 191 215 210 215 9 0 70 44 73 53 2 4 10 7 18 7 8 0 14 5 14
11 0 5 5 7 10 4 6 -3 10 -1 10 6 0 7 3 9 7 6 3 -4 21 5 40 19 18 14 33 22 33
19 0 -3 18 4 40 15 22 11 40 18 40 14 0 -4 7 -1 15 6 8 7 15 9 15 6 0 -4 5 -4
12 0 7 4 24 9 38 11 15 1 38 6 51 11 32 12 207 8 239 -5z"/>
<path d="M12565 10350 c-141 -30 -233 -214 -172 -343 39 -82 116 -109 234 -83
68 15 137 85 152 156 13 62 14 121 2 153 -13 34 -71 98 -82 91 -5 -3 -9 0 -9
5 0 6 -3 10 -7 9 -5 0 -15 1 -23 5 -28 10 -65 13 -95 7z"/>
<path d="M6679 10813 c-12 -14 -12 -15 -1 -9 11 7 12 4 3 -13 -7 -11 -19 -21
-29 -21 -28 0 -186 -58 -190 -70 -2 -5 -8 -8 -12 -5 -10 6 -131 -52 -141 -67
-3 -5 -10 -9 -14 -8 -8 3 -127 -83 -170 -122 -16 -15 -33 -28 -38 -28 -4 0
-12 -11 -17 -25 -5 -14 -14 -25 -19 -25 -13 0 -50 -66 -73 -130 -27 -75 -37
-141 -27 -167 5 -13 6 -23 3 -23 -2 0 2 -12 9 -27 9 -18 15 -64 15 -123 1 -52
6 -111 12 -130 6 -19 14 -48 17 -65 3 -16 10 -39 16 -50 6 -11 12 -25 13 -31
2 -13 83 -157 93 -164 3 -3 15 -18 25 -35 30 -45 107 -125 122 -125 8 0 14 -4
14 -10 0 -15 71 -57 121 -71 24 -7 51 -18 59 -25 43 -36 369 -42 530 -9 41 8
87 17 102 19 136 24 247 86 368 208 63 63 180 218 164 218 -3 0 3 15 14 33 11
17 23 46 27 62 10 37 9 34 24 70 19 46 34 193 26 260 -3 33 -6 70 -6 82 0 12
-4 25 -9 28 -6 4 -8 10 -5 15 7 12 -65 190 -77 190 -5 0 -7 4 -3 9 3 5 1 13
-5 16 -6 4 -21 23 -34 43 -49 77 -199 212 -235 212 -6 0 -11 5 -11 11 0 5 -4
7 -10 4 -5 -3 -10 -1 -10 4 0 6 -5 11 -11 11 -5 0 -31 10 -57 21 -25 12 -57
22 -69 22 -13 0 -23 3 -23 7 0 23 -263 35 -398 18 -25 -3 -36 0 -43 14 -12 22
-23 23 -40 1z m353 -369 c45 -8 53 -10 66 -14 4 -1 10 -2 15 -1 4 0 7 -4 7
-10 0 -5 5 -7 10 -4 6 3 10 1 10 -4 0 -6 6 -11 13 -11 22 0 112 -92 146 -148
30 -51 32 -58 32 -165 0 -62 -2 -122 -5 -134 -3 -13 -8 -31 -10 -42 -3 -10
-23 -49 -45 -86 -23 -37 -41 -68 -41 -70 0 -2 -15 -18 -34 -36 -56 -56 -138
-110 -188 -124 -5 -2 -10 -4 -13 -5 -3 -1 -9 -4 -15 -5 -5 -1 -11 -3 -12 -5
-6 -4 -60 -16 -118 -25 -25 -4 -49 -10 -55 -14 -21 -13 -227 -17 -247 -5 -7 5
-18 9 -24 10 -36 6 -194 139 -194 164 0 5 -6 13 -12 17 -16 10 -63 103 -82
161 -18 54 -18 167 0 210 12 31 123 169 159 200 8 7 51 28 95 47 44 19 90 40
102 47 13 7 26 13 31 14 4 1 8 2 10 4 1 1 18 4 37 6 19 3 42 7 50 11 8 3 30 8
49 10 18 2 49 7 67 11 42 9 139 7 196 -4z"/>
<path d="M6931 10187 c-6 -6 -11 -8 -11 -4 0 17 -60 -25 -87 -60 -43 -55 -53
-82 -58 -158 -4 -66 9 -105 45 -140 17 -16 30 -25 30 -21 0 5 7 3 15 -4 26
-22 107 -16 151 10 21 13 41 28 42 32 2 4 9 8 16 8 19 0 63 51 80 91 18 43 16
146 -3 158 -7 5 -12 11 -11 15 2 12 -15 32 -46 55 -36 26 -143 38 -163 18z"/>
<path d="M10278 8755 c-2 -3 -27 -7 -54 -10 -27 -3 -66 -7 -87 -10 -22 -2 -53
-7 -69 -11 -31 -6 -38 -7 -138 -19 -30 -3 -73 -11 -95 -16 -42 -10 -63 -14
-130 -24 -22 -3 -51 -8 -65 -10 -27 -4 -90 -14 -130 -20 -14 -2 -47 -6 -75 -9
-27 -4 -59 -9 -70 -13 -11 -4 -29 -8 -40 -10 -40 -6 -60 -10 -60 -12 0 -2 -11
-5 -25 -7 -14 -3 -43 -9 -65 -15 -50 -14 -52 -14 -159 -39 -49 -11 -95 -25
-102 -31 -8 -6 -14 -9 -14 -5 0 16 -131 -64 -172 -105 -107 -110 -103 -285 9
-390 43 -41 144 -109 162 -109 6 0 11 -4 11 -9 0 -5 15 -13 33 -16 17 -4 37
-10 42 -14 6 -3 12 -6 15 -7 3 0 18 -6 35 -13 16 -7 37 -10 46 -8 9 2 23 1 31
-4 8 -5 69 -11 134 -14 148 -8 190 -13 263 -35 19 -5 37 -7 42 -5 4 3 10 1 13
-4 3 -5 27 -12 53 -16 27 -4 80 -21 119 -38 l72 -30 -4 -51 c-2 -28 -6 -145
-8 -261 l-5 -210 -103 -52 c-57 -29 -104 -53 -106 -52 -6 1 -68 -14 -77 -19
-14 -9 -40 -12 -142 -18 -87 -6 -96 -4 -136 19 -49 29 -108 108 -132 176 -8
24 -19 49 -24 55 -4 6 -11 23 -15 39 -3 15 -11 27 -17 27 -6 0 -8 4 -5 8 3 5
-7 24 -22 42 -23 27 -36 33 -79 37 -49 5 -54 3 -82 -27 -16 -18 -32 -48 -36
-67 -8 -44 -4 -150 7 -188 5 -16 11 -41 14 -55 8 -44 38 -120 47 -120 4 0 5
-4 2 -10 -3 -5 -1 -10 6 -10 7 0 10 -3 6 -6 -9 -9 79 -121 111 -142 14 -9 37
-27 50 -39 14 -12 47 -31 76 -42 28 -11 50 -25 48 -31 -4 -19 -3 -181 2 -226
8 -70 56 -173 107 -231 50 -57 155 -142 177 -143 6 0 12 -4 12 -9 0 -7 29 -19
60 -25 3 -1 10 -4 15 -8 6 -3 26 -9 45 -12 47 -8 68 -12 115 -24 72 -19 232
-20 266 -2 17 10 23 9 30 -1 4 -7 6 -16 4 -19 -6 -9 13 -77 32 -119 13 -29 82
-105 125 -138 25 -19 101 -53 133 -60 93 -20 191 14 237 82 46 67 62 149 60
305 -2 115 -12 158 -43 185 -19 18 -19 19 0 39 25 27 71 118 77 154 3 14 9 29
13 32 18 13 38 117 40 212 1 35 4 38 66 68 36 17 65 35 65 39 0 5 10 11 23 15
42 10 138 117 173 191 34 71 49 150 34 175 -10 16 -116 24 -125 9 -4 -5 -11
-7 -16 -4 -5 4 -9 2 -9 -4 0 -5 -8 -10 -17 -10 -17 0 -58 -8 -58 -11 0 -1 -10
-3 -23 -6 -13 -2 -36 -11 -53 -19 -16 -9 -29 -13 -29 -10 0 3 -10 0 -22 -7
-13 -6 -30 -13 -39 -15 -9 -1 -29 -8 -45 -14 -16 -7 -36 -14 -44 -17 -26 -8
-225 -10 -235 -3 -5 4 -25 14 -43 21 -18 7 -53 33 -77 59 -86 89 -84 84 -89
232 -3 74 -8 177 -11 229 l-7 95 94 52 c51 29 103 62 115 73 12 11 27 20 33
20 5 0 10 5 10 10 0 6 6 10 13 10 7 0 42 21 78 46 35 25 78 52 96 60 18 9 44
26 58 39 14 13 25 21 25 17 0 -4 4 -2 8 3 4 6 27 20 52 33 105 53 210 165 222
237 2 11 6 23 11 26 9 7 13 102 5 145 -7 44 -44 117 -71 141 -51 48 -188 109
-312 139 -86 21 -253 33 -267 19z m222 -329 c8 -2 34 -9 58 -16 32 -10 42 -18
42 -35 0 -32 -33 -57 -140 -108 -110 -53 -202 -105 -211 -119 -3 -5 -10 -9
-14 -8 -4 1 -17 -6 -29 -16 -11 -11 -37 -26 -56 -35 -44 -21 -136 -86 -169
-120 l-25 -26 -86 40 c-90 41 -152 62 -290 96 -47 12 -96 26 -110 31 -14 5
-41 12 -60 15 -34 5 -63 8 -230 21 -61 4 -88 12 -155 47 -44 23 -84 42 -88 42
-19 0 -25 30 -9 45 34 30 69 39 182 45 63 3 133 8 155 10 22 1 94 6 160 10
109 6 175 10 275 20 19 2 69 6 110 9 41 3 85 8 97 11 12 3 51 8 85 10 63 5
143 13 208 20 19 2 64 7 99 10 36 3 67 8 70 11 5 5 79 -1 131 -10z m-578
-1513 c10 -9 18 -21 18 -26 0 -6 7 -17 14 -26 8 -9 34 -37 57 -63 23 -27 48
-48 55 -48 8 0 14 -4 14 -9 0 -9 80 -50 109 -56 9 -2 28 -8 44 -14 15 -6 63
-14 106 -17 65 -6 79 -10 76 -23 -1 -9 -6 -36 -10 -61 -10 -65 -30 -106 -75
-159 -77 -93 -73 -179 12 -263 27 -28 54 -61 59 -75 13 -35 11 -124 -4 -152
-22 -44 -33 -40 -94 33 -18 21 -54 100 -59 129 -1 4 -3 9 -4 12 -1 3 -3 8 -5
13 -14 52 -48 121 -61 126 -8 3 -14 11 -14 19 0 11 -51 57 -65 58 -2 0 -16 6
-30 13 -13 7 -56 14 -93 15 -97 3 -157 25 -362 135 -33 18 -62 82 -75 169 -2
15 -7 32 -10 37 -3 5 11 17 32 26 131 55 261 138 308 198 24 30 32 31 57 9z"/>
<path d="M13988 8343 c-21 -8 -38 -21 -38 -28 0 -7 -5 -15 -11 -17 -5 -2 -11
-24 -12 -50 -1 -56 26 -96 111 -161 32 -25 66 -57 77 -73 11 -15 32 -39 48
-53 15 -14 27 -30 27 -36 0 -5 21 -37 45 -70 25 -33 55 -80 67 -105 12 -25 26
-48 31 -51 5 -3 9 -10 10 -15 0 -5 16 -42 35 -83 19 -41 36 -82 37 -90 2 -9 4
-17 5 -18 2 -2 4 -7 5 -13 1 -5 4 -13 5 -17 1 -5 2 -11 1 -15 0 -4 4 -20 10
-35 38 -96 11 -267 -63 -408 -12 -22 -29 -53 -37 -69 -9 -17 -24 -39 -33 -49
-10 -11 -15 -24 -12 -29 3 -4 1 -8 -4 -8 -5 0 -28 -28 -52 -61 -24 -34 -69
-90 -102 -124 -32 -34 -58 -68 -58 -74 0 -6 -4 -11 -9 -11 -6 0 -43 -30 -83
-67 -41 -38 -107 -95 -148 -128 -99 -80 -220 -203 -220 -223 0 -9 -3 -27 -6
-39 -9 -32 67 -105 136 -130 76 -28 215 -26 280 4 72 33 113 50 138 58 12 3
22 11 22 16 0 5 6 9 13 9 7 0 23 9 35 20 12 11 24 20 28 20 4 0 30 16 58 36
51 37 61 45 104 84 12 11 26 20 31 20 10 0 283 269 319 314 105 131 196 321
220 456 11 59 10 220 -2 310 -6 52 -35 145 -64 209 -14 31 -25 59 -24 64 1 4
-3 7 -9 7 -5 0 -8 4 -5 9 10 15 -123 224 -181 286 -7 8 -13 17 -13 21 0 7 -41
52 -106 117 -22 21 -57 56 -79 78 -22 21 -44 39 -48 39 -4 0 -13 5 -20 10 -55
47 -80 63 -156 103 -59 32 -108 49 -156 57 -38 6 -79 13 -90 15 -11 2 -37 -3
-57 -12z"/>
<path d="M5477 7889 c-37 -10 -124 -98 -172 -174 -20 -32 -38 -64 -40 -70 -2
-10 -17 -46 -53 -130 -9 -21 -17 -42 -17 -45 -1 -3 -6 -21 -13 -40 -6 -19 -13
-46 -16 -60 -3 -14 -10 -51 -16 -82 -20 -106 -18 -347 4 -448 3 -14 9 -41 12
-60 4 -19 9 -39 13 -45 3 -5 6 -15 7 -20 1 -6 12 -33 25 -60 13 -28 22 -53 21
-57 -1 -5 2 -8 7 -8 5 0 12 -11 15 -24 5 -20 57 -103 90 -144 87 -105 270
-264 346 -299 8 -4 23 -14 33 -23 20 -19 237 -130 253 -130 6 0 24 -7 41 -15
16 -8 38 -16 49 -18 10 -2 26 -6 34 -9 58 -22 133 -39 145 -34 8 3 17 1 20 -4
12 -20 285 -4 320 18 6 4 15 7 21 8 24 4 147 67 171 88 14 11 34 33 44 48 19
26 19 29 3 53 -18 27 -50 38 -159 55 -38 6 -115 24 -170 41 -55 17 -107 33
-115 34 -8 2 -44 15 -79 29 -36 14 -71 26 -78 26 -7 0 -13 4 -13 8 0 5 -33 24
-72 43 -40 19 -74 37 -76 42 -2 4 -10 7 -17 7 -7 0 -15 7 -19 15 -3 8 -10 15
-16 15 -6 0 -20 8 -31 18 -10 11 -31 25 -46 33 -35 18 -47 29 -178 157 -114
110 -154 161 -197 247 -28 56 -67 160 -75 203 -12 64 -4 265 12 305 4 9 5 23
2 31 -3 7 -1 18 3 22 5 5 11 18 13 29 1 11 5 25 9 30 5 9 12 37 23 94 7 35 35
111 56 153 22 42 22 105 1 128 -23 23 -80 32 -125 19z"/>
<path d="M13796 7815 c-62 -22 -85 -51 -90 -116 -5 -65 15 -109 62 -133 49
-26 139 -10 173 30 22 27 38 75 34 104 -2 14 -4 30 -4 37 -2 23 -51 71 -78 75
-16 3 -35 8 -43 11 -8 3 -33 0 -54 -8z"/>
<path d="M13471 7559 c-30 -12 -45 -27 -66 -73 -18 -38 -18 -39 4 -82 25 -46
54 -60 119 -55 39 3 81 41 89 82 6 30 -16 87 -42 109 -22 18 -78 28 -104 19z"/>
<path d="M6076 7533 c-4 -4 -11 -8 -14 -8 -50 -4 -83 -54 -84 -128 -2 -66 19
-100 75 -120 35 -12 85 -15 107 -7 3 1 8 2 12 1 16 -2 68 72 69 99 1 17 2 36
3 43 1 6 0 17 -3 22 -3 6 -6 16 -8 24 -3 22 -46 61 -73 66 -14 3 -36 7 -50 10
-14 3 -29 2 -34 -2z"/>
<path d="M13988 7324 c-10 -3 -18 -10 -18 -15 0 -5 -6 -9 -13 -9 -18 0 -36
-33 -43 -79 -17 -108 95 -185 196 -135 35 17 62 73 62 126 -1 27 -30 82 -51
95 -22 14 -107 24 -133 17z"/>
<path d="M6399 7196 c-28 -14 -53 -81 -39 -106 5 -9 7 -20 4 -23 -3 -3 4 -8
15 -12 12 -3 21 -11 21 -16 0 -19 67 -9 93 14 26 22 38 71 24 95 -5 6 -5 12
-2 12 4 0 -1 7 -10 16 -23 23 -79 34 -106 20z"/>
<path d="M5813 7064 c-48 -52 -38 -139 18 -167 34 -16 99 -9 122 14 46 46 48
95 5 143 -28 32 -37 36 -77 35 -35 -1 -51 -7 -68 -25z"/>
<path d="M13766 6863 c-20 -17 -28 -34 -31 -67 -6 -70 37 -111 114 -107 66 3
95 37 93 106 -3 83 -110 125 -176 68z"/>
<path d="M13325 6870 c-4 -6 -10 -8 -15 -5 -14 8 -38 -46 -35 -76 5 -45 34
-69 82 -69 46 0 65 18 78 71 12 49 -85 119 -110 79z"/>
<path d="M6635 6790 c-3 -6 -10 -8 -14 -5 -5 2 -20 -7 -35 -22 -25 -24 -31
-49 -28 -112 1 -22 44 -74 64 -77 5 -1 9 -3 11 -4 11 -10 78 -6 88 6 6 8 17
14 23 14 15 0 32 28 41 68 7 35 -17 102 -37 102 -6 0 -16 6 -22 14 -14 18 -82
30 -91 16z"/>
<path d="M6234 6779 c-50 -21 -65 -43 -66 -102 -2 -48 1 -60 20 -72 11 -9 27
-21 34 -28 7 -7 31 -14 53 -15 60 -4 105 38 110 102 4 44 1 50 -35 85 -40 38
-74 47 -116 30z"/>
<path d="M8524 5151 c-53 -30 -59 -41 -61 -110 -2 -91 25 -141 144 -257 53
-52 99 -94 103 -94 3 0 21 -13 40 -30 18 -16 46 -35 62 -42 15 -7 28 -16 28
-20 0 -5 5 -8 11 -8 7 0 17 -6 23 -14 36 -46 456 -226 493 -212 7 3 15 1 19
-5 3 -5 13 -9 22 -8 10 1 25 -1 35 -6 24 -10 463 -12 542 -3 112 14 140 18
165 24 14 3 36 8 49 10 100 19 263 73 354 117 59 28 107 55 107 59 0 5 5 8 12
8 13 0 25 10 97 81 86 86 95 99 145 204 34 71 36 81 22 100 -17 24 -61 25
-120 3 -28 -11 -71 -27 -96 -35 -25 -9 -51 -20 -57 -26 -7 -5 -13 -6 -13 -3 0
4 -9 2 -21 -5 -12 -6 -53 -20 -93 -30 -39 -11 -78 -22 -86 -26 -26 -11 -71
-22 -112 -28 -15 -2 -44 -9 -65 -15 -114 -32 -486 -46 -658 -24 -27 3 -63 7
-80 9 -16 2 -37 5 -45 8 -11 4 -128 35 -160 43 -3 0 -12 3 -20 6 -8 3 -37 13
-65 23 -27 9 -79 32 -115 50 -36 18 -76 36 -89 40 -14 4 -41 19 -61 34 -20 14
-65 40 -100 56 -36 17 -72 38 -82 48 -10 9 -25 17 -33 17 -8 0 -15 4 -15 8 0
12 -134 65 -169 67 -16 1 -42 -5 -57 -14z"/>
</g>
</svg>
