<?xml version="1.0" standalone="no"?>
<!DOCTYPE svg PUBLIC "-//W3C//DTD SVG 20010904//EN"
 "http://www.w3.org/TR/2001/REC-SVG-20010904/DTD/svg10.dtd">
<svg version="1.0" xmlns="http://www.w3.org/2000/svg"
 width="2048.000000pt" height="2048.000000pt" viewBox="0 0 2048.000000 2048.000000"
 preserveAspectRatio="xMidYMid meet">
<metadata>
Created by potrace 1.16, written by Peter Selinger 2001-2019
</metadata>
<g transform="translate(0.000000,2048.000000) scale(0.100000,-0.100000)"
fill="#474973" stroke="none">
<path d="M18494 19507 c-21 -4 -52 -10 -69 -13 -16 -3 -35 -10 -40 -14 -6 -5
-22 -11 -36 -13 -13 -3 -41 -12 -62 -20 -21 -9 -38 -15 -40 -14 -1 1 -19 -9
-39 -21 -21 -13 -38 -21 -38 -18 0 4 -17 -2 -37 -13 -21 -10 -42 -19 -46 -19
-4 0 -50 -23 -102 -51 -51 -28 -101 -51 -109 -51 -9 0 -16 -5 -16 -11 0 -5 -4
-8 -9 -4 -5 3 -13 0 -17 -6 -3 -6 -32 -22 -63 -36 -67 -30 -245 -133 -249
-145 -2 -4 -8 -8 -13 -8 -15 0 -139 -81 -139 -91 0 -5 -6 -9 -12 -9 -7 0 -29
-14 -48 -30 -19 -16 -40 -34 -47 -40 -7 -5 -17 -10 -22 -10 -6 0 -14 -6 -18
-13 -4 -6 -27 -25 -50 -41 -24 -16 -43 -33 -43 -37 0 -5 -7 -9 -15 -9 -7 0
-18 -6 -22 -13 -4 -6 -27 -25 -50 -41 -24 -16 -43 -33 -43 -37 0 -5 -6 -9 -13
-9 -7 0 -20 -8 -28 -17 -9 -10 -26 -25 -39 -33 -41 -27 -145 -103 -160 -117
-8 -8 -49 -39 -90 -69 -41 -30 -76 -59 -78 -64 -2 -6 -9 -10 -15 -10 -7 0 -31
-17 -55 -38 -23 -20 -54 -46 -68 -57 -47 -37 -76 -60 -101 -82 -14 -13 -29
-23 -32 -23 -3 0 -28 -20 -56 -45 -27 -25 -52 -45 -55 -45 -3 0 -27 -20 -55
-44 -27 -24 -63 -55 -79 -67 -16 -13 -39 -34 -52 -46 -13 -12 -30 -26 -38 -30
-8 -4 -38 -28 -66 -53 -29 -25 -68 -58 -88 -75 -74 -63 -181 -157 -238 -210
-18 -16 -61 -55 -95 -85 -182 -160 -430 -388 -642 -590 -55 -52 -143 -135
-196 -185 -225 -212 -511 -506 -511 -525 0 -19 -32 -17 -72 4 -35 19 -78 34
-108 40 -3 1 -10 5 -17 9 -16 10 -168 0 -192 -13 -12 -6 -21 -7 -21 -3 0 4 -5
2 -12 -5 -7 -7 -19 -12 -28 -12 -9 0 -42 -16 -73 -34 l-58 -35 -37 40 c-36 38
-114 82 -197 109 -45 15 -195 16 -222 2 -10 -6 -20 -10 -23 -10 -26 -2 -136
-52 -157 -71 -35 -32 -72 -51 -100 -51 -15 0 -125 2 -243 4 -235 5 -348 12
-560 33 -30 3 -80 7 -110 10 -30 2 -84 7 -120 10 -36 4 -427 8 -870 9 -443 1
-902 6 -1020 10 -355 14 -681 11 -940 -11 -30 -2 -84 -6 -120 -9 -223 -17
-295 -27 -412 -56 -80 -20 -180 -62 -211 -88 -13 -12 -20 -13 -29 -4 -7 7 -21
12 -33 12 -12 0 -27 6 -33 13 -28 27 -358 15 -447 -16 -40 -15 -52 -19 -64
-26 -10 -5 -29 8 -61 41 -25 26 -51 48 -58 48 -7 0 -12 4 -12 9 0 8 -53 34
-65 32 -3 -1 -21 5 -40 13 -19 8 -35 12 -35 9 0 -3 -6 -1 -13 6 -14 11 -189 9
-242 -3 -44 -11 -145 -57 -145 -67 0 -5 -5 -9 -12 -9 -6 0 -20 -8 -31 -17 -16
-14 -21 -15 -25 -5 -2 8 -18 30 -36 49 -44 51 -305 311 -355 355 -163 142
-190 166 -237 206 -59 49 -105 89 -150 130 -22 20 -63 56 -90 80 -27 24 -67
60 -90 80 -22 20 -62 56 -88 79 -26 23 -67 60 -92 82 -25 22 -66 58 -92 81
-26 23 -65 58 -88 78 -22 20 -57 51 -76 67 -19 17 -55 47 -79 68 -90 79 -117
103 -152 132 -20 17 -49 42 -63 58 -15 15 -31 27 -35 27 -5 0 -19 10 -32 23
-30 27 -76 66 -111 92 -15 11 -39 32 -53 48 -15 15 -30 27 -35 27 -8 0 -27 16
-73 60 -12 11 -24 20 -29 20 -4 0 -17 11 -28 26 -11 14 -23 23 -26 20 -3 -3
-11 3 -19 14 -8 11 -21 20 -29 20 -8 0 -14 4 -14 9 0 8 -212 171 -223 171 -3
0 -18 11 -33 25 -15 14 -31 25 -36 25 -5 0 -21 11 -36 25 -15 14 -32 25 -39
25 -7 0 -13 5 -13 10 0 6 -5 10 -10 10 -6 0 -23 11 -38 25 -15 14 -39 31 -54
38 -16 6 -28 15 -28 19 0 5 -5 8 -10 8 -6 0 -23 11 -38 25 -15 14 -39 31 -55
38 -15 6 -27 15 -27 19 0 5 -4 8 -9 8 -6 0 -22 11 -37 25 -15 14 -31 25 -36
25 -5 0 -21 11 -35 24 -14 13 -37 30 -52 38 -14 7 -28 16 -31 20 -11 15 -126
88 -137 88 -7 0 -13 4 -13 8 0 10 -82 58 -92 54 -5 -1 -8 2 -8 6 0 10 -50 37
-62 34 -5 -1 -8 1 -8 6 0 4 -69 41 -152 81 -84 41 -169 82 -188 92 -19 10 -38
18 -42 19 -4 0 -25 8 -45 17 -21 8 -42 16 -48 18 -5 1 -23 8 -40 14 -16 7 -34
14 -40 15 -5 1 -14 4 -20 8 -5 3 -26 9 -45 14 -19 4 -39 9 -45 10 -5 2 -21 6
-35 9 -74 20 -160 33 -228 36 -259 10 -421 -6 -522 -53 -25 -12 -48 -20 -52
-20 -5 1 -8 -3 -8 -8 0 -6 -7 -10 -15 -10 -13 0 -81 -62 -111 -102 -22 -28
-44 -77 -44 -97 0 -11 -5 -23 -11 -26 -6 -4 -8 -13 -5 -21 3 -7 1 -16 -5 -20
-6 -3 -9 -16 -8 -27 1 -12 -2 -30 -6 -40 -7 -18 -1 -265 9 -337 2 -19 7 -55
11 -80 7 -55 45 -221 53 -235 4 -5 8 -20 10 -33 1 -12 8 -35 14 -50 6 -15 12
-31 13 -37 12 -49 39 -132 47 -142 6 -7 8 -13 4 -13 -5 0 29 -102 57 -170 5
-14 12 -33 14 -43 2 -10 8 -28 15 -40 7 -12 13 -29 15 -37 4 -23 83 -213 95
-227 6 -7 7 -13 4 -13 -4 0 1 -17 12 -37 22 -44 55 -116 56 -123 3 -17 72
-166 81 -172 5 -4 7 -8 2 -8 -4 0 2 -19 14 -42 12 -24 21 -44 20 -46 -1 -1 11
-26 26 -55 15 -28 27 -54 28 -57 4 -23 31 -80 37 -80 4 0 7 -3 5 -8 -3 -11 35
-95 48 -104 5 -4 7 -8 2 -8 -9 0 82 -183 97 -192 6 -4 7 -8 1 -8 -6 0 -6 -3 1
-8 5 -4 30 -49 54 -99 24 -51 48 -93 53 -93 6 0 8 -3 4 -6 -3 -3 -2 -11 3 -18
6 -6 98 -189 206 -406 108 -217 199 -397 203 -400 5 -3 30 -50 57 -104 88
-178 106 -211 115 -214 5 -2 9 -8 9 -14 0 -6 13 -38 29 -72 40 -86 80 -193 77
-207 0 -3 5 -13 13 -22 7 -10 11 -17 7 -17 -3 0 -1 -12 5 -27 6 -16 13 -39 15
-53 3 -14 10 -43 16 -65 6 -22 11 -44 9 -49 -1 -4 3 -14 9 -20 5 -7 8 -15 5
-17 -2 -3 3 -29 11 -59 8 -30 17 -68 20 -85 3 -16 7 -37 10 -45 3 -8 8 -33 11
-55 2 -21 7 -43 9 -47 11 -17 17 -87 18 -213 1 -113 -3 -174 -20 -285 -2 -14
-6 -45 -8 -70 -11 -98 -21 -178 -32 -247 -3 -21 -7 -47 -9 -58 -1 -11 -5 -27
-9 -35 -3 -8 -7 -31 -8 -50 -2 -19 -5 -37 -8 -40 -6 -5 -55 -207 -55 -225 0
-5 -2 -12 -5 -15 -10 -10 -49 -143 -44 -152 3 -4 0 -8 -6 -8 -7 0 -10 -7 -6
-15 3 -8 2 -15 -2 -15 -8 0 -57 -153 -57 -175 0 -5 -3 -12 -6 -15 -10 -9 -58
-174 -53 -182 3 -4 0 -8 -6 -8 -7 0 -10 -6 -7 -14 3 -8 3 -16 -1 -18 -10 -4
-74 -210 -76 -242 0 -14 -4 -26 -7 -26 -9 0 -41 -139 -34 -150 3 -4 1 -10 -4
-12 -6 -1 -13 -28 -16 -58 -7 -55 -12 -93 -21 -140 -2 -14 -7 -41 -10 -60 -3
-19 -8 -48 -10 -65 -3 -16 -7 -43 -10 -60 -2 -16 -6 -48 -9 -70 -21 -156 -27
-241 -27 -375 -1 -123 5 -226 17 -325 4 -27 8 -66 10 -85 2 -19 6 -52 9 -73 3
-20 8 -53 11 -72 9 -65 14 -100 19 -125 2 -14 7 -47 10 -75 4 -27 9 -62 12
-77 3 -15 7 -43 10 -63 2 -19 6 -52 9 -73 3 -20 7 -59 10 -87 7 -65 13 -111
20 -160 3 -22 7 -53 9 -70 2 -16 7 -46 10 -65 4 -19 9 -46 11 -60 2 -14 6 -38
9 -55 3 -16 8 -52 11 -80 3 -27 8 -57 10 -65 5 -15 11 -70 20 -163 3 -26 7
-71 10 -100 12 -130 16 -234 19 -552 2 -187 6 -360 10 -385 4 -25 9 -58 11
-75 3 -27 8 -63 19 -135 3 -14 7 -41 11 -60 3 -19 8 -46 10 -60 2 -14 6 -36 8
-50 3 -14 8 -47 12 -75 4 -27 8 -52 11 -56 2 -4 6 -26 9 -50 6 -44 50 -231 62
-259 3 -8 8 -24 10 -35 2 -11 6 -27 10 -35 3 -8 7 -20 9 -27 5 -27 27 -89 34
-98 5 -5 9 -14 10 -20 20 -92 174 -437 255 -570 13 -22 29 -52 36 -67 6 -16
15 -28 20 -28 5 0 9 -5 9 -11 0 -12 60 -103 72 -107 4 -2 8 -8 8 -14 0 -8 51
-81 70 -98 3 -3 18 -24 34 -48 16 -23 32 -42 36 -42 4 0 11 -9 16 -20 17 -37
230 -275 384 -430 77 -76 179 -171 244 -225 20 -16 49 -41 65 -55 16 -14 40
-34 54 -45 15 -11 43 -35 64 -52 21 -18 41 -33 44 -33 3 0 23 -16 45 -35 21
-19 42 -35 46 -35 4 0 19 -11 34 -25 15 -14 31 -25 36 -25 5 0 21 -11 36 -25
15 -14 32 -25 39 -25 7 0 13 -4 13 -10 0 -5 7 -10 15 -10 8 0 15 -4 15 -10 0
-5 7 -10 15 -10 8 0 15 -4 15 -10 0 -5 5 -10 10 -10 6 0 20 -8 31 -19 11 -10
37 -27 59 -37 22 -10 40 -21 40 -24 0 -3 21 -17 48 -30 26 -14 49 -27 52 -30
14 -14 60 -39 60 -33 0 5 4 3 8 -3 9 -14 74 -49 84 -46 5 1 8 -2 8 -6 0 -5 24
-19 53 -33 28 -13 57 -29 63 -34 6 -6 31 -19 55 -30 24 -11 47 -24 51 -30 4
-5 8 -6 8 -2 0 5 34 -10 75 -33 41 -23 75 -38 75 -33 0 4 4 3 8 -4 4 -6 16
-13 27 -15 11 -1 22 -6 25 -10 3 -3 14 -8 25 -10 11 -1 22 -6 25 -10 3 -4 15
-9 25 -11 11 -1 26 -6 33 -10 6 -5 12 -5 12 0 0 4 4 2 9 -5 4 -7 18 -14 29
-15 12 -1 22 -4 22 -8 0 -8 59 -24 72 -21 5 1 8 -2 8 -7 0 -5 15 -13 32 -17
47 -11 47 -11 56 -14 4 -1 10 -2 14 -1 5 0 8 -4 8 -10 0 -6 7 -9 15 -5 8 3 15
1 15 -4 0 -8 51 -24 66 -20 4 1 10 -3 13 -9 4 -6 16 -12 26 -14 11 -2 30 -9
42 -15 13 -7 23 -9 23 -5 0 4 4 2 8 -4 4 -7 17 -14 27 -16 11 -2 29 -8 40 -14
11 -6 22 -11 25 -11 3 -1 21 -7 40 -16 19 -8 38 -12 42 -10 5 3 8 1 8 -5 0 -9
56 -27 72 -23 5 1 8 -3 8 -9 0 -6 6 -9 14 -6 8 3 16 2 18 -3 2 -5 14 -11 28
-14 14 -2 27 -5 30 -6 3 -2 8 -2 12 -1 5 0 8 -4 8 -10 0 -6 6 -9 14 -6 8 3 16
2 18 -3 2 -5 14 -11 28 -14 14 -2 27 -5 30 -6 3 -2 8 -2 12 -1 5 0 8 -3 8 -8
0 -9 51 -25 66 -21 4 1 10 -3 13 -9 4 -6 18 -13 31 -15 14 -2 27 -5 30 -6 3
-2 8 -2 12 -1 5 0 8 -4 8 -10 0 -6 7 -9 15 -5 8 3 15 2 15 -2 0 -11 101 -43
112 -36 4 3 8 0 8 -6 0 -7 7 -10 15 -6 8 3 15 1 15 -5 0 -6 7 -9 15 -6 8 4 17
2 20 -4 4 -5 10 -7 15 -4 5 3 12 0 15 -6 4 -5 13 -8 21 -5 8 3 14 1 14 -5 0
-6 7 -9 15 -5 8 3 15 1 15 -5 0 -6 7 -9 15 -6 8 4 17 2 20 -3 3 -5 12 -7 20
-3 8 3 15 0 15 -7 0 -7 7 -10 15 -6 8 3 15 1 15 -5 0 -6 7 -9 15 -6 8 4 17 2
20 -3 3 -5 12 -7 20 -3 8 3 15 0 15 -7 0 -7 7 -10 15 -6 8 3 15 1 15 -5 0 -6
7 -9 15 -5 8 3 15 1 15 -5 0 -6 9 -8 20 -4 12 4 20 2 20 -5 0 -7 7 -10 15 -6
8 3 15 1 15 -5 0 -6 7 -9 15 -6 8 4 17 2 21 -4 3 -6 12 -8 20 -5 8 3 14 1 14
-5 0 -6 7 -9 15 -5 8 3 15 1 15 -5 0 -6 7 -9 15 -5 8 3 15 1 15 -5 0 -6 7 -9
15 -5 8 3 15 1 15 -5 0 -6 7 -9 15 -5 8 3 15 1 15 -5 0 -6 6 -9 14 -6 8 3 16
1 18 -4 2 -5 13 -11 26 -12 12 0 22 -4 22 -8 0 -8 59 -24 72 -21 5 1 8 -2 8
-7 0 -9 51 -25 66 -21 4 1 10 -3 13 -9 4 -6 18 -13 31 -15 14 -2 27 -5 30 -6
3 -2 8 -2 13 -1 4 0 7 -4 7 -10 0 -6 7 -9 15 -5 8 3 15 1 15 -5 0 -6 6 -9 14
-6 8 3 16 2 18 -3 2 -5 14 -11 28 -14 14 -2 26 -5 28 -7 1 -1 7 -3 12 -4 6 -1
13 -4 18 -5 4 -1 10 -2 15 -1 4 0 7 -4 7 -10 0 -6 7 -9 15 -5 8 3 15 1 15 -5
0 -6 7 -9 15 -5 8 3 15 1 15 -5 0 -6 7 -9 15 -5 8 3 15 1 15 -5 0 -6 6 -9 14
-6 8 3 16 2 18 -3 2 -5 14 -11 28 -14 14 -2 26 -5 28 -7 1 -1 7 -3 12 -4 6 -1
13 -4 18 -5 4 -1 10 -2 15 -1 4 0 7 -4 7 -10 0 -6 7 -9 15 -5 8 3 15 1 15 -5
0 -6 7 -9 15 -5 8 3 15 1 15 -5 0 -6 6 -9 14 -6 8 3 16 2 18 -3 2 -5 14 -11
28 -14 14 -2 26 -5 28 -7 1 -1 7 -3 12 -4 6 -1 13 -4 18 -5 4 -1 10 -2 15 -1
4 0 7 -4 7 -10 0 -6 7 -9 15 -5 8 3 15 1 15 -5 0 -6 7 -9 15 -5 8 3 15 1 15
-4 0 -8 57 -26 73 -22 4 1 7 -3 7 -9 0 -6 7 -9 15 -5 8 3 15 1 15 -4 0 -4 15
-12 33 -16 46 -11 46 -11 55 -14 4 -1 10 -2 15 -1 4 0 7 -3 7 -8 0 -9 51 -25
66 -21 4 1 10 -3 14 -10 4 -6 17 -12 28 -13 12 -1 22 -5 22 -9 0 -4 6 -8 14
-8 7 0 25 -12 40 -26 14 -15 26 -24 26 -20 0 3 9 -3 20 -14 17 -17 32 -22 56
-19 4 0 10 -4 13 -9 3 -6 15 -12 26 -14 11 -1 23 -7 26 -11 3 -4 16 -9 27 -10
12 -1 22 -4 22 -8 0 -8 59 -24 73 -21 4 1 7 -2 7 -7 0 -5 15 -13 33 -17 17 -4
35 -9 40 -10 4 -1 9 -3 12 -4 3 -1 10 -4 15 -5 6 -1 12 -4 15 -5 3 -1 10 -4
15 -5 6 -1 12 -4 15 -5 3 -1 8 -3 13 -5 4 -1 14 -5 22 -8 8 -4 24 -8 35 -10
11 -2 45 -11 75 -20 30 -9 66 -18 80 -21 14 -3 36 -8 50 -11 25 -6 41 -10 90
-20 122 -27 320 -40 590 -40 286 1 382 6 525 30 11 1 45 6 75 10 49 6 93 13
170 30 14 2 43 7 65 10 113 15 177 25 243 40 49 11 58 14 85 24 15 6 27 7 27
4 0 -4 5 -2 12 5 7 7 19 12 27 12 9 0 29 7 45 15 15 8 33 15 38 15 8 0 43 15
163 69 33 15 169 82 413 205 20 10 39 21 42 25 3 3 16 12 30 19 55 29 85 45
90 51 7 9 61 39 93 52 15 6 27 15 27 20 0 5 6 9 14 9 8 0 21 6 28 14 8 7 24
17 36 20 12 4 22 12 22 17 0 5 6 9 14 9 8 0 21 6 28 14 8 7 24 17 36 20 12 4
22 12 22 17 0 5 5 9 10 9 12 0 94 52 98 63 2 4 10 7 18 7 8 0 14 5 14 10 0 6
7 10 15 10 8 0 15 5 15 10 0 6 5 10 11 10 23 0 180 133 326 275 33 33 75 71
93 85 43 34 112 89 130 106 20 18 75 64 108 91 36 29 99 82 133 113 15 14 45
39 65 55 21 17 45 37 55 46 9 9 24 21 32 25 15 9 98 78 142 119 12 11 48 42
81 70 32 27 64 54 70 60 7 5 26 21 44 35 52 40 135 110 183 154 15 15 45 35
67 46 21 11 58 39 83 62 54 53 102 94 153 133 21 16 41 33 42 37 2 4 9 8 14 8
6 0 18 7 27 15 9 8 34 29 55 47 21 18 53 47 71 63 18 17 70 64 116 105 78 70
240 229 279 275 32 37 100 132 100 139 0 4 11 19 25 34 14 15 25 32 25 39 0 6
3 13 8 15 13 5 82 96 82 107 0 6 3 11 8 11 4 0 30 30 57 66 28 36 60 75 73 87
12 11 22 25 22 31 0 6 9 17 20 24 11 7 20 19 20 27 0 8 4 15 9 15 4 0 32 32
62 71 30 39 64 80 77 92 12 11 22 25 22 31 0 6 9 17 20 24 11 7 20 19 20 27 0
8 4 15 8 15 10 0 142 176 142 189 0 5 7 11 15 15 8 3 15 10 15 15 0 6 11 22
25 37 14 15 25 33 25 40 0 8 5 14 10 14 6 0 10 5 10 10 0 6 9 20 20 32 11 12
20 28 20 35 0 7 5 13 10 13 6 0 10 5 10 10 0 6 8 20 19 31 10 11 27 36 37 57
11 20 26 45 35 55 9 9 28 41 44 70 15 29 38 70 51 92 34 58 94 174 94 180 -1
3 13 34 30 69 16 35 30 69 30 75 0 7 7 23 16 36 9 14 13 25 10 25 -4 0 0 10 9
23 8 12 16 32 18 42 2 11 11 37 20 59 9 21 17 46 17 56 0 9 3 20 8 24 4 4 7
11 8 14 0 4 4 15 8 24 4 9 9 25 11 35 2 10 4 19 5 21 2 1 4 7 5 12 1 6 4 12 5
15 1 3 4 10 5 15 1 6 4 12 5 15 1 3 3 8 5 13 1 4 6 18 12 32 6 14 14 41 19 60
10 45 9 41 22 72 6 15 13 40 16 55 2 15 5 30 7 33 1 3 3 10 4 15 1 6 5 17 8
25 17 45 28 92 23 97 -3 4 -1 12 4 19 6 6 12 27 14 45 2 19 7 42 11 52 4 10 5
21 1 24 -3 3 -1 12 5 19 6 8 9 20 6 28 -3 8 -2 16 3 18 5 2 11 26 14 53 2 28
6 57 9 65 11 29 39 261 33 267 -3 3 -1 12 4 18 11 14 17 135 25 525 6 287 13
430 32 670 5 63 13 172 20 280 7 103 15 195 20 255 3 28 6 66 8 85 2 19 7 44
11 55 5 11 9 144 9 295 0 245 -5 357 -19 470 -3 19 -7 62 -11 95 -3 33 -8 67
-10 75 -5 16 -13 77 -20 145 -3 22 -7 56 -10 75 -5 34 -11 86 -20 165 -3 22
-7 54 -10 70 -2 17 -7 55 -10 85 -4 30 -11 75 -17 100 -11 48 -13 61 -22 130
-4 25 -14 83 -22 130 -15 82 -18 107 -28 188 -8 64 -18 203 -21 302 -2 52 -6
111 -10 130 -10 59 -13 73 -20 130 -6 51 -18 119 -32 180 -10 44 -6 57 75 222
44 90 117 240 162 333 45 94 118 244 163 335 81 165 135 279 190 400 28 60 41
88 96 210 70 154 81 181 81 189 0 5 6 22 14 38 8 15 21 44 29 63 9 19 27 61
41 93 14 32 26 62 26 66 0 5 6 22 14 38 17 31 29 60 111 253 31 74 67 158 80
185 12 28 35 79 50 115 15 36 41 93 56 128 16 34 29 65 29 70 0 4 7 21 16 37
9 17 27 57 40 90 14 33 31 74 39 90 27 58 63 140 85 195 12 30 33 79 46 108
13 29 24 56 24 60 0 5 11 32 25 60 14 29 25 58 25 65 0 7 4 17 9 23 5 5 41 92
81 194 40 102 79 199 86 217 8 17 14 38 14 46 0 9 4 18 8 21 5 3 19 40 32 83
12 43 27 84 33 91 5 6 6 12 2 12 -4 0 -2 6 4 13 6 8 12 22 14 33 1 10 6 25 10
32 5 6 5 12 1 12 -3 0 -2 6 4 13 8 11 23 63 24 84 0 5 3 13 8 18 7 9 31 101
35 135 1 8 5 23 9 32 4 9 5 21 2 27 -4 5 -1 13 5 16 6 4 8 18 5 30 -3 13 -2
26 4 30 10 6 7 354 -4 395 -3 14 -9 38 -12 54 -2 16 -7 33 -10 38 -3 4 -7 18
-9 30 -6 28 -58 135 -82 167 -19 25 -138 146 -166 169 -9 6 -21 12 -27 12 -5
0 -10 4 -10 8 0 10 -42 29 -130 60 -58 21 -184 25 -266 9z m225 -496 c17 -21
31 -45 31 -53 0 -8 3 -18 7 -22 4 -3 8 -12 9 -19 2 -7 6 -25 10 -42 13 -51 4
-351 -11 -387 -4 -10 -5 -25 -2 -33 4 -8 2 -17 -4 -21 -6 -3 -9 -16 -7 -27 1
-12 -1 -28 -6 -35 -4 -7 -5 -19 -2 -27 3 -8 1 -17 -4 -20 -5 -3 -9 -13 -9 -23
-1 -18 -8 -64 -12 -72 -1 -3 -3 -9 -4 -15 -1 -5 -5 -17 -8 -25 -3 -8 -10 -37
-16 -65 -17 -73 -19 -83 -41 -160 -11 -38 -29 -103 -40 -144 -11 -40 -36 -112
-54 -160 -18 -47 -43 -115 -56 -151 -12 -36 -28 -78 -35 -95 -7 -16 -25 -61
-40 -100 -15 -38 -38 -94 -51 -123 -13 -29 -24 -55 -24 -59 0 -3 -11 -29 -24
-57 -13 -28 -40 -85 -59 -126 -64 -137 -216 -452 -307 -635 -110 -222 -399
-811 -471 -960 -51 -106 -76 -160 -107 -235 -9 -19 -24 -53 -36 -75 -11 -22
-20 -42 -19 -45 0 -6 -12 -37 -44 -107 -12 -28 -23 -57 -23 -63 0 -5 -4 -18
-9 -28 -9 -17 -24 -53 -44 -102 -5 -14 -14 -34 -18 -45 -23 -53 -124 -344
-135 -387 -2 -10 -6 -27 -9 -38 -14 -55 -16 -68 -21 -110 -8 -80 -15 -110 -24
-110 -6 0 -10 -7 -10 -15 0 -8 -4 -15 -10 -15 -5 0 -10 -6 -10 -13 0 -7 -9
-28 -19 -48 -19 -35 -72 -193 -69 -207 0 -4 -3 -16 -8 -27 -17 -38 -10 -417
11 -555 3 -19 7 -51 10 -70 2 -19 7 -50 10 -67 3 -18 8 -48 11 -65 3 -18 7
-44 9 -58 3 -14 7 -47 11 -75 3 -27 8 -54 11 -58 2 -4 7 -22 9 -40 9 -60 12
-82 18 -120 8 -50 13 -92 21 -152 3 -27 8 -63 10 -80 5 -41 15 -122 20 -165 2
-19 6 -52 9 -73 11 -72 15 -107 31 -232 25 -201 22 -495 -5 -670 -10 -63 -19
-172 -36 -425 -9 -133 -21 -286 -31 -410 -8 -90 -12 -219 -19 -555 -6 -320
-10 -395 -18 -422 -3 -10 -7 -45 -10 -78 -2 -33 -7 -68 -11 -78 -4 -9 -5 -26
-2 -37 3 -11 1 -23 -5 -26 -5 -3 -8 -18 -7 -32 1 -15 -1 -34 -5 -42 -3 -8 -8
-33 -10 -55 -2 -22 -7 -48 -11 -58 -4 -10 -5 -21 -1 -24 3 -3 2 -11 -4 -18 -5
-6 -11 -27 -13 -46 -2 -19 -6 -39 -9 -44 -3 -6 -9 -30 -14 -55 -4 -25 -8 -47
-9 -50 0 -3 -8 -27 -18 -55 -9 -27 -19 -61 -21 -75 -3 -14 -5 -26 -7 -27 -1
-2 -2 -6 -4 -10 -1 -5 -4 -15 -7 -23 -14 -36 -90 -266 -93 -280 -2 -8 -4 -16
-5 -17 -2 -2 -3 -6 -5 -10 -1 -5 -7 -21 -14 -38 -7 -16 -14 -34 -15 -40 -1 -5
-7 -19 -13 -30 -6 -11 -12 -23 -12 -27 -1 -5 -13 -34 -27 -65 -14 -32 -27 -62
-28 -68 -5 -20 -61 -130 -73 -143 -7 -7 -16 -24 -19 -38 -3 -13 -10 -24 -14
-24 -5 0 -12 -10 -16 -22 -4 -13 -10 -25 -13 -28 -12 -9 -91 -139 -91 -150 0
-5 -4 -10 -8 -10 -5 0 -15 -12 -23 -27 -8 -16 -22 -37 -31 -47 -10 -11 -18
-26 -18 -33 0 -7 -4 -13 -10 -13 -5 0 -10 -6 -10 -14 0 -8 -7 -16 -15 -20 -8
-3 -15 -12 -15 -20 0 -8 -4 -16 -9 -18 -8 -2 -97 -120 -151 -198 -8 -12 -24
-32 -35 -45 -59 -68 -101 -118 -109 -132 -4 -8 -16 -23 -25 -33 -9 -10 -25
-29 -36 -44 -11 -14 -30 -38 -43 -53 -57 -68 -68 -82 -87 -107 -11 -14 -29
-36 -40 -49 -11 -13 -27 -34 -35 -47 -8 -13 -23 -30 -32 -39 -10 -8 -18 -21
-18 -27 0 -7 -7 -14 -15 -18 -8 -3 -15 -12 -15 -20 0 -7 -7 -16 -15 -20 -8 -3
-15 -10 -15 -15 0 -6 -11 -22 -25 -37 -14 -15 -25 -33 -25 -40 0 -8 -4 -14
-10 -14 -5 0 -10 -7 -10 -15 0 -8 -4 -15 -9 -15 -5 0 -19 -16 -32 -36 -12 -20
-31 -46 -43 -57 -12 -12 -31 -34 -42 -49 -11 -15 -45 -41 -74 -58 -29 -17 -90
-68 -135 -113 -44 -45 -112 -109 -150 -142 -38 -33 -83 -72 -99 -87 -17 -14
-46 -39 -65 -55 -18 -15 -42 -36 -52 -46 -10 -9 -22 -17 -25 -17 -4 0 -72 -52
-131 -100 -7 -6 -17 -10 -23 -10 -5 0 -10 -4 -10 -10 0 -5 -6 -10 -13 -10 -7
0 -41 -26 -75 -57 -34 -32 -85 -78 -114 -103 -29 -25 -72 -64 -97 -86 -106
-96 -171 -152 -212 -184 -45 -35 -135 -111 -190 -160 -15 -14 -44 -38 -65 -55
-20 -16 -47 -39 -60 -50 -12 -11 -39 -33 -60 -50 -20 -16 -47 -39 -60 -50 -12
-11 -37 -31 -55 -45 -64 -50 -135 -115 -313 -282 -21 -21 -42 -38 -45 -38 -3
0 -19 -13 -36 -28 -16 -15 -61 -47 -100 -71 -38 -24 -72 -47 -75 -51 -3 -4
-15 -10 -27 -14 -13 -4 -23 -12 -23 -17 0 -5 -6 -9 -12 -10 -7 0 -51 -25 -98
-55 -47 -30 -97 -59 -112 -65 -16 -6 -28 -15 -28 -20 0 -5 -6 -9 -12 -10 -7 0
-69 -33 -138 -73 -160 -94 -442 -235 -505 -252 -5 -1 -37 -14 -70 -27 -87 -36
-192 -63 -281 -72 -28 -3 -88 -12 -135 -21 -46 -8 -91 -16 -99 -16 -8 0 -37
-5 -65 -10 -27 -5 -66 -11 -85 -14 -19 -2 -48 -6 -65 -8 -58 -8 -271 -19 -380
-19 -91 0 -209 6 -375 18 -14 1 -34 6 -45 12 -11 6 -24 11 -30 12 -5 1 -30 8
-55 16 -25 8 -56 17 -70 19 -14 3 -25 5 -25 6 0 1 -8 3 -18 5 -10 2 -33 10
-50 18 -18 9 -45 19 -62 23 -16 4 -34 10 -40 14 -8 6 -70 29 -95 35 -3 1 -12
5 -20 8 -19 8 -272 98 -285 101 -10 3 -23 8 -98 39 -20 9 -38 16 -40 16 -1 0
-15 4 -30 10 -16 6 -34 11 -41 11 -6 0 -16 4 -22 9 -7 7 -64 29 -94 36 -3 1
-18 7 -33 13 -15 7 -40 15 -55 18 -15 4 -31 10 -37 14 -14 10 -150 54 -151 49
0 -2 -8 2 -17 10 -10 7 -17 10 -17 6 0 -4 -6 -3 -12 2 -15 12 -176 66 -181 61
-2 -2 -10 2 -18 8 -10 8 -179 70 -219 79 -3 1 -18 7 -33 13 -15 7 -40 15 -54
18 -15 4 -38 13 -52 20 -14 8 -33 14 -42 14 -8 0 -19 4 -25 9 -5 4 -31 16 -59
26 -27 9 -59 21 -70 26 -41 19 -195 68 -195 62 0 -3 -6 -1 -12 5 -7 5 -29 13
-48 18 -19 4 -37 8 -40 9 -3 1 -45 14 -94 29 -49 16 -94 29 -100 31 -6 1 -18
5 -26 8 -20 8 -189 58 -209 62 -9 2 -17 4 -18 5 -2 2 -7 4 -13 5 -5 1 -12 4
-15 5 -3 1 -8 3 -12 5 -5 1 -21 7 -36 13 -15 7 -40 15 -54 18 -15 4 -38 13
-52 20 -14 8 -31 14 -37 14 -6 0 -25 7 -43 16 -17 9 -37 17 -44 18 -7 2 -23 7
-37 13 -14 5 -72 27 -130 47 -58 21 -123 46 -145 56 -22 9 -74 30 -115 45 -41
15 -90 34 -109 42 -18 9 -39 16 -45 17 -6 1 -15 4 -21 7 -9 6 -111 41 -125 44
-3 1 -21 8 -41 17 -20 9 -47 19 -60 23 -13 3 -43 15 -65 25 -23 11 -55 22 -70
26 -16 4 -39 14 -51 21 -12 8 -23 14 -25 13 -5 -3 -212 99 -233 115 -11 8 -34
21 -52 27 -18 7 -33 15 -33 18 0 4 -24 17 -52 31 -29 13 -59 29 -66 36 -6 6
-22 15 -34 19 -12 4 -28 13 -36 20 -7 8 -20 14 -28 14 -8 0 -14 4 -14 9 0 5
-10 13 -22 17 -13 4 -25 10 -28 14 -6 8 -217 150 -224 150 -3 0 -17 11 -32 25
-15 14 -33 25 -39 25 -7 0 -15 7 -19 15 -3 8 -12 15 -21 15 -8 0 -15 4 -15 10
0 5 -19 22 -42 37 -23 16 -50 35 -59 43 -9 8 -31 26 -47 40 -34 28 -66 55
-135 115 -98 84 -340 332 -442 452 -16 20 -40 46 -52 60 -13 13 -23 28 -23 33
0 6 -9 15 -20 22 -11 7 -20 17 -20 21 0 10 -71 100 -82 105 -5 2 -8 9 -8 15 0
7 -11 24 -25 39 -14 15 -25 31 -25 37 0 5 -3 11 -7 13 -5 2 -17 21 -28 42 -11
22 -25 44 -30 50 -6 6 -19 30 -29 54 -11 23 -23 42 -28 42 -5 0 -6 5 -3 10 3
6 2 10 -3 10 -10 0 -38 60 -34 72 1 5 -3 8 -10 8 -6 0 -9 3 -5 6 3 4 -4 25
-15 48 -12 22 -23 46 -24 51 -1 6 -15 37 -30 70 -15 33 -28 65 -30 70 -1 6 -8
24 -15 40 -6 17 -13 35 -15 42 -4 21 -26 88 -33 98 -3 6 -7 19 -8 30 -2 11 -6
27 -10 35 -3 8 -8 24 -10 34 -2 11 -11 47 -19 80 -18 70 -42 185 -49 236 -3
19 -8 46 -11 60 -3 14 -8 41 -10 60 -2 19 -7 49 -11 65 -3 17 -7 37 -9 45 -1
8 -5 33 -8 55 -6 38 -10 68 -22 175 -3 25 -4 115 -3 200 2 85 3 191 3 235 1
84 -10 305 -18 390 -3 28 -8 79 -11 115 -4 36 -8 79 -10 95 -2 17 -6 56 -10
87 -3 31 -13 97 -21 145 -8 48 -17 104 -19 123 -3 19 -8 46 -11 60 -3 14 -8
41 -10 60 -2 19 -6 46 -8 60 -2 14 -7 57 -10 95 -4 39 -9 82 -12 97 -3 15 -7
44 -10 65 -8 74 -13 108 -19 143 -3 19 -8 49 -10 65 -2 17 -7 46 -10 65 -3 19
-8 49 -10 65 -2 17 -7 46 -10 65 -5 35 -12 92 -20 160 -2 19 -7 62 -10 95 -9
76 -9 319 0 405 6 59 9 85 21 175 2 17 8 52 14 80 6 27 8 55 6 62 -3 7 -1 15
5 19 6 3 9 16 8 27 -1 12 1 30 6 40 4 9 5 24 2 32 -4 8 -2 17 3 20 6 4 10 16
10 28 0 12 13 74 29 137 16 63 27 118 24 122 -2 5 0 8 5 8 8 0 25 53 26 85 1
6 4 12 7 15 8 7 62 181 63 203 0 9 3 17 7 17 6 0 44 124 44 145 0 6 3 12 6 15
8 7 82 241 83 263 0 9 3 17 7 17 7 0 35 117 33 138 -1 6 3 12 8 12 6 0 8 9 5
20 -3 11 -1 20 5 20 5 0 8 8 6 18 -1 9 0 22 4 27 10 17 39 157 33 163 -2 3 0
10 5 17 8 10 15 51 25 155 1 14 5 39 8 55 4 17 9 62 13 100 3 39 8 81 10 95 2
14 6 43 9 65 3 22 10 69 15 105 9 66 6 300 -4 400 -4 30 -13 84 -21 120 -8 36
-17 81 -20 100 -3 19 -13 60 -21 90 -22 80 -25 92 -29 120 -2 14 -15 70 -28
125 -14 55 -28 116 -31 135 -7 52 -13 72 -30 113 -8 21 -15 40 -15 42 -1 9
-93 190 -100 195 -4 3 -15 24 -25 48 -11 23 -22 42 -25 42 -3 0 -14 21 -25 46
-10 24 -24 50 -30 57 -6 7 -38 67 -71 135 -32 67 -63 122 -69 122 -5 0 -7 3
-3 6 3 3 2 11 -4 18 -5 6 -93 180 -195 386 -102 206 -190 377 -195 378 -5 2
-7 8 -3 13 3 5 0 9 -6 9 -6 0 -9 4 -6 9 4 5 3 11 -1 13 -5 1 -26 40 -48 86
-21 45 -43 82 -49 82 -5 0 -7 3 -3 6 3 3 1 11 -4 18 -15 18 -203 400 -201 409
1 4 -3 7 -9 7 -5 0 -7 5 -4 10 3 6 1 10 -6 10 -7 0 -9 3 -6 6 4 4 -15 48 -41
98 -26 50 -46 94 -44 99 1 4 -3 7 -10 7 -6 0 -8 3 -5 6 4 4 -17 52 -45 108
-29 56 -51 102 -50 104 2 1 -10 28 -27 60 -16 31 -43 91 -60 133 -17 42 -36
90 -42 105 -7 16 -13 34 -15 39 -1 6 -19 57 -39 115 -20 58 -38 112 -40 120
-2 8 -4 15 -5 15 -1 0 -4 13 -6 30 -3 16 -10 35 -16 42 -6 7 -8 13 -5 13 3 0
-6 42 -20 93 -13 50 -26 103 -29 117 -11 65 -27 299 -21 314 6 15 16 16 84 11
116 -10 179 -21 223 -38 24 -9 90 -29 108 -32 9 -2 18 -4 20 -5 1 -2 7 -4 12
-5 6 -1 12 -4 15 -5 3 -1 10 -4 15 -5 6 -1 12 -4 15 -5 3 -1 10 -4 15 -5 6 -1
12 -4 15 -5 3 -1 8 -3 13 -5 4 -1 27 -11 52 -22 40 -18 86 -35 100 -38 3 0 19
-8 36 -18 17 -9 34 -13 38 -10 3 4 6 1 6 -5 0 -7 3 -11 8 -10 8 2 212 -97 229
-112 7 -5 25 -16 40 -22 15 -7 34 -18 41 -25 7 -7 20 -13 28 -13 8 0 14 -4 14
-8 0 -5 18 -17 40 -28 22 -10 40 -22 40 -26 0 -5 7 -8 15 -8 8 0 15 -4 15 -10
0 -5 5 -10 10 -10 6 0 23 -11 37 -24 14 -13 37 -30 52 -38 14 -7 37 -23 51
-35 14 -13 30 -23 37 -23 7 0 13 -4 13 -10 0 -5 5 -10 10 -10 6 0 23 -11 37
-24 14 -13 37 -30 52 -38 14 -7 28 -15 31 -18 16 -17 109 -80 119 -80 6 0 11
-4 11 -10 0 -5 5 -10 10 -10 6 0 23 -11 38 -25 15 -14 32 -25 39 -25 6 0 13
-4 15 -8 4 -12 115 -92 127 -92 5 0 11 -7 15 -15 3 -8 12 -15 20 -15 7 0 16
-7 20 -15 3 -8 10 -15 15 -15 5 0 25 -13 43 -30 18 -16 38 -30 44 -30 7 0 14
-4 16 -9 3 -8 30 -31 155 -129 12 -9 44 -36 70 -59 26 -24 51 -43 54 -43 3 0
20 -12 36 -27 16 -16 44 -39 62 -53 18 -14 45 -36 60 -50 16 -14 45 -38 65
-55 20 -16 51 -43 70 -60 83 -75 170 -151 186 -162 10 -7 32 -26 48 -41 30
-28 95 -85 170 -150 23 -20 62 -55 85 -77 24 -22 65 -59 91 -82 26 -23 66 -59
90 -80 24 -21 61 -54 83 -73 22 -19 60 -52 84 -74 24 -21 62 -54 84 -73 22
-19 56 -49 76 -66 20 -18 52 -45 71 -62 19 -16 53 -46 75 -65 132 -116 168
-145 207 -175 15 -11 35 -28 44 -37 9 -10 22 -18 28 -18 7 0 14 -7 18 -15 3
-8 10 -15 16 -15 10 0 19 -6 53 -36 10 -9 86 -59 152 -102 26 -16 106 -53 125
-57 8 -2 15 -4 15 -5 0 -5 49 -13 100 -15 65 -3 125 16 125 39 0 23 89 60 145
61 45 0 56 -5 105 -45 30 -25 59 -50 65 -57 10 -12 96 -61 105 -60 3 0 15 -3
28 -7 42 -14 130 21 178 70 l44 46 102 -3 c57 -1 119 -6 138 -10 59 -12 121
-19 222 -26 107 -6 146 5 200 54 14 14 29 24 32 23 3 -1 39 0 79 4 121 10 231
15 492 22 458 10 708 8 1160 -12 44 -1 229 -6 410 -8 1092 -18 1107 -19 1335
-42 19 -1 60 -5 90 -8 30 -3 73 -8 95 -11 22 -3 63 -8 90 -11 28 -3 64 -7 80
-10 107 -13 410 -29 575 -29 136 0 211 8 325 36 22 5 49 12 60 14 26 6 88 37
96 49 4 5 28 -1 53 -13 25 -13 50 -20 55 -17 5 4 12 2 15 -3 6 -9 22 -11 101
-13 80 -2 114 10 165 57 70 65 213 86 292 44 13 -7 23 -11 23 -10 0 4 54 -18
85 -34 32 -17 152 -15 158 3 2 6 8 12 14 12 6 0 19 11 30 25 11 14 27 25 36
25 15 0 45 18 128 75 16 11 34 24 40 30 6 5 26 21 44 35 19 14 41 32 50 40 9
8 41 35 71 60 54 44 69 57 120 102 15 13 46 39 69 58 24 19 53 44 65 55 13 11
49 43 81 70 115 100 138 121 170 150 18 17 62 57 100 90 37 33 90 81 118 106
89 81 158 143 286 256 106 95 145 130 175 158 18 17 56 50 86 75 56 48 114 99
159 140 15 14 45 39 66 55 21 17 54 44 73 61 20 17 47 39 60 50 13 10 34 28
47 39 12 11 37 31 54 45 53 42 123 99 159 130 9 8 33 28 54 43 21 16 48 39 62
51 13 13 36 31 51 42 15 10 38 29 52 42 14 12 28 22 31 22 3 0 22 15 42 33 20
17 47 39 59 47 12 8 32 23 43 32 30 24 36 28 92 68 52 36 55 38 94 70 13 11
27 20 30 20 3 0 18 10 33 23 14 12 36 29 48 37 22 15 145 106 165 122 41 33
56 45 75 58 23 16 146 107 168 125 7 5 18 15 25 20 7 6 33 24 59 40 27 17 48
33 48 38 0 4 7 7 15 7 8 0 15 5 15 10 0 6 7 10 15 10 8 0 15 3 15 8 0 4 18 16
40 26 22 11 40 23 40 28 0 4 6 8 14 8 8 0 21 6 28 13 7 7 28 19 46 26 17 7 32
17 32 22 0 5 6 9 14 9 7 0 29 11 49 24 19 13 38 22 41 18 3 -3 6 -1 6 4 0 6
28 23 63 39 180 81 214 97 240 110 16 8 32 15 37 15 5 0 21 5 37 11 15 6 28 9
29 7 0 -2 8 3 17 11 10 7 17 11 17 7 0 -3 12 -1 28 5 15 6 35 12 46 15 10 2
21 6 24 8 10 10 61 -25 91 -63z"/>
<path d="M3936 17274 c-3 -9 -6 -19 -6 -24 0 -15 121 -148 168 -185 26 -20
115 -101 197 -181 159 -154 223 -214 271 -253 30 -25 150 -132 207 -185 18
-17 66 -60 107 -96 40 -36 89 -81 110 -100 20 -19 68 -64 106 -100 158 -147
393 -371 478 -456 110 -109 193 -183 224 -197 12 -5 22 -13 22 -17 0 -14 106
-53 145 -53 55 -1 81 8 118 39 60 50 76 107 52 189 -8 30 -20 55 -25 55 -6 0
-10 7 -10 15 0 8 -4 15 -10 15 -5 0 -10 5 -10 11 0 26 -179 205 -319 320 -30
24 -62 51 -71 59 -9 8 -33 29 -54 45 -21 17 -48 39 -60 50 -13 11 -40 34 -60
50 -21 17 -48 40 -61 52 -14 12 -42 34 -62 50 -21 15 -45 34 -53 42 -8 8 -60
50 -115 94 -55 43 -109 86 -120 95 -30 25 -216 162 -274 202 -28 19 -61 43
-73 53 -41 34 -185 127 -196 127 -6 0 -12 4 -14 8 -1 5 -37 28 -78 51 -41 24
-82 47 -90 52 -8 5 -49 26 -90 46 -41 20 -77 40 -80 44 -5 7 -63 35 -177 85
-42 19 -89 18 -97 -2z"/>
<path d="M16499 17259 c-31 -17 -70 -44 -88 -60 -18 -16 -35 -29 -39 -29 -4 0
-20 -11 -36 -25 -16 -14 -32 -25 -35 -25 -3 0 -17 -10 -31 -23 -14 -13 -32
-27 -41 -33 -42 -23 -179 -145 -299 -264 -118 -118 -356 -371 -450 -479 -30
-34 -64 -73 -75 -85 -11 -12 -38 -44 -60 -70 -22 -26 -50 -59 -62 -72 -12 -13
-34 -40 -50 -61 -15 -21 -35 -45 -43 -54 -8 -8 -22 -26 -30 -38 -8 -13 -27
-37 -42 -55 -15 -17 -28 -34 -28 -38 0 -4 -6 -13 -13 -20 -36 -36 -125 -188
-111 -188 4 0 2 -6 -3 -12 -5 -7 -11 -34 -12 -60 -4 -82 62 -158 139 -158 72
0 136 55 270 231 14 18 45 58 70 90 25 31 54 69 64 84 21 28 45 57 74 90 10
11 34 40 53 64 18 25 41 52 49 61 8 10 22 26 30 36 27 34 105 127 120 144 8 9
29 33 45 54 17 21 39 48 50 60 33 38 68 81 97 118 15 19 37 46 50 60 53 59
114 131 122 145 4 9 16 23 25 32 9 10 23 28 31 41 8 12 22 30 31 39 9 9 62 79
118 156 56 77 109 149 119 160 26 31 93 136 103 161 6 17 4 28 -7 39 -22 21
-41 19 -105 -16z"/>
<path d="M13133 12804 c-18 -8 -47 -33 -64 -56 -25 -36 -30 -50 -28 -92 5 -93
60 -165 197 -259 71 -48 80 -54 168 -97 123 -60 177 -68 327 -47 45 7 61 30
58 83 -2 31 -85 128 -154 179 -15 11 -33 25 -40 30 -6 6 -30 24 -52 40 -22 17
-42 33 -45 36 -3 4 -25 23 -50 44 -25 20 -64 52 -87 72 -88 73 -165 96 -230
67z"/>
<path d="M6985 12772 c-3 -3 -13 -7 -21 -8 -9 -1 -34 -15 -56 -30 -38 -27 -55
-45 -88 -94 -8 -12 -20 -28 -25 -34 -24 -26 -85 -117 -85 -126 0 -6 -4 -10
-10 -10 -5 0 -10 -7 -10 -15 0 -8 -4 -15 -10 -15 -5 0 -10 -7 -10 -15 0 -8 -4
-15 -10 -15 -5 0 -10 -7 -10 -15 0 -8 -4 -15 -8 -15 -4 0 -25 -33 -45 -72 -45
-87 -67 -196 -48 -231 20 -37 142 -62 169 -35 7 7 12 9 12 5 0 -11 56 19 115
61 86 61 282 267 307 325 7 15 16 27 20 27 5 0 8 8 8 18 0 10 5 23 12 30 18
18 18 129 0 165 -20 41 -56 75 -87 83 -14 3 -25 9 -25 13 0 8 -87 11 -95 3z"/>
<path d="M12834 11981 c-18 -4 -40 -12 -50 -16 -11 -4 -30 -10 -44 -12 -14 -2
-34 -10 -45 -17 -11 -7 -34 -18 -52 -24 -43 -14 -203 -119 -210 -137 -3 -8
-10 -15 -17 -15 -6 0 -52 -40 -101 -90 -49 -49 -86 -90 -82 -90 4 0 -8 -16
-28 -35 -19 -20 -35 -42 -35 -50 0 -8 -4 -15 -8 -15 -8 0 -24 -26 -83 -138
-16 -29 -34 -82 -41 -118 -8 -47 -19 -73 -38 -92 -35 -35 -64 -124 -54 -166 4
-17 8 -35 9 -41 1 -5 3 -13 5 -17 1 -5 3 -11 4 -15 7 -30 19 -53 27 -53 6 0 7
-4 4 -10 -3 -5 -1 -10 4 -10 6 0 10 -3 9 -7 -12 -41 254 -283 312 -283 9 0 22
-6 29 -12 6 -7 15 -13 19 -13 4 -1 17 -6 30 -13 12 -7 22 -10 22 -6 0 3 12 -1
26 -11 14 -9 28 -14 31 -11 4 3 11 2 17 -3 11 -9 96 -24 144 -25 12 -1 22 -4
22 -7 0 -10 230 -9 255 1 12 5 51 11 86 14 97 9 143 17 155 27 6 5 31 12 55
15 24 3 50 11 57 16 6 6 12 8 12 4 0 -4 12 2 27 11 15 10 28 17 30 16 2 -2 5
-2 8 -2 3 1 8 2 13 3 44 11 130 51 125 59 -3 6 -1 7 5 3 6 -4 29 5 51 19 23
14 45 25 51 25 5 0 10 4 10 9 0 5 14 14 30 21 17 7 30 16 30 21 0 5 6 9 14 9
8 0 34 18 58 41 23 23 53 48 66 56 12 8 22 21 22 28 0 7 7 15 15 18 46 18 87
206 51 236 -13 11 -13 18 -1 49 26 70 40 166 27 187 -4 5 -8 21 -9 35 -5 36
-82 190 -99 197 -8 3 -14 11 -14 18 0 8 -11 22 -25 33 -14 11 -25 24 -25 28 0
13 -133 134 -147 134 -7 0 -13 4 -13 9 0 9 -109 81 -123 80 -4 0 -15 7 -23 16
-9 8 -24 15 -35 15 -10 0 -19 5 -19 11 0 5 -4 7 -10 4 -5 -3 -10 -2 -10 4 0 9
-56 27 -72 23 -5 -1 -8 2 -8 7 0 5 -30 17 -67 26 -38 8 -77 18 -88 21 -34 10
-258 14 -291 5z m528 -523 c7 -7 29 -24 49 -38 72 -50 209 -192 209 -216 0 -6
5 -15 12 -22 31 -31 13 -60 -65 -102 -26 -13 -47 -27 -47 -30 0 -3 -20 -14
-45 -25 -25 -11 -45 -23 -45 -27 0 -5 -3 -7 -7 -6 -12 2 -87 -33 -94 -44 -3
-5 -9 -9 -13 -8 -13 4 -105 -24 -101 -30 2 -4 -1 -7 -8 -7 -7 0 -28 -4 -47 -8
-19 -4 -48 -9 -65 -11 -16 -3 -39 -7 -50 -9 -149 -28 -408 -26 -463 4 -11 6
-28 11 -36 11 -15 0 -149 65 -174 85 -44 35 -82 74 -82 85 0 7 11 21 25 32 14
11 25 23 25 28 0 8 23 34 86 100 13 14 24 31 24 38 0 6 6 12 14 12 8 0 18 9
21 20 3 11 13 20 21 20 8 0 14 7 14 15 0 9 11 20 25 25 14 5 25 16 25 23 0 15
29 19 31 5 10 -68 51 -140 108 -191 33 -29 141 -91 141 -81 0 4 7 0 16 -7 18
-15 156 -18 208 -5 63 15 125 63 171 131 22 32 48 95 39 95 -2 0 6 19 19 43
14 24 28 58 32 75 7 36 8 37 27 20z"/>
<path d="M7578 11785 c-2 -2 -23 -6 -48 -9 -83 -10 -125 -21 -210 -53 -8 -4
-18 -7 -22 -8 -5 -2 -9 -3 -10 -5 -2 -1 -11 -3 -22 -5 -28 -5 -246 -118 -246
-127 0 -4 -7 -8 -15 -8 -8 0 -15 -4 -15 -10 0 -5 -6 -10 -13 -10 -11 0 -77
-44 -122 -82 -11 -9 -35 -29 -53 -44 -40 -33 -101 -123 -125 -184 -13 -34 -17
-80 -18 -190 -2 -153 8 -210 41 -253 11 -14 20 -31 20 -38 0 -7 6 -19 14 -28
94 -104 121 -131 132 -131 7 0 18 -8 23 -18 5 -10 22 -24 38 -32 15 -8 37 -22
48 -31 20 -17 54 -36 131 -73 21 -10 56 -27 77 -38 20 -11 37 -16 37 -12 0 3
7 1 15 -6 8 -7 29 -14 46 -16 17 -2 46 -11 64 -20 19 -9 49 -18 67 -20 18 -2
47 -6 63 -9 137 -24 422 -24 535 0 14 3 45 8 70 11 25 3 50 9 55 13 6 4 30 14
55 21 25 7 51 18 58 23 6 5 12 6 12 2 0 -4 15 4 34 19 19 14 39 26 43 26 5 0
27 17 50 38 22 20 56 51 74 67 63 56 144 156 172 212 30 58 45 139 32 170 -4
10 -9 24 -11 32 -1 7 -13 24 -25 37 -23 24 -31 44 -30 77 0 9 -4 17 -10 17 -5
0 -8 3 -7 8 3 15 -15 82 -23 88 -5 3 -9 14 -9 24 0 10 -6 25 -13 32 -8 7 -17
25 -20 40 -4 15 -14 33 -22 42 -8 8 -15 19 -15 25 0 6 -4 11 -9 11 -5 0 -14
14 -21 31 -7 17 -24 37 -37 46 -12 8 -23 20 -23 27 -1 6 -19 27 -41 46 -22 19
-50 44 -62 56 -30 29 -127 94 -140 94 -6 0 -18 7 -28 16 -17 15 -157 73 -194
79 -11 2 -31 6 -45 9 -67 15 -292 30 -302 21z m-213 -425 c-2 -16 -6 -38 -10
-49 -7 -23 18 -139 41 -184 20 -40 132 -150 144 -142 6 4 10 1 10 -4 0 -6 3
-10 8 -9 4 1 19 -4 33 -10 35 -14 139 -33 149 -27 5 3 28 7 52 9 98 10 199 82
246 174 12 23 22 48 22 55 0 7 4 18 9 26 8 12 11 12 23 0 17 -19 42 -61 69
-119 12 -25 25 -47 28 -50 4 -3 13 -25 20 -50 7 -25 19 -55 27 -67 8 -13 11
-23 6 -23 -4 0 -18 -9 -29 -19 -24 -23 -126 -75 -168 -86 -89 -24 -113 -26
-310 -30 -138 -2 -208 1 -255 11 -36 8 -81 17 -100 19 -83 12 -269 87 -374
152 -58 36 -113 103 -122 147 -2 11 -8 22 -14 24 -16 6 -12 32 5 32 9 0 18 6
21 14 3 7 21 22 40 32 19 10 34 22 34 27 0 4 4 6 9 2 6 -3 13 0 18 8 4 7 27
21 51 31 23 11 42 24 42 29 0 6 3 7 7 4 3 -4 15 0 25 10 10 9 18 13 18 9 0 -4
26 6 58 23 31 17 69 33 85 37 15 3 29 9 31 13 3 4 16 7 30 9 22 1 25 -2 21
-28z"/>
<path d="M10799 9826 c-2 -2 -53 -6 -113 -10 -60 -4 -112 -9 -116 -11 -4 -3
-32 -7 -61 -11 -30 -4 -115 -22 -189 -40 -74 -19 -142 -36 -151 -38 -9 -3 -49
-14 -90 -27 -41 -12 -79 -24 -86 -25 -30 -6 -149 -48 -160 -57 -7 -5 -13 -6
-13 -2 0 4 -7 1 -17 -6 -9 -8 -17 -12 -17 -10 -2 7 -79 -20 -104 -35 -12 -8
-41 -17 -65 -20 -140 -20 -225 -92 -247 -209 -9 -47 -9 -68 -1 -84 7 -12 9
-21 5 -21 -3 0 -1 -7 6 -15 7 -8 10 -15 6 -15 -15 0 28 -63 81 -119 55 -56 97
-87 153 -112 14 -6 37 -18 53 -26 15 -8 27 -11 27 -7 0 3 6 2 13 -4 7 -6 42
-18 78 -27 35 -9 72 -18 82 -20 9 -3 27 -7 38 -10 12 -2 58 -13 103 -24 44
-11 101 -23 126 -26 24 -4 47 -8 50 -10 3 -1 25 -6 50 -9 57 -8 239 -57 263
-72 17 -9 18 -27 19 -170 0 -87 3 -180 8 -207 4 -30 3 -52 -4 -61 -12 -15 -61
-38 -121 -56 -22 -7 -46 -17 -52 -23 -7 -5 -13 -7 -13 -4 0 3 -21 -2 -47 -10
-82 -25 -104 -28 -248 -27 -128 1 -214 6 -320 20 -65 9 -70 10 -80 16 -6 3
-27 9 -47 13 -21 4 -58 20 -83 36 -50 31 -127 53 -160 45 -64 -16 -91 -103
-55 -183 11 -26 28 -55 38 -65 9 -9 22 -23 28 -30 6 -7 25 -24 43 -38 18 -14
38 -29 45 -35 39 -33 121 -74 185 -95 101 -32 241 -61 309 -64 22 -1 23 -3 16
-66 -15 -128 -7 -349 17 -445 5 -22 12 -51 15 -64 3 -13 9 -32 15 -43 5 -10 7
-18 3 -18 -3 0 -1 -7 6 -15 7 -8 10 -15 6 -15 -10 0 41 -107 75 -157 38 -55
113 -133 127 -133 6 0 12 -3 14 -7 3 -8 104 -64 113 -63 3 0 6 0 8 -1 52 -16
217 -21 277 -8 25 5 56 12 70 15 25 5 166 70 185 86 5 4 34 26 62 48 29 22 61
52 70 67 10 15 25 35 33 43 21 21 117 218 124 252 2 15 7 31 10 36 3 5 7 19
10 33 3 13 10 42 15 64 5 22 12 63 16 90 3 28 8 59 10 70 2 11 6 43 10 70 4
28 9 59 11 70 3 11 7 52 10 90 3 39 7 71 8 71 0 1 48 5 106 8 128 8 209 26
275 61 76 41 92 63 102 139 9 80 -55 141 -160 152 -72 8 -129 13 -207 20 -98
8 -134 12 -195 19 -27 3 -66 8 -85 10 -19 3 -68 12 -107 21 l-73 17 -1 46 c-1
25 -1 48 -1 51 0 3 -4 39 -9 80 -6 41 -12 93 -15 115 -3 22 -12 73 -20 114 -9
40 -12 77 -7 82 4 4 35 12 68 18 33 6 74 13 90 16 34 7 125 50 200 94 28 17
59 35 70 41 101 55 286 183 349 242 74 70 99 217 56 330 -42 114 -131 207
-225 238 -53 17 -67 20 -275 47 -51 6 -415 14 -421 9z m386 -378 c20 -6 65
-13 145 -24 24 -3 48 -8 52 -10 10 -6 -16 -34 -31 -34 -6 0 -11 -3 -11 -7 0
-5 -10 -13 -23 -19 -12 -6 -62 -31 -112 -56 -49 -25 -137 -69 -195 -97 -114
-57 -137 -69 -158 -89 -8 -7 -36 -24 -62 -37 -27 -14 -51 -29 -55 -35 -8 -12
-45 -13 -45 -1 0 5 -12 13 -27 19 -16 6 -37 14 -48 18 -11 4 -22 8 -25 9 -3 1
-18 7 -33 13 -16 7 -32 10 -37 7 -5 -3 -12 0 -15 6 -4 5 -13 8 -21 5 -8 -3
-14 0 -14 5 0 6 -9 9 -20 6 -11 -3 -20 -1 -20 5 0 6 -9 8 -20 5 -11 -3 -22 -1
-25 3 -5 8 -45 17 -124 27 -69 9 -76 10 -93 18 -10 4 -24 5 -32 2 -8 -3 -16
-2 -18 3 -2 5 -21 11 -43 14 -22 2 -47 7 -56 10 -9 4 -20 6 -25 5 -5 -1 -16 0
-24 4 -15 5 -183 46 -210 50 -8 2 -40 14 -70 28 l-55 26 55 -1 c69 0 192 11
262 25 29 6 69 12 88 15 19 2 43 7 52 10 10 3 30 7 45 10 16 3 39 7 53 9 14 3
45 7 70 11 25 3 72 10 105 15 33 5 89 12 125 15 36 4 83 10 105 14 43 8 556 6
590 -2z m-375 -1460 c53 -35 132 -75 163 -82 33 -8 33 -18 8 -111 -11 -39 -22
-81 -24 -95 -3 -14 -10 -37 -16 -52 -6 -16 -8 -28 -5 -28 3 0 2 -6 -3 -12 -4
-7 -8 -15 -8 -18 -1 -3 -9 -22 -18 -44 -9 -21 -17 -42 -17 -47 0 -4 -13 -31
-30 -59 -16 -28 -30 -53 -30 -55 0 -8 -42 -57 -90 -105 -41 -42 -80 -67 -120
-77 -35 -9 -123 -14 -145 -9 -35 9 -98 76 -127 137 -35 73 -63 157 -73 219 -3
19 -8 45 -10 57 -3 11 -8 58 -11 102 -5 76 -4 81 14 81 58 0 268 78 344 128
15 9 54 35 87 57 34 21 61 44 61 50 0 6 3 5 8 -2 4 -6 23 -22 42 -35z"/>
<path d="M14168 9564 c-16 -8 -28 -18 -28 -22 0 -4 -4 -24 -9 -44 -7 -30 -5
-45 11 -74 20 -38 23 -42 62 -89 58 -70 124 -152 147 -185 60 -87 134 -262
153 -365 22 -119 23 -385 1 -437 -4 -9 -4 -21 -1 -27 3 -5 3 -11 -1 -13 -6 -2
-39 -97 -56 -163 -2 -5 -9 -21 -17 -35 -7 -14 -12 -25 -11 -25 6 0 -105 -236
-121 -260 -40 -56 -118 -177 -118 -181 0 -6 -7 -15 -60 -74 -22 -25 -40 -49
-40 -53 0 -9 -219 -227 -294 -292 -82 -72 -69 -148 34 -194 67 -29 153 -23
246 18 111 50 314 212 420 337 27 32 58 67 69 80 75 82 175 209 175 223 0 6 5
11 10 11 6 0 10 7 10 15 0 8 4 15 10 15 5 0 12 11 16 25 3 14 9 25 13 25 6 0
53 94 96 192 28 66 45 120 40 128 -3 5 -1 10 5 12 5 1 11 21 14 43 2 22 6 47
9 55 4 8 6 26 5 40 0 14 3 50 6 80 6 47 -3 183 -18 270 -2 14 -7 45 -11 70 -4
25 -11 53 -16 63 -6 9 -7 17 -5 17 21 0 -142 376 -173 400 -3 3 -12 14 -19 25
-54 86 -99 141 -189 229 -76 75 -79 78 -132 115 -31 22 -155 62 -190 61 -9 -1
-28 -8 -43 -16z"/>
<path d="M6495 9151 c-39 -17 -185 -147 -185 -164 0 -4 -9 -18 -20 -29 -61
-66 -214 -370 -225 -448 -2 -14 -4 -26 -6 -27 -1 -2 -2 -6 -4 -10 -1 -5 -5
-16 -9 -25 -4 -9 -5 -21 -2 -27 4 -5 2 -12 -4 -16 -5 -3 -10 -16 -10 -28 0
-12 -3 -51 -7 -87 -13 -112 -8 -236 11 -330 2 -14 7 -38 11 -55 3 -16 8 -37
12 -45 3 -8 7 -17 8 -20 2 -6 13 -34 24 -65 24 -62 73 -152 116 -211 25 -35
181 -191 223 -224 18 -14 43 -34 56 -46 35 -31 162 -114 174 -114 6 0 12 -4
14 -9 3 -9 188 -103 188 -96 0 3 11 -2 25 -11 14 -9 25 -13 25 -9 0 4 7 2 15
-5 8 -7 15 -9 15 -6 0 4 8 2 18 -3 63 -33 214 -37 342 -7 46 11 152 71 169 95
32 49 23 73 -43 115 -33 21 -83 49 -111 62 -168 78 -380 204 -449 267 -17 15
-33 27 -37 27 -15 0 -220 200 -251 246 -13 19 -26 34 -30 34 -5 0 -8 4 -8 9 0
4 -18 40 -39 80 -22 39 -43 85 -46 103 -4 18 -12 39 -17 46 -6 6 -8 12 -5 12
3 0 0 24 -7 54 -17 72 -12 239 8 324 4 12 8 30 10 40 2 9 9 29 15 45 6 15 8
27 5 27 -4 0 -2 6 3 13 5 6 18 35 27 62 42 115 114 241 177 308 66 68 58 135
-18 156 -56 16 -113 13 -158 -8z"/>
<path d="M13986 9045 c-16 -8 -37 -25 -47 -37 -19 -21 -21 -32 -21 -83 0 -14
0 -32 1 -39 1 -18 41 -60 61 -65 67 -17 77 -17 112 1 73 36 87 138 27 199 -15
16 -36 29 -46 29 -10 0 -27 3 -38 5 -11 3 -33 -1 -49 -10z"/>
<path d="M7136 8810 c-16 -5 -39 -19 -52 -31 -24 -23 -49 -112 -37 -132 4 -7
8 -15 8 -18 0 -3 13 -22 29 -42 27 -33 39 -39 105 -52 30 -6 96 28 118 61 25
39 28 110 7 150 -10 19 -22 34 -26 34 -3 0 -14 7 -22 16 -19 18 -90 26 -130
14z"/>
<path d="M13510 8498 c0 -4 -5 -8 -11 -8 -19 0 -38 -27 -48 -69 -5 -22 -6 -43
-2 -46 3 -4 7 -11 7 -16 1 -5 2 -13 3 -18 0 -5 17 -19 37 -31 78 -49 169 0
169 90 0 48 -9 62 -56 94 -26 17 -99 20 -99 4z"/>
<path d="M7667 8450 c-94 -28 -116 -174 -35 -226 38 -24 118 -40 118 -24 0 6
4 9 9 6 12 -8 68 45 80 75 5 14 8 42 6 62 -9 88 -86 134 -178 107z"/>
<path d="M14195 8410 c-4 -6 -10 -8 -15 -5 -13 8 -66 -41 -84 -78 -45 -95 38
-211 146 -203 104 8 164 102 124 197 -20 48 -54 76 -106 88 -56 13 -57 13 -65
1z"/>
<path d="M6761 8266 c-27 -30 -35 -77 -17 -110 16 -31 53 -54 82 -52 88 9 123
93 65 155 -25 27 -36 32 -71 29 -25 -1 -47 -9 -59 -22z"/>
<path d="M13635 7970 c-3 -5 -11 -8 -16 -5 -5 4 -9 1 -9 -4 0 -6 -5 -11 -11
-11 -25 0 -40 -30 -47 -96 -3 -34 1 -46 21 -67 14 -13 24 -27 21 -29 -2 -3 2
-5 9 -6 6 0 29 -5 50 -10 22 -6 39 -6 43 -1 3 5 10 7 15 4 5 -4 9 -2 9 2 0 5
10 13 22 18 14 6 27 27 37 56 13 43 12 50 -5 85 -11 22 -30 44 -44 50 -41 19
-87 26 -95 14z"/>
<path d="M7310 7821 c0 -5 -9 -11 -19 -14 -45 -11 -71 -105 -45 -166 23 -54
77 -75 169 -62 13 1 71 51 60 51 -4 0 -3 6 2 13 16 19 25 85 13 92 -6 3 -8 11
-5 16 4 5 1 9 -4 9 -6 0 -11 6 -11 13 0 7 -9 20 -20 30 -11 9 -20 14 -20 10 0
-4 -5 -2 -12 5 -14 14 -108 17 -108 3z"/>
<path d="M11746 6429 c-16 -5 -32 -12 -35 -17 -3 -4 -27 -21 -53 -37 -27 -17
-48 -33 -48 -37 0 -5 -7 -8 -15 -8 -7 0 -18 -6 -22 -13 -4 -7 -19 -20 -33 -30
-51 -36 -257 -172 -276 -183 -65 -36 -158 -80 -219 -102 -16 -6 -43 -17 -60
-23 -16 -7 -33 -13 -37 -14 -5 -2 -10 -4 -13 -5 -3 -1 -9 -4 -15 -5 -5 -1 -11
-3 -12 -5 -2 -1 -10 -3 -19 -5 -9 -1 -43 -11 -75 -21 -33 -9 -66 -19 -74 -20
-8 -2 -31 -6 -50 -10 -55 -11 -79 -13 -175 -13 -120 -1 -192 10 -312 46 -32 9
-60 17 -63 18 -3 0 -15 6 -27 13 -13 7 -23 10 -23 7 0 -5 -48 19 -125 63 -16
9 -31 20 -33 25 -2 4 -10 7 -18 7 -8 0 -14 5 -14 10 0 6 -5 10 -11 10 -6 0
-16 6 -24 13 -7 6 -25 21 -39 32 -31 24 -73 61 -241 210 -27 24 -63 51 -80 59
-16 7 -42 19 -57 26 -30 14 -111 7 -136 -12 -34 -25 -62 -58 -62 -72 0 -8 -4
-17 -9 -21 -17 -10 -5 -118 18 -163 79 -153 254 -357 381 -442 12 -8 33 -25
47 -37 15 -12 38 -27 52 -35 14 -7 32 -19 39 -25 7 -7 24 -16 38 -19 13 -3 24
-9 24 -14 0 -4 19 -15 43 -25 23 -9 54 -24 70 -32 15 -8 27 -12 27 -8 0 3 10
-1 23 -10 12 -8 34 -17 47 -19 14 -2 26 -5 28 -7 1 -1 5 -2 10 -3 4 -1 12 -4
17 -7 10 -7 61 -19 100 -25 11 -2 36 -6 55 -10 61 -12 315 -14 376 -3 32 6 73
13 89 15 34 7 215 63 230 72 6 4 15 7 21 8 25 4 206 88 260 120 31 19 60 34
64 34 4 0 32 18 63 40 30 22 60 40 66 40 6 0 11 4 11 8 0 5 8 13 19 18 53 26
194 157 254 238 39 53 87 147 93 181 35 206 24 246 -60 224z"/>
</g>
</svg>
