<?xml version="1.0" standalone="no"?>
<!DOCTYPE svg PUBLIC "-//W3C//DTD SVG 20010904//EN"
 "http://www.w3.org/TR/2001/REC-SVG-20010904/DTD/svg10.dtd">
<svg version="1.0" xmlns="http://www.w3.org/2000/svg"
 width="2048.000000pt" height="2048.000000pt" viewBox="0 0 2048.000000 2048.000000"
 preserveAspectRatio="xMidYMid meet">
<metadata>
Created by potrace 1.16, written by Peter Selinger 2001-2019
</metadata>
<g transform="translate(0.000000,2048.000000) scale(0.100000,-0.100000)"
fill="#474973" stroke="none">
<path d="M17226 18902 c-3 -2 -13 -5 -23 -6 -24 -2 -113 -48 -113 -58 0 -4 -9
-8 -19 -8 -11 0 -33 -12 -48 -26 -15 -15 -40 -31 -55 -36 -16 -6 -28 -14 -28
-19 0 -5 -6 -9 -14 -9 -7 0 -27 -16 -44 -36 -17 -19 -33 -35 -36 -35 -3 1 -14
-6 -23 -14 -10 -9 -30 -26 -45 -38 -87 -72 -187 -171 -181 -180 3 -6 1 -7 -4
-4 -6 4 -25 -10 -42 -31 -18 -20 -35 -41 -40 -47 -5 -5 -17 -17 -27 -26 -31
-25 -79 -83 -79 -94 0 -5 -6 -10 -12 -10 -7 0 -14 -4 -15 -10 -1 -5 -15 -21
-30 -34 -16 -13 -50 -51 -76 -85 -26 -33 -54 -68 -62 -77 -31 -32 -105 -122
-114 -138 -5 -9 -15 -20 -23 -24 -7 -5 -11 -12 -8 -17 3 -5 -4 -15 -16 -23
-30 -21 -129 -140 -129 -154 0 -7 -7 -13 -15 -13 -8 0 -15 -6 -15 -13 0 -7
-11 -21 -25 -31 -14 -10 -25 -22 -25 -27 0 -4 -10 -18 -22 -31 -13 -13 -34
-38 -48 -56 -14 -18 -44 -53 -67 -77 -24 -25 -43 -52 -43 -60 0 -9 -4 -14 -8
-11 -5 3 -19 -9 -32 -27 -29 -39 -29 -39 -85 -102 -25 -27 -45 -56 -45 -63 0
-6 -4 -11 -8 -10 -4 2 -23 -14 -41 -34 -18 -21 -31 -38 -29 -38 2 0 -17 -23
-44 -52 -26 -29 -48 -55 -48 -59 0 -4 -25 -34 -55 -65 -30 -32 -57 -66 -61
-76 -3 -10 -10 -18 -15 -18 -5 0 -9 -6 -9 -14 0 -8 -14 -24 -31 -36 -16 -12
-28 -24 -26 -26 2 -3 -14 -24 -35 -47 -22 -23 -44 -54 -50 -69 -5 -16 -16 -28
-24 -28 -7 0 -21 -12 -31 -27 -9 -16 -28 -40 -41 -55 -13 -14 -24 -30 -24 -35
0 -13 -12 -27 -33 -39 -11 -6 -22 -20 -24 -30 -2 -10 -16 -30 -32 -43 -16 -13
-29 -29 -29 -35 0 -6 -9 -18 -20 -26 -11 -8 -20 -20 -20 -28 0 -7 -5 -10 -12
-6 -8 5 -9 2 -5 -9 4 -10 1 -17 -6 -17 -7 -1 -38 -36 -69 -78 -32 -42 -78
-103 -103 -135 -25 -31 -45 -61 -45 -66 0 -5 -6 -11 -14 -14 -8 -3 -29 -29
-48 -56 -18 -28 -36 -51 -40 -51 -5 0 -8 -6 -8 -14 0 -8 -7 -16 -15 -20 -8 -3
-15 -10 -15 -15 0 -5 -13 -23 -30 -41 -16 -18 -30 -38 -30 -45 0 -7 -6 -15
-14 -18 -14 -5 -76 -92 -76 -106 0 -4 -13 -17 -30 -29 -16 -13 -30 -29 -30
-38 0 -8 -16 -30 -35 -50 -19 -19 -35 -41 -35 -49 0 -8 -7 -15 -15 -15 -14 0
-19 -12 -16 -32 0 -5 -3 -8 -8 -8 -4 0 -21 -19 -37 -42 -16 -24 -31 -45 -35
-48 -17 -15 -118 -160 -112 -160 5 0 3 -4 -3 -8 -15 -10 -126 -162 -118 -162
3 0 -3 -8 -14 -17 -12 -10 -22 -24 -24 -32 -2 -7 -15 -27 -30 -44 -15 -17 -25
-34 -22 -38 2 -4 -9 -22 -26 -41 -17 -18 -33 -42 -36 -53 -4 -11 -17 -31 -30
-44 -13 -13 -21 -27 -18 -32 3 -5 0 -9 -7 -9 -7 0 -10 -3 -7 -6 3 -3 -5 -17
-18 -31 -13 -14 -21 -29 -18 -34 3 -5 0 -9 -6 -9 -6 0 -9 -4 -6 -9 3 -5 -1
-12 -10 -15 -8 -3 -12 -10 -9 -16 3 -5 1 -10 -4 -10 -6 0 -11 -8 -11 -17 0
-10 -12 -29 -25 -42 -14 -13 -25 -32 -25 -42 0 -10 -4 -19 -9 -19 -10 0 -41
-55 -41 -72 0 -10 -41 -70 -54 -80 -6 -4 -17 -3 -25 1 -9 4 -41 9 -71 10 -30
2 -62 7 -72 12 -21 11 -111 12 -104 0 3 -4 -7 -8 -22 -8 -73 0 -158 -6 -167
-13 -5 -5 -26 -1 -45 7 -19 9 -38 17 -42 18 -5 2 -9 3 -10 5 -2 1 -19 4 -38 7
-19 2 -40 9 -46 13 -20 17 -320 -7 -369 -29 -22 -10 -57 -22 -65 -22 -3 0 -12
-7 -21 -15 -9 -8 -18 -12 -20 -9 -3 2 -21 -11 -41 -29 -20 -19 -39 -32 -41
-29 -3 2 -8 -5 -12 -16 -10 -31 -38 -42 -97 -36 -83 9 -2787 3 -2858 -6 -8 -1
-19 -5 -25 -9 -5 -4 -73 -11 -150 -15 -76 -3 -146 -10 -155 -15 -14 -7 -186
-26 -203 -22 -4 1 -17 -3 -28 -9 -11 -6 -72 -12 -135 -15 -88 -3 -120 -1 -137
10 -51 34 -117 47 -222 45 -58 -1 -107 -5 -110 -9 -2 -4 -27 -10 -55 -14 -27
-4 -50 -10 -50 -15 0 -10 -77 -21 -96 -14 -8 3 -14 11 -14 17 0 14 -61 76 -75
76 -6 0 -20 11 -33 24 -12 14 -55 38 -95 54 -65 27 -84 30 -189 31 -101 2
-124 -1 -165 -20 -26 -12 -50 -25 -54 -30 -3 -5 -25 14 -50 41 -25 28 -43 50
-40 50 3 0 -9 15 -26 33 -17 17 -44 47 -60 65 -106 125 -129 150 -141 151 -7
1 -11 5 -8 10 3 5 -9 22 -28 39 -19 16 -42 41 -51 56 -9 14 -21 23 -26 20 -5
-3 -9 1 -9 8 0 13 -83 98 -95 98 -10 0 -54 54 -55 68 0 6 -7 12 -17 12 -9 0
-13 3 -10 6 4 4 -10 20 -30 35 -20 16 -32 29 -27 29 4 0 -35 43 -87 96 -158
162 -203 206 -227 221 -12 9 -22 22 -22 29 0 8 -7 14 -15 14 -8 0 -15 5 -15
10 0 12 -209 220 -221 220 -5 0 -8 3 -7 8 2 7 -116 132 -126 132 -3 0 -68 62
-143 138 -76 76 -155 149 -175 162 -20 13 -34 28 -32 32 3 4 -2 8 -10 8 -9 0
-16 5 -16 10 0 16 -132 140 -142 134 -4 -3 -8 2 -8 10 0 9 -3 16 -8 16 -4 0
-28 19 -53 43 -85 78 -106 95 -127 102 -12 3 -21 12 -19 18 1 7 -4 11 -10 9
-7 -1 -13 4 -13 11 0 14 -6 20 -118 110 -42 34 -82 68 -89 77 -7 8 -13 12 -13
9 0 -4 -17 10 -38 30 -52 50 -122 105 -139 109 -7 2 -11 8 -8 13 4 5 0 9 -8 9
-8 0 -17 6 -20 14 -3 8 -48 45 -99 84 -51 38 -109 83 -128 100 -19 18 -38 32
-41 32 -4 0 -23 16 -44 35 -21 19 -41 33 -44 32 -3 -1 -18 10 -32 23 -14 14
-35 32 -48 40 -13 8 -32 23 -43 33 -12 9 -24 17 -28 17 -3 0 -15 8 -26 18 -32
29 -128 92 -141 92 -6 0 -14 7 -17 16 -3 8 -10 12 -16 9 -5 -3 -10 -1 -10 5 0
6 -12 16 -27 22 -16 7 -38 22 -50 33 -12 12 -34 27 -50 35 -15 8 -30 17 -33
20 -21 22 -79 58 -84 53 -3 -4 -6 -1 -6 5 0 6 -22 23 -50 39 -27 15 -50 33
-50 38 0 6 -5 3 -10 -5 -8 -13 -10 -13 -10 1 0 9 -16 24 -35 33 -19 9 -37 21
-40 26 -4 6 -11 8 -16 5 -5 -4 -9 -2 -9 4 0 5 -16 15 -35 22 -19 7 -35 16 -35
21 0 4 -17 15 -37 24 -21 10 -47 24 -57 33 -16 13 -18 14 -12 1 5 -9 2 -8 -7
2 -8 10 -17 15 -20 11 -4 -3 -7 -1 -7 5 0 10 -59 43 -82 46 -4 1 -13 7 -19 14
-7 6 -18 12 -25 12 -7 0 -14 4 -16 8 -5 12 -95 62 -100 56 -3 -2 -11 2 -18 11
-7 8 -20 15 -30 15 -10 0 -23 6 -29 14 -13 15 -68 32 -86 27 -5 -1 -7 1 -2 5
8 8 -77 44 -104 44 -9 0 -30 7 -45 15 -16 8 -39 15 -51 15 -13 0 -23 4 -23 10
0 8 -56 24 -90 24 -8 0 -21 6 -28 13 -7 7 -24 13 -37 13 -13 0 -27 5 -30 10
-4 6 -12 10 -18 9 -7 -1 -19 0 -27 3 -85 29 -122 39 -127 35 -3 -4 -21 0 -39
8 -19 8 -37 14 -39 14 -3 1 -15 3 -28 6 -12 3 -31 7 -42 9 -11 1 -27 6 -35 9
-53 20 -154 46 -161 41 -5 -3 -9 0 -9 6 0 6 -8 10 -17 9 -10 -1 -20 0 -23 1
-62 24 -304 16 -320 -10 -3 -4 -19 -10 -37 -13 -46 -7 -106 -54 -158 -122 -54
-71 -59 -87 -57 -208 3 -281 10 -586 15 -622 3 -22 8 -78 11 -124 3 -46 10
-89 15 -95 9 -11 19 -84 20 -149 1 -16 5 -26 10 -23 8 5 27 -87 22 -108 -1 -4
3 -14 9 -21 6 -7 13 -39 15 -71 3 -32 8 -60 12 -63 9 -7 11 -16 19 -74 2 -23
8 -44 12 -47 4 -3 8 -21 10 -40 2 -19 9 -44 16 -55 6 -11 13 -35 15 -54 1 -19
10 -45 18 -57 8 -13 12 -28 8 -34 -4 -6 -1 -17 5 -25 7 -8 10 -15 6 -15 -3 0
-1 -12 5 -27 6 -16 13 -39 15 -53 4 -28 19 -84 39 -150 8 -25 17 -60 20 -77 4
-18 10 -33 13 -33 4 0 8 -17 9 -37 1 -21 6 -39 12 -41 5 -2 8 -9 5 -17 -3 -7
-1 -16 5 -19 6 -4 8 -13 5 -20 -3 -8 0 -17 5 -21 6 -3 9 -11 6 -16 -5 -8 1
-35 23 -99 3 -8 4 -21 3 -27 -1 -7 3 -13 9 -13 6 0 8 -4 5 -10 -3 -5 -3 -16 1
-22 5 -7 9 -19 10 -28 5 -27 9 -45 16 -56 4 -5 9 -32 13 -59 3 -27 10 -54 15
-60 5 -6 11 -23 14 -39 3 -15 11 -35 18 -44 11 -13 11 -14 -1 -7 -11 6 -13 4
-8 -9 4 -9 12 -47 17 -84 6 -36 14 -69 18 -72 9 -7 13 -24 19 -90 3 -30 8 -57
12 -60 3 -3 7 -14 9 -25 6 -44 9 -61 17 -84 4 -13 9 -38 11 -55 5 -43 9 -57
22 -89 6 -15 12 -38 12 -50 -1 -32 5 -58 19 -92 7 -16 13 -51 13 -78 0 -26 4
-50 9 -53 5 -3 9 -23 9 -44 0 -21 4 -41 10 -45 5 -3 7 -12 3 -20 -3 -8 -1 -15
3 -15 5 0 10 -23 12 -52 2 -29 6 -57 10 -62 3 -6 5 -23 3 -38 -1 -16 1 -28 6
-28 4 0 9 -24 11 -53 2 -28 7 -79 13 -112 13 -82 19 -124 23 -165 2 -19 4 -35
5 -35 1 0 4 -27 7 -60 2 -33 7 -85 10 -115 2 -30 5 -67 6 -82 0 -16 5 -25 11
-21 6 3 7 2 4 -4 -3 -5 -2 -52 3 -104 6 -52 10 -109 10 -127 -1 -19 3 -31 7
-29 5 3 9 -13 11 -36 3 -61 8 -96 14 -102 3 -3 4 -19 2 -36 -2 -17 0 -28 6
-24 5 3 9 -7 9 -22 -2 -49 13 -143 22 -143 5 0 8 -3 7 -7 -4 -18 14 -123 23
-128 5 -4 9 -16 9 -28 0 -12 6 -34 14 -48 7 -14 16 -37 20 -52 3 -15 11 -27
16 -27 6 0 10 -5 10 -10 0 -19 53 -65 94 -81 27 -11 42 -24 44 -38 2 -11 8
-21 13 -21 6 0 7 -5 4 -10 -6 -10 28 -192 42 -230 3 -8 7 -22 9 -30 17 -97 29
-138 37 -133 6 3 7 2 4 -4 -7 -11 15 -142 27 -161 3 -6 9 -32 12 -58 3 -26 12
-60 19 -75 8 -14 12 -29 9 -32 -3 -3 2 -41 11 -84 9 -43 18 -94 21 -113 5 -43
22 -132 35 -185 6 -22 12 -54 15 -70 7 -51 27 -153 35 -185 2 -8 8 -18 12 -21
4 -3 9 -28 11 -55 3 -27 5 -50 6 -51 2 -2 3 -6 4 -10 2 -5 8 -28 15 -53 7 -25
14 -54 16 -66 1 -11 5 -25 8 -31 8 -12 19 -63 19 -85 -1 -10 3 -18 7 -18 4 0
8 -6 8 -12 2 -25 14 -93 20 -108 9 -21 13 -41 14 -70 1 -14 6 -74 10 -135 5
-60 12 -319 14 -575 6 -589 4 -529 15 -505 7 15 9 6 8 -35 -3 -69 11 -182 22
-175 4 3 8 -10 8 -28 1 -48 10 -104 20 -124 5 -10 13 -44 16 -76 5 -37 11 -55
18 -51 7 4 8 2 4 -4 -4 -6 -1 -22 6 -34 7 -13 11 -29 10 -35 -2 -7 2 -13 8
-13 5 0 9 -3 9 -7 -5 -30 5 -66 26 -97 14 -20 25 -45 25 -56 0 -10 5 -22 10
-25 6 -4 8 -10 5 -15 -3 -5 -1 -11 5 -15 5 -3 10 -14 10 -24 0 -10 13 -37 30
-59 16 -23 30 -49 30 -58 0 -21 71 -154 83 -154 4 0 6 -4 2 -9 -3 -5 2 -16 10
-25 9 -9 18 -26 20 -38 3 -12 8 -24 13 -27 4 -3 25 -34 46 -69 21 -34 42 -62
47 -62 6 0 8 -4 4 -10 -3 -5 3 -18 15 -30 11 -11 20 -26 20 -34 0 -7 11 -24
24 -37 13 -13 26 -34 30 -45 4 -12 17 -33 30 -47 24 -26 40 -56 38 -70 -1 -4
3 -7 8 -7 6 0 10 -7 10 -15 0 -9 7 -18 15 -21 8 -4 15 -14 15 -25 0 -10 6 -22
13 -26 7 -4 18 -20 24 -35 7 -16 17 -28 22 -28 5 0 20 -24 34 -53 15 -29 35
-61 45 -72 10 -11 19 -24 20 -30 2 -5 12 -20 22 -33 11 -12 20 -26 20 -30 0
-13 66 -103 72 -97 2 3 5 -1 5 -8 0 -19 53 -107 65 -107 5 0 7 -4 4 -8 -3 -5
8 -35 24 -68 17 -32 30 -65 30 -72 0 -7 8 -32 19 -55 20 -46 27 -67 30 -82 1
-5 8 -19 15 -30 7 -11 16 -37 19 -58 3 -22 12 -46 19 -54 6 -8 13 -33 14 -55
1 -22 7 -45 13 -51 6 -6 11 -23 11 -37 0 -14 10 -53 21 -85 12 -33 21 -70 21
-82 0 -13 4 -23 9 -23 5 0 8 -3 7 -8 -3 -11 13 -95 20 -107 4 -5 8 -21 10 -35
1 -14 7 -37 13 -52 6 -15 12 -39 14 -55 4 -38 9 -56 18 -70 4 -6 9 -29 11 -50
5 -52 9 -67 21 -75 5 -4 9 -23 8 -42 -1 -20 3 -38 8 -41 4 -3 6 -12 2 -20 -3
-8 1 -15 8 -15 7 0 10 -3 7 -6 -4 -3 -2 -20 4 -37 5 -18 11 -39 12 -47 7 -43
29 -110 37 -110 5 0 9 -15 9 -34 0 -19 9 -56 20 -82 11 -26 18 -49 15 -52 -3
-3 2 -16 10 -29 9 -13 13 -23 9 -23 -3 0 1 -11 10 -25 9 -13 19 -41 22 -61 3
-21 13 -48 21 -61 9 -13 17 -31 18 -41 2 -23 12 -50 35 -94 11 -20 20 -44 20
-52 0 -8 4 -16 9 -18 5 -1 11 -12 13 -23 1 -11 12 -34 24 -50 12 -17 25 -45
28 -63 4 -17 12 -32 17 -32 5 0 9 -8 9 -19 0 -10 9 -30 20 -44 11 -14 20 -29
20 -33 0 -14 62 -134 69 -134 4 0 13 -15 19 -34 7 -19 19 -37 27 -40 8 -3 15
-13 15 -22 0 -20 56 -113 79 -132 9 -7 10 -10 3 -7 -13 7 82 -154 97 -165 4
-3 21 -30 39 -60 17 -30 40 -65 51 -77 12 -12 21 -26 21 -31 0 -5 20 -31 46
-58 25 -27 44 -51 43 -53 -1 -2 10 -16 25 -31 14 -16 26 -33 26 -39 0 -6 5
-11 10 -11 6 0 14 -8 17 -18 10 -26 100 -132 107 -125 3 4 6 -1 6 -10 0 -9 8
-22 19 -29 10 -7 20 -17 22 -23 4 -13 14 -26 67 -82 23 -26 42 -50 42 -54 0
-3 9 -9 21 -12 12 -3 19 -9 17 -14 -6 -9 28 -44 35 -36 3 2 8 -4 11 -14 7 -22
270 -284 341 -339 28 -21 55 -46 62 -54 7 -8 13 -11 13 -7 0 5 12 -6 26 -23
15 -17 28 -29 31 -27 2 2 20 -11 40 -29 20 -19 43 -34 51 -34 7 0 10 -5 7 -10
-3 -6 -2 -10 3 -10 5 0 29 -16 54 -35 25 -19 48 -31 52 -28 3 4 6 2 6 -4 0
-11 92 -79 102 -75 5 1 8 -2 8 -6 0 -10 77 -62 91 -62 5 0 9 -5 9 -12 0 -6 3
-9 6 -5 3 3 15 -3 27 -14 11 -10 33 -25 49 -31 15 -7 28 -17 28 -21 0 -5 4 -6
9 -3 5 3 12 -1 15 -10 4 -9 9 -14 13 -11 3 4 22 -7 41 -23 19 -16 39 -27 44
-24 4 3 8 0 8 -5 0 -6 7 -11 15 -11 8 0 15 -4 15 -9 0 -5 8 -11 18 -15 9 -3
37 -17 61 -31 24 -14 50 -25 58 -25 7 0 13 -5 13 -11 0 -5 4 -7 10 -4 5 3 10
1 10 -4 0 -6 7 -11 15 -11 8 0 15 -4 15 -10 0 -5 6 -10 13 -10 6 0 42 -16 80
-35 37 -19 67 -32 67 -28 0 3 10 -2 22 -13 12 -10 18 -13 14 -6 -5 8 11 1 35
-14 24 -15 50 -27 56 -27 7 0 13 -3 13 -7 0 -7 86 -48 110 -52 8 -2 21 -9 28
-16 7 -6 22 -12 33 -12 10 0 19 -4 19 -9 0 -8 48 -30 60 -27 3 0 19 -9 36 -21
18 -13 41 -24 52 -26 11 -2 28 -9 38 -17 16 -13 17 -13 9 0 -7 12 -5 12 11 -1
25 -21 105 -57 139 -63 15 -3 32 -10 39 -15 7 -6 21 -12 32 -14 10 -1 25 -6
32 -10 6 -5 16 -6 21 -3 5 4 11 1 13 -5 2 -7 13 -13 24 -14 10 -1 28 -6 39
-12 11 -6 35 -13 53 -16 18 -3 38 -9 45 -14 7 -5 22 -10 34 -11 12 0 37 -7 55
-15 49 -22 133 -47 166 -49 6 -1 12 -5 12 -9 0 -5 17 -11 38 -15 20 -4 51 -13
67 -20 17 -6 46 -14 65 -15 19 -2 37 -7 41 -11 3 -4 25 -12 50 -17 24 -5 55
-12 69 -16 28 -7 78 -16 98 -18 6 0 12 -3 12 -7 0 -4 6 -7 13 -8 70 -8 88 -12
106 -22 12 -6 41 -12 64 -13 23 -2 48 -6 54 -10 6 -4 46 -12 88 -17 42 -5 81
-12 86 -15 10 -7 116 -18 171 -19 20 0 34 -4 32 -8 -3 -4 12 -8 33 -9 21 0 74
-3 118 -6 44 -2 150 -5 235 -5 85 0 160 -3 165 -8 10 -8 102 -23 138 -22 10 1
15 -4 11 -10 -5 -7 5 -9 30 -4 20 4 42 3 49 -1 6 -4 21 -8 32 -9 75 -5 102
-10 98 -18 -4 -5 12 -7 35 -3 23 3 44 2 46 -2 3 -4 31 -9 63 -10 97 -5 101 -6
97 -13 -3 -4 26 -8 63 -8 37 1 192 0 343 -1 630 -2 875 1 969 16 52 8 97 14
100 13 30 -3 91 4 87 10 -2 4 3 8 12 9 9 0 35 4 57 7 22 4 48 7 58 7 9 0 15 3
13 7 -3 4 3 8 12 9 43 2 108 16 116 24 6 5 20 9 32 9 13 0 26 5 29 10 4 6 10
8 15 5 5 -3 17 -1 27 4 27 14 57 24 67 22 4 -1 13 2 20 7 6 6 26 13 44 17 17
3 32 10 32 14 0 3 11 8 23 9 13 1 37 8 53 17 16 8 37 15 47 15 10 0 15 5 12
10 -3 6 4 10 18 10 13 0 27 3 31 7 4 5 11 8 14 9 4 0 21 7 37 14 17 7 33 13
38 12 4 -1 7 3 7 8 0 6 10 10 23 10 12 0 35 9 51 19 17 11 33 18 38 15 4 -3 8
0 8 7 0 7 3 10 6 7 6 -7 143 47 158 62 6 6 17 10 25 10 21 0 91 32 91 42 0 4
8 8 17 8 9 0 25 8 36 17 11 10 17 12 13 5 -4 -7 15 1 43 18 28 16 51 26 51 22
0 -4 7 2 15 12 8 11 15 16 15 11 0 -4 8 -1 18 7 15 13 47 29 62 32 3 1 23 12
45 25 22 14 43 24 48 23 4 -1 7 3 7 10 0 6 3 9 6 5 3 -3 24 5 45 19 21 13 43
24 49 24 6 0 13 7 16 15 4 8 14 15 24 15 9 0 36 13 58 30 23 16 45 30 48 30 3
0 19 10 36 21 16 12 50 32 76 46 26 14 51 31 55 39 4 8 13 14 18 14 12 0 131
79 141 94 4 6 11 11 15 11 11 1 142 94 171 123 12 12 25 22 28 22 6 0 26 16
59 46 13 12 26 20 29 17 2 -3 12 7 21 21 10 14 22 26 28 26 6 0 17 6 26 14 51
45 117 105 143 131 17 17 35 29 40 28 4 -2 8 4 8 12 0 8 5 15 11 15 15 0 279
264 279 279 0 7 5 9 10 6 6 -3 14 4 19 17 4 13 12 22 17 21 5 -2 9 3 9 10 0 6
7 12 15 12 8 0 15 5 15 12 0 6 33 42 73 78 39 37 72 74 72 82 0 8 5 11 10 8 6
-3 10 -1 10 5 0 7 11 21 25 32 14 11 22 24 19 30 -4 7 -2 8 4 4 6 -3 14 0 19
8 4 8 24 31 43 53 19 21 35 41 35 44 0 3 16 21 35 40 20 19 47 49 60 67 14 19
31 40 38 47 6 8 12 17 12 20 0 4 11 16 25 27 14 11 25 26 25 34 0 8 4 14 9 14
5 0 26 24 47 53 21 28 44 58 51 65 7 7 16 24 19 38 3 13 10 24 16 24 5 0 7 4
3 9 -3 5 1 16 9 24 8 8 12 17 9 21 -4 3 -1 6 5 6 7 0 12 7 12 16 0 9 7 22 15
28 9 6 17 21 18 33 0 12 4 20 8 17 8 -5 19 21 19 46 0 10 5 20 11 22 5 2 11
10 13 18 2 13 21 48 63 115 19 30 46 89 45 97 -1 3 5 12 13 18 8 7 15 17 15
22 0 6 16 36 35 68 19 32 35 65 35 74 0 10 4 15 9 11 6 -3 13 10 17 30 3 19
10 35 14 35 5 0 11 9 15 19 3 11 17 36 30 55 13 20 22 36 18 36 -3 0 1 8 9 18
9 9 19 28 23 42 4 14 19 43 33 64 13 22 25 44 26 50 1 6 6 18 11 26 5 8 11 23
12 32 1 9 14 33 28 54 23 34 51 109 47 127 -1 4 2 7 7 7 11 0 41 75 44 107 0
12 4 20 8 17 7 -4 31 56 27 66 -2 3 9 26 24 51 15 26 25 49 22 51 -2 3 2 11
11 18 8 7 15 20 15 30 0 10 7 23 15 30 8 7 15 21 15 31 0 10 4 20 9 24 5 3 12
19 16 35 4 17 11 30 16 30 5 0 9 5 9 12 0 6 45 101 100 210 55 110 100 205
100 212 0 8 7 19 15 26 8 7 12 16 9 21 -3 5 0 9 7 9 6 0 9 8 6 19 -3 12 1 22
9 25 8 3 14 18 14 34 0 16 8 40 18 53 19 25 33 53 38 78 1 8 10 18 18 23 9 5
16 16 16 25 0 9 7 21 14 27 8 6 16 17 18 25 2 7 13 25 26 39 12 14 20 27 17
30 -2 3 4 12 14 21 20 18 46 62 43 74 -1 4 3 7 9 7 5 0 7 5 4 10 -3 6 0 10 8
10 13 0 23 12 26 33 0 4 12 20 26 35 14 15 25 32 25 39 0 7 6 16 13 20 15 10
67 79 68 90 0 5 7 12 15 16 8 5 12 12 9 16 -2 5 4 16 15 26 11 10 20 24 20 32
0 7 4 13 9 13 12 0 62 96 54 104 -4 3 -2 6 3 6 6 0 18 19 27 43 10 23 24 55
32 70 9 17 10 25 3 21 -6 -4 0 8 14 27 15 19 26 36 25 39 -1 4 5 21 28 80 1 3
9 22 18 42 10 21 17 43 17 51 0 7 4 17 9 23 5 5 19 38 31 74 12 36 26 70 32
77 5 7 7 17 4 22 -4 5 -1 13 5 16 5 4 8 13 5 21 -3 7 -1 16 4 19 20 12 93 288
88 332 -2 17 0 29 4 27 4 -3 8 5 7 18 0 13 4 63 9 112 5 49 7 98 5 110 -4 18
-3 19 7 6 9 -12 10 2 7 62 -3 43 -2 80 2 82 7 5 6 366 -2 631 -2 72 0 143 5
160 4 17 4 33 -2 39 -5 5 -6 46 -3 94 4 54 3 83 -4 79 -6 -4 -10 44 -10 129 0
81 3 134 9 134 6 0 8 7 4 15 -3 8 -1 15 4 15 5 0 9 12 9 28 1 44 5 72 11 72 3
0 7 12 8 27 1 15 9 37 17 49 8 12 18 42 21 66 4 24 11 49 17 56 5 7 7 15 4 19
-3 3 0 20 8 38 7 19 11 36 7 39 -3 3 -1 6 5 6 16 0 72 225 75 299 1 23 5 41 9
41 4 0 8 8 8 18 0 9 2 33 5 52 4 19 7 56 8 82 1 26 5 45 10 42 4 -3 8 5 8 18
2 87 8 136 18 154 6 11 11 29 11 40 0 40 11 107 20 118 6 7 10 21 9 31 0 11 3
38 7 60 4 22 7 48 8 58 1 9 5 17 9 17 4 0 8 9 8 21 0 13 -4 18 -12 13 -8 -5
-7 -1 1 10 8 10 16 39 16 65 1 27 5 53 9 60 4 6 6 93 5 193 -1 101 -1 209 0
241 1 31 -1 63 -6 70 -4 6 -8 68 -9 137 -1 178 -13 389 -23 408 -5 10 -9 72
-10 140 0 68 -6 132 -11 143 -8 15 -6 24 10 41 11 12 18 28 15 36 -2 7 0 10 5
7 6 -3 11 4 12 17 4 54 6 64 11 78 6 15 1 221 -8 315 -3 28 -5 68 -5 91 1 23
-7 63 -15 89 -10 28 -14 61 -11 80 4 18 1 45 -6 61 -6 16 -12 54 -13 84 -4
121 -17 230 -27 223 -7 -3 -8 -1 -4 5 6 10 -5 198 -19 322 -2 25 -9 106 -15
180 -6 74 -12 153 -14 175 -2 22 -9 110 -16 195 -6 85 -14 162 -18 170 -6 18
-10 72 -11 170 0 41 -6 100 -12 130 -6 30 -12 109 -13 175 -4 195 -15 392 -27
443 -6 26 -9 99 -8 162 3 125 -9 486 -18 510 -4 13 -12 324 -12 472 0 26 -8
92 -17 145 -11 65 -14 122 -10 168 5 62 -16 290 -32 335 -3 8 -4 25 -3 38 1
12 -2 22 -8 22 -6 0 -10 29 -10 71 0 40 -4 76 -10 82 -5 5 -7 16 -4 23 3 8 1
14 -3 14 -5 0 -9 15 -10 33 -2 45 -9 94 -22 152 -31 137 -43 202 -43 227 1 14
-4 39 -10 55 -6 15 -13 51 -16 78 -3 28 -9 58 -14 67 -5 9 -12 41 -14 69 -3
29 -9 58 -14 63 -10 13 -25 68 -22 80 1 5 -3 12 -8 16 -6 3 -12 18 -13 33 -1
15 -7 27 -12 27 -5 0 -7 3 -3 6 17 17 -107 164 -139 164 -7 0 -14 5 -14 11 0
6 -7 8 -16 5 -8 -3 -13 -2 -10 3 7 11 -20 22 -37 15 -8 -3 -20 2 -27 11 -10
13 -31 16 -96 14 -46 -1 -86 -4 -88 -7z m35 -539 c0 -10 2 -31 4 -48 2 -16 6
-58 9 -93 3 -35 8 -67 11 -72 3 -5 8 -40 11 -77 3 -38 9 -72 14 -77 5 -5 7
-14 4 -20 -2 -6 3 -47 11 -91 8 -44 17 -119 19 -166 2 -48 10 -97 17 -110 8
-15 14 -71 15 -144 2 -66 8 -172 14 -235 5 -63 12 -227 15 -365 2 -137 10
-324 17 -415 7 -91 13 -244 14 -340 2 -192 9 -350 24 -535 6 -66 11 -162 11
-213 0 -50 3 -92 7 -92 4 0 6 -26 4 -57 -2 -32 4 -101 14 -153 9 -52 17 -115
17 -140 0 -99 19 -325 28 -336 6 -7 9 -43 8 -81 -2 -104 1 -153 11 -153 5 0 9
-24 9 -52 0 -29 3 -93 5 -143 3 -49 6 -103 6 -120 1 -27 2 -28 11 -10 8 17 9
16 4 -6 -5 -30 11 -211 31 -349 4 -25 6 -57 5 -73 -4 -41 9 -88 22 -80 6 4 8
0 4 -9 -7 -18 11 -158 22 -173 4 -5 8 -39 9 -75 1 -36 9 -96 18 -135 19 -77
21 -213 4 -274 -5 -21 -10 -83 -10 -137 0 -55 -2 -308 -5 -564 -3 -256 -6
-529 -6 -607 -1 -78 -5 -143 -10 -145 -7 -2 -15 -47 -21 -125 -1 -7 -5 -13
-10 -13 -5 0 -8 -6 -7 -12 1 -7 0 -20 -4 -28 -3 -8 -8 -31 -11 -50 -4 -19 -9
-46 -12 -60 -3 -14 -8 -43 -11 -65 -3 -22 -9 -44 -13 -50 -4 -5 -8 -21 -8 -35
0 -14 -5 -59 -11 -100 -5 -41 -7 -78 -4 -84 3 -5 1 -6 -5 -2 -8 5 -12 -6 -12
-34 0 -23 -7 -66 -16 -96 -8 -30 -14 -60 -11 -67 2 -6 -4 -36 -14 -66 -11 -30
-20 -67 -21 -82 -1 -16 -5 -29 -9 -29 -4 0 -10 -25 -14 -55 -3 -30 -11 -55
-16 -55 -5 0 -8 -3 -7 -7 1 -8 -2 -18 -19 -60 -8 -20 -13 -45 -13 -58 0 -3 -6
-18 -14 -33 -8 -15 -16 -48 -19 -74 -3 -26 -8 -52 -12 -59 -7 -11 -12 -31 -20
-84 -1 -11 -5 -27 -8 -35 -12 -30 -28 -131 -26 -158 1 -15 -1 -35 -5 -44 -4
-9 -5 -74 -2 -145 13 -269 14 -578 4 -591 -7 -8 -8 -34 -3 -75 16 -119 19
-362 7 -527 -5 -69 -10 -134 -10 -145 -1 -11 -4 -47 -8 -80 -3 -33 -7 -72 -8
-87 0 -16 -4 -28 -7 -28 -4 0 -10 -25 -14 -55 -4 -36 -10 -53 -17 -48 -7 4 -9
0 -5 -9 3 -9 3 -19 -1 -22 -3 -4 -7 -16 -9 -28 -2 -12 -8 -27 -14 -34 -5 -6
-9 -16 -8 -20 4 -18 -14 -64 -23 -58 -5 3 -8 0 -7 -7 2 -16 -3 -31 -37 -106
-13 -28 -24 -56 -24 -61 0 -6 -9 -29 -19 -53 -11 -24 -17 -47 -15 -51 3 -4 1
-8 -3 -8 -11 0 -68 -126 -65 -142 1 -5 -2 -8 -7 -8 -5 0 -18 -19 -30 -42 -22
-44 -42 -79 -51 -88 -12 -12 -61 -80 -60 -85 0 -3 -8 -14 -17 -24 -33 -36 -43
-50 -43 -60 0 -5 -7 -12 -16 -15 -9 -4 -14 -9 -11 -12 3 -4 -5 -18 -19 -32
-13 -15 -24 -30 -24 -35 0 -4 -11 -20 -25 -35 -14 -15 -25 -32 -25 -39 0 -6
-3 -13 -7 -15 -12 -5 -75 -98 -67 -98 4 0 -1 -9 -11 -20 -21 -23 -42 -57 -51
-82 -3 -9 -13 -19 -21 -22 -8 -3 -11 -10 -8 -16 3 -5 2 -10 -2 -10 -10 0 -63
-100 -63 -118 0 -6 -4 -12 -9 -14 -6 -1 -12 -16 -15 -32 -3 -16 -13 -37 -22
-47 -10 -11 -14 -22 -11 -25 3 -4 -5 -26 -18 -49 -14 -23 -22 -45 -18 -48 3
-4 1 -7 -5 -7 -7 0 -12 -6 -12 -14 0 -7 -7 -19 -15 -26 -8 -7 -15 -23 -15 -36
0 -13 -5 -24 -11 -24 -5 0 -7 -4 -4 -10 3 -5 2 -10 -3 -10 -11 0 -102 -175
-102 -196 0 -8 -4 -12 -10 -9 -5 3 -10 -2 -10 -12 0 -10 -9 -31 -19 -47 -11
-17 -18 -33 -15 -38 3 -4 1 -8 -3 -8 -8 0 -44 -69 -49 -92 -1 -5 -3 -11 -4
-15 -1 -5 -2 -11 -1 -15 0 -5 -4 -8 -10 -8 -5 0 -7 -4 -4 -10 3 -5 2 -10 -3
-10 -13 0 -42 -61 -44 -93 -1 -14 -5 -24 -9 -21 -10 6 -38 -65 -41 -103 -1 -7
-5 -13 -10 -13 -5 0 -7 -4 -4 -9 4 -5 2 -11 -3 -13 -5 -1 -11 -10 -13 -18 -2
-8 -6 -17 -10 -20 -4 -3 -9 -18 -12 -33 -2 -14 -12 -37 -20 -49 -9 -12 -16
-30 -16 -40 0 -10 -4 -18 -10 -18 -5 0 -10 -5 -10 -11 0 -17 -42 -103 -54
-111 -6 -4 -7 -8 -3 -8 5 0 -1 -13 -13 -30 -12 -16 -18 -30 -14 -30 4 0 -1
-10 -12 -23 -30 -33 -54 -74 -54 -92 0 -8 -4 -15 -9 -15 -5 0 -13 -10 -17 -22
-3 -13 -14 -31 -23 -42 -9 -10 -14 -19 -12 -20 2 0 -7 -19 -20 -41 -13 -22
-24 -42 -25 -45 -2 -12 -18 -45 -24 -50 -11 -9 -66 -104 -94 -165 -16 -33 -32
-67 -37 -75 -5 -8 -15 -26 -21 -40 -7 -14 -15 -27 -18 -30 -12 -10 -100 -183
-100 -196 0 -7 -11 -21 -25 -30 -14 -9 -28 -27 -31 -40 -3 -12 -12 -25 -20
-28 -8 -3 -14 -13 -14 -21 0 -9 -4 -13 -10 -10 -5 3 -10 -1 -10 -9 0 -9 -4
-16 -8 -16 -5 0 -33 -30 -63 -68 -29 -37 -58 -70 -64 -74 -5 -4 -10 -11 -10
-16 0 -8 -21 -31 -116 -127 -22 -22 -37 -44 -33 -48 4 -4 2 -7 -4 -7 -6 0 -37
-28 -69 -61 -32 -34 -86 -90 -120 -124 -35 -34 -63 -68 -63 -75 0 -8 -3 -11
-6 -8 -7 7 -74 -59 -74 -72 0 -6 -7 -10 -16 -10 -8 0 -12 -5 -9 -10 3 -6 -2
-13 -12 -17 -10 -4 -43 -32 -74 -62 -31 -31 -83 -78 -114 -106 -32 -27 -69
-60 -82 -73 -13 -12 -28 -22 -34 -22 -6 0 -7 -4 -4 -10 3 -5 1 -10 -4 -10 -15
0 -111 -70 -111 -81 0 -5 -7 -9 -15 -9 -8 0 -15 -4 -15 -9 0 -5 -9 -13 -20
-16 -11 -4 -17 -11 -14 -17 4 -6 2 -8 -3 -5 -6 4 -22 -4 -37 -18 -14 -13 -26
-22 -26 -19 0 3 -17 -8 -37 -24 -21 -16 -72 -51 -113 -78 -41 -27 -77 -51 -80
-55 -3 -3 -23 -16 -45 -29 -22 -13 -42 -27 -45 -30 -3 -3 -20 -12 -37 -19 -18
-8 -33 -18 -33 -23 0 -5 -5 -6 -10 -3 -6 3 -13 -1 -16 -9 -3 -9 -9 -14 -13
-11 -4 2 -32 -12 -62 -32 -30 -19 -59 -36 -64 -37 -6 -1 -32 -14 -57 -29 -26
-15 -52 -27 -58 -27 -6 0 -8 -6 -4 -12 4 -7 4 -10 -1 -6 -8 7 -98 -35 -127
-60 -10 -8 -18 -12 -18 -8 0 4 -13 -2 -30 -14 -16 -12 -30 -18 -30 -14 0 3 -7
0 -16 -7 -9 -7 -23 -14 -32 -15 -8 -2 -18 -7 -21 -12 -3 -5 -21 -12 -40 -15
-19 -4 -41 -13 -49 -19 -8 -7 -21 -13 -29 -14 -8 -1 -33 -11 -56 -22 -23 -11
-59 -25 -79 -33 -21 -7 -38 -17 -38 -21 0 -4 -9 -8 -20 -8 -21 0 -51 -14 -84
-40 -12 -9 -17 -10 -12 -2 4 7 -8 4 -28 -8 -20 -11 -39 -19 -42 -19 -5 1 -53
-16 -94 -34 -14 -5 -32 -12 -40 -13 -8 -2 -23 -7 -35 -13 -33 -15 -60 -24 -68
-22 -4 0 -17 -4 -28 -10 -12 -6 -35 -12 -52 -15 -17 -2 -33 -7 -36 -11 -3 -5
-11 -9 -17 -10 -6 -1 -23 -4 -38 -7 -14 -2 -29 -7 -34 -10 -12 -7 -73 -19 -97
-18 -10 1 -24 -3 -30 -8 -16 -13 -195 -21 -485 -23 -135 0 -229 -4 -210 -8 22
-4 4 -6 -50 -5 -47 0 -186 0 -310 0 -319 -2 -370 -1 -357 9 7 5 1 7 -16 4 -15
-2 -30 0 -33 5 -3 5 -31 9 -62 8 -32 0 -84 4 -117 10 -99 19 -317 27 -569 21
-32 -1 -74 3 -95 8 -20 5 -63 12 -96 15 -33 4 -100 13 -149 20 -49 8 -93 13
-97 10 -4 -2 -9 0 -11 5 -3 8 -88 22 -155 25 -13 0 -23 4 -23 8 0 3 -28 9 -62
13 -35 4 -67 11 -73 15 -5 4 -31 10 -58 13 -26 3 -52 9 -59 13 -6 4 -21 9 -32
10 -40 7 -81 16 -96 21 -19 8 -30 11 -57 17 -12 2 -31 10 -43 16 -12 6 -24 9
-27 6 -4 -3 -12 -1 -19 4 -6 6 -16 10 -20 9 -5 -1 -16 1 -24 4 -48 20 -134 46
-138 42 -3 -2 -17 2 -33 11 -16 8 -31 14 -34 14 -13 -1 -61 14 -71 22 -7 5
-16 8 -20 7 -5 -1 -11 0 -14 1 -9 3 -45 11 -62 14 -9 1 -23 8 -32 15 -8 7 -20
10 -25 7 -5 -4 -13 -1 -16 5 -4 5 -13 8 -20 5 -8 -3 -18 1 -24 8 -10 12 -66
29 -75 23 -1 -1 -9 3 -17 10 -16 13 -126 56 -133 51 -2 -2 -12 4 -22 13 -11 9
-30 20 -44 24 -14 4 -34 14 -45 21 -11 8 -28 14 -38 14 -10 0 -25 7 -33 15 -9
8 -24 15 -35 15 -10 0 -19 5 -19 11 0 5 -5 7 -10 4 -6 -3 -10 -1 -10 4 0 6 -6
11 -13 11 -6 0 -33 11 -60 25 -26 14 -47 23 -47 20 0 -4 -7 1 -16 9 -8 9 -21
16 -27 16 -7 0 -34 11 -61 25 -27 13 -53 22 -59 18 -6 -3 -7 -1 -3 5 4 7 -4
14 -21 18 -15 4 -38 14 -50 22 -13 8 -23 11 -23 7 0 -3 -12 3 -26 14 -15 11
-30 18 -35 15 -5 -3 -9 0 -9 5 0 10 -61 41 -77 40 -3 -1 -9 3 -12 8 -8 11
-180 113 -191 113 -4 0 -11 7 -14 16 -4 9 -9 14 -12 11 -3 -3 -14 2 -25 11
-11 9 -22 16 -24 15 -3 -2 -13 5 -23 15 -24 22 -115 76 -124 74 -5 -1 -8 2 -8
7 0 9 -68 54 -83 55 -5 1 -14 8 -20 16 -7 8 -39 35 -72 59 -33 25 -62 47 -65
50 -3 4 -22 17 -42 31 -21 14 -38 28 -38 33 0 4 -4 7 -8 7 -4 0 -37 27 -72 60
-36 33 -68 60 -72 60 -9 0 -282 277 -286 290 -2 6 -9 7 -14 4 -7 -4 -8 -2 -4
4 4 6 -7 21 -24 33 -16 13 -30 29 -30 36 0 7 -9 18 -20 25 -11 7 -20 19 -20
26 0 7 -4 10 -10 7 -5 -3 -10 1 -10 9 0 8 -6 19 -13 23 -7 4 -33 34 -56 66
-24 31 -48 57 -53 57 -5 0 -11 8 -15 18 -6 16 -37 54 -99 124 -13 14 -24 30
-24 35 0 4 -18 27 -40 51 -21 24 -42 52 -45 63 -4 10 -10 19 -15 19 -5 0 -19
20 -31 45 -12 24 -27 41 -32 38 -6 -3 -7 -2 -4 4 4 5 -2 19 -11 29 -10 10 -24
34 -31 51 -7 18 -18 33 -23 33 -5 0 -7 4 -4 8 3 5 -8 23 -24 40 -16 18 -26 32
-22 32 4 0 -1 5 -10 11 -10 5 -18 17 -18 25 0 22 -50 104 -63 104 -6 0 -8 3
-4 6 8 8 -63 144 -76 144 -6 0 -7 3 -4 7 4 3 2 12 -4 20 -6 7 -9 13 -5 13 4 0
-11 35 -33 78 -39 76 -53 110 -55 125 -1 4 -6 11 -13 15 -6 4 -13 19 -15 34
-2 15 -7 30 -11 34 -4 4 -7 15 -7 25 0 10 -6 24 -13 31 -8 7 -16 31 -20 52 -3
22 -10 42 -14 45 -4 3 -9 14 -11 25 -2 10 -8 30 -14 45 -12 28 -14 35 -22 66
-2 11 -11 36 -20 56 -8 20 -13 39 -10 42 3 3 -2 19 -11 36 -8 17 -13 31 -9 31
4 0 1 6 -5 13 -6 8 -8 17 -5 20 4 3 -1 24 -10 47 -9 22 -13 40 -10 40 4 0 1 6
-5 13 -6 8 -8 17 -4 20 3 4 2 7 -3 7 -5 0 -10 10 -10 23 -4 51 -8 73 -17 85
-5 6 -6 12 -3 12 4 0 2 8 -3 18 -5 10 -12 37 -15 59 -2 23 -9 59 -15 80 -36
138 -45 180 -42 197 1 10 -1 16 -6 13 -4 -3 -9 5 -10 16 -2 21 -9 56 -13 67
-1 3 -1 13 0 24 1 10 -2 16 -7 13 -4 -3 -9 5 -9 16 -4 51 -9 72 -17 78 -6 4
-11 20 -13 35 -7 64 -14 95 -26 116 -7 13 -11 28 -10 35 1 6 -2 14 -7 18 -6 3
-8 12 -4 20 3 8 1 15 -4 15 -5 0 -10 11 -11 24 -1 13 -11 44 -21 70 -11 25
-20 49 -20 52 1 8 -21 66 -37 97 -9 15 -13 27 -10 27 8 0 -54 113 -69 125 -7
5 -15 22 -19 36 -3 15 -17 37 -31 50 -13 13 -25 30 -25 37 0 7 -7 15 -15 18
-8 4 -15 11 -15 18 0 6 -14 24 -31 39 -17 14 -28 31 -24 36 3 6 -4 15 -15 21
-11 6 -18 15 -15 21 4 5 -1 9 -9 9 -9 0 -16 7 -16 16 0 8 -14 29 -30 46 -17
16 -30 33 -30 38 0 5 -14 18 -30 30 -17 12 -28 26 -24 31 3 5 -2 12 -10 15 -9
3 -25 22 -38 42 -23 39 -32 51 -72 95 -14 15 -26 32 -26 37 0 6 -4 10 -9 10
-5 0 -12 12 -15 26 -4 15 -10 24 -13 20 -4 -3 -13 6 -20 21 -10 22 -92 147
-130 199 -8 10 -12 16 -49 84 -10 19 -26 44 -34 54 -8 11 -10 16 -3 13 8 -5 8
1 -1 20 -8 16 -22 47 -32 70 -10 24 -21 43 -25 43 -4 0 -10 13 -14 30 -4 16
-11 30 -16 30 -5 0 -8 3 -8 8 1 4 0 9 -1 12 -1 3 -3 13 -5 22 -2 9 -15 42 -29
72 -14 30 -26 62 -26 70 0 8 -4 18 -10 21 -5 3 -10 16 -10 28 0 12 -6 34 -14
48 -15 29 -30 80 -28 92 1 4 -2 16 -7 26 -6 10 -13 33 -16 52 -3 18 -9 36 -13
39 -4 3 -8 16 -9 30 0 14 -4 43 -7 65 -3 22 -6 49 -7 60 0 10 -4 24 -10 31 -5
6 -9 47 -8 90 3 134 -1 214 -10 214 -6 0 -7 54 -4 130 4 94 3 130 -5 130 -9 0
-11 40 -10 138 2 216 -3 412 -10 412 -4 0 -7 37 -7 83 0 45 -4 109 -9 142 -5
33 -8 77 -7 98 1 25 -2 36 -9 32 -6 -4 -10 -3 -8 2 2 7 -11 106 -18 143 -2 8
-8 38 -13 65 -6 28 -17 68 -25 90 -8 22 -15 50 -16 62 0 12 -4 32 -9 45 -20
50 -24 64 -22 76 1 8 -3 20 -9 27 -6 7 -12 24 -14 37 -2 20 -11 60 -21 93 -1
6 -2 12 -2 15 0 3 -5 16 -12 29 -7 13 -15 38 -17 55 -5 38 -9 56 -16 76 -8 18
-22 112 -20 123 2 5 -5 28 -13 53 -8 25 -13 49 -10 54 3 5 1 11 -4 15 -6 3 -7
13 -4 21 3 8 1 25 -5 37 -6 12 -21 58 -33 102 -11 44 -24 85 -27 90 -4 6 -5
17 -4 26 2 9 -4 22 -13 29 -9 7 -13 21 -9 35 3 13 1 26 -5 29 -5 4 -8 13 -5
20 3 8 1 17 -5 20 -6 4 -8 13 -4 21 3 9 0 22 -7 30 -7 9 -14 28 -15 43 -3 49
-5 53 -17 46 -6 -4 -8 -3 -5 3 4 6 1 26 -7 44 -7 19 -11 40 -8 48 2 8 0 11 -5
8 -5 -3 -10 12 -10 34 -1 21 -11 60 -22 85 -12 26 -21 55 -21 65 0 11 -4 19
-9 19 -5 0 -13 15 -16 33 -4 17 -11 37 -17 43 -5 7 -11 22 -13 35 -3 12 -9 25
-15 29 -5 3 -11 15 -13 25 -2 11 -9 33 -15 48 -7 16 -12 33 -12 38 0 5 -4 9
-8 9 -9 0 -10 5 -18 132 -4 54 -9 96 -13 94 -4 -3 -7 10 -8 27 -1 18 -4 59 -8
92 -3 33 -6 79 -5 103 0 23 -4 42 -9 42 -6 0 -10 21 -9 48 0 26 -3 101 -7 167
-5 66 -8 128 -9 138 0 9 -3 17 -6 17 -3 0 -6 35 -8 77 -2 42 -6 82 -10 87 -3
6 -7 27 -8 46 -5 94 -17 208 -24 235 -11 34 -22 118 -22 155 0 14 -4 27 -8 30
-8 5 -19 86 -20 143 0 16 -4 26 -8 23 -5 -3 -9 0 -9 7 -4 70 -15 139 -27 168
-8 20 -13 45 -10 56 3 12 1 24 -5 27 -5 4 -7 14 -4 23 4 9 2 14 -3 10 -5 -3
-10 2 -11 11 -5 60 -17 128 -24 132 -4 3 -10 25 -13 49 -3 25 -9 47 -13 50 -9
7 -12 20 -18 65 -2 17 -9 49 -15 71 -6 22 -12 47 -12 55 0 8 -4 20 -8 25 -10
13 -24 76 -22 92 2 6 -2 14 -8 18 -5 3 -10 21 -10 40 0 19 -4 36 -10 40 -5 3
-7 12 -4 20 3 7 1 22 -5 33 -12 22 -23 69 -23 95 1 9 -4 17 -10 17 -6 0 -9 3
-6 6 4 3 2 20 -4 37 -5 18 -11 41 -13 52 -10 49 -27 121 -32 135 -8 20 -10 29
-11 63 -1 16 -6 26 -10 23 -7 -4 -11 11 -13 56 0 10 -5 20 -10 23 -5 4 -7 11
-3 16 3 5 1 16 -5 23 -6 7 -13 32 -16 55 -3 24 -12 56 -20 72 -9 16 -15 31
-15 34 1 43 -1 55 -12 49 -6 -4 -8 -3 -5 2 7 13 -12 104 -23 104 -4 0 -7 6 -7
13 2 22 -15 97 -22 97 -4 0 -8 15 -9 33 -2 30 -10 57 -42 147 -6 19 -14 51
-16 70 -3 19 -11 54 -19 78 -8 23 -15 49 -15 57 0 8 -4 15 -8 15 -4 0 -9 14
-10 31 -1 17 -7 39 -12 49 -5 9 -7 20 -3 23 3 4 0 13 -6 21 -7 8 -14 42 -17
76 -2 34 -9 70 -14 80 -5 9 -12 48 -16 86 -4 38 -11 77 -16 86 -4 10 -9 41 -9
70 -1 29 -4 57 -7 62 -6 10 -8 38 -16 191 -2 50 -5 95 -6 100 -5 21 1 27 15
15 8 -7 15 -9 15 -5 0 4 7 2 15 -5 8 -7 15 -9 15 -5 0 4 7 2 15 -5 9 -7 23
-14 33 -15 9 -1 33 -9 52 -17 19 -9 44 -18 55 -20 11 -1 22 -6 25 -10 3 -4 19
-9 35 -12 17 -2 32 -5 35 -6 3 -1 8 -2 13 -1 4 0 7 -4 7 -10 0 -5 4 -8 9 -5 5
4 11 2 13 -4 2 -6 17 -11 35 -13 17 -1 29 -6 25 -11 -3 -5 2 -7 11 -3 9 3 19
2 22 -4 4 -5 10 -7 14 -5 4 3 20 -4 37 -15 16 -10 39 -19 52 -19 12 0 22 -5
22 -12 0 -6 3 -8 7 -5 3 4 12 2 20 -4 7 -6 13 -8 13 -5 0 4 10 0 22 -8 12 -9
28 -16 35 -16 12 0 113 -44 175 -76 14 -8 35 -14 46 -14 11 0 22 -4 24 -9 1
-6 19 -13 38 -16 19 -3 37 -10 40 -14 3 -5 16 -12 30 -16 14 -4 40 -18 58 -32
17 -13 32 -22 32 -19 0 2 43 -25 97 -60 53 -35 102 -64 110 -64 7 0 13 -4 13
-9 0 -5 8 -12 17 -15 28 -11 86 -44 92 -54 13 -19 99 -71 106 -64 5 4 5 2 2
-4 -4 -6 13 -20 38 -33 25 -12 45 -26 45 -29 0 -4 17 -16 37 -27 21 -11 43
-24 49 -30 26 -24 70 -54 78 -54 5 1 12 -3 15 -9 10 -15 201 -153 201 -145 0
4 7 -3 16 -15 8 -12 19 -22 24 -22 6 0 21 -9 34 -21 13 -12 27 -21 30 -20 3 0
16 -9 30 -22 42 -39 60 -52 68 -50 4 2 16 -11 28 -27 12 -17 25 -30 30 -30 4
0 23 -15 42 -32 42 -41 87 -78 94 -78 3 0 21 -16 41 -35 20 -19 38 -33 40 -31
2 2 19 -11 38 -28 96 -89 117 -106 125 -106 5 0 14 -9 20 -20 6 -11 14 -19 19
-17 4 1 21 -11 37 -28 59 -60 159 -145 172 -145 7 0 10 -4 7 -10 -3 -5 -1 -10
5 -10 6 0 34 -25 62 -55 28 -30 53 -53 55 -51 2 2 28 -19 56 -48 57 -56 114
-106 122 -106 11 0 45 -35 45 -47 0 -7 4 -12 9 -11 5 2 10 0 11 -4 2 -11 148
-150 157 -150 4 1 13 -9 20 -21 7 -12 13 -17 13 -12 0 6 4 4 8 -3 12 -18 202
-212 208 -212 10 0 68 -65 66 -72 -1 -4 20 -25 47 -45 28 -21 50 -43 50 -49 1
-11 51 -62 51 -51 0 3 13 -6 28 -21 15 -15 27 -30 25 -33 -2 -4 53 -61 122
-127 69 -66 125 -125 125 -131 0 -6 7 -11 15 -11 8 0 15 -5 15 -11 0 -7 10
-22 22 -33 13 -12 55 -56 95 -98 40 -41 75 -73 78 -70 3 3 5 -1 5 -10 0 -19
34 -51 44 -41 4 5 6 3 4 -3 -2 -7 43 -61 99 -120 56 -60 111 -120 122 -134 78
-93 168 -189 179 -189 6 -1 12 -7 12 -14 0 -16 55 -77 69 -77 6 0 11 -7 11
-15 0 -8 3 -15 8 -15 4 0 18 -10 32 -23 14 -13 41 -32 60 -43 19 -10 39 -24
45 -30 16 -19 81 -36 138 -36 70 -1 133 20 165 54 15 15 33 28 39 28 7 0 12 5
11 12 -2 7 4 12 12 13 8 0 15 5 15 11 0 11 30 44 40 44 4 0 21 7 39 15 29 14
36 14 72 -2 21 -9 43 -16 47 -15 5 2 6 -2 2 -8 -3 -5 2 -13 12 -17 10 -3 33
-20 50 -36 18 -17 33 -28 33 -24 0 3 12 -5 28 -19 83 -78 214 -91 315 -30 31
19 57 32 57 29 0 -3 6 -1 13 5 6 6 29 13 50 17 20 4 39 11 42 15 13 21 84 21
128 1 25 -12 48 -21 52 -21 3 0 24 -12 48 -27 31 -19 55 -27 92 -27 98 -1 300
7 309 12 11 6 29 8 146 17 47 3 121 12 165 21 44 8 94 14 110 14 17 0 95 0
175 1 136 2 140 3 60 9 l-85 7 105 0 c58 0 204 3 325 7 155 5 251 4 325 -5
119 -14 233 -18 780 -24 212 -3 396 -9 410 -15 14 -5 189 -11 390 -15 201 -3
418 -8 482 -11 64 -4 125 -3 135 1 10 5 27 10 38 12 11 2 26 11 33 20 6 9 12
13 12 8 0 -5 11 2 25 15 13 12 22 26 20 30 -3 5 2 11 10 14 8 3 15 9 14 13 -1
4 -1 10 1 13 1 3 4 22 6 44 8 68 65 98 181 98 120 -1 125 -1 119 -11 -8 -12
78 -101 97 -101 9 0 17 -6 20 -12 5 -16 144 -18 155 -3 4 6 14 11 22 13 8 2
31 10 50 20 19 9 38 15 42 14 3 -1 28 5 53 13 33 10 55 11 73 4 14 -5 31 -8
39 -5 7 3 13 1 13 -4 0 -5 8 -9 18 -9 37 -1 52 -5 52 -12 0 -8 43 -19 88 -22
12 -1 22 -4 22 -8 0 -3 36 -7 80 -8 52 -1 80 2 80 9 0 6 4 9 10 5 5 -3 18 3
30 15 11 11 25 20 30 20 6 0 10 6 10 14 0 8 7 16 15 20 8 3 15 14 15 25 0 10
7 21 15 25 8 3 14 11 13 18 -2 7 3 12 10 10 8 -1 11 2 7 7 -3 6 3 15 13 20 11
6 27 22 37 37 11 18 13 24 4 19 -8 -4 -4 2 9 12 13 10 29 29 35 40 13 24 108
162 223 323 41 58 77 113 81 123 3 9 10 17 15 17 5 0 16 16 24 35 8 19 19 35
25 35 5 0 7 5 4 10 -3 6 1 10 10 10 9 0 14 4 10 9 -3 6 4 15 15 21 11 6 20 18
20 27 0 8 12 26 28 39 15 13 23 24 19 24 -4 0 2 10 13 23 50 54 81 94 92 120
7 15 16 27 19 27 6 0 99 122 110 144 2 5 21 27 42 50 20 23 40 50 43 61 4 10
17 27 29 37 12 9 28 31 35 48 7 16 16 30 21 30 5 0 9 7 9 16 0 8 5 12 10 9 6
-3 10 -2 10 3 0 5 16 26 35 47 19 21 32 42 29 47 -3 4 1 8 8 8 8 0 22 14 32
31 10 18 26 39 35 48 38 40 71 86 71 100 0 8 3 11 6 8 4 -4 20 10 36 31 15 20
41 53 56 72 15 19 26 36 24 38 -1 1 9 14 23 28 14 14 25 32 25 40 0 8 6 17 14
20 13 5 126 148 126 160 0 3 12 18 28 34 40 41 57 64 54 72 -1 5 2 8 6 8 12 0
108 121 105 131 -2 4 11 17 27 29 17 12 28 26 25 31 -4 5 -1 9 4 9 6 0 11 8
11 17 0 9 3 14 6 10 6 -6 54 45 54 58 0 5 16 24 35 44 56 58 145 169 145 180
0 6 4 11 8 11 12 0 152 176 152 190 0 6 5 8 10 5 6 -3 10 -3 10 2 0 4 14 23
31 41 16 17 27 32 24 32 -4 0 8 12 25 26 17 15 28 29 26 32 -3 3 5 14 18 26
29 26 166 191 166 200 0 3 18 22 40 42 22 20 39 38 37 40 -2 2 18 27 45 56 26
29 48 56 48 60 0 4 22 29 48 55 60 60 152 166 152 175 0 4 25 32 57 62 31 31
53 56 48 56 -4 0 4 10 19 21 15 12 26 23 24 25 -13 12 450 475 507 507 9 4 12
14 9 20 -4 7 -4 9 1 5 9 -8 50 11 41 19 -6 6 30 30 47 32 4 1 7 -7 8 -16z"/>
<path d="M16230 16780 c0 -5 -11 -12 -25 -16 -14 -3 -25 -10 -25 -15 0 -5 -8
-13 -17 -17 -30 -12 -103 -64 -103 -73 0 -5 -7 -9 -15 -9 -8 0 -15 -4 -15 -9
0 -5 -9 -12 -20 -16 -11 -3 -38 -24 -61 -46 -22 -21 -45 -39 -50 -39 -5 0 -9
-7 -9 -15 0 -8 -5 -15 -11 -15 -14 0 -129 -115 -129 -129 0 -6 -7 -11 -15 -11
-8 0 -15 -7 -15 -15 0 -8 -7 -15 -15 -15 -8 0 -15 -6 -15 -13 0 -7 -10 -19
-21 -27 -33 -23 -179 -192 -179 -208 0 -7 -4 -10 -10 -7 -5 3 -10 2 -10 -3 0
-5 -16 -27 -35 -48 -19 -21 -35 -42 -35 -46 0 -5 -12 -20 -26 -33 -15 -14 -23
-25 -18 -25 5 0 2 -6 -7 -13 -31 -24 -99 -119 -92 -129 3 -6 2 -8 -4 -5 -10 6
-93 -103 -93 -123 0 -5 -5 -10 -11 -10 -5 0 -7 -4 -4 -10 3 -5 2 -10 -4 -10
-5 0 -20 -17 -32 -37 -13 -21 -27 -42 -32 -48 -4 -5 -33 -48 -62 -95 -30 -47
-64 -96 -75 -110 -11 -14 -26 -37 -32 -52 -7 -16 -16 -28 -19 -28 -7 0 -89
-134 -89 -145 0 -3 -9 -16 -20 -28 -11 -12 -38 -53 -59 -92 -22 -38 -51 -87
-65 -108 -14 -21 -26 -44 -26 -52 0 -8 -8 -19 -17 -24 -10 -6 -13 -11 -8 -11
6 0 4 -4 -4 -9 -8 -5 -16 -17 -17 -27 -2 -10 -10 -21 -19 -26 -8 -5 -13 -13
-10 -19 4 -5 1 -9 -6 -9 -7 0 -9 -3 -6 -7 4 -3 1 -11 -7 -17 -12 -9 -47 -68
-92 -155 -7 -14 -11 -28 -9 -32 3 -4 -2 -10 -11 -13 -9 -4 -14 -9 -11 -12 3
-4 -3 -15 -13 -27 -11 -11 -17 -24 -14 -29 3 -4 1 -8 -4 -8 -5 0 -15 -15 -23
-32 -7 -18 -17 -36 -21 -39 -12 -8 -78 -139 -78 -155 0 -8 -4 -14 -8 -14 -8 0
-42 -70 -46 -95 -1 -7 -7 -19 -13 -26 -6 -8 -14 -25 -18 -39 -4 -14 -18 -48
-31 -77 -17 -36 -24 -70 -24 -112 0 -54 4 -65 29 -91 15 -17 33 -30 39 -30 6
0 12 -5 14 -10 3 -10 94 -15 132 -7 25 5 116 85 116 102 0 8 6 18 14 22 16 10
117 157 120 175 1 7 9 24 19 38 9 13 17 30 17 36 0 7 4 14 8 16 13 5 132 206
132 222 0 9 4 16 9 16 11 0 51 75 51 96 0 8 5 12 10 9 6 -3 10 -2 10 4 0 6 14
34 31 63 18 29 32 59 32 66 0 6 4 12 8 12 9 0 42 52 42 67 0 7 4 13 8 13 13 0
39 56 31 65 -4 5 -2 5 4 2 10 -6 51 69 46 85 -1 3 5 12 13 18 8 7 15 19 15 26
0 8 5 14 10 14 6 0 10 7 10 15 0 8 5 15 11 15 5 0 8 4 5 9 -3 5 1 11 9 15 8 3
15 12 15 19 0 8 7 20 15 27 8 7 13 16 10 20 -3 4 2 10 10 14 8 3 15 14 15 25
0 11 13 34 30 52 16 18 27 36 24 41 -3 4 0 8 6 8 6 0 9 4 6 9 -3 5 1 12 10 15
8 3 12 10 9 16 -3 5 -2 10 4 10 5 0 13 10 17 22 3 12 13 28 20 36 8 7 14 20
14 28 0 8 5 14 12 14 6 0 9 3 5 6 -3 4 13 32 37 63 43 55 46 61 46 82 0 5 5 7
10 4 6 -3 10 -3 10 2 0 4 34 62 75 128 41 66 75 125 75 130 0 6 12 21 25 34
14 13 25 29 25 36 0 7 7 16 16 19 8 3 12 10 9 16 -3 5 -1 10 5 10 6 0 16 12
23 28 6 15 22 38 34 52 13 14 23 28 23 32 0 3 6 13 13 20 18 19 97 135 97 143
0 3 12 22 28 41 15 18 26 36 24 39 -1 3 9 18 23 33 14 15 25 31 25 35 0 5 12
21 28 37 38 38 52 57 52 70 0 5 4 10 8 10 9 0 82 95 82 107 0 5 14 21 30 37
16 16 35 42 42 57 7 16 15 29 19 29 7 0 99 126 99 136 0 4 7 16 17 26 14 16
14 22 3 43 -11 21 -20 25 -62 25 -26 0 -48 -4 -48 -10z"/>
<path d="M3105 16460 c-27 -15 -30 -22 -33 -71 -4 -64 5 -122 18 -114 5 3 14
-4 20 -15 6 -11 16 -20 22 -20 6 0 37 -18 70 -40 33 -22 62 -40 65 -40 2 0 9
-5 16 -10 37 -31 145 -107 160 -113 9 -3 17 -10 17 -15 0 -5 26 -29 58 -53 31
-23 60 -47 64 -53 4 -6 11 -11 15 -11 5 0 26 -19 47 -43 21 -23 40 -41 43 -39
2 2 27 -19 56 -46 112 -108 133 -127 140 -127 3 0 52 -46 109 -103 148 -148
230 -222 241 -219 4 1 5 -2 2 -8 -4 -7 2 -14 14 -17 11 -3 18 -9 15 -14 -3 -5
-1 -9 4 -9 14 0 522 -517 515 -524 -2 -2 32 -37 76 -77 44 -40 77 -77 74 -82
-3 -6 -1 -7 6 -3 6 4 14 0 18 -11 3 -10 25 -37 48 -59 22 -23 58 -63 79 -88
20 -25 44 -46 52 -46 8 0 13 -4 10 -9 -6 -9 75 -86 87 -83 5 1 6 -2 2 -8 -3
-5 1 -13 9 -16 9 -3 14 -9 11 -13 -4 -8 61 -76 73 -76 4 0 6 -3 5 -7 -3 -8 80
-78 92 -78 4 0 16 -11 27 -25 11 -14 23 -25 28 -25 5 0 21 -11 36 -25 25 -23
84 -33 84 -14 0 4 9 9 20 12 17 4 20 12 18 47 -1 23 -6 44 -10 46 -4 3 -8 14
-8 26 0 21 -29 80 -43 86 -4 2 -5 8 -1 13 5 8 -7 34 -79 175 -10 19 -24 37
-32 40 -8 4 -12 10 -9 15 5 9 -106 183 -137 212 -11 10 -19 24 -19 32 0 7 -13
24 -29 38 -17 14 -28 27 -25 30 3 2 -11 20 -29 40 -19 19 -49 55 -66 80 -17
25 -41 54 -54 64 -13 10 -26 23 -28 30 -5 13 -166 190 -263 288 -39 38 -69 73
-68 78 1 4 -5 7 -13 7 -8 0 -15 7 -15 16 0 8 -4 13 -8 10 -10 -6 -107 93 -107
109 -1 6 -7 9 -13 7 -7 -1 -20 11 -30 28 -9 16 -23 30 -29 30 -7 0 -13 4 -13
9 0 5 -28 36 -62 68 -34 32 -70 66 -80 76 -10 9 -18 15 -18 13 0 -3 -28 23
-63 57 -111 110 -185 177 -193 177 -4 0 -25 19 -46 42 -21 23 -38 39 -38 36 0
-4 -13 6 -28 20 -44 43 -81 72 -91 72 -5 0 -11 7 -15 15 -7 20 -217 175 -228
169 -4 -3 -8 -1 -8 5 0 10 -92 64 -107 63 -4 0 -15 5 -23 12 -20 18 -150 57
-199 61 -21 1 -43 5 -47 8 -21 12 -131 3 -159 -13z"/>
<path d="M12849 10956 c-2 -2 -23 -6 -47 -10 -56 -7 -118 -51 -145 -101 -12
-22 -25 -42 -28 -45 -10 -8 -43 -73 -45 -90 -2 -8 -8 -16 -14 -18 -5 -2 -8 -8
-4 -13 3 -5 0 -9 -5 -9 -6 0 -11 -7 -11 -16 0 -8 -7 -22 -15 -30 -8 -9 -15
-24 -15 -35 0 -11 -4 -18 -9 -14 -5 3 -12 -5 -16 -17 -4 -13 -14 -39 -22 -58
-12 -24 -17 -67 -17 -140 -1 -90 2 -110 19 -135 11 -17 20 -34 20 -39 0 -13
100 -36 142 -32 79 7 133 19 127 27 -3 5 2 6 10 3 9 -3 16 -1 16 5 0 6 7 11
16 11 37 0 214 185 214 224 0 10 5 14 10 11 6 -3 10 1 10 9 0 8 6 19 13 23 16
11 48 74 50 101 1 12 5 22 9 22 9 0 10 13 11 117 1 45 -3 77 -11 85 -7 7 -12
18 -12 26 0 17 -40 75 -47 68 -3 -2 -13 4 -24 15 -10 10 -26 19 -34 19 -8 0
-15 5 -15 12 0 6 -3 8 -7 5 -3 -4 -11 -3 -17 2 -12 10 -100 24 -107 17z"/>
<path d="M6817 10683 c-3 -2 -23 -4 -46 -5 -23 0 -41 -3 -41 -7 0 -4 -10 -7
-21 -8 -12 -1 -42 -19 -66 -40 -60 -50 -97 -136 -87 -199 3 -24 10 -41 15 -38
5 3 6 -1 3 -9 -6 -16 93 -130 106 -122 4 3 10 -1 13 -9 7 -17 81 -56 108 -56
11 0 18 -4 15 -9 -7 -11 49 -32 60 -23 4 4 4 2 0 -5 -6 -11 23 -27 40 -21 5 1
30 -4 57 -11 53 -15 182 -10 200 8 6 6 22 11 34 11 26 0 64 21 106 59 24 22
27 31 27 91 0 53 -5 72 -24 101 -31 46 -153 145 -189 154 -15 4 -26 10 -23 13
8 7 -80 72 -98 72 -9 0 -16 4 -16 9 0 9 -40 27 -49 22 -2 -2 -7 3 -12 10 -7
12 -102 22 -112 12z"/>
<path d="M13408 9683 c-16 -2 -28 -9 -28 -15 0 -5 -6 -8 -13 -5 -16 6 -129
-11 -137 -21 -5 -7 -9 -8 -56 -10 -14 -1 -22 -6 -19 -12 3 -5 0 -7 -8 -4 -8 3
-22 -2 -31 -11 -9 -9 -16 -13 -16 -9 0 3 -6 2 -12 -4 -7 -5 -29 -13 -48 -17
-40 -9 -69 -24 -88 -45 -12 -13 -13 -13 -6 0 6 11 2 10 -13 -2 -11 -10 -25
-18 -31 -18 -7 0 -12 -5 -12 -12 0 -6 -3 -9 -6 -5 -7 7 -104 -42 -104 -52 0
-4 -18 -17 -40 -30 -53 -30 -101 -71 -95 -81 3 -5 -5 -12 -17 -16 -45 -14
-238 -236 -238 -273 0 -5 -7 -14 -15 -21 -8 -7 -12 -16 -9 -21 3 -5 0 -9 -5
-9 -6 0 -11 -9 -11 -20 0 -11 -4 -20 -10 -20 -5 0 -9 -3 -9 -7 1 -5 0 -10 -1
-13 -1 -3 -4 -18 -6 -35 -3 -16 -10 -35 -15 -41 -6 -7 -12 -25 -15 -40 -3 -16
-9 -33 -13 -39 -13 -15 -20 -232 -11 -320 5 -46 36 -125 50 -125 6 0 9 -6 8
-12 -2 -7 3 -12 10 -10 8 1 11 -2 7 -8 -3 -5 2 -13 11 -17 22 -8 54 -40 54
-52 0 -11 109 -138 113 -131 1 2 22 -14 46 -37 25 -23 48 -40 52 -38 4 3 10
-2 13 -11 3 -8 10 -12 16 -9 5 3 10 1 10 -4 0 -6 6 -11 14 -11 7 0 25 -12 39
-26 14 -14 35 -26 46 -27 12 -1 21 -5 21 -9 0 -4 7 -8 15 -8 9 0 30 -8 48 -17
18 -9 41 -18 52 -20 10 -2 23 -9 27 -16 4 -6 8 -8 8 -4 0 4 8 3 19 -2 10 -6
35 -11 55 -13 20 -1 36 -5 36 -8 0 -8 20 -10 83 -10 28 0 47 -5 47 -11 0 -6 7
-8 16 -5 8 3 13 2 10 -3 -8 -13 273 -8 282 5 4 6 14 11 22 12 8 0 31 2 50 3
19 1 40 5 45 9 6 4 30 10 54 13 24 3 47 9 50 14 3 4 15 9 26 11 11 2 25 9 30
15 10 12 17 14 59 23 11 2 23 9 28 16 4 7 8 9 8 4 0 -5 6 -3 13 3 8 6 17 8 20
4 4 -3 7 -2 7 3 0 6 16 16 35 23 19 7 35 17 35 22 0 5 7 9 16 9 8 0 12 5 9 10
-5 9 15 15 37 11 4 0 17 13 30 29 12 17 29 30 38 30 23 0 180 166 180 190 0 6
4 10 8 10 8 0 35 46 36 63 1 4 6 11 12 15 26 16 74 145 66 175 -1 4 3 7 9 7 5
0 8 4 4 9 -3 5 -2 12 3 15 11 7 16 58 17 178 0 58 3 104 8 101 4 -2 6 27 5 66
-1 38 -4 68 -7 66 -6 -3 -8 9 -11 73 -1 15 -11 42 -22 60 -11 17 -17 32 -13
32 3 0 0 10 -6 23 -7 12 -14 32 -15 44 -3 26 -53 115 -71 126 -7 4 -13 14 -13
21 0 20 -40 67 -51 61 -5 -4 -9 1 -9 9 0 17 -8 25 -75 81 -27 22 -52 39 -57
37 -4 -1 -8 3 -8 8 0 11 -43 31 -72 33 -9 1 -15 3 -13 6 9 9 -58 42 -86 43
-16 1 -26 5 -23 9 2 4 -4 8 -13 9 -85 4 -139 14 -146 26 -6 11 -38 14 -150 13
-78 -1 -154 -4 -169 -6z m228 -417 c13 -14 50 -22 77 -17 5 1 6 -3 2 -9 -3 -5
2 -10 12 -10 10 0 30 -8 43 -17 14 -10 27 -17 30 -15 3 1 14 -6 25 -15 11 -10
22 -18 25 -18 9 0 100 -96 100 -105 0 -5 6 -15 13 -22 25 -26 68 -88 61 -88
-3 0 -1 -6 5 -13 6 -8 8 -17 4 -20 -3 -4 -1 -7 6 -7 7 0 9 -5 6 -10 -3 -6 3
-22 14 -36 11 -15 18 -30 15 -35 -3 -5 -1 -9 4 -9 5 0 10 -29 11 -63 1 -49 -2
-67 -15 -77 -9 -8 -31 -37 -49 -65 -42 -64 -180 -199 -215 -210 -11 -4 -20
-10 -20 -15 0 -5 -10 -12 -22 -15 -45 -13 -98 -39 -98 -48 0 -4 -4 -5 -10 -2
-5 3 -10 2 -10 -4 0 -6 -7 -8 -15 -5 -8 4 -15 1 -15 -6 0 -6 -4 -8 -10 -5 -5
3 -10 1 -10 -4 0 -6 -3 -10 -7 -9 -12 3 -95 -12 -107 -19 -5 -4 -22 -8 -36
-10 -14 -2 -38 -6 -55 -8 -104 -14 -187 -17 -212 -6 -16 6 -45 12 -65 13 -21
1 -38 6 -38 10 0 5 -6 8 -12 7 -13 -2 -60 8 -88 18 -8 4 -17 7 -20 8 -3 0 -21
11 -40 23 -19 12 -45 22 -56 22 -12 0 -27 7 -34 15 -7 8 -21 15 -31 15 -11 0
-18 5 -16 12 1 7 -2 12 -8 13 -5 0 -20 10 -33 23 -12 12 -27 20 -32 17 -6 -4
-10 -2 -10 4 0 6 -18 29 -41 51 -36 36 -40 44 -35 73 4 18 8 42 9 54 1 11 5
19 10 16 6 -4 12 38 8 60 -1 5 3 6 8 3 5 -3 12 11 16 31 3 20 13 42 21 50 8 8
12 19 9 24 -4 5 0 9 7 9 7 0 27 21 43 45 17 25 34 45 38 45 5 0 5 5 2 10 -4 6
-3 9 2 8 4 -1 24 13 43 32 49 48 102 92 136 112 16 10 28 22 27 28 -2 5 3 10
11 10 18 0 76 32 76 43 0 4 10 7 22 7 12 0 30 8 40 17 10 9 29 18 41 20 12 2
37 11 56 19 18 9 43 17 55 18 12 2 31 8 44 15 12 6 27 9 32 6 13 -8 52 4 46
14 -3 4 40 9 95 10 79 2 102 -1 115 -13z"/>
<path d="M13254 8990 c-6 -6 -21 -13 -34 -15 -47 -9 -146 -108 -155 -154 -2
-13 -9 -29 -15 -36 -17 -21 -10 -175 9 -205 22 -35 73 -80 83 -74 4 3 8 1 8
-4 0 -12 120 -27 185 -23 46 3 141 38 130 49 -2 3 5 13 17 23 11 11 17 19 13
19 -4 0 -1 8 9 19 9 10 18 27 20 37 2 11 7 31 11 47 9 35 -3 133 -18 150 -13
13 -19 32 -20 56 0 16 -87 105 -94 97 -3 -2 -20 2 -38 10 -40 16 -97 18 -111
4z"/>
<path d="M7224 9532 c3 -5 -8 -6 -25 -4 -16 2 -29 0 -29 -6 0 -9 -47 -14 -107
-13 -13 1 -23 -3 -23 -7 0 -5 -6 -9 -12 -9 -37 -1 -125 -16 -140 -24 -9 -5
-28 -9 -41 -9 -14 0 -30 -7 -37 -15 -7 -8 -18 -15 -25 -15 -20 0 -109 -40
-116 -51 -3 -6 -9 -10 -12 -10 -11 1 -67 -34 -67 -41 0 -5 -6 -8 -14 -8 -8 0
-31 -15 -50 -34 -20 -18 -36 -31 -36 -28 0 3 -18 -11 -40 -33 -22 -21 -38 -40
-36 -42 2 -2 -12 -19 -30 -39 -19 -19 -34 -41 -34 -49 0 -8 -8 -19 -17 -24
-10 -6 -13 -11 -8 -11 6 0 4 -4 -3 -9 -7 -4 -14 -15 -16 -23 -1 -8 -9 -23 -19
-32 -9 -10 -17 -25 -17 -35 0 -9 -4 -21 -10 -27 -5 -5 -14 -37 -19 -69 -5 -33
-13 -71 -17 -84 -4 -14 -3 -22 2 -19 11 7 14 -31 18 -252 5 -210 5 -210 17
-210 6 0 8 -4 4 -9 -6 -11 28 -104 36 -97 3 3 11 -11 19 -32 15 -43 45 -84 53
-75 4 3 11 -5 16 -18 9 -24 62 -80 78 -82 4 -1 7 -6 5 -10 -1 -5 2 -6 7 -3 11
7 33 -18 24 -27 -7 -7 12 -11 36 -8 7 2 10 -2 7 -7 -12 -20 205 -142 254 -142
12 0 18 -4 15 -10 -3 -6 5 -10 19 -10 14 0 42 -9 62 -21 20 -11 42 -18 50 -15
7 3 14 1 16 -5 2 -5 16 -12 32 -15 16 -3 34 -8 39 -11 6 -3 20 -7 31 -9 12 -2
39 -6 61 -10 22 -3 48 -6 58 -6 9 1 15 -3 12 -9 -4 -5 2 -10 12 -10 54 -4 73
-7 123 -16 60 -12 313 -16 306 -5 -2 4 21 8 52 10 32 2 58 7 60 12 2 5 9 7 16
4 6 -2 28 2 48 10 19 8 38 12 41 9 4 -3 13 -1 20 5 8 7 16 9 19 7 3 -3 18 -1
34 5 16 6 30 11 32 11 9 -3 145 73 162 91 12 13 24 23 28 23 25 1 162 125 162
146 0 6 11 19 24 30 13 10 29 33 36 51 7 18 22 43 32 54 10 12 18 25 16 30 -1
5 3 32 10 59 11 50 14 235 3 235 -3 0 -7 18 -8 40 -2 22 -9 53 -18 70 -8 16
-15 39 -15 51 0 20 -8 52 -28 109 -3 8 -4 21 -3 29 1 7 -2 10 -8 6 -7 -4 -11
4 -11 21 0 15 -9 42 -21 60 -11 19 -17 34 -14 34 4 0 2 6 -4 13 -6 8 -8 17 -4
20 3 4 0 7 -7 7 -7 0 -11 3 -7 6 9 9 -14 65 -24 58 -5 -3 -6 2 -3 10 4 9 -1
18 -10 22 -9 3 -13 10 -10 15 3 5 0 9 -5 9 -6 0 -11 7 -11 16 0 33 -113 192
-133 186 -4 -1 -6 2 -3 7 3 5 -16 28 -43 52 -72 65 -85 74 -93 71 -5 -1 -8 2
-8 7 0 11 -50 48 -71 53 -8 2 -19 9 -24 16 -6 7 -20 14 -33 15 -12 0 -22 4
-22 7 0 17 -122 52 -187 53 -7 0 -13 3 -13 7 0 4 -28 8 -62 9 -35 1 -66 7 -69
13 -4 6 -12 7 -19 3 -9 -5 -11 -4 -6 3 5 9 -23 12 -104 12 -61 0 -109 -4 -106
-8z m226 -465 c14 -3 27 -6 30 -8 3 -1 10 -3 15 -4 25 -5 83 -35 95 -49 7 -9
19 -16 26 -16 8 0 14 -5 14 -11 0 -5 5 -7 10 -4 6 3 10 1 10 -4 0 -6 7 -11 16
-11 9 0 18 -9 21 -20 3 -11 10 -20 16 -20 6 0 8 -3 4 -6 -3 -4 11 -29 32 -58
21 -28 42 -61 46 -74 3 -12 10 -20 14 -18 4 3 8 -4 8 -15 1 -12 7 -27 13 -34
18 -21 50 -88 50 -102 0 -8 6 -16 14 -19 8 -3 12 -12 9 -20 -3 -7 2 -16 10
-20 8 -3 17 -23 21 -44 3 -21 12 -45 19 -52 6 -7 13 -22 15 -33 2 -11 9 -24
15 -30 7 -5 14 -19 15 -30 2 -11 7 -24 12 -30 4 -5 11 -24 14 -42 6 -28 3 -34
-31 -59 -21 -16 -42 -35 -46 -41 -4 -7 -17 -13 -27 -13 -11 0 -29 -9 -40 -20
-11 -11 -20 -17 -20 -13 0 4 -5 2 -11 -4 -6 -6 -17 -9 -24 -7 -7 3 -16 1 -20
-5 -3 -6 -19 -11 -35 -11 -16 0 -31 -4 -34 -9 -3 -4 -17 -6 -31 -3 -14 2 -25
0 -25 -4 0 -10 -21 -12 -188 -13 -68 -1 -128 2 -134 5 -11 7 -16 8 -105 20
-29 4 -53 10 -53 14 0 8 -50 20 -83 21 -9 0 -15 4 -12 9 3 5 -11 12 -32 16
-21 4 -42 9 -48 13 -5 3 -16 7 -22 8 -7 2 -19 4 -25 6 -7 1 -19 6 -26 11 -39
24 -162 85 -162 80 0 -3 -12 8 -26 25 -14 17 -32 31 -40 31 -9 0 -13 4 -10 9
3 5 -1 14 -9 21 -8 7 -15 18 -15 24 0 6 -8 23 -17 36 -10 14 -16 33 -15 43 2
10 -2 24 -8 32 -7 8 -13 75 -15 173 l-4 160 60 54 c34 29 84 64 113 77 28 13
53 27 56 31 3 5 22 11 43 15 20 4 37 10 37 14 0 4 10 8 23 9 12 2 31 4 42 6
11 2 37 4 58 5 21 0 36 5 33 9 -6 9 322 8 364 -1z"/>
<path d="M7350 8795 c-7 -8 -25 -15 -40 -15 -21 0 -37 -10 -59 -37 -17 -21
-31 -43 -31 -50 0 -6 -7 -18 -15 -26 -8 -8 -16 -21 -17 -28 -2 -8 -9 -20 -16
-27 -20 -22 -13 -138 9 -167 11 -13 19 -28 19 -34 0 -6 5 -11 10 -11 6 0 9 -4
8 -8 -2 -4 14 -25 35 -46 20 -22 37 -36 37 -32 0 4 10 -2 22 -14 12 -11 33
-21 47 -21 61 -4 117 4 132 17 8 8 21 14 27 14 6 0 24 19 40 43 28 39 30 49
31 150 2 73 -1 107 -9 107 -6 0 -8 4 -5 10 10 16 -15 93 -38 118 -29 31 -112
72 -147 72 -15 0 -33 -7 -40 -15z"/>
<path d="M10361 7669 c-13 -5 -76 -8 -140 -7 -117 3 -338 -10 -355 -20 -6 -3
-33 -7 -60 -9 -69 -4 -96 -9 -129 -22 -16 -6 -42 -11 -58 -11 -18 0 -28 -4
-24 -10 4 -6 -6 -10 -23 -10 -16 0 -32 -3 -36 -7 -4 -5 -11 -8 -14 -8 -16 -1
-88 -28 -97 -36 -5 -5 -16 -9 -25 -9 -21 -1 -121 -66 -113 -74 3 -3 -2 -6 -13
-6 -39 0 -128 -101 -178 -203 -25 -50 -29 -69 -29 -150 0 -50 6 -112 13 -137
15 -51 19 -66 23 -95 2 -11 7 -28 10 -37 17 -43 20 -54 21 -63 3 -35 60 -119
125 -186 57 -58 97 -89 161 -122 47 -25 120 -64 163 -87 43 -23 84 -43 90 -45
7 -1 30 -10 52 -19 22 -10 56 -24 75 -32 19 -8 43 -19 52 -24 10 -6 23 -10 30
-10 7 0 25 -6 39 -14 28 -14 122 -44 154 -48 11 -2 23 -6 26 -11 3 -4 20 -9
39 -12 18 -2 37 -10 41 -17 5 -7 9 -111 9 -230 0 -153 3 -218 11 -218 7 0 9
-14 6 -37 -5 -46 11 -157 24 -161 5 -2 6 -8 3 -13 -3 -6 -1 -15 5 -22 6 -8 6
-18 1 -27 -8 -12 -38 -15 -157 -15 -92 0 -159 5 -178 12 -16 7 -45 14 -63 17
-18 2 -39 9 -45 15 -7 5 -27 13 -45 16 -36 6 -72 25 -72 38 0 4 -10 11 -22 16
-26 10 -171 119 -176 133 -2 4 -9 8 -16 8 -7 0 -44 34 -82 75 -38 41 -74 75
-80 75 -12 0 -48 39 -57 63 -14 37 -130 56 -189 32 -47 -19 -86 -156 -55 -193
6 -8 13 -23 14 -35 2 -12 11 -29 20 -39 9 -10 12 -18 8 -18 -4 0 -2 -8 6 -17
8 -10 21 -30 29 -45 7 -16 17 -28 22 -28 4 0 14 -15 22 -32 25 -58 170 -204
290 -293 41 -30 150 -84 158 -79 5 3 8 0 8 -5 0 -6 9 -11 19 -11 11 0 23 -5
26 -11 4 -6 13 -8 20 -5 7 2 17 0 22 -5 5 -5 28 -10 50 -12 23 -1 39 -6 36
-10 -3 -4 6 -5 19 -2 38 9 46 -6 52 -95 5 -100 19 -183 37 -225 6 -16 13 -34
13 -40 2 -18 89 -185 97 -185 4 0 10 -8 13 -17 3 -10 25 -38 48 -63 24 -25 42
-48 41 -51 -1 -4 27 -34 62 -69 36 -34 65 -60 65 -57 0 3 17 -11 37 -29 20
-19 42 -34 49 -34 7 0 14 -4 16 -8 5 -13 74 -52 92 -52 10 0 14 -4 11 -10 -3
-5 0 -10 7 -10 7 0 25 -7 41 -15 35 -18 132 -36 155 -29 14 5 15 4 2 -5 -12
-9 0 -11 50 -7 58 4 117 12 145 20 6 2 14 4 19 4 5 0 12 5 16 11 3 6 16 13 29
16 47 9 211 154 211 187 0 7 12 24 25 37 14 13 25 30 25 39 0 8 7 23 16 33 9
10 17 29 18 43 0 14 4 26 8 26 4 0 10 17 14 38 4 20 10 44 15 53 9 19 23 155
21 217 -1 26 2 41 8 37 6 -4 10 31 10 93 l0 100 33 6 c18 3 93 6 167 6 105 0
149 4 197 19 34 10 65 16 69 12 4 -3 4 0 0 7 -5 8 0 12 13 12 26 0 121 41 121
52 0 4 7 8 15 8 9 0 27 12 40 26 14 15 25 23 25 19 0 -23 77 87 88 125 10 37
2 122 -15 150 -16 28 -21 30 -80 30 -60 0 -133 -23 -133 -42 0 -4 -8 -8 -18
-8 -10 0 -23 -5 -30 -12 -6 -6 -17 -13 -24 -14 -7 -2 -26 -6 -43 -9 -16 -4
-34 -8 -40 -9 -5 -1 -15 -5 -22 -9 -18 -11 -242 -10 -256 1 -7 5 -41 13 -77
16 -35 4 -69 11 -75 15 -5 5 -30 12 -55 16 -25 4 -49 11 -55 15 -5 5 -23 10
-40 13 -47 8 -60 11 -66 20 -3 4 -16 9 -27 10 -12 1 -22 5 -22 9 0 4 -5 8 -11
8 -5 0 -29 8 -52 19 -42 18 -78 33 -87 36 -42 13 -77 41 -86 71 -6 19 -7 34
-3 34 5 0 9 10 8 23 0 21 -1 21 -8 2 -6 -14 -8 -8 -8 25 0 25 -4 88 -8 140 -4
52 -7 120 -6 150 0 42 -2 50 -9 35 -8 -17 -9 -16 -7 9 1 21 11 33 35 47 19 9
41 24 51 33 10 9 30 16 44 16 15 0 27 5 27 10 0 6 6 10 13 8 22 -4 87 13 87
22 0 6 3 9 8 9 19 -3 33 2 28 10 -3 5 7 11 22 14 15 3 42 20 60 36 18 17 38
31 43 31 6 0 7 5 4 10 -3 6 1 10 9 10 8 0 19 6 23 13 4 7 28 28 53 47 25 19
51 40 58 47 7 7 18 13 23 13 6 0 7 5 4 10 -3 6 1 10 9 10 9 0 16 3 16 8 0 4
31 32 70 62 38 30 69 61 70 68 0 6 5 12 11 12 16 0 59 36 52 44 -3 3 0 6 9 6
18 0 138 118 138 137 0 7 4 13 9 13 14 0 40 58 47 104 3 22 8 56 12 75 11 53
-11 287 -29 305 -5 6 -9 16 -9 22 0 21 -55 96 -109 149 -28 27 -51 45 -51 40
0 -5 -6 -2 -12 7 -22 29 -141 93 -191 103 -18 4 -38 12 -46 19 -11 8 -15 8
-19 -2 -3 -9 -7 -10 -17 -2 -15 13 -73 23 -135 24 -25 1 -48 4 -51 9 -12 16
-620 32 -658 16z m439 -508 c41 -6 113 -13 160 -15 90 -6 184 -29 207 -51 7
-8 13 -28 13 -45 0 -24 -11 -41 -52 -78 -28 -26 -61 -57 -74 -68 -13 -12 -25
-20 -28 -17 -2 3 -12 -7 -21 -21 -10 -14 -21 -26 -25 -26 -13 0 -90 -53 -90
-62 0 -4 -3 -7 -8 -6 -8 3 -25 -10 -68 -49 -14 -13 -29 -23 -34 -23 -6 0 -15
-9 -22 -20 -7 -11 -17 -20 -22 -20 -5 0 -19 -11 -32 -25 -13 -14 -26 -25 -30
-25 -4 0 -17 -9 -29 -20 -23 -21 -52 -26 -100 -15 -16 3 -38 7 -47 8 -9 1 -14
5 -12 9 3 4 -6 8 -20 8 -36 0 -38 1 -61 13 -11 7 -27 13 -35 14 -30 4 -59 12
-78 22 -10 5 -29 12 -43 14 -13 2 -37 9 -53 16 -16 6 -31 9 -34 7 -2 -3 -18 2
-34 10 -16 8 -33 12 -38 9 -6 -3 -10 -1 -10 4 0 6 -9 11 -20 11 -11 0 -28 4
-38 9 -17 10 -74 24 -81 21 -2 -1 -7 3 -10 9 -4 5 -22 13 -41 16 -19 3 -39 10
-44 16 -6 5 -16 9 -24 9 -14 0 -29 6 -131 51 -30 13 -58 24 -63 24 -5 0 -13 7
-18 15 -5 8 -10 11 -10 6 0 -5 -6 -3 -14 3 -13 11 -23 43 -32 101 -5 29 4 75
13 67 3 -4 15 -1 27 5 11 7 24 12 28 13 3 0 9 3 13 7 4 4 14 4 23 1 11 -5 13
-3 7 7 -5 7 -4 11 1 8 5 -3 50 3 99 13 50 10 160 22 248 25 87 4 159 10 161
13 8 11 550 13 626 2z m-172 -1913 c6 -1 12 -7 12 -15 0 -7 9 -13 20 -13 11 0
20 -4 20 -9 0 -13 141 -81 153 -74 6 3 7 1 3 -5 -6 -10 56 -30 77 -24 5 1 6
-2 3 -7 -4 -5 3 -12 14 -16 19 -6 29 -45 12 -45 -8 0 -8 0 -17 -110 -3 -41 -8
-82 -12 -90 -8 -18 -7 -16 -17 -65 -4 -22 -11 -44 -16 -50 -4 -5 -11 -21 -15
-35 -14 -48 -60 -134 -87 -164 -16 -17 -28 -34 -28 -39 0 -4 -5 -5 -10 -2 -6
3 -13 -1 -16 -9 -3 -9 -16 -16 -28 -16 -12 0 -28 -6 -35 -12 -11 -10 -13 -10
-7 0 5 7 1 12 -11 13 -32 1 -56 7 -62 16 -3 5 -29 23 -57 41 -28 18 -59 41
-69 52 -10 11 -22 17 -28 13 -6 -4 -7 -1 -3 6 5 8 0 14 -13 18 -11 3 -18 10
-15 15 3 5 -3 12 -15 15 -11 3 -19 9 -16 13 3 5 -5 16 -17 25 -13 8 -22 18
-20 20 3 6 -47 76 -61 86 -5 3 -9 9 -9 12 1 14 -23 67 -29 67 -8 0 -23 68 -20
88 1 6 -2 12 -7 12 -4 0 -8 28 -8 62 1 54 3 62 21 63 30 3 49 9 56 17 3 5 18
9 33 10 15 1 32 8 38 15 6 7 20 13 33 13 12 0 35 11 50 24 16 14 32 23 35 21
3 -2 26 14 51 36 37 33 49 39 74 34 17 -3 36 -6 43 -7z"/>
<path d="M13668 6450 c-7 -4 -32 -10 -54 -14 -60 -9 -140 -53 -174 -97 -25
-31 -30 -46 -30 -94 0 -53 3 -60 36 -91 19 -19 43 -34 52 -35 9 0 28 -2 42 -4
14 -3 58 -5 97 -6 45 0 71 -5 67 -11 -3 -5 2 -9 12 -7 23 3 75 -10 92 -24 6
-5 12 -6 12 -1 0 5 4 4 8 -1 11 -15 87 -70 79 -58 -16 26 104 -98 162 -167 95
-112 94 -112 120 -163 13 -27 29 -51 37 -54 8 -3 12 -8 9 -12 -2 -4 4 -24 15
-43 10 -20 16 -39 13 -42 -4 -3 -2 -6 4 -6 5 0 10 -6 10 -12 0 -7 9 -40 21
-73 11 -33 26 -87 32 -120 14 -70 19 -205 7 -205 -5 0 -7 -10 -6 -22 4 -41
-32 -198 -52 -223 -4 -6 -10 -23 -13 -39 -3 -15 -9 -33 -15 -39 -5 -7 -12 -29
-16 -50 -4 -20 -11 -40 -16 -43 -5 -3 -9 -12 -9 -21 0 -9 -6 -24 -14 -32 -8
-9 -16 -25 -18 -36 -1 -11 -9 -25 -16 -30 -7 -6 -14 -20 -15 -32 0 -13 -7 -25
-15 -28 -7 -3 -10 -9 -7 -15 3 -5 1 -10 -6 -10 -7 0 -10 -3 -7 -6 3 -3 -7 -19
-23 -37 -16 -17 -29 -40 -29 -50 0 -10 -4 -15 -10 -12 -5 3 -12 -6 -16 -20 -3
-13 -10 -22 -15 -19 -5 3 -9 1 -9 -5 0 -5 -12 -23 -27 -39 -16 -16 -38 -41
-50 -56 -13 -15 -23 -25 -23 -21 0 4 -20 -15 -45 -42 -28 -29 -48 -61 -51 -82
-6 -31 -3 -38 26 -63 19 -15 36 -25 38 -23 3 3 11 0 18 -6 7 -5 67 -10 137
-11 96 0 133 3 158 16 17 9 38 16 46 16 7 0 13 5 13 10 0 6 8 13 18 17 30 11
92 57 92 69 0 7 9 14 21 17 13 4 18 10 13 18 -4 7 -3 10 3 6 5 -3 18 4 28 16
29 33 135 176 135 182 0 3 12 24 26 47 43 68 93 171 88 180 -3 4 -1 8 3 8 11
0 34 60 27 71 -3 5 -1 9 4 9 9 0 37 55 37 72 0 3 3 10 8 14 4 4 7 17 7 30 0
12 4 24 9 26 5 2 12 20 15 41 3 21 10 46 15 55 5 9 12 33 15 53 3 20 10 48 16
63 5 15 10 64 9 109 0 45 1 89 2 97 5 37 -2 121 -10 116 -5 -3 -8 0 -8 7 3 23
-15 132 -23 142 -4 6 -11 26 -15 45 -8 37 -84 197 -116 241 -10 15 -23 38 -29
53 -5 14 -14 26 -20 26 -6 0 -9 4 -6 9 3 4 -2 18 -12 30 -9 12 -33 44 -52 73
-19 29 -52 70 -74 92 -21 23 -38 42 -37 44 0 1 -2 1 -5 0 -4 -2 -11 7 -15 20
-5 13 -13 20 -19 17 -6 -4 -9 -2 -8 4 4 13 -101 111 -118 111 -8 0 -14 4 -14
9 0 21 -224 146 -242 135 -4 -3 -8 -1 -8 4 0 21 -307 50 -342 32z"/>
<path d="M6538 6443 c-27 -2 -48 -8 -48 -14 0 -5 -3 -8 -7 -7 -5 1 -19 -4 -33
-12 -14 -7 -27 -13 -30 -12 -12 4 -40 -10 -40 -20 0 -6 -3 -9 -6 -5 -10 10
-83 -45 -140 -105 -54 -55 -134 -173 -134 -195 0 -7 -4 -13 -9 -13 -9 0 -35
-54 -31 -66 1 -4 -2 -10 -7 -13 -15 -10 -45 -82 -40 -96 3 -7 -1 -23 -10 -34
-8 -12 -12 -25 -9 -28 3 -3 1 -12 -5 -20 -6 -7 -8 -13 -3 -13 5 0 3 -4 -4 -8
-7 -5 -14 -31 -17 -58 -3 -27 -10 -74 -16 -104 -14 -72 1 -361 20 -383 5 -7
11 -33 12 -57 1 -25 7 -51 12 -57 5 -7 6 -13 2 -13 -4 0 -3 -6 3 -12 6 -7 13
-32 17 -56 3 -24 14 -58 24 -75 10 -18 16 -38 14 -44 -3 -7 -1 -13 4 -13 5 0
9 -9 10 -20 1 -11 16 -46 32 -77 17 -31 31 -65 31 -74 0 -10 8 -23 18 -28 9
-6 13 -11 8 -11 -11 0 23 -52 41 -63 7 -4 13 -16 13 -25 1 -23 45 -94 53 -85
4 3 7 -1 7 -10 0 -9 5 -17 10 -17 6 0 10 -6 10 -13 0 -7 11 -24 24 -39 14 -14
23 -28 20 -30 -2 -3 32 -39 76 -81 44 -42 80 -75 80 -73 0 2 16 -12 36 -30 19
-19 41 -34 48 -34 8 0 19 -7 26 -15 7 -9 15 -13 18 -11 2 3 16 -4 30 -14 13
-11 32 -20 42 -20 9 0 20 -3 24 -7 4 -5 11 -8 14 -9 21 -2 70 -17 91 -27 15
-7 82 -12 179 -12 155 0 155 0 174 26 25 33 16 74 -21 94 -14 8 -22 14 -17 15
12 0 -62 50 -74 50 -6 0 -10 5 -10 11 0 5 -4 7 -10 4 -5 -3 -10 -1 -10 5 0 6
-4 9 -9 6 -5 -3 -12 1 -15 10 -3 8 -10 12 -16 9 -5 -3 -10 -2 -10 4 0 6 -11
13 -25 17 -14 3 -25 11 -25 17 0 6 -3 8 -6 4 -3 -3 -22 10 -42 30 -21 19 -48
46 -62 59 -14 13 -30 24 -35 24 -6 1 -27 27 -47 58 -21 31 -51 73 -68 92 -39
44 -103 143 -87 133 13 -7 -10 25 -29 42 -7 6 -15 27 -18 48 -5 24 -11 35 -18
31 -6 -4 -8 -3 -5 3 8 13 -12 73 -24 73 -5 0 -9 11 -9 24 0 14 -4 27 -10 31
-5 3 -7 12 -3 20 3 8 0 15 -7 15 -6 0 -9 4 -5 9 3 5 -1 29 -10 53 -8 24 -15
55 -15 70 0 15 -4 29 -9 32 -5 3 -8 17 -8 32 0 14 -5 29 -11 33 -14 8 -9 191
7 249 7 23 9 47 6 52 -3 5 -1 11 5 15 5 3 10 17 10 30 0 13 4 34 9 47 5 13 17
43 26 68 60 154 73 176 140 244 53 54 75 67 110 67 36 0 118 -13 160 -25 118
-34 184 -44 199 -29 3 4 14 8 22 9 32 5 44 14 44 34 0 11 5 20 10 20 6 0 10
25 10 56 0 34 -4 53 -10 49 -5 -3 -10 3 -10 14 0 12 -4 21 -10 21 -5 0 -17 16
-26 35 -17 36 -76 95 -96 95 -6 0 -20 10 -32 23 -20 22 -129 75 -171 83 -5 1
-12 3 -15 4 -19 9 -195 19 -252 13z"/>
<path d="M7238 5643 c-16 -2 -28 -9 -28 -14 0 -5 -3 -8 -7 -6 -5 1 -18 -8 -31
-21 -19 -19 -23 -32 -21 -75 3 -61 8 -79 20 -72 4 3 16 -6 25 -20 9 -14 23
-24 30 -21 8 3 14 1 14 -4 0 -17 57 -11 92 10 45 26 72 73 64 112 -5 26 -46
92 -46 74 0 -3 -9 3 -20 14 -12 12 -25 18 -30 15 -5 -3 -11 -1 -15 5 -3 5 -9
9 -13 9 -4 -1 -19 -4 -34 -6z"/>
<path d="M13412 5444 c-35 -17 -70 -94 -43 -94 7 0 19 -28 19 -47 0 -12 24
-20 73 -22 71 -3 89 15 89 88 0 53 -2 57 -32 74 -36 19 -70 19 -106 1z"/>
<path d="M6719 5357 c-64 -24 -74 -118 -19 -180 24 -27 35 -31 85 -34 53 -2
60 0 90 30 30 30 33 38 30 81 -5 71 -45 108 -120 111 -22 1 -52 -2 -66 -8z"/>
<path d="M13921 5186 c-35 -38 -35 -94 2 -128 40 -38 86 -38 126 1 36 35 48
75 31 96 -7 8 -9 15 -6 15 4 0 2 8 -3 18 -8 14 -23 19 -68 21 -51 2 -62 -1
-82 -23z"/>
<path d="M7354 5106 c-3 -9 -12 -12 -22 -9 -11 5 -14 2 -9 -10 3 -9 2 -19 -2
-22 -8 -4 -8 -84 -1 -92 2 -2 3 -7 4 -13 3 -21 44 -39 89 -40 27 0 46 4 43 9
-3 4 6 13 19 19 22 10 25 18 25 66 0 51 -3 57 -33 80 -38 29 -104 36 -113 12z"/>
<path d="M13614 5072 c-26 -17 -30 -26 -33 -66 -3 -64 4 -81 45 -107 32 -19
40 -20 74 -10 52 15 81 54 78 103 -1 21 -6 38 -10 38 -4 0 -7 3 -7 8 5 29 -14
41 -81 48 -23 3 -46 -2 -66 -14z"/>
<path d="M6868 4867 c-25 -10 -28 -16 -28 -57 0 -71 19 -90 90 -90 56 0 60 2
76 31 19 37 13 66 -20 102 -27 29 -68 34 -118 14z"/>
<path d="M7343 4614 c-34 -14 -63 -58 -63 -94 0 -24 39 -104 47 -96 3 3 12 -2
20 -10 20 -20 95 -15 134 8 30 18 30 20 27 91 l-3 72 -45 22 c-52 25 -73 27
-117 7z"/>
<path d="M13508 4583 c-7 -9 -13 -41 -13 -75 0 -47 4 -63 19 -74 10 -7 23 -11
27 -8 5 3 9 0 9 -5 0 -14 42 -14 73 0 30 14 46 41 53 88 4 31 1 43 -18 63 -19
21 -33 25 -80 26 -40 0 -61 -4 -70 -15z"/>
<path d="M9340 3760 c-11 -11 -20 -25 -20 -31 0 -5 -4 -8 -9 -5 -14 9 -20 -19
-17 -82 3 -56 7 -67 49 -113 9 -10 17 -24 17 -30 0 -5 3 -8 8 -6 7 5 33 -18
28 -24 -1 -2 17 -23 41 -46 24 -24 43 -40 43 -38 0 3 19 -14 43 -38 43 -43 94
-87 101 -87 2 0 21 -16 42 -35 20 -19 39 -33 41 -31 3 2 16 -7 30 -20 14 -13
32 -24 40 -24 7 0 21 -9 30 -20 10 -11 23 -20 29 -20 6 0 17 -7 24 -15 7 -9
15 -13 18 -11 2 3 16 -3 30 -14 13 -11 28 -17 33 -14 5 3 9 0 9 -6 0 -6 4 -8
10 -5 5 3 22 -3 37 -15 16 -11 39 -22 52 -25 13 -2 29 -9 37 -15 7 -7 18 -9
23 -6 5 4 12 2 15 -3 7 -11 43 -20 171 -42 114 -19 304 -1 415 39 8 3 18 4 23
4 4 -1 7 3 7 8 0 5 3 9 8 8 15 -4 72 14 72 23 0 5 9 9 19 9 11 0 26 6 33 13 7
6 19 13 27 15 7 1 20 9 28 17 8 9 19 13 24 10 5 -4 9 -1 9 5 0 6 5 8 10 5 6
-3 10 -2 10 2 0 5 16 17 35 27 19 11 35 23 35 28 0 5 4 7 8 4 15 -9 191 154
192 178 0 5 7 17 15 26 24 26 75 132 69 141 -3 5 -1 9 4 9 16 0 15 149 -2 165
-16 16 -86 20 -114 6 -9 -4 -33 -16 -53 -25 -20 -10 -48 -28 -62 -42 -15 -14
-27 -21 -27 -17 0 4 -7 -1 -15 -11 -8 -11 -15 -16 -15 -12 0 7 -70 -42 -81
-57 -16 -22 -240 -129 -297 -141 -17 -4 -32 -11 -32 -15 0 -4 -10 -8 -22 -9
-34 -4 -62 -9 -68 -12 -3 -1 -12 -3 -20 -4 -8 -1 -32 -5 -53 -10 -27 -6 -63
-3 -120 9 -45 10 -88 18 -94 18 -7 0 -13 4 -13 10 0 5 -6 7 -12 4 -7 -2 -25 2
-39 9 -15 7 -29 10 -33 7 -3 -4 -6 -1 -6 5 0 7 -3 11 -7 10 -11 -2 -182 82
-189 93 -3 5 -12 9 -20 9 -9 0 -22 6 -29 13 -27 23 -40 32 -79 52 -22 11 -48
28 -59 38 -10 10 -34 25 -53 33 -19 8 -34 19 -34 24 0 6 -9 10 -21 10 -11 0
-18 4 -15 9 3 5 -6 13 -22 19 -15 5 -38 19 -51 31 -13 11 -28 21 -33 21 -5 0
-16 7 -24 15 -11 11 -37 15 -90 15 -61 0 -78 -4 -94 -20z"/>
</g>
</svg>
