<?xml version="1.0" standalone="no"?>
<!DOCTYPE svg PUBLIC "-//W3C//DTD SVG 20010904//EN"
 "http://www.w3.org/TR/2001/REC-SVG-20010904/DTD/svg10.dtd">
<svg version="1.0" xmlns="http://www.w3.org/2000/svg"
 width="2048.000000pt" height="2048.000000pt" viewBox="0 0 2048.000000 2048.000000"
 preserveAspectRatio="xMidYMid meet">
<metadata>
Created by potrace 1.16, written by Peter Selinger 2001-2019
</metadata>
<g transform="translate(0.000000,2048.000000) scale(0.100000,-0.100000)"
fill="#474973" stroke="none">
<path d="M15358 18005 c-2 -2 -17 -6 -33 -9 -40 -7 -105 -37 -105 -48 0 -5 -4
-6 -10 -3 -5 3 -10 2 -10 -3 0 -6 -11 -13 -25 -16 -14 -4 -25 -11 -25 -16 0
-6 -6 -10 -12 -10 -11 0 -125 -68 -163 -97 -6 -5 -32 -19 -58 -33 -26 -13 -47
-28 -47 -32 0 -5 -6 -8 -14 -8 -8 0 -21 -6 -28 -14 -8 -7 -24 -17 -36 -20 -12
-4 -22 -12 -22 -17 0 -5 -7 -9 -15 -9 -8 0 -15 -4 -15 -10 0 -5 -6 -10 -12
-10 -7 0 -77 -40 -154 -89 -78 -48 -160 -99 -183 -111 -22 -13 -41 -28 -41
-34 0 -5 -3 -7 -6 -3 -6 5 -89 -45 -104 -63 -3 -3 -26 -17 -52 -30 -27 -14
-48 -28 -48 -31 0 -4 -11 -10 -25 -13 -14 -4 -25 -11 -25 -16 0 -6 -6 -10 -12
-10 -11 0 -133 -84 -173 -118 -5 -4 -18 -11 -27 -15 -10 -3 -18 -11 -18 -17 0
-5 -6 -10 -13 -10 -7 0 -20 -8 -29 -17 -18 -19 -31 -29 -116 -92 -43 -32 -58
-38 -76 -31 -13 4 -36 10 -52 13 -16 3 -54 12 -84 21 -30 8 -66 17 -80 20 -40
8 -59 12 -180 45 -63 16 -128 32 -145 35 -16 3 -47 9 -67 15 -21 5 -38 7 -38
5 0 -3 -9 0 -19 5 -10 6 -34 13 -52 16 -19 2 -60 11 -92 19 -31 8 -58 14 -60
14 -1 0 -20 5 -42 11 -22 5 -56 12 -75 15 -40 6 -60 10 -110 26 -43 13 -308
67 -370 76 -25 3 -54 7 -65 9 -41 7 -111 17 -135 21 -14 1 -41 5 -60 8 -64 9
-115 16 -160 21 -48 6 -52 6 -205 29 -55 8 -107 14 -115 14 -8 1 -37 3 -65 7
-27 3 -79 8 -115 10 -36 3 -90 8 -120 10 -236 21 -1085 27 -1645 12 -651 -17
-810 -24 -995 -42 -30 -3 -62 -6 -70 -7 -13 0 -173 -22 -255 -34 -16 -2 -48
-7 -70 -10 -72 -9 -90 -12 -130 -19 -22 -3 -53 -8 -70 -11 -16 -2 -41 -6 -55
-8 -14 -2 -43 -7 -65 -10 -22 -3 -65 -11 -95 -17 -30 -5 -66 -12 -80 -15 -14
-2 -34 -6 -45 -8 -11 -3 -40 -8 -65 -11 -24 -4 -48 -9 -52 -11 -5 -3 -22 -7
-38 -9 -16 -2 -46 -8 -67 -14 -21 -6 -51 -13 -68 -15 -16 -3 -41 -8 -55 -11
-14 -3 -38 -7 -55 -10 -16 -3 -43 -8 -60 -12 -31 -7 -41 -9 -85 -16 -80 -14
-370 -82 -400 -94 -8 -3 -24 -8 -34 -10 -26 -5 -127 -33 -146 -40 -8 -4 -18
-7 -22 -8 -5 -2 -10 -4 -13 -5 -3 -1 -9 -4 -15 -5 -5 -1 -12 -4 -15 -5 -3 -1
-9 -4 -15 -5 -5 -1 -12 -4 -15 -5 -3 -1 -9 -4 -15 -5 -5 -1 -11 -3 -12 -4 -2
-2 -13 -4 -26 -7 -13 -2 -33 -9 -45 -16 -12 -7 -31 -13 -42 -15 -10 -2 -23 -9
-27 -16 -4 -6 -8 -8 -8 -4 0 5 -17 0 -37 -11 -21 -10 -59 -29 -85 -40 l-47
-21 -58 35 c-32 19 -67 40 -77 47 -11 7 -29 20 -40 30 -11 10 -31 20 -43 23
-13 4 -23 10 -23 15 0 5 -7 9 -15 9 -8 0 -15 5 -15 10 0 6 -5 10 -10 10 -6 0
-20 9 -32 20 -12 11 -34 26 -50 32 -15 7 -28 16 -28 20 0 5 -6 8 -14 8 -8 0
-16 4 -18 9 -2 7 -131 98 -206 146 -9 6 -25 18 -36 28 -11 9 -26 17 -33 17 -7
0 -13 5 -13 10 0 6 -7 10 -15 10 -8 0 -15 5 -15 10 0 6 -5 10 -10 10 -6 0 -20
8 -31 19 -11 10 -37 27 -57 37 -20 11 -43 25 -50 32 -7 6 -20 12 -28 12 -8 0
-14 4 -14 9 0 5 -26 21 -57 37 -32 16 -63 35 -71 41 -7 7 -24 16 -38 19 -13 3
-24 9 -24 13 0 9 -272 143 -303 149 -4 1 -20 8 -37 17 -16 8 -39 17 -52 19
-13 3 -24 5 -25 7 -2 1 -7 3 -13 4 -5 1 -12 4 -15 5 -3 1 -8 3 -12 4 -5 1 -12
4 -18 7 -21 13 -139 32 -205 33 -56 0 -125 -13 -128 -24 -2 -5 -8 -8 -13 -5
-5 4 -31 -16 -58 -43 -51 -51 -81 -120 -81 -185 0 -31 46 -174 62 -194 6 -7 8
-13 4 -13 -3 0 4 -24 15 -52 12 -29 23 -60 24 -68 2 -8 4 -15 5 -15 1 0 3 -7
5 -15 1 -8 7 -33 13 -55 10 -36 14 -80 27 -265 2 -30 7 -86 11 -125 3 -38 6
-79 7 -90 0 -17 19 -168 33 -260 2 -16 6 -46 9 -65 7 -45 15 -100 19 -125 2
-11 7 -38 11 -60 8 -45 11 -63 19 -120 4 -22 8 -47 11 -55 3 -10 -22 -33 -78
-70 -45 -30 -83 -58 -85 -62 -2 -4 -8 -8 -14 -8 -11 0 -195 -136 -219 -162 -9
-10 -20 -18 -25 -18 -4 0 -17 -9 -29 -19 -11 -11 -38 -35 -60 -54 -22 -19 -62
-54 -90 -78 -175 -150 -705 -687 -739 -746 -5 -10 -23 -32 -40 -49 -71 -71
-106 -111 -106 -120 0 -6 -16 -24 -35 -41 -19 -17 -35 -35 -35 -39 0 -5 -11
-17 -24 -29 -30 -26 -185 -207 -264 -310 -35 -44 -75 -95 -90 -113 -15 -19
-34 -46 -42 -60 -8 -15 -17 -29 -20 -32 -18 -16 -100 -130 -100 -138 0 -6 -3
-12 -7 -14 -15 -6 -196 -276 -215 -319 -7 -16 -16 -29 -20 -29 -5 0 -8 -6 -8
-14 0 -8 -4 -16 -8 -18 -13 -5 -74 -98 -65 -98 4 0 3 -4 -3 -8 -13 -9 -144
-228 -144 -242 0 -5 -4 -10 -9 -10 -5 0 -15 -16 -22 -35 -7 -19 -17 -35 -22
-35 -4 0 -5 -4 -2 -10 3 -5 1 -10 -5 -10 -6 0 -8 -4 -5 -10 3 -5 1 -10 -5 -10
-6 0 -9 -4 -6 -9 4 -5 2 -11 -3 -13 -7 -2 -164 -307 -170 -330 -1 -4 -11 -29
-23 -55 -11 -27 -21 -54 -21 -60 0 -7 -4 -13 -7 -13 -9 0 -53 -99 -53 -117 0
-7 -4 -13 -9 -13 -4 0 -7 -3 -6 -7 1 -5 -4 -19 -9 -33 -24 -56 -55 -136 -57
-145 -1 -5 -7 -19 -14 -31 -12 -23 -53 -123 -56 -139 -1 -5 -8 -21 -16 -35 -7
-14 -12 -25 -11 -25 1 0 -3 -13 -9 -30 -7 -16 -13 -34 -14 -40 -1 -5 -8 -21
-16 -35 -7 -14 -13 -26 -12 -27 3 -4 -1 -20 -13 -48 -37 -88 -76 -191 -80
-209 -2 -12 -20 -65 -39 -119 -20 -53 -35 -98 -35 -100 0 -3 -4 -15 -35 -99
-14 -38 -23 -68 -19 -68 3 0 0 -7 -7 -15 -7 -8 -9 -15 -5 -15 4 0 3 -6 -3 -12
-9 -12 -69 -201 -77 -246 -2 -9 -4 -18 -5 -19 -2 -2 -4 -7 -5 -13 -1 -5 -3
-11 -5 -12 -1 -2 -3 -10 -5 -18 -1 -8 -12 -42 -23 -75 -24 -70 -60 -191 -65
-220 -2 -11 -11 -46 -21 -77 -10 -32 -19 -68 -20 -80 -2 -13 -6 -34 -10 -48
-3 -14 -8 -38 -12 -55 -9 -47 -15 -78 -19 -100 -2 -11 -12 -58 -23 -105 -21
-89 -47 -236 -58 -330 -3 -30 -8 -66 -10 -80 -2 -14 -6 -41 -8 -60 -3 -19 -7
-55 -11 -80 -12 -89 -16 -126 -20 -175 -3 -27 -7 -77 -10 -110 -23 -252 -30
-449 -29 -895 0 -406 3 -528 18 -720 6 -81 20 -199 32 -270 3 -19 7 -46 9 -60
9 -62 16 -99 30 -155 9 -33 17 -69 19 -80 2 -11 4 -20 6 -20 1 0 3 -9 4 -20 5
-34 18 -89 24 -100 4 -5 7 -14 9 -20 1 -5 5 -21 8 -35 3 -14 8 -36 11 -50 3
-14 12 -50 20 -80 9 -30 18 -62 19 -70 2 -8 4 -15 5 -15 1 0 4 -13 6 -30 3
-16 10 -35 16 -42 6 -7 8 -13 5 -13 -8 0 60 -200 74 -216 6 -8 9 -14 6 -14 -4
0 27 -90 58 -165 4 -11 7 -23 7 -28 -1 -4 3 -7 10 -7 6 0 8 -3 5 -6 -3 -4 -1
-16 5 -28 7 -11 12 -23 13 -26 1 -17 39 -90 47 -90 5 0 7 -4 3 -9 -3 -5 2 -16
10 -25 9 -8 15 -18 15 -21 -1 -16 14 -55 22 -55 5 0 6 -5 3 -10 -3 -6 -1 -10
5 -10 6 0 8 -4 5 -10 -3 -5 -1 -10 5 -10 6 0 8 -4 5 -10 -3 -6 -1 -10 5 -10 6
0 8 -4 5 -10 -3 -5 -1 -10 5 -10 6 0 8 -4 5 -10 -3 -5 -1 -10 5 -10 6 0 9 -4
6 -9 -4 -5 -3 -11 1 -13 5 -1 20 -25 34 -53 53 -101 93 -170 101 -173 4 -2 8
-10 8 -18 0 -8 5 -14 11 -14 5 0 7 -4 4 -10 -3 -5 -1 -10 4 -10 6 0 11 -7 11
-15 0 -8 5 -15 10 -15 6 0 10 -5 10 -11 0 -12 59 -92 72 -97 5 -2 8 -8 8 -14
0 -23 122 -160 300 -338 192 -193 228 -226 295 -275 22 -17 42 -34 43 -38 4
-7 103 -84 152 -117 12 -8 39 -30 59 -47 20 -18 39 -33 42 -33 3 0 17 -9 30
-20 37 -30 38 -31 144 -101 55 -36 120 -77 145 -90 25 -13 47 -27 48 -32 2 -4
8 -5 13 -1 5 3 9 1 9 -4 0 -9 44 -33 69 -38 8 -1 17 -7 20 -12 5 -8 124 -72
136 -73 2 0 22 -7 42 -16 21 -8 43 -16 48 -17 6 -1 15 -4 20 -8 6 -3 30 -11
55 -18 25 -6 69 -30 98 -51 28 -22 52 -36 52 -32 0 4 7 -2 15 -13 8 -10 15
-14 15 -9 0 7 3 7 8 0 10 -14 41 -33 75 -46 15 -6 27 -16 27 -22 0 -6 3 -8 6
-4 3 3 15 -3 27 -13 11 -11 24 -17 29 -14 4 3 8 0 8 -6 0 -6 5 -8 10 -5 6 3
10 2 10 -3 0 -10 80 -49 92 -45 5 2 8 -1 8 -6 0 -9 90 -47 102 -43 5 1 8 -3 8
-8 0 -5 3 -9 7 -8 5 0 35 -11 68 -27 33 -15 65 -28 70 -29 6 -2 37 -15 70 -30
32 -15 66 -28 75 -29 8 -2 25 -9 37 -15 13 -7 23 -10 23 -8 0 3 20 -3 45 -14
25 -11 45 -17 45 -13 0 3 6 1 13 -5 16 -13 187 -73 187 -65 0 3 6 1 12 -5 7
-5 29 -13 48 -18 43 -10 42 -9 60 -17 8 -4 24 -8 35 -10 11 -1 26 -6 33 -10 6
-5 12 -6 12 -3 0 3 18 -1 40 -9 22 -8 40 -12 40 -8 0 3 6 1 13 -5 7 -6 24 -13
37 -15 14 -2 38 -9 54 -16 16 -6 39 -13 50 -14 12 -1 23 -5 27 -9 3 -4 18 -9
35 -11 16 -2 35 -7 42 -11 7 -4 16 -5 21 -1 5 3 12 1 16 -4 3 -6 27 -13 53
-17 55 -9 61 -11 65 -14 1 -1 11 -4 22 -5 11 -2 34 -8 52 -13 17 -6 34 -8 37
-5 3 3 11 1 18 -4 7 -6 20 -10 28 -11 8 0 49 -8 90 -17 41 -10 82 -18 90 -20
8 -1 34 -7 58 -14 23 -6 46 -9 51 -6 5 3 11 1 13 -4 1 -5 21 -12 43 -15 22 -3
63 -11 90 -17 28 -6 57 -12 65 -13 8 -1 25 -6 36 -10 12 -3 37 -9 55 -12 54
-9 62 -10 94 -18 17 -3 46 -9 65 -12 19 -3 44 -7 55 -9 11 -2 36 -6 55 -9 19
-3 89 -16 155 -30 66 -14 147 -28 180 -31 69 -7 89 -10 165 -24 30 -5 89 -13
130 -17 41 -3 86 -8 100 -10 50 -7 136 -16 160 -17 14 0 66 -6 115 -13 50 -6
97 -12 105 -13 31 -1 147 -10 195 -15 28 -3 82 -7 120 -10 39 -3 111 -10 160
-15 50 -6 144 -13 210 -16 66 -3 147 -8 180 -11 33 -3 87 -7 120 -9 33 -2 101
-6 150 -9 376 -23 1571 -28 1915 -7 107 6 231 14 275 16 44 2 118 7 165 10 47
3 94 7 105 7 83 4 313 19 370 24 39 3 93 7 120 9 28 1 88 5 135 9 47 4 112 9
145 11 59 4 109 9 235 20 36 3 90 8 120 10 30 3 78 7 105 9 28 2 84 7 125 11
41 3 120 10 175 16 55 6 119 12 143 15 73 7 117 12 247 29 28 4 67 6 88 5 21
0 42 2 48 6 6 3 32 8 57 9 26 2 67 6 92 9 25 4 79 8 120 11 41 2 95 7 120 10
25 3 77 7 115 10 39 3 90 7 115 9 67 7 207 18 270 21 30 2 91 6 135 10 44 4
112 8 150 9 39 2 93 6 120 10 28 3 75 9 105 11 52 4 92 9 170 20 19 3 67 7
106 10 62 4 142 14 249 30 17 2 55 7 85 10 73 8 105 12 170 20 30 4 69 9 85
10 17 2 53 6 80 10 28 3 66 8 85 10 19 2 49 6 65 9 17 3 55 8 85 11 30 3 63 8
73 11 10 3 32 7 50 9 18 3 46 7 62 9 17 3 53 8 80 12 28 3 53 8 56 10 4 2 26
6 50 9 23 3 63 10 88 16 25 6 60 13 76 15 57 8 164 28 264 50 82 18 97 21 141
28 70 11 185 39 196 47 6 5 13 7 16 4 2 -3 20 0 39 6 19 5 46 12 61 14 15 2
36 9 46 14 11 6 22 8 24 6 3 -3 24 2 48 10 23 8 60 15 81 15 22 0 39 4 39 10
0 5 12 9 28 8 40 -2 188 32 215 49 6 4 20 9 29 10 10 2 48 16 85 32 62 27 90
37 103 39 3 1 34 14 70 30 96 43 101 45 143 56 15 5 27 12 27 17 0 5 3 8 8 7
4 -2 36 10 72 27 36 16 71 30 78 31 7 1 27 11 45 21 17 10 58 27 90 38 31 10
57 23 57 28 0 4 5 5 10 2 6 -3 10 -1 10 4 0 6 3 10 8 9 4 -2 27 7 52 19 232
110 319 153 331 165 8 7 30 21 49 31 72 36 125 68 128 77 2 6 9 10 16 10 13 0
139 88 144 102 2 4 10 8 18 8 8 0 14 3 14 8 0 4 15 15 33 25 17 10 52 37 77
60 25 23 70 60 100 83 73 54 349 329 477 474 56 63 130 147 164 185 34 39 74
90 90 114 15 24 37 50 49 58 11 8 20 21 20 29 0 8 4 14 9 14 5 0 16 15 25 34
9 19 20 36 24 38 9 4 82 118 113 178 13 25 27 47 32 48 4 2 7 9 7 15 0 7 10
30 21 52 12 22 20 40 19 40 -2 0 16 38 39 85 23 47 44 95 46 105 2 11 4 21 5
23 2 1 4 7 5 12 1 6 4 12 5 15 1 3 3 8 5 13 1 4 5 16 10 27 18 43 43 110 44
118 0 4 1 8 2 10 0 1 2 9 4 17 1 8 21 71 44 140 22 69 50 169 61 224 26 119
28 130 36 158 13 53 38 180 49 258 2 14 11 61 19 105 8 44 18 112 21 150 4 39
9 81 11 95 27 215 37 589 23 840 -13 208 -19 299 -23 335 -2 17 -7 66 -10 110
-4 44 -14 121 -22 170 -9 50 -18 113 -20 140 -2 28 -7 63 -10 80 -4 16 -8 46
-10 65 -2 19 -6 49 -9 65 -2 17 -7 55 -10 85 -3 30 -7 65 -10 78 -3 12 -7 30
-9 40 -2 10 -7 43 -10 73 -7 56 -22 158 -31 197 -12 56 -16 80 -21 125 -2 26
-10 60 -16 75 -6 15 -13 41 -15 57 -1 17 -6 41 -9 55 -14 49 -23 92 -30 135
-2 17 -7 41 -11 55 -3 14 -7 30 -8 35 -1 6 -3 12 -5 15 -1 3 -4 14 -6 25 -4
30 -14 75 -25 120 -6 22 -10 48 -10 57 0 10 -5 20 -10 23 -5 4 -7 10 -4 15 3
4 -8 52 -24 106 -30 105 -61 226 -77 303 -3 13 -9 31 -13 40 -5 9 -9 21 -10
26 -2 33 -87 350 -99 370 -4 6 -8 21 -10 35 -2 13 -8 30 -14 37 -6 7 -7 13 -3
13 4 0 2 7 -5 15 -7 8 -10 15 -6 15 3 0 0 16 -8 35 -8 19 -12 35 -9 35 3 0 0
7 -7 15 -7 8 -10 15 -7 15 7 0 -59 194 -76 225 -6 11 -12 23 -13 28 -1 4 -3 9
-4 12 -1 3 -4 10 -5 15 -1 6 -3 11 -5 13 -1 1 -3 9 -5 17 -2 8 -9 29 -16 45
-7 17 -13 33 -14 38 -2 4 -4 9 -5 12 -3 5 -3 6 -15 50 -4 17 -13 39 -18 50 -6
11 -12 29 -14 40 -2 10 -10 30 -18 42 -9 13 -13 23 -10 23 2 0 -6 25 -20 56
-14 31 -25 63 -25 70 0 8 -5 14 -10 14 -6 0 -9 3 -9 8 1 4 1 9 -1 12 -1 3 -4
16 -6 30 -2 13 -8 27 -12 30 -4 3 -8 13 -10 22 -1 9 -15 43 -29 75 -15 32 -27
60 -27 63 -2 16 -42 96 -51 102 -5 4 -7 8 -2 8 4 0 0 15 -10 33 -9 17 -18 37
-19 42 -16 77 -274 560 -306 573 -4 2 -8 8 -8 13 0 18 -191 305 -219 329 -3 3
-12 17 -19 31 -7 14 -29 42 -48 63 -19 20 -34 41 -34 46 0 6 -9 15 -20 22 -11
7 -20 17 -20 23 0 6 -21 33 -46 60 -25 28 -52 59 -60 70 -18 26 -118 136 -371
410 -231 250 -583 592 -670 650 -8 6 -34 27 -56 48 -23 20 -48 37 -54 37 -7 0
-13 3 -13 8 0 8 -145 132 -154 132 -3 0 -16 10 -29 23 -71 65 -128 116 -167
147 -24 19 -48 40 -54 45 -27 25 -164 133 -191 151 -16 10 -39 28 -50 39 -24
22 -35 31 -117 93 -32 23 -59 42 -62 42 -2 0 -18 14 -36 30 -18 17 -38 30 -46
30 -8 0 -14 5 -14 10 0 6 -7 10 -15 10 -8 0 -15 5 -15 10 0 6 -7 10 -15 10 -8
0 -15 5 -15 10 0 6 -6 10 -14 10 -8 0 -16 4 -18 8 -5 12 -144 102 -157 102 -6
0 -11 5 -11 10 0 6 -6 10 -14 10 -8 0 -16 3 -18 8 -5 11 -201 137 -210 134 -4
-1 -8 2 -8 8 0 5 -6 10 -14 10 -8 0 -16 4 -18 8 -1 4 -24 20 -51 35 -47 28
-56 49 -35 82 11 19 28 150 28 215 0 36 2 106 5 155 7 129 14 273 19 405 3 63
7 156 10 205 3 50 8 155 10 235 3 80 9 168 15 196 6 29 6 66 1 87 -4 20 -6 37
-3 37 3 0 0 7 -7 15 -7 8 -9 15 -5 15 4 0 2 6 -4 13 -6 8 -9 16 -6 19 3 3 -13
26 -36 52 -42 47 -91 80 -103 69 -3 -4 -6 -1 -6 5 0 6 -8 11 -17 11 -10 0 -41
2 -69 5 -29 3 -54 3 -56 1z m-497 -993 c-16 -45 -27 -82 -24 -82 3 0 0 -7 -7
-15 -7 -8 -9 -15 -5 -15 4 0 2 -7 -5 -15 -7 -8 -9 -15 -5 -15 4 0 3 -6 -3 -13
-6 -7 -13 -26 -16 -42 -2 -17 -5 -31 -5 -32 -1 -2 0 -5 2 -6 1 -2 -4 -11 -12
-21 -8 -9 -11 -19 -8 -23 4 -3 2 -12 -4 -20 -6 -7 -9 -13 -6 -13 2 0 -6 -37
-19 -81 -13 -45 -21 -85 -19 -90 3 -4 1 -10 -4 -14 -5 -3 -10 -13 -10 -23 0
-9 -9 -48 -20 -87 -45 -150 -46 -276 -3 -343 21 -34 75 -87 85 -84 4 1 7 -3 7
-9 0 -5 5 -7 10 -4 6 3 10 1 10 -5 0 -6 4 -9 9 -5 5 3 12 1 16 -4 3 -6 12 -8
20 -4 8 3 15 0 15 -7 0 -7 7 -10 15 -6 9 3 23 -6 37 -24 11 -16 25 -27 30 -24
4 3 8 0 8 -5 0 -6 14 -11 30 -11 17 0 30 5 30 11 0 5 -4 7 -10 4 -16 -10 -11
1 7 16 11 10 14 10 9 2 -9 -16 -1 -16 25 -3 13 7 19 7 19 0 0 -5 7 -10 15 -10
8 0 15 -4 15 -8 0 -5 20 -23 45 -41 25 -18 45 -30 45 -26 0 3 9 -2 19 -12 11
-10 37 -27 58 -38 21 -11 43 -25 50 -31 20 -19 160 -104 172 -104 6 0 11 -4
11 -10 0 -5 11 -12 25 -16 14 -3 25 -10 25 -15 0 -5 7 -9 15 -9 8 0 15 -4 15
-10 0 -5 4 -10 10 -10 5 0 18 -7 28 -15 10 -9 68 -48 129 -88 172 -112 260
-174 359 -254 50 -40 96 -73 102 -73 7 0 12 -3 12 -7 0 -5 28 -30 62 -58 84
-69 221 -183 233 -195 15 -15 201 -170 248 -208 78 -60 86 -67 143 -119 32
-29 62 -53 66 -53 5 0 28 -19 51 -42 23 -24 98 -95 166 -158 68 -63 147 -140
175 -170 28 -30 85 -89 126 -132 41 -42 105 -109 142 -150 36 -40 89 -97 117
-127 28 -30 51 -56 51 -58 0 -4 173 -206 228 -267 15 -16 27 -33 27 -38 0 -5
5 -12 10 -16 6 -4 15 -14 20 -23 14 -23 142 -202 154 -216 6 -7 11 -15 11 -18
0 -7 59 -95 70 -105 3 -3 19 -31 35 -62 17 -32 34 -58 38 -58 5 0 5 -4 2 -10
-3 -5 -2 -10 3 -10 6 0 13 -11 16 -24 3 -14 12 -31 19 -38 6 -7 37 -65 67
-128 30 -63 58 -117 63 -118 4 -2 5 -8 1 -13 -3 -5 0 -9 7 -9 7 0 10 -3 6 -6
-3 -4 8 -34 25 -68 18 -33 31 -64 30 -68 -1 -5 2 -8 7 -8 5 0 12 -18 16 -40 4
-22 12 -40 18 -40 5 0 7 -3 4 -6 -3 -4 -1 -16 5 -28 7 -11 13 -25 14 -31 3
-14 84 -217 92 -230 4 -5 7 -12 7 -15 5 -27 31 -97 40 -102 5 -4 6 -8 1 -8 -5
0 -3 -7 4 -15 7 -8 9 -15 5 -15 -4 0 -2 -7 5 -15 7 -8 9 -15 5 -15 -4 0 0 -11
9 -25 9 -14 14 -25 12 -25 -5 0 51 -157 62 -174 4 -6 7 -14 8 -18 1 -5 3 -10
4 -13 1 -3 4 -9 5 -15 1 -5 4 -12 5 -15 1 -3 3 -8 4 -12 1 -5 13 -39 26 -78
13 -38 25 -73 26 -77 1 -5 3 -10 4 -13 1 -3 4 -9 5 -15 1 -5 4 -12 5 -15 1 -3
4 -9 5 -15 1 -5 3 -11 4 -12 2 -2 4 -14 7 -28 2 -14 7 -32 11 -40 3 -8 7 -22
8 -30 1 -14 39 -135 52 -170 3 -8 7 -19 8 -25 2 -5 8 -30 16 -55 7 -25 14 -54
16 -65 2 -11 9 -36 15 -55 7 -19 13 -39 13 -45 1 -5 3 -12 4 -15 3 -7 7 -23
21 -98 6 -35 16 -76 22 -90 6 -15 11 -30 10 -34 -1 -4 5 -26 14 -50 9 -24 18
-54 20 -68 8 -48 36 -175 42 -190 3 -8 6 -18 7 -22 2 -5 4 -9 5 -10 1 -2 4
-12 6 -23 2 -11 5 -31 7 -45 3 -14 8 -46 12 -73 4 -26 11 -50 16 -52 4 -3 6
-12 3 -19 -3 -8 -1 -17 5 -20 6 -4 8 -13 4 -21 -3 -9 0 -21 6 -29 6 -7 9 -15
6 -18 -3 -3 6 -54 21 -114 27 -113 29 -122 38 -189 3 -22 9 -51 12 -65 3 -14
8 -38 10 -55 2 -16 6 -48 10 -70 4 -22 9 -49 10 -60 2 -11 6 -36 9 -55 3 -19
5 -50 5 -68 0 -18 3 -38 7 -44 3 -7 8 -26 10 -43 7 -55 23 -170 28 -200 3 -16
5 -41 5 -55 0 -13 5 -51 10 -83 10 -51 15 -92 34 -242 20 -157 27 -331 27
-665 0 -331 -3 -400 -27 -560 -9 -58 -17 -114 -18 -125 -2 -11 -6 -31 -10 -45
-3 -14 -8 -41 -11 -60 -4 -36 -36 -177 -54 -247 -5 -21 -13 -50 -16 -65 -12
-65 -16 -79 -25 -103 -5 -14 -7 -25 -4 -25 3 0 2 -6 -3 -12 -4 -7 -8 -17 -10
-23 -6 -30 -15 -58 -41 -133 -17 -45 -27 -82 -25 -82 3 0 0 -6 -6 -13 -6 -8
-12 -22 -14 -33 -2 -10 -9 -29 -15 -41 -7 -13 -10 -23 -6 -23 3 0 2 -6 -4 -12
-6 -7 -11 -17 -12 -23 -4 -15 -11 -37 -23 -70 -6 -16 -12 -35 -13 -42 -1 -7
-18 -39 -38 -71 -20 -33 -36 -63 -36 -68 0 -16 -112 -200 -158 -260 -26 -34
-56 -73 -66 -88 -11 -15 -30 -39 -43 -54 -14 -15 -41 -46 -61 -68 -20 -23 -50
-57 -65 -75 -52 -62 -111 -128 -194 -215 -46 -48 -83 -90 -83 -94 0 -4 -12
-16 -27 -25 -16 -10 -59 -49 -96 -87 -38 -37 -71 -68 -73 -68 -3 0 -18 -12
-34 -28 -48 -44 -70 -62 -76 -62 -3 0 -29 -20 -57 -43 -61 -51 -273 -192 -311
-207 -14 -5 -26 -14 -26 -20 0 -6 -4 -8 -10 -5 -5 3 -10 1 -10 -6 0 -7 -3 -10
-6 -6 -3 3 -28 -8 -55 -24 -28 -16 -51 -29 -53 -29 -2 0 -60 -27 -129 -60 -70
-33 -129 -60 -132 -60 -3 0 -20 -7 -38 -17 -17 -9 -36 -18 -42 -19 -5 -1 -43
-18 -82 -37 -40 -19 -73 -34 -73 -32 0 2 -28 -9 -62 -25 -35 -17 -71 -30 -80
-30 -38 0 -239 -63 -328 -103 -25 -11 -49 -21 -55 -22 -14 -4 -177 -55 -195
-62 -8 -3 -24 -8 -35 -10 -11 -2 -83 -19 -160 -38 -153 -37 -229 -55 -260 -60
-63 -11 -176 -35 -195 -42 -8 -3 -26 -7 -40 -9 -14 -2 -36 -6 -50 -10 -14 -3
-41 -8 -60 -10 -19 -3 -78 -14 -130 -25 -172 -38 -185 -40 -220 -45 -19 -2
-51 -7 -70 -11 -19 -3 -44 -8 -55 -9 -29 -3 -106 -14 -135 -19 -76 -12 -110
-16 -160 -21 -30 -2 -62 -6 -70 -9 -8 -3 -38 -7 -65 -10 -28 -3 -70 -8 -95
-11 -25 -4 -61 -8 -80 -10 -19 -3 -48 -6 -65 -8 -16 -2 -70 -6 -120 -10 -49
-4 -119 -11 -155 -17 -131 -20 -234 -31 -390 -43 -41 -4 -97 -9 -125 -12 -55
-7 -120 -12 -235 -18 -41 -3 -106 -7 -145 -11 -99 -8 -176 -14 -285 -20 -52
-4 -112 -11 -133 -16 -20 -5 -42 -7 -47 -4 -5 3 -55 0 -112 -6 -57 -6 -114
-11 -128 -11 -14 -1 -106 -10 -205 -20 -99 -11 -200 -21 -225 -24 -25 -2 -63
-7 -85 -10 -22 -3 -49 -5 -60 -6 -11 -1 -60 -5 -110 -10 -118 -13 -145 -15
-240 -22 -44 -4 -107 -9 -140 -12 -33 -3 -94 -7 -135 -9 -68 -3 -261 -18 -400
-31 -122 -11 -346 -27 -375 -26 -20 0 -335 -16 -435 -23 -30 -2 -109 -6 -175
-10 -66 -4 -123 -9 -126 -11 -16 -9 -369 -17 -684 -15 -691 4 -1054 9 -1062
14 -7 4 -75 9 -363 22 -30 1 -75 5 -100 9 -25 3 -88 8 -140 11 -52 3 -120 7
-150 10 -30 3 -100 8 -155 11 -55 4 -116 8 -135 10 -19 2 -64 6 -100 8 -36 2
-92 8 -125 14 -33 5 -71 10 -85 11 -36 1 -130 10 -165 15 -16 3 -59 8 -95 11
-101 10 -157 18 -243 35 -33 6 -65 9 -72 6 -7 -2 -37 2 -67 10 -50 13 -190 38
-268 48 -19 2 -54 9 -78 15 -24 7 -58 14 -75 17 -18 3 -39 7 -47 8 -8 1 -24 5
-35 9 -20 7 -79 17 -125 21 -14 2 -27 4 -30 6 -3 1 -16 4 -30 5 -14 2 -87 20
-163 40 -76 19 -142 33 -147 30 -5 -3 -11 -1 -15 4 -3 5 -13 10 -23 10 -9 0
-48 7 -87 16 -65 16 -89 21 -140 29 -11 2 -22 5 -25 6 -3 2 -9 4 -15 5 -5 1
-21 5 -35 8 -14 4 -36 9 -50 11 -23 5 -36 8 -93 22 -34 8 -40 10 -68 22 -14 5
-39 12 -56 15 -17 3 -40 10 -52 16 -12 7 -26 9 -31 6 -5 -3 -11 -1 -15 5 -4 6
-10 8 -15 5 -5 -3 -11 -1 -14 4 -4 5 -25 13 -49 17 -51 10 -38 6 -124 33 -39
12 -78 24 -85 25 -7 2 -20 5 -28 8 -63 22 -148 48 -165 51 -11 2 -27 7 -35 10
-21 8 -155 48 -177 52 -10 2 -19 4 -20 5 -2 2 -7 4 -13 5 -5 1 -12 4 -15 5 -3
1 -9 4 -15 5 -5 1 -11 3 -12 5 -2 1 -10 3 -18 5 -8 2 -34 10 -58 19 -23 8 -44
15 -47 15 -3 1 -20 7 -38 14 -17 8 -82 30 -143 51 -61 20 -132 50 -158 66 -26
17 -49 30 -51 30 -2 0 -15 10 -29 23 -13 12 -37 29 -53 37 -41 22 -179 107
-244 152 -31 21 -62 38 -68 38 -6 0 -11 5 -11 10 0 6 -7 10 -15 10 -8 0 -15 5
-15 10 0 6 -6 10 -14 10 -8 0 -17 7 -20 16 -3 8 -10 12 -16 9 -5 -3 -10 -1
-10 4 0 6 -6 11 -14 11 -8 0 -16 7 -20 15 -3 8 -12 15 -21 15 -8 0 -15 4 -15
8 0 7 -62 52 -119 87 -9 6 -18 13 -21 16 -3 3 -54 43 -115 88 -134 100 -160
120 -190 146 -13 11 -35 29 -49 40 -39 31 -190 164 -249 220 -18 17 -70 73
-117 124 -47 52 -98 108 -115 127 -51 55 -58 66 -119 162 -32 50 -63 92 -67
92 -5 0 -8 3 -7 7 3 13 -24 63 -34 63 -4 0 -8 3 -7 7 2 16 -14 53 -23 53 -5 0
-6 4 -3 10 3 6 1 10 -5 10 -6 0 -8 5 -5 10 3 6 1 10 -5 10 -6 0 -9 4 -6 9 4 5
3 11 -1 13 -5 1 -28 44 -52 93 -24 50 -56 116 -72 148 -15 31 -26 57 -23 57 3
0 -2 12 -10 28 -13 24 -27 57 -31 72 -1 8 -42 111 -56 145 -7 17 -13 33 -14
38 -2 4 -4 9 -5 12 -1 3 -4 10 -5 15 -1 6 -4 12 -5 15 -1 3 -4 10 -5 15 -1 6
-3 11 -5 13 -1 1 -3 9 -5 17 -1 8 -9 35 -16 60 -7 25 -13 48 -15 53 -1 4 -3
10 -4 15 -1 4 -3 12 -5 17 -1 6 -3 13 -5 18 -4 11 -5 18 -14 64 -4 24 -12 45
-16 48 -5 3 -7 12 -4 19 3 8 0 17 -5 21 -6 3 -9 11 -6 16 4 5 3 15 -2 22 -4 6
-9 23 -11 37 -2 13 -8 30 -14 37 -6 7 -8 13 -5 13 4 0 -13 84 -29 145 -3 11
-7 34 -9 50 -3 17 -8 44 -11 60 -4 17 -9 41 -10 55 -2 14 -6 39 -8 55 -5 33
-10 81 -26 265 -18 189 -20 940 -4 1150 25 321 31 400 39 470 3 25 7 65 10 90
7 70 13 118 19 148 3 15 8 50 12 77 3 28 7 59 9 70 2 11 6 34 9 50 3 17 10 48
15 70 6 22 8 41 6 44 -2 2 0 11 5 20 5 10 11 37 15 62 3 24 8 53 11 64 2 11 6
31 9 45 6 31 9 45 23 95 6 22 13 54 16 70 3 17 7 40 10 53 3 12 8 30 10 40 2
9 9 29 15 45 6 15 9 27 6 27 -2 0 9 37 24 83 15 45 28 84 29 87 0 3 3 12 6 20
16 48 57 186 61 204 2 11 4 22 6 24 1 1 3 7 4 12 1 6 4 12 5 15 1 3 3 8 5 13
1 4 4 14 8 22 3 8 12 35 18 60 16 57 13 49 32 92 10 21 19 48 21 60 3 13 5 24
7 26 1 1 3 7 4 12 1 6 4 12 5 15 1 3 3 8 4 13 1 4 4 12 7 17 6 9 51 139 55
158 1 4 2 8 4 10 1 1 3 9 5 17 1 8 22 62 45 120 41 103 99 255 104 275 2 6 9
24 15 40 7 17 14 35 15 40 1 6 7 19 13 30 6 11 11 23 12 28 0 4 8 21 16 37 8
16 15 32 15 35 0 3 7 19 15 35 8 16 15 31 14 32 0 2 5 17 11 33 7 17 17 41 23
55 19 48 36 86 90 202 31 64 53 119 49 122 -3 3 0 6 7 6 7 0 10 4 7 9 -4 5 -3
11 1 13 5 1 37 62 73 133 36 72 71 136 77 143 7 7 16 24 19 38 3 13 10 24 16
24 5 0 6 5 3 10 -3 6 -1 10 4 10 6 0 11 4 11 9 0 5 34 62 75 128 41 65 75 124
75 131 0 6 4 12 10 12 5 0 12 11 16 25 3 14 10 25 15 25 5 0 9 7 9 15 0 8 4
15 9 15 10 0 64 80 54 80 -5 0 -3 4 3 8 16 10 109 155 106 165 -1 4 2 7 7 7 9
0 116 147 116 160 0 3 6 12 13 20 7 8 22 27 35 41 12 14 29 36 37 49 8 13 23
30 33 39 9 8 17 20 17 26 0 5 12 21 26 35 15 13 38 40 53 60 14 19 41 52 60
72 19 21 40 46 48 57 7 11 26 33 41 49 15 16 44 49 65 73 22 24 47 54 58 65
10 12 19 26 19 31 0 4 9 14 19 20 11 7 47 45 81 85 91 106 209 237 256 283 23
22 60 62 84 90 23 27 58 61 76 76 19 15 100 90 181 167 82 78 165 154 185 170
39 31 70 58 120 105 16 15 34 27 39 27 5 0 9 5 9 10 0 6 5 10 11 10 10 0 86
53 122 84 9 9 22 16 27 16 6 0 13 7 16 15 4 8 12 15 20 15 8 0 14 5 14 10 0 6
7 10 15 10 8 0 15 5 15 10 0 6 7 10 15 10 8 0 15 5 15 10 0 6 6 10 13 10 6 0
41 19 76 41 61 38 67 40 102 30 49 -15 65 -14 83 4 8 9 18 15 21 15 20 -4 176
67 183 83 2 4 10 7 17 7 7 0 25 15 39 33 15 17 31 37 36 44 6 7 10 16 10 20 0
4 14 21 30 37 53 52 70 100 67 196 -2 65 -9 97 -27 135 -13 28 -23 53 -22 58
1 4 -2 7 -7 7 -4 0 -16 20 -25 45 -10 25 -22 45 -27 45 -6 0 -8 4 -5 9 4 5 3
11 -1 13 -5 1 -33 53 -63 113 -30 61 -58 112 -63 113 -4 2 -5 8 -1 13 3 5 0 9
-6 9 -6 0 -8 5 -5 10 3 6 1 10 -5 10 -6 0 -8 5 -5 10 3 6 1 10 -6 10 -7 0 -10
3 -6 6 6 6 -68 163 -82 174 -3 3 -7 12 -9 20 -2 8 -14 40 -28 70 -14 30 -25
56 -24 58 0 1 -16 33 -35 72 -38 75 -44 101 -19 76 8 -9 21 -16 29 -16 7 0 15
-4 17 -9 4 -11 203 -131 217 -131 6 0 11 -4 11 -10 0 -5 4 -10 9 -10 6 0 22
-11 37 -25 15 -14 31 -25 36 -25 5 0 18 -9 30 -20 12 -11 28 -20 35 -20 7 0
13 -4 13 -8 0 -4 15 -16 32 -27 18 -10 42 -27 52 -37 11 -10 26 -18 33 -18 7
0 13 -4 13 -8 0 -9 106 -82 120 -82 6 0 10 -3 10 -8 0 -4 17 -16 38 -27 20
-11 48 -30 62 -42 14 -13 30 -23 37 -23 7 0 13 -3 13 -8 0 -4 17 -16 38 -27
20 -11 46 -28 56 -37 10 -10 23 -15 28 -12 4 3 8 0 8 -5 0 -6 7 -11 15 -11 8
0 15 -4 15 -10 0 -5 11 -12 25 -16 14 -3 25 -9 25 -14 0 -7 80 -46 90 -43 3 1
10 -2 15 -7 13 -10 132 -13 148 -3 7 4 20 9 30 10 10 2 28 10 40 17 12 8 42
18 67 21 43 7 228 51 260 63 8 3 20 6 25 7 6 1 12 3 15 4 8 4 8 4 195 46 65
14 126 30 135 35 8 4 18 8 23 8 27 1 87 15 87 21 0 4 16 8 35 9 20 1 41 4 47
8 5 4 27 8 47 11 20 2 43 7 51 10 8 3 22 7 30 8 8 2 26 6 40 9 14 4 41 9 60
12 19 3 53 10 75 15 22 5 51 12 65 14 14 3 34 7 45 10 37 8 70 14 110 20 22 3
69 13 105 21 95 23 101 24 145 29 22 3 48 8 58 11 10 3 31 7 47 10 17 2 43 6
60 9 16 3 43 7 60 10 16 3 45 8 62 11 18 3 44 7 58 9 86 12 112 16 175 26 73
11 123 17 190 24 22 2 87 8 145 15 165 17 426 31 650 35 113 2 284 6 380 8 96
3 396 5 665 4 705 0 830 -5 1200 -51 61 -8 117 -14 125 -15 8 0 33 -3 55 -6
22 -3 56 -7 75 -9 19 -2 67 -10 105 -16 39 -7 86 -14 105 -16 56 -7 135 -19
195 -30 17 -3 39 -7 50 -8 11 -1 45 -7 75 -14 30 -6 66 -14 80 -16 14 -3 49
-12 79 -20 30 -8 57 -14 60 -14 3 1 25 -4 49 -11 24 -7 55 -14 70 -16 15 -2
51 -11 81 -19 30 -8 58 -13 62 -10 4 2 10 0 14 -5 3 -5 13 -10 23 -10 25 0 51
-6 97 -18 22 -7 56 -15 75 -18 60 -11 70 -13 255 -61 99 -26 187 -47 195 -48
9 -1 21 -6 28 -10 7 -4 16 -5 19 -2 3 3 11 2 17 -3 46 -37 286 -28 286 11 0 5
4 7 9 4 5 -3 21 4 37 16 15 12 33 23 38 24 12 2 73 29 96 43 8 4 49 24 90 42
41 19 77 37 78 42 2 4 8 5 13 1 5 -3 9 0 9 6 0 6 4 9 9 5 5 -3 15 1 23 8 7 7
16 14 21 15 8 1 103 52 197 106 30 17 67 37 82 45 15 8 37 22 47 33 11 10 25
18 31 18 5 0 10 4 10 9 0 5 11 12 25 15 14 4 25 11 25 16 0 6 5 10 12 10 14 0
271 160 276 172 2 4 8 6 13 2 5 -3 9 0 9 5 0 6 7 11 15 11 8 0 16 6 16 13 1 6
3 5 6 -4 2 -9 -9 -53 -26 -97z"/>
<path d="M12642 14880 c-23 -10 -42 -17 -42 -14 0 6 -110 -55 -149 -85 -62
-45 -211 -141 -220 -141 -5 0 -12 20 -15 45 -10 64 -51 105 -105 105 -80 0
-104 -46 -136 -260 -29 -193 -17 -245 74 -320 69 -57 252 -29 341 52 14 13 37
29 51 36 14 7 43 30 65 50 21 19 64 56 94 80 30 25 94 84 141 132 82 82 115
127 122 167 2 10 7 35 12 55 10 51 -1 87 -29 98 -13 5 -54 11 -92 14 -55 4
-78 1 -112 -14z"/>
<path d="M8015 14621 c-47 -29 -107 -99 -154 -183 l-44 -76 -176 88 c-189 95
-268 119 -353 106 -45 -7 -96 -45 -102 -77 -2 -8 -6 -26 -10 -40 -10 -35 13
-88 50 -117 77 -59 123 -92 129 -92 3 0 20 -13 38 -30 18 -16 35 -30 39 -30 4
0 13 -6 20 -12 30 -29 165 -136 193 -154 17 -10 35 -23 42 -29 7 -5 19 -16 27
-22 8 -7 20 -13 26 -13 5 0 10 -4 10 -9 0 -19 108 -53 152 -48 101 11 141 29
203 92 88 88 139 228 139 385 1 145 -32 232 -102 269 -31 17 -93 13 -127 -8z"/>
<path d="M13340 13897 c-3 -3 -39 -8 -80 -11 -113 -8 -183 -17 -192 -22 -5 -3
-21 -7 -37 -9 -57 -7 -158 -37 -221 -66 -111 -50 -210 -102 -210 -111 0 -4 -7
-8 -15 -8 -8 0 -15 -4 -15 -10 0 -5 -5 -10 -12 -10 -6 0 -23 -11 -37 -24 -47
-44 -156 -153 -170 -170 -37 -47 -81 -123 -87 -150 -3 -17 -10 -36 -15 -41 -8
-10 -13 -34 -25 -105 -3 -20 1 -53 9 -76 13 -36 13 -49 0 -105 -17 -74 -13
-265 8 -314 6 -16 14 -39 16 -50 6 -32 65 -155 74 -155 5 0 9 -7 9 -15 0 -8 5
-15 10 -15 6 0 10 -6 10 -13 0 -17 158 -175 196 -196 16 -9 34 -23 41 -31 7
-8 13 -10 13 -5 0 7 3 7 8 0 10 -14 170 -104 187 -106 2 0 21 -7 40 -15 20 -8
40 -12 45 -9 6 4 10 1 10 -6 0 -6 8 -9 20 -6 11 3 23 1 26 -5 3 -5 13 -7 21
-4 8 3 20 3 26 -1 36 -23 305 -22 447 1 14 2 43 7 65 10 22 4 46 9 54 12 8 2
30 7 50 10 20 3 41 10 46 14 6 5 13 9 18 9 4 1 9 2 12 2 3 1 10 3 15 4 6 1 11
3 13 4 1 2 13 4 26 7 13 2 40 12 60 22 220 110 209 103 318 207 63 61 98 104
151 190 7 11 22 40 35 65 12 25 27 48 32 52 6 4 7 8 2 8 -4 0 9 32 28 70 19
39 32 70 29 70 -4 0 -2 6 4 13 6 7 12 25 14 39 2 15 7 30 11 34 4 4 7 26 7 49
0 36 6 48 40 81 63 61 74 133 30 194 -11 15 -20 30 -20 33 0 3 -5 18 -12 34
-6 15 -12 30 -12 33 -4 21 -30 70 -37 70 -5 0 -9 6 -9 13 0 7 -8 22 -19 33
-10 11 -25 32 -32 47 -19 35 -74 100 -139 164 -88 87 -86 86 -230 161 -69 36
-216 86 -230 77 -5 -3 -10 -1 -10 6 0 7 -10 9 -30 6 -16 -4 -32 -2 -35 4 -4 5
-21 9 -38 9 -18 0 -93 3 -167 6 -74 3 -137 4 -140 1z m295 -451 c79 -13 270
-91 280 -115 4 -9 0 -11 -12 -7 -10 4 -94 7 -188 6 -299 -3 -384 -9 -580 -45
-16 -4 -39 -8 -50 -10 -11 -2 -40 -6 -65 -10 -25 -3 -79 -13 -120 -21 -41 -9
-88 -18 -105 -20 -16 -3 -41 -7 -55 -10 -14 -3 -38 -8 -55 -10 -16 -3 -41 -7
-55 -10 -23 -4 -21 -2 13 28 68 59 91 75 172 116 98 50 269 95 415 109 30 3
56 6 57 7 4 3 321 -3 348 -8z m505 -516 c0 -3 -9 -16 -20 -30 -11 -14 -20 -31
-20 -37 0 -7 -4 -13 -8 -13 -5 0 -15 -12 -23 -27 -15 -27 -128 -142 -176 -179
-43 -32 -112 -67 -155 -79 -5 -2 -10 -4 -13 -5 -3 -1 -9 -4 -15 -5 -5 -1 -11
-3 -12 -4 -2 -2 -14 -4 -28 -7 -14 -2 -32 -7 -40 -11 -8 -3 -22 -7 -30 -9 -8
-1 -28 -5 -45 -9 -97 -22 -303 -30 -405 -16 -87 12 -123 18 -127 21 -2 2 -7 4
-13 5 -5 1 -12 4 -15 5 -3 1 -8 3 -12 4 -5 1 -22 9 -39 19 -17 9 -34 13 -38
10 -3 -4 -6 -1 -6 6 0 7 -4 9 -10 6 -5 -3 -10 -1 -10 6 0 7 -3 10 -6 6 -3 -3
-11 -2 -18 3 -31 26 -106 79 -124 89 -27 15 -122 158 -122 185 0 3 46 4 103 2
56 -2 149 1 207 5 94 8 106 7 118 -8 43 -58 107 -122 130 -131 15 -6 36 -14
47 -18 58 -22 204 -23 233 -1 6 5 12 6 12 2 0 -4 7 -2 15 5 8 7 15 10 15 6 0
-14 65 28 112 71 30 29 52 60 60 84 l11 39 151 1 c83 1 162 1 176 0 14 -1 37
2 52 6 31 9 88 11 88 3z"/>
<path d="M7018 13665 c-2 -2 -28 -6 -58 -9 -156 -17 -251 -41 -415 -104 -50
-20 -175 -86 -175 -94 0 -4 -5 -8 -11 -8 -12 0 -151 -92 -189 -126 -45 -39
-124 -118 -154 -153 -33 -39 -106 -174 -106 -195 0 -8 -6 -21 -13 -28 -30 -30
-42 -336 -17 -438 6 -25 13 -56 16 -70 2 -14 7 -33 10 -42 3 -9 7 -26 9 -39
12 -64 98 -260 116 -267 5 -2 9 -8 9 -14 0 -5 6 -15 13 -22 6 -8 19 -24 27
-37 13 -20 121 -131 161 -165 9 -8 21 -14 27 -14 5 0 12 -4 14 -8 4 -11 81
-57 91 -54 4 1 7 -2 7 -7 0 -5 15 -14 33 -21 17 -7 41 -16 52 -20 27 -11 59
-23 65 -24 3 -1 14 -7 25 -13 11 -6 34 -13 50 -17 50 -11 74 -16 98 -21 54
-12 84 -18 107 -20 14 -1 33 -6 43 -10 30 -13 316 2 387 20 36 9 76 19 90 21
14 3 36 9 50 13 14 5 37 12 51 15 14 3 42 12 62 21 20 8 38 14 39 13 6 -4 148
75 148 82 0 4 10 10 23 14 12 3 34 16 49 28 15 13 46 37 69 53 54 40 148 141
198 215 31 44 90 163 95 190 1 3 4 10 7 15 6 9 23 78 33 130 2 11 8 31 14 45
5 14 15 55 22 93 7 37 16 67 20 67 4 0 20 12 36 27 30 28 54 81 54 124 0 26
-35 168 -49 197 -43 93 -86 172 -93 172 -4 0 -8 6 -8 13 0 6 -16 29 -35 50
-19 21 -39 46 -44 56 -13 23 -144 131 -160 131 -6 0 -11 5 -11 11 0 5 -4 8 -9
5 -5 -3 -11 1 -15 9 -3 8 -12 15 -20 15 -8 0 -16 4 -18 8 -3 8 -131 76 -153
82 -17 4 -27 8 -103 34 -123 43 -261 67 -418 70 -79 2 -144 2 -146 1z m287
-415 c55 -12 107 -24 115 -25 8 -2 16 -4 18 -5 1 -2 5 -3 10 -5 20 -5 50 -18
75 -31 15 -8 27 -13 27 -10 0 7 92 -48 129 -76 23 -18 20 -18 -160 -19 -101
-1 -202 -3 -224 -4 -303 -17 -918 -26 -937 -14 -6 4 8 17 31 30 23 12 41 26
41 31 0 4 5 8 11 8 5 0 38 13 72 29 96 45 232 86 327 97 25 3 51 9 58 13 6 4
78 6 160 6 114 -1 170 -7 247 -25z m-1086 -436 c36 -3 83 -10 104 -15 20 -6
42 -7 47 -4 5 3 18 2 27 -3 10 -6 54 -13 98 -17 44 -4 89 -9 100 -10 11 -2 23
-4 28 -4 4 -1 7 -12 7 -25 0 -14 4 -35 9 -48 5 -13 9 -26 10 -31 1 -12 33 -71
47 -87 130 -150 249 -189 448 -145 42 9 121 51 160 85 38 34 66 102 66 161 0
21 -5 41 -11 45 -27 16 19 23 196 28 105 4 217 9 250 13 33 3 76 6 95 7 l36 1
-12 -35 c-7 -19 -22 -56 -33 -83 -11 -26 -21 -49 -21 -52 0 -3 -11 -26 -23
-53 -46 -98 -135 -199 -249 -283 -29 -21 -58 -43 -65 -49 -7 -5 -14 -10 -17
-10 -3 0 -42 -18 -86 -39 -44 -22 -80 -37 -80 -34 0 3 -7 0 -15 -7 -8 -7 -15
-10 -15 -6 0 3 -12 1 -27 -5 -16 -6 -38 -13 -50 -15 -13 -2 -35 -6 -50 -9 -78
-14 -116 -17 -206 -17 -54 0 -101 2 -104 6 -4 3 -20 6 -37 6 -17 0 -55 7 -83
14 -29 8 -53 12 -53 9 0 -3 -6 -1 -12 5 -7 6 -17 11 -23 12 -5 1 -28 9 -50 18
-22 9 -43 16 -47 14 -5 -1 -8 2 -8 7 0 5 -12 12 -26 15 -14 4 -31 11 -37 16
-7 6 -40 30 -73 54 -56 40 -184 189 -184 214 0 5 -9 21 -21 36 -11 14 -22 38
-25 53 -3 14 -8 31 -12 37 -3 6 -7 16 -8 21 -2 6 -18 56 -37 112 -19 56 -32
105 -29 108 3 3 13 3 21 0 8 -3 44 -8 80 -11z"/>
<path d="M11985 11870 c-26 -10 -68 -55 -73 -78 -27 -123 28 -225 229 -431 54
-56 251 -221 263 -221 3 0 15 -8 26 -17 11 -10 24 -18 28 -19 6 -1 40 -13 82
-31 24 -10 102 -14 146 -8 35 5 43 11 57 44 18 40 20 93 5 124 -5 10 -11 28
-14 40 -2 12 -8 23 -14 25 -5 2 -10 10 -10 18 0 8 -4 14 -10 14 -5 0 -10 7
-10 14 0 28 -338 355 -430 416 -12 8 -33 23 -45 33 -13 9 -28 17 -34 17 -6 0
-11 5 -11 10 0 6 -7 10 -15 10 -8 0 -15 4 -15 9 0 20 -123 45 -155 31z"/>
<path d="M8729 11565 c-4 -3 -19 -8 -35 -11 -31 -5 -135 -50 -144 -62 -3 -4
-35 -23 -72 -42 -38 -19 -68 -37 -68 -40 0 -3 -18 -14 -41 -24 -22 -11 -50
-29 -63 -40 -12 -12 -42 -34 -67 -51 -24 -16 -48 -36 -52 -42 -4 -7 -14 -13
-21 -13 -16 0 -192 -171 -188 -182 1 -5 -3 -8 -8 -8 -5 0 -9 -3 -8 -7 1 -5 -2
-25 -6 -45 -14 -67 15 -121 79 -146 33 -13 103 -13 111 0 3 4 9 6 13 4 4 -3
25 6 46 19 22 14 52 30 68 36 15 6 27 15 27 20 0 5 7 9 15 9 8 0 15 5 15 10 0
6 6 10 13 10 6 0 41 23 76 50 36 28 67 50 70 50 3 0 18 10 33 23 15 12 46 35
68 51 22 17 40 33 40 38 0 4 7 8 15 8 9 0 18 7 21 15 4 8 11 15 16 15 12 0
138 99 138 108 0 4 14 16 30 27 76 51 78 174 3 203 -36 14 -116 25 -124 17z"/>
<path d="M16022 10884 c-12 -8 -22 -22 -22 -30 0 -8 -4 -14 -8 -14 -5 0 -9
-16 -9 -35 0 -35 20 -65 63 -93 10 -7 33 -21 49 -32 17 -11 38 -25 49 -32 26
-18 156 -139 240 -225 78 -79 136 -149 216 -263 29 -41 56 -77 59 -80 9 -8 28
-40 58 -102 15 -32 31 -58 35 -58 5 0 8 -4 8 -9 0 -4 19 -48 42 -97 23 -49 43
-91 43 -94 1 -3 4 -12 8 -20 10 -26 40 -125 40 -130 0 -3 3 -15 8 -28 8 -20
12 -37 24 -97 7 -37 12 -70 25 -176 21 -171 -6 -461 -66 -701 -6 -28 -8 -32
-23 -88 -8 -25 -15 -52 -16 -60 -2 -8 -4 -16 -5 -17 -2 -2 -3 -6 -5 -10 -1 -5
-5 -17 -9 -28 -25 -64 -38 -101 -38 -105 0 -3 -4 -16 -9 -29 -5 -13 -11 -31
-13 -40 -2 -9 -8 -28 -14 -43 -23 -54 -34 -83 -37 -98 -4 -18 -109 -249 -168
-370 -22 -47 -40 -88 -39 -92 1 -5 -2 -8 -7 -8 -5 0 -15 -16 -22 -35 -7 -19
-16 -35 -20 -35 -7 0 -20 -30 -25 -59 -2 -8 -8 -17 -14 -21 -7 -4 -11 -10 -11
-14 1 -3 -6 -17 -14 -30 -26 -39 -30 -90 -9 -111 15 -15 29 -17 89 -12 69 5
165 34 165 49 0 4 7 8 15 8 8 0 15 5 15 10 0 6 6 10 14 10 7 0 31 19 52 43 22
24 60 66 85 95 44 48 119 164 119 182 0 5 4 10 8 12 7 3 20 24 93 154 16 28
26 54 22 58 -3 3 0 6 7 6 7 0 10 3 7 6 -4 4 0 19 7 33 8 14 24 49 37 76 12 28
33 70 45 95 26 53 103 243 108 268 1 9 6 24 9 32 18 42 55 160 50 160 -3 0 -1
6 5 13 9 11 19 47 28 102 2 11 6 31 8 45 26 141 37 239 35 315 -2 94 -35 374
-50 425 -6 19 -13 49 -16 65 -3 17 -15 56 -28 88 -13 31 -21 57 -18 57 3 0 0
7 -7 15 -7 8 -9 15 -6 15 4 0 1 10 -6 23 -6 12 -13 27 -14 33 -4 22 -86 204
-103 227 -9 12 -29 48 -46 80 -16 31 -33 57 -37 57 -4 0 -8 7 -8 15 0 8 -4 15
-10 15 -5 0 -10 7 -10 15 0 8 -4 15 -10 15 -5 0 -10 7 -10 15 0 8 -4 15 -10
15 -5 0 -10 5 -10 10 0 6 -11 23 -25 38 -14 15 -25 32 -25 39 0 7 -9 17 -20
23 -11 6 -20 16 -20 22 0 14 1 13 -152 168 -68 69 -141 139 -162 155 -20 17
-47 40 -58 52 -12 12 -25 20 -30 17 -4 -3 -8 0 -8 5 0 6 -7 11 -15 11 -8 0
-15 5 -15 10 0 6 -7 10 -15 10 -8 0 -15 4 -15 9 0 5 -10 13 -22 17 -13 4 -25
9 -28 13 -13 16 -99 55 -159 72 -82 24 -188 25 -219 3z"/>
<path d="M10885 10810 c-33 -5 -94 -11 -135 -14 -41 -4 -106 -9 -145 -12 -119
-10 -174 -12 -350 -14 -93 -1 -197 -6 -230 -10 -33 -5 -82 -12 -110 -15 -27
-3 -66 -8 -85 -10 -19 -2 -57 -7 -85 -10 -27 -3 -66 -8 -85 -11 -19 -3 -48 -7
-65 -9 -16 -2 -41 -7 -55 -10 -14 -3 -40 -7 -58 -10 -18 -2 -37 -7 -43 -10 -5
-4 -36 -7 -67 -7 -82 -1 -151 -38 -203 -108 -49 -67 -64 -165 -35 -233 16 -39
96 -113 157 -145 24 -13 55 -29 69 -37 39 -20 74 -36 90 -39 8 -2 27 -8 42
-14 15 -6 38 -13 50 -15 13 -2 31 -7 41 -10 35 -14 52 -19 77 -23 14 -3 48
-16 75 -28 28 -13 68 -29 90 -35 22 -7 47 -15 55 -18 8 -4 18 -7 23 -8 4 -2 9
-4 12 -5 3 -1 10 -4 15 -5 6 -1 12 -4 15 -5 3 -1 8 -3 13 -5 4 -1 19 -7 34
-13 15 -6 38 -13 50 -15 13 -2 30 -7 38 -10 8 -4 24 -8 35 -10 26 -4 116 -48
132 -63 7 -7 26 -15 43 -19 16 -4 30 -10 30 -14 0 -4 15 -16 34 -26 l35 -19
-7 -100 c-15 -211 -5 -546 19 -641 20 -83 20 -83 -3 -90 -13 -4 -34 -14 -48
-23 -31 -20 -231 -117 -262 -127 -33 -11 -38 -12 -40 -15 -4 -2 -12 -4 -118
-24 -88 -17 -290 -20 -321 -5 -8 4 -26 10 -40 12 -13 2 -31 7 -39 10 -8 4 -40
16 -70 27 -177 67 -248 135 -301 286 -11 32 -28 64 -37 69 -26 16 -72 24 -78
14 -3 -5 -9 -7 -14 -4 -5 3 -22 -13 -37 -36 -25 -39 -28 -51 -28 -133 0 -79 4
-100 30 -158 16 -38 33 -68 37 -68 5 0 8 -7 8 -14 0 -8 30 -45 68 -82 83 -83
96 -94 110 -94 7 0 12 -4 12 -10 0 -5 7 -10 15 -10 8 0 15 -4 15 -9 0 -9 131
-71 191 -90 48 -15 66 -19 189 -43 58 -11 109 -24 113 -28 5 -4 11 -23 13 -41
3 -19 9 -47 13 -64 8 -34 6 -243 -4 -320 -3 -27 -8 -63 -10 -80 -2 -16 -11
-70 -20 -119 -9 -48 -14 -91 -11 -94 3 -3 2 -10 -3 -16 -5 -6 -12 -38 -16 -71
-8 -84 -11 -109 -15 -117 -3 -9 -8 -44 -15 -118 -9 -85 -11 -378 -2 -445 12
-94 16 -119 27 -170 13 -60 49 -145 61 -145 5 0 9 -5 9 -10 0 -12 4 -17 87
-105 46 -49 80 -74 137 -101 42 -20 89 -37 104 -39 16 -1 33 -4 38 -8 11 -7
185 -2 224 7 14 2 39 7 57 10 18 3 43 11 55 18 13 6 28 13 34 14 44 8 214 112
262 162 12 13 22 20 22 15 0 -4 20 13 45 37 25 24 45 49 45 55 0 6 10 21 23
33 49 47 67 68 67 79 0 6 7 14 16 17 8 3 12 10 9 16 -3 5 -2 10 4 10 12 0 94
138 94 157 0 7 3 13 7 13 10 0 40 57 33 64 -3 3 -2 6 3 6 8 0 42 77 50 110 0
3 6 18 13 34 6 16 13 36 15 45 2 9 6 23 9 31 32 78 125 522 134 635 7 100 7
394 0 491 l-7 92 38 7 c111 20 281 115 407 227 220 195 303 319 286 428 -9 57
-36 99 -70 106 -14 3 -34 8 -43 11 -25 6 -109 -41 -198 -111 -41 -32 -77 -61
-80 -65 -5 -6 -78 -56 -115 -78 -11 -6 -40 -21 -65 -33 -24 -11 -47 -24 -50
-28 -6 -8 -103 -58 -107 -55 -1 1 -22 -5 -45 -13 -73 -26 -100 -32 -231 -45
-81 -8 -136 -8 -218 2 -108 11 -114 14 -111 50 2 13 13 92 18 132 10 62 9 310
0 487 -13 233 -13 265 2 263 6 -2 12 2 12 9 0 6 3 9 6 5 9 -9 193 118 258 178
59 54 84 73 104 79 10 4 27 15 37 26 10 11 24 20 32 20 7 0 13 5 13 10 0 6 7
10 15 10 8 0 15 5 15 10 0 6 7 10 15 10 8 0 15 4 15 9 0 5 12 14 28 20 15 6
43 26 62 44 19 17 54 45 77 61 40 27 60 46 152 150 41 46 71 121 71 176 0 44
-20 120 -32 120 -5 0 -8 7 -8 14 0 17 -52 58 -95 74 -103 39 -221 56 -415 58
-107 1 -222 -2 -255 -6z m-305 -2210 c19 -17 40 -30 47 -30 7 0 13 -3 13 -7 0
-22 135 -81 235 -103 77 -18 87 -20 129 -25 22 -3 41 -7 44 -9 3 -4 -1 -30
-24 -141 -3 -16 -6 -38 -6 -47 1 -10 -3 -20 -8 -23 -5 -3 -7 -12 -3 -20 3 -9
0 -22 -7 -30 -6 -8 -9 -19 -5 -25 4 -6 1 -17 -5 -25 -6 -8 -9 -19 -5 -25 4 -6
1 -17 -5 -25 -6 -8 -9 -19 -6 -24 4 -5 2 -12 -4 -16 -5 -3 -9 -16 -9 -28 1
-12 -15 -79 -34 -149 -19 -71 -34 -128 -32 -128 2 0 -3 -16 -11 -35 -8 -19
-11 -35 -8 -35 4 0 2 -6 -4 -13 -6 -7 -13 -24 -15 -37 -2 -14 -7 -32 -10 -40
-3 -8 -15 -46 -27 -85 -12 -38 -30 -88 -40 -110 -40 -86 -95 -193 -131 -255
-39 -67 -178 -227 -214 -246 -11 -6 -45 -26 -75 -44 -30 -18 -57 -32 -60 -31
-3 1 -26 -1 -52 -4 -67 -10 -133 21 -154 72 -19 43 -20 51 -35 163 -11 80 -7
378 6 490 23 190 29 280 29 430 0 153 -8 250 -25 281 -4 9 -6 19 -2 22 3 4 0
13 -7 22 -7 8 -9 15 -5 15 4 0 2 7 -5 15 -7 8 -10 15 -7 15 3 0 -1 16 -9 35
-7 19 -14 36 -14 38 0 3 19 8 43 12 52 10 51 9 112 28 68 20 195 78 195 88 0
5 5 9 11 9 14 0 139 92 139 103 0 15 26 5 60 -23z"/>
<path d="M4408 10705 c-3 -3 -16 -8 -29 -10 -13 -3 -33 -9 -44 -13 -11 -5 -31
-14 -45 -19 -56 -22 -140 -67 -140 -75 0 -4 -6 -8 -14 -8 -7 0 -25 -11 -40
-25 -15 -14 -29 -25 -32 -25 -24 0 -295 -286 -342 -360 -9 -14 -19 -27 -23
-30 -36 -28 -267 -433 -274 -480 0 -3 -9 -20 -18 -37 -10 -18 -15 -33 -11 -33
4 0 2 -6 -3 -12 -6 -7 -22 -51 -37 -98 -15 -47 -31 -99 -37 -117 -5 -18 -12
-41 -14 -51 -2 -11 -8 -36 -13 -56 -6 -20 -8 -36 -5 -36 3 0 1 -6 -5 -12 -5
-7 -13 -33 -17 -58 -4 -25 -9 -54 -12 -65 -32 -146 -36 -201 -37 -475 -1 -226
7 -385 29 -535 2 -16 7 -57 10 -90 3 -33 10 -64 16 -71 5 -6 7 -13 4 -16 -6
-6 37 -211 70 -330 3 -10 7 -28 10 -40 9 -41 38 -123 48 -135 5 -7 6 -13 2
-13 -4 0 0 -11 9 -25 9 -14 14 -25 11 -25 -2 0 4 -17 15 -37 10 -21 28 -58 39
-83 30 -66 82 -154 92 -158 5 -2 9 -10 9 -18 0 -8 7 -17 15 -20 8 -4 15 -12
15 -20 0 -7 9 -18 20 -24 11 -6 20 -17 20 -24 0 -7 24 -34 53 -60 79 -70 86
-76 97 -76 6 0 10 -3 10 -7 0 -5 10 -13 23 -19 12 -6 47 -25 77 -41 67 -36
132 -58 223 -73 79 -13 97 -5 97 41 0 21 -19 47 -82 113 -115 118 -213 248
-279 371 -32 58 -55 105 -53 105 3 0 -6 21 -20 48 -31 59 -86 255 -110 392 -3
19 -8 46 -11 60 -3 14 -7 45 -11 70 -3 25 -8 63 -10 85 -21 158 -29 337 -28
630 0 296 3 324 60 670 3 21 9 47 28 123 3 9 14 49 26 87 12 39 22 75 24 80 1
6 15 36 29 69 15 32 27 60 27 62 0 13 107 222 122 238 10 11 18 25 18 32 0 7
4 14 9 16 4 2 31 37 59 78 87 128 260 320 335 370 20 14 37 28 37 33 0 4 4 7
9 7 5 0 40 14 77 32 38 18 76 34 84 35 8 1 35 5 60 8 57 7 80 28 80 75 0 36
-30 87 -44 73 -3 -3 -6 -1 -6 5 0 18 -69 32 -161 32 -47 0 -88 -2 -91 -5z"/>
<path d="M15535 10179 c-4 -5 -10 -7 -14 -4 -11 6 -77 -58 -79 -76 -9 -77 -10
-119 -1 -124 5 -4 7 -11 4 -16 -4 -5 -1 -9 4 -9 6 0 11 -6 11 -13 0 -12 21
-28 65 -52 28 -15 96 -18 129 -5 35 13 83 60 96 95 13 34 13 92 0 100 -6 4 -8
11 -5 16 4 5 -10 25 -29 45 -20 21 -36 33 -36 28 0 -5 -4 -3 -9 4 -10 16 -128
26 -136 11z"/>
<path d="M16424 9665 c-16 -7 -40 -25 -54 -40 -22 -23 -25 -36 -25 -97 0 -67
1 -71 36 -103 49 -45 102 -53 163 -26 57 26 78 57 82 120 3 56 -18 104 -58
134 -30 22 -105 29 -144 12z"/>
<path d="M4629 9646 c-67 -46 -74 -114 -19 -176 23 -25 37 -32 72 -34 23 -1
49 2 56 7 6 5 12 7 12 3 0 -3 14 9 31 26 26 28 30 39 28 78 -3 57 -13 76 -47
94 -55 28 -94 29 -133 2z"/>
<path d="M15478 9260 c-18 -9 -39 -29 -46 -44 -7 -14 -17 -26 -21 -26 -10 0
-12 -12 -16 -92 -1 -38 2 -68 7 -68 5 0 6 -4 3 -10 -3 -5 -1 -10 4 -10 6 0 11
-6 11 -13 0 -20 40 -54 85 -72 84 -36 197 9 231 91 17 39 19 154 3 154 -5 0
-8 4 -5 8 7 12 -45 67 -80 85 -40 20 -135 19 -176 -3z"/>
<path d="M5065 8760 c-4 -6 -9 -8 -13 -6 -22 13 -72 -70 -72 -119 0 -45 37
-95 80 -110 3 -1 13 -5 23 -9 46 -21 137 35 144 88 1 11 5 33 7 48 3 16 -1 31
-9 38 -8 7 -12 16 -10 20 3 5 -10 20 -28 34 -35 27 -109 36 -122 16z"/>
<path d="M4128 8658 c-16 -7 -28 -15 -28 -20 0 -4 -6 -8 -14 -8 -14 0 -53 -50
-39 -50 5 0 2 -4 -4 -8 -14 -9 -19 -63 -10 -104 7 -35 26 -61 62 -90 35 -27
124 -34 164 -13 31 16 71 57 75 76 2 8 6 27 11 42 10 38 -11 110 -41 138 -13
12 -24 18 -24 13 0 -5 -4 -3 -9 5 -5 8 -18 16 -28 18 -53 11 -91 11 -115 1z"/>
<path d="M16270 8580 c0 -6 -6 -10 -12 -9 -29 5 -67 -22 -93 -66 -23 -40 -27
-56 -23 -100 5 -60 34 -107 80 -131 36 -19 118 -27 118 -12 0 5 6 8 14 5 24
-9 85 50 97 95 15 56 5 122 -23 157 -27 34 -74 64 -87 56 -5 -3 -12 -1 -16 5
-8 13 -55 13 -55 0z"/>
<path d="M5408 7940 c-51 -28 -69 -60 -71 -134 -1 -24 3 -41 11 -44 7 -2 10
-8 7 -12 -3 -5 11 -21 31 -37 30 -22 47 -28 91 -27 48 0 57 4 94 39 40 39 41
41 37 99 -4 53 -8 62 -41 92 -20 19 -47 34 -59 34 -13 0 -32 2 -43 5 -11 3
-37 -4 -57 -15z"/>
<path d="M15584 7915 c-45 -20 -83 -68 -96 -123 -10 -47 -9 -54 16 -106 57
-117 191 -137 279 -44 20 22 37 48 38 57 0 9 1 34 3 56 5 88 -66 162 -161 169
-27 2 -63 -2 -79 -9z"/>
<path d="M4585 7598 c-36 -21 -65 -62 -65 -92 0 -43 19 -89 45 -108 35 -26 98
-34 118 -14 8 9 20 16 24 16 17 0 41 66 38 104 -3 55 -46 93 -115 103 -14 2
-34 -2 -45 -9z"/>
<path d="M3075 7299 c-7 -30 12 -209 26 -248 12 -29 26 -41 52 -41 9 0 35 -11
57 -25 25 -16 40 -21 40 -13 0 17 -81 182 -92 186 -4 2 -6 7 -3 12 7 11 -15
60 -27 60 -5 0 -6 5 -3 10 3 6 1 10 -5 10 -6 0 -8 5 -5 10 3 6 1 10 -5 10 -6
0 -9 4 -6 9 3 4 -1 17 -9 27 -13 18 -14 18 -20 -7z"/>
<path d="M3754 6263 c4 -8 2 -13 -6 -13 -10 0 -10 -2 0 -9 8 -4 14 -12 14 -17
1 -18 21 -54 30 -54 5 0 6 -4 3 -10 -3 -5 -1 -10 5 -10 6 0 8 -5 5 -10 -3 -6
1 -13 9 -16 9 -3 13 -10 10 -15 -3 -5 2 -12 10 -15 9 -3 13 -10 11 -15 -7 -11
84 -99 102 -99 7 0 13 -4 13 -10 0 -16 -12 -12 -44 18 l-29 27 21 -31 c30 -44
78 -94 90 -94 24 0 21 23 -9 65 -18 24 -36 42 -40 39 -5 -3 -6 2 -3 10 4 10
-6 28 -27 48 -19 17 -27 28 -19 23 13 -8 13 -7 1 8 -7 9 -20 17 -27 17 -8 0
-14 5 -14 11 0 5 6 7 13 4 6 -4 -1 6 -18 20 -16 15 -23 24 -15 19 10 -5 9 0
-4 14 -10 12 -27 24 -37 27 -11 4 -19 11 -19 16 0 6 5 7 11 3 17 -10 -7 30
-27 47 -12 9 -15 9 -10 2z"/>
<path d="M9011 6240 c-17 -18 -31 -42 -32 -54 -1 -12 -3 -41 -4 -66 -2 -25 1
-63 7 -85 5 -22 9 -47 9 -55 1 -8 3 -22 6 -30 3 -8 8 -24 10 -35 3 -18 9 -38
29 -90 4 -11 8 -24 10 -30 1 -5 7 -23 14 -40 6 -16 11 -32 12 -35 0 -3 6 -16
13 -30 7 -14 27 -54 45 -90 18 -36 44 -87 58 -115 14 -27 28 -52 31 -55 4 -3
11 -16 18 -30 29 -66 235 -270 273 -270 5 0 10 -4 10 -8 0 -11 56 -43 64 -35
3 3 6 1 6 -5 0 -7 3 -11 8 -10 4 1 17 -3 30 -10 12 -7 22 -10 22 -7 0 3 11 -2
25 -11 13 -8 29 -13 35 -9 5 3 10 1 10 -5 0 -7 7 -10 15 -7 8 4 17 2 21 -4 3
-5 14 -7 25 -4 11 4 19 2 19 -5 0 -8 10 -9 30 -5 17 4 30 2 30 -3 0 -9 347 -8
410 2 19 3 49 8 65 11 17 3 39 7 50 9 44 7 90 19 100 24 5 3 18 7 30 8 11 1
43 12 70 25 28 12 52 23 55 24 31 7 90 30 108 41 12 8 22 12 22 9 0 -3 10 0
23 7 12 6 28 13 35 14 33 6 374 183 392 204 3 3 16 10 30 16 32 15 110 74 189
144 66 58 130 149 151 215 7 22 17 46 23 53 5 7 11 46 13 87 3 80 -5 99 -51
111 -26 6 -144 1 -190 -10 -47 -10 -145 -48 -151 -57 -3 -5 -11 -9 -19 -9 -8
0 -26 -5 -42 -12 -15 -6 -31 -11 -35 -10 -5 1 -8 -3 -8 -9 0 -5 -4 -7 -10 -4
-5 3 -10 1 -10 -6 0 -7 -3 -10 -6 -7 -3 4 -40 -10 -82 -29 -146 -67 -207 -94
-212 -95 -3 0 -14 -5 -25 -11 -11 -6 -22 -12 -25 -12 -19 -2 -136 -51 -142
-59 -4 -6 -8 -8 -8 -4 0 4 -37 -6 -82 -23 -46 -17 -108 -38 -138 -45 -30 -8
-64 -17 -75 -20 -11 -3 -31 -7 -45 -9 -14 -2 -38 -6 -55 -10 -125 -29 -333
-36 -430 -16 -72 16 -157 50 -168 68 -4 7 -12 13 -16 13 -11 0 -142 129 -158
155 -97 159 -153 254 -153 262 0 5 -8 18 -17 29 -10 10 -27 36 -38 58 -11 21
-38 59 -60 83 -34 38 -47 46 -86 50 -43 5 -49 3 -78 -27z"/>
</g>
</svg>
