<?xml version="1.0" standalone="no"?>
<!DOCTYPE svg PUBLIC "-//W3C//DTD SVG 20010904//EN"
 "http://www.w3.org/TR/2001/REC-SVG-20010904/DTD/svg10.dtd">
<svg version="1.0" xmlns="http://www.w3.org/2000/svg"
 width="2048.000000pt" height="2048.000000pt" viewBox="0 0 2048.000000 2048.000000"
 preserveAspectRatio="xMidYMid meet">
<metadata>
Created by potrace 1.16, written by Peter Selinger 2001-2019
</metadata>
<g transform="translate(0.000000,2048.000000) scale(0.100000,-0.100000)"
fill="#474973" stroke="none">
<path d="M16929 18786 c-2 -3 -25 -7 -51 -10 -78 -10 -122 -16 -148 -23 -28
-7 -44 -10 -80 -16 -14 -2 -45 -10 -70 -17 -55 -16 -79 -21 -107 -20 -12 0
-25 -5 -28 -10 -4 -6 -10 -8 -14 -5 -5 2 -23 0 -42 -6 -19 -5 -45 -12 -59 -14
-14 -2 -59 -13 -100 -25 -41 -12 -84 -23 -95 -25 -11 -1 -20 -3 -20 -5 0 -1
-13 -4 -30 -6 -16 -3 -63 -17 -104 -31 -41 -14 -79 -26 -85 -27 -6 -1 -17 -5
-23 -9 -7 -5 -13 -6 -13 -3 0 3 -12 1 -27 -5 -16 -6 -35 -12 -43 -13 -24 -3
-94 -28 -107 -39 -7 -5 -13 -7 -13 -4 0 4 -19 -1 -42 -9 -24 -9 -50 -17 -58
-19 -8 -2 -15 -4 -15 -5 0 -1 -7 -3 -15 -5 -23 -5 -242 -84 -275 -100 -16 -7
-42 -17 -57 -20 -16 -4 -28 -10 -28 -14 0 -4 -10 -7 -22 -8 -11 -1 -25 -8 -29
-15 -5 -7 -9 -10 -9 -5 0 4 -17 -1 -37 -12 -21 -10 -42 -20 -48 -21 -5 -1 -28
-12 -50 -23 -22 -11 -46 -22 -52 -23 -7 -1 -20 -9 -29 -18 -8 -9 -21 -16 -28
-16 -18 0 -102 -38 -118 -53 -7 -6 -41 -25 -75 -41 -35 -16 -63 -33 -63 -38 0
-4 -6 -8 -14 -8 -8 0 -22 -8 -32 -17 -10 -10 -20 -17 -23 -17 -3 1 -23 -8 -45
-20 -21 -11 -47 -25 -57 -31 -11 -5 -19 -13 -19 -17 0 -5 -7 -8 -15 -8 -8 0
-15 -4 -15 -10 0 -5 -7 -10 -15 -10 -8 0 -24 -9 -34 -19 -10 -10 -28 -22 -40
-26 -12 -3 -21 -11 -21 -16 0 -5 -7 -9 -15 -9 -8 0 -15 -4 -15 -10 0 -5 -6
-10 -14 -10 -7 0 -19 -7 -26 -15 -9 -11 -17 -12 -31 -4 -10 5 -19 6 -19 2 0
-4 -4 -3 -8 4 -10 15 -257 104 -266 96 -3 -4 -6 -2 -6 4 0 8 -54 25 -120 38
-3 0 -30 11 -62 22 -31 12 -67 24 -80 26 -12 2 -30 7 -38 10 -8 4 -26 9 -40
11 -14 3 -40 9 -58 15 -18 5 -33 10 -35 10 -1 0 -14 4 -28 9 -14 6 -39 13 -55
16 -16 2 -45 9 -64 15 -19 5 -53 13 -75 16 -49 8 -47 8 -113 28 -30 9 -57 16
-60 15 -4 -1 -18 2 -32 5 -23 6 -66 15 -100 21 -8 1 -26 5 -40 9 -14 4 -36 9
-50 11 -14 2 -38 9 -53 15 -16 6 -43 13 -60 15 -18 3 -43 8 -57 11 -14 3 -34
8 -45 10 -67 15 -78 18 -157 39 -53 15 -95 24 -128 30 -8 2 -22 6 -30 10 -8 3
-28 8 -45 10 -16 2 -41 6 -55 9 -37 9 -92 19 -117 21 -13 0 -23 4 -23 8 0 4
-8 7 -17 7 -10 0 -29 2 -43 5 -29 6 -78 14 -120 20 -16 3 -37 7 -47 10 -10 2
-47 8 -83 11 -95 9 -118 12 -128 19 -5 3 -33 8 -63 11 -30 2 -85 9 -124 14
-38 5 -108 13 -155 17 -47 3 -98 8 -115 9 -16 1 -73 6 -125 9 -52 4 -113 10
-135 13 -22 3 -60 7 -85 9 -25 1 -72 5 -105 8 -33 3 -103 8 -155 11 -52 4
-102 8 -110 10 -98 26 -1361 26 -1485 0 -11 -2 -60 -7 -110 -10 -49 -3 -112
-8 -140 -11 -27 -4 -61 -6 -74 -5 -12 0 -28 -2 -34 -6 -6 -3 -22 -7 -36 -9
-25 -2 -110 -11 -181 -19 -19 -2 -62 -6 -95 -9 -33 -4 -73 -9 -88 -12 -35 -7
-65 -12 -136 -19 -30 -4 -60 -9 -65 -13 -6 -3 -22 -7 -36 -8 -22 -2 -55 -7
-135 -20 -65 -10 -86 -13 -140 -19 -33 -4 -65 -11 -71 -16 -6 -5 -13 -6 -16
-3 -3 3 -26 0 -49 -7 -58 -16 -64 -18 -129 -25 -30 -3 -59 -8 -63 -11 -4 -2
-24 -7 -45 -9 -49 -6 -173 -33 -186 -42 -12 -7 -13 -7 -71 -17 -22 -4 -43 -9
-46 -11 -4 -2 -24 -6 -45 -10 -22 -3 -44 -10 -50 -15 -6 -5 -13 -7 -16 -4 -2
3 -31 -5 -64 -16 -32 -12 -70 -23 -84 -25 -14 -3 -32 -7 -40 -11 -8 -3 -26 -8
-40 -10 -13 -2 -30 -9 -37 -15 -7 -6 -13 -8 -13 -4 0 3 -17 -1 -38 -10 -20 -9
-44 -17 -52 -19 -8 -2 -16 -4 -17 -5 -3 -3 -3 -3 -53 -14 -19 -5 -39 -11 -45
-14 -5 -4 -18 -8 -28 -9 -10 -2 -36 -12 -57 -23 -22 -11 -40 -18 -40 -14 0 4
-7 1 -15 -6 -8 -7 -15 -10 -15 -7 0 3 -30 -6 -67 -20 -38 -14 -92 -34 -121
-44 -29 -10 -58 -22 -65 -26 -6 -4 -14 -8 -17 -9 -33 -6 -60 -18 -60 -27 0 -6
-3 -7 -7 -4 -3 4 -16 1 -27 -6 -12 -8 -42 -19 -68 -27 -27 -7 -48 -17 -48 -22
0 -5 -4 -6 -10 -3 -5 3 -10 1 -10 -4 0 -6 -3 -10 -7 -9 -9 1 -63 -21 -129 -52
-23 -11 -45 -20 -49 -20 -4 0 -19 -9 -35 -20 -15 -11 -30 -17 -34 -13 -3 3 -6
0 -6 -7 0 -7 -3 -10 -7 -7 -3 4 -48 -16 -100 -43 -51 -28 -93 -48 -93 -45 0 3
-13 -1 -30 -10 -16 -9 -30 -20 -30 -25 0 -6 -4 -9 -8 -8 -13 5 -242 -115 -268
-139 -14 -13 -29 -23 -34 -23 -5 0 -35 -21 -67 -47 -32 -25 -65 -52 -73 -58
-33 -27 -147 -143 -179 -183 -19 -23 -38 -42 -44 -42 -5 0 -57 23 -116 51
-172 83 -291 132 -291 122 0 -3 -6 -1 -13 4 -10 9 -81 36 -97 38 -3 0 -9 3
-15 6 -5 4 -23 10 -40 13 -41 9 -64 14 -107 25 -21 5 -38 7 -38 4 0 -3 -6 0
-14 6 -7 6 -26 12 -42 14 -16 2 -37 7 -47 12 -10 4 -20 5 -23 2 -4 -3 -17 -2
-29 3 -22 8 -90 17 -190 25 -97 8 -173 16 -205 21 -57 10 -547 13 -645 3 -108
-10 -162 -17 -195 -25 -14 -3 -41 -8 -60 -11 -19 -3 -46 -10 -60 -15 -14 -6
-36 -12 -50 -14 -14 -2 -26 -8 -28 -13 -2 -5 -9 -8 -17 -5 -7 3 -16 0 -20 -5
-3 -6 -10 -9 -14 -7 -4 3 -25 0 -47 -5 -21 -5 -50 -12 -64 -15 -14 -3 -27 -9
-28 -15 -2 -5 -8 -7 -13 -3 -5 3 -9 0 -9 -6 0 -6 -5 -8 -10 -5 -6 3 -13 -1
-16 -9 -3 -9 -9 -14 -13 -11 -5 2 -23 -11 -41 -30 -19 -19 -30 -35 -24 -35 5
0 2 -6 -8 -13 -25 -19 -51 -110 -45 -159 10 -94 22 -119 86 -186 33 -35 132
-112 144 -112 3 0 19 -13 37 -30 18 -16 38 -30 46 -30 8 0 14 -4 14 -9 0 -5
26 -26 58 -47 31 -22 80 -56 108 -76 28 -21 54 -38 57 -38 3 0 18 -11 33 -25
15 -14 31 -25 35 -25 4 0 20 -11 35 -25 15 -14 33 -25 40 -25 8 0 14 -4 14
-10 0 -5 6 -10 14 -10 8 0 16 -3 18 -7 5 -13 76 -63 87 -63 6 0 11 -4 11 -10
0 -5 7 -10 15 -10 8 0 15 -4 15 -10 0 -5 6 -10 14 -10 8 0 16 -7 20 -15 3 -8
10 -15 16 -15 6 0 20 -8 31 -18 10 -11 31 -25 46 -33 14 -8 39 -26 56 -41 16
-16 33 -28 38 -28 5 0 18 -8 28 -17 20 -16 20 -17 -5 -40 -14 -13 -29 -23 -34
-23 -5 0 -14 -9 -20 -20 -6 -11 -17 -20 -25 -20 -8 0 -33 -18 -56 -40 -23 -22
-46 -40 -51 -40 -9 0 -410 -397 -448 -445 -45 -55 -129 -160 -152 -189 -13
-16 -31 -37 -41 -48 -9 -10 -15 -18 -12 -18 3 0 -6 -12 -20 -27 -14 -16 -41
-50 -60 -78 -19 -27 -43 -61 -54 -75 -12 -14 -21 -31 -21 -37 0 -7 -4 -13 -9
-13 -10 0 -151 -214 -151 -230 0 -5 -4 -10 -10 -10 -5 0 -12 -11 -16 -25 -3
-14 -10 -25 -15 -25 -5 0 -9 -7 -9 -15 0 -8 -4 -15 -9 -15 -5 0 -15 -15 -22
-32 -7 -18 -21 -42 -31 -52 -10 -11 -18 -26 -18 -33 0 -7 -3 -13 -7 -13 -5 0
-13 -10 -19 -23 -18 -39 -59 -112 -65 -117 -14 -12 -38 -68 -31 -75 4 -5 2 -5
-5 -2 -7 5 -19 -13 -34 -48 -12 -30 -27 -55 -31 -55 -5 0 -6 -4 -3 -10 3 -5 2
-10 -2 -10 -5 0 -26 -37 -48 -82 -22 -46 -46 -89 -53 -96 -6 -8 -10 -18 -7
-23 4 -5 1 -9 -5 -9 -6 0 -9 -4 -5 -9 3 -5 0 -15 -7 -23 -7 -7 -31 -51 -52
-98 -22 -47 -50 -106 -62 -131 -13 -25 -21 -49 -17 -53 3 -3 1 -6 -5 -6 -7 0
-11 -3 -10 -7 1 -5 -3 -18 -10 -29 -6 -12 -8 -24 -5 -28 3 -3 0 -6 -7 -6 -7 0
-11 -3 -7 -6 3 -4 -5 -28 -19 -55 -13 -27 -21 -49 -17 -49 5 0 3 -4 -3 -8 -8
-5 -39 -82 -49 -122 -1 -3 -7 -18 -14 -35 -7 -16 -14 -34 -16 -40 -1 -5 -7
-21 -12 -35 -6 -14 -9 -28 -6 -32 2 -5 -1 -8 -6 -8 -6 0 -11 -7 -11 -15 0 -8
-13 -53 -29 -100 -17 -47 -28 -85 -25 -85 3 0 0 -8 -5 -17 -5 -10 -12 -34 -15
-53 -7 -36 -9 -44 -18 -70 -11 -29 -31 -105 -34 -125 -1 -11 -3 -20 -4 -20 -2
0 -4 -9 -6 -20 -2 -11 -6 -33 -9 -50 -4 -16 -7 -37 -9 -45 -1 -8 -5 -24 -9
-35 -3 -11 -8 -41 -11 -66 -3 -25 -9 -57 -15 -70 -5 -14 -12 -50 -16 -80 -4
-30 -9 -65 -11 -79 -2 -14 -6 -43 -8 -65 -3 -22 -8 -56 -11 -75 -2 -19 -7 -62
-11 -95 -8 -85 -12 -112 -18 -132 -6 -21 -34 -244 -42 -336 -2 -34 -7 -84 -10
-112 -2 -27 -7 -70 -9 -95 -2 -25 -7 -74 -10 -110 -19 -192 -25 -308 -27 -525
-3 -224 7 -529 18 -546 2 -4 6 -34 9 -66 3 -51 7 -86 20 -208 1 -16 6 -59 9
-95 4 -36 11 -92 17 -125 5 -33 12 -80 15 -104 2 -24 7 -48 10 -53 3 -5 7 -23
9 -41 2 -18 7 -48 10 -67 4 -19 8 -46 10 -60 9 -55 14 -86 19 -110 3 -14 8
-45 11 -70 4 -25 11 -50 17 -57 6 -7 8 -13 6 -13 -5 0 12 -92 27 -150 7 -27
10 -45 20 -100 4 -19 15 -64 26 -100 21 -66 26 -85 35 -129 3 -13 9 -32 14
-41 5 -10 7 -20 5 -22 -3 -3 2 -22 11 -44 9 -21 25 -72 36 -113 10 -41 24 -84
31 -95 6 -12 12 -29 14 -39 2 -10 9 -28 15 -40 7 -12 13 -25 14 -29 1 -5 2 -9
4 -10 1 -2 3 -10 5 -18 7 -34 39 -118 61 -162 14 -27 22 -48 19 -48 -3 0 0
-10 7 -22 7 -13 13 -25 13 -28 9 -37 19 -60 26 -60 5 0 8 -3 7 -8 -4 -12 46
-132 55 -132 5 0 6 -4 2 -9 -3 -5 2 -17 11 -25 9 -9 17 -22 18 -29 5 -28 39
-107 47 -107 5 0 8 -3 7 -8 -3 -10 63 -136 76 -144 6 -5 7 -8 1 -8 -5 0 -1 -7
9 -15 11 -8 16 -15 10 -15 -5 0 -4 -4 1 -8 6 -4 19 -26 29 -49 11 -24 22 -43
26 -43 5 0 11 -11 14 -25 4 -14 11 -25 16 -25 6 0 10 -6 10 -13 0 -8 13 -32
29 -55 17 -22 44 -65 61 -96 18 -31 36 -56 41 -56 5 0 9 -7 9 -15 0 -8 5 -15
10 -15 6 0 10 -5 10 -11 0 -12 71 -119 95 -143 9 -8 16 -19 16 -23 1 -8 21
-34 80 -106 14 -18 32 -41 40 -53 14 -20 77 -96 149 -177 148 -167 462 -484
606 -612 185 -164 296 -255 312 -255 5 0 12 -7 16 -15 3 -8 11 -15 18 -15 7 0
19 -9 26 -20 7 -12 17 -18 21 -15 5 3 11 1 13 -3 5 -13 114 -92 126 -92 7 0
12 -4 12 -10 0 -5 6 -10 14 -10 8 0 16 -7 20 -15 3 -8 12 -15 20 -15 8 0 16
-4 18 -8 5 -13 151 -112 164 -112 6 0 14 -7 18 -15 3 -8 12 -15 21 -15 8 0 15
-4 15 -10 0 -5 6 -10 14 -10 8 0 16 -3 18 -8 5 -12 142 -102 154 -102 7 0 14
-7 18 -15 3 -8 12 -15 21 -15 8 0 15 -4 15 -10 0 -5 7 -10 15 -10 8 0 15 -4
15 -10 0 -5 5 -10 11 -10 6 0 25 -11 43 -25 18 -14 36 -22 39 -18 4 3 7 2 7
-4 0 -9 35 -30 54 -31 5 0 12 -5 15 -10 8 -13 164 -103 316 -182 66 -34 139
-73 163 -87 23 -14 42 -21 42 -16 0 4 4 4 8 -2 11 -15 152 -88 152 -78 0 4 4
4 8 -2 9 -13 152 -88 152 -80 0 3 10 -1 22 -9 12 -9 30 -16 40 -16 10 0 18 -4
18 -9 0 -9 137 -74 158 -74 6 0 12 -4 12 -8 0 -4 35 -22 77 -39 43 -18 83 -36
88 -39 6 -4 37 -18 70 -30 33 -13 81 -34 106 -47 25 -13 55 -25 65 -27 10 -2
28 -8 39 -14 19 -10 69 -24 80 -23 3 0 13 -6 21 -15 14 -13 38 -20 47 -12 2 1
10 -3 18 -9 18 -15 103 -43 137 -46 6 -1 12 -4 12 -8 0 -6 65 -29 103 -36 4
-1 9 -3 12 -4 3 -1 8 -3 13 -4 4 -2 27 -8 52 -16 25 -7 51 -13 58 -13 6 0 12
-4 12 -8 0 -5 17 -11 37 -16 46 -9 45 -8 63 -16 8 -4 26 -9 40 -11 14 -3 68
-17 120 -32 52 -15 102 -28 110 -28 9 -1 21 -6 28 -10 7 -4 16 -5 19 -2 3 3
12 1 19 -4 6 -6 16 -10 20 -9 5 2 27 -3 48 -9 22 -6 43 -9 47 -6 4 2 10 0 13
-5 5 -8 116 -37 186 -48 14 -2 34 -6 45 -8 11 -3 34 -7 50 -10 55 -9 60 -11
71 -18 6 -3 29 -9 50 -12 62 -10 68 -11 89 -18 11 -4 36 -9 55 -11 42 -6 133
-21 170 -29 8 -1 20 -6 26 -10 6 -3 29 -9 50 -12 62 -10 68 -11 89 -18 11 -4
36 -8 55 -11 19 -2 42 -7 50 -10 8 -3 33 -7 55 -10 22 -2 52 -9 67 -15 14 -5
46 -13 70 -16 50 -7 64 -10 98 -18 28 -7 82 -17 120 -22 43 -6 93 -16 100 -20
4 -3 25 -7 46 -10 22 -4 50 -9 64 -11 14 -3 34 -7 45 -8 11 -1 27 -5 35 -8 8
-4 22 -6 30 -7 14 0 58 -6 120 -16 14 -2 39 -6 55 -8 17 -3 48 -10 70 -15 22
-6 64 -13 93 -16 29 -3 56 -8 61 -10 6 -4 29 -8 151 -22 19 -3 51 -7 70 -9 19
-3 53 -7 75 -10 22 -3 60 -9 85 -14 25 -5 73 -12 108 -15 35 -3 67 -8 72 -11
5 -3 42 -8 82 -11 40 -3 91 -8 113 -10 63 -8 126 -15 180 -19 28 -3 77 -9 110
-15 33 -5 96 -12 140 -15 44 -3 109 -10 145 -15 36 -6 90 -10 120 -10 30 -1
100 -3 155 -6 259 -12 399 -15 770 -15 220 0 459 3 530 5 72 3 167 5 212 5 46
0 89 3 95 8 7 4 51 8 98 9 86 1 400 29 455 40 17 4 46 8 65 10 85 6 245 26
307 38 65 12 98 18 113 18 8 0 33 5 55 11 55 14 104 24 165 32 14 2 36 6 50
10 14 3 43 8 65 11 21 3 44 8 50 12 5 4 15 7 20 7 14 0 116 25 135 32 8 3 20
7 25 7 31 3 165 40 165 45 0 4 12 8 26 9 15 1 32 6 38 11 6 5 14 9 19 9 17 0
81 14 106 24 14 6 35 13 46 15 10 2 22 8 26 14 3 6 9 10 13 10 3 -1 7 -1 9 0
1 0 15 3 32 5 16 3 35 10 42 16 7 6 13 7 13 3 0 -4 7 -2 15 5 8 7 15 10 15 6
0 -9 84 26 92 38 4 6 8 8 8 4 0 -6 57 10 100 29 8 3 18 7 23 8 4 2 8 3 10 5 1
1 10 3 20 5 9 2 36 12 60 23 23 11 71 30 107 42 36 12 73 29 83 37 9 9 17 13
17 9 0 -3 18 3 40 14 22 11 40 18 40 14 0 -3 11 1 25 10 14 9 25 14 25 10 0
-3 20 6 45 20 25 15 45 25 45 22 0 -7 122 44 140 58 8 6 32 18 52 25 21 7 76
30 123 52 46 22 87 40 90 39 3 0 38 17 77 37 40 21 76 36 81 35 4 -1 7 3 7 10
0 6 3 9 6 5 7 -7 227 101 232 114 2 5 11 9 20 9 19 0 144 68 154 84 4 6 8 8 8
3 0 -11 100 42 100 53 0 6 9 10 20 10 11 0 20 4 20 8 0 4 16 14 35 21 20 7 47
23 62 37 14 13 31 24 38 24 11 0 134 76 162 100 7 5 17 10 22 10 6 0 14 6 18
12 9 15 41 36 66 44 9 4 17 10 17 15 0 5 6 9 14 9 8 0 24 11 37 25 13 13 30
25 37 25 6 0 12 5 12 10 0 6 6 10 14 10 8 0 21 8 28 18 7 9 24 23 38 30 24 12
199 150 232 182 9 8 35 31 58 50 60 50 181 164 248 233 46 49 101 96 200 172
7 5 22 18 33 27 10 10 22 18 27 18 4 0 22 14 40 30 18 17 36 30 40 30 3 0 15
9 27 20 11 11 56 48 100 82 44 35 143 126 220 203 149 150 190 195 336 375 12
14 38 45 60 70 21 25 39 50 39 57 0 6 4 13 10 15 5 1 34 37 64 78 30 41 64 84
75 96 12 12 21 26 21 33 0 6 5 11 10 11 6 0 10 5 10 11 0 6 6 17 13 24 29 33
37 45 37 55 0 5 5 10 10 10 6 0 10 5 10 10 0 6 11 23 24 37 14 15 33 42 43 62
10 20 21 38 26 39 4 2 7 10 7 18 0 8 4 14 8 14 5 0 17 17 28 38 10 20 29 51
42 68 12 17 22 36 22 42 0 7 3 12 8 12 4 0 27 39 52 88 24 48 47 89 51 92 10
8 159 310 153 310 -3 0 8 25 25 55 17 30 29 55 26 55 -2 0 7 21 20 46 13 25
27 61 31 80 3 19 10 34 16 34 5 0 6 4 3 10 -3 6 -2 10 3 10 5 0 15 21 22 48 7
26 17 53 23 60 5 6 7 12 3 12 -4 0 2 17 13 38 17 34 58 149 65 185 2 6 7 21
11 32 4 11 14 35 22 54 7 19 11 36 9 38 -2 3 2 20 10 39 8 19 14 37 14 41 1
13 22 86 36 126 8 21 12 42 9 47 -3 5 -1 11 4 14 5 4 12 25 16 49 8 46 12 65
21 100 3 12 7 31 9 42 6 30 11 48 18 65 6 14 15 53 21 90 1 8 6 29 9 45 11 47
17 77 22 110 7 40 10 53 23 100 6 22 14 60 17 84 3 23 7 46 9 50 2 3 7 31 11
61 9 70 12 94 20 155 4 28 8 64 10 80 2 17 8 57 14 90 6 33 13 101 16 150 3
50 10 149 16 220 11 135 8 709 -4 870 -4 50 -10 135 -12 189 -3 55 -10 132
-16 170 -11 77 -18 136 -24 206 -2 25 -6 63 -8 85 -3 22 -8 69 -11 104 -4 35
-9 67 -11 71 -3 4 -7 36 -11 71 -3 35 -10 82 -16 104 -6 22 -12 54 -14 70 -1
17 -5 48 -8 70 -4 22 -8 58 -11 80 -3 22 -10 67 -15 100 -6 33 -12 80 -15 105
-3 25 -8 52 -11 60 -6 14 -9 27 -19 95 -3 17 -7 41 -9 55 -2 14 -6 42 -10 63
-17 115 -39 234 -47 248 -4 9 -11 34 -14 55 -3 22 -7 48 -9 59 -3 11 -7 38
-11 60 -9 64 -37 169 -47 183 -6 6 -8 12 -5 12 3 0 1 15 -4 33 -13 43 -19 66
-25 102 -5 27 -36 129 -51 165 -3 8 -7 20 -8 26 -8 37 -39 134 -53 164 -8 19
-16 37 -17 40 -1 3 -4 12 -8 20 -3 8 -15 45 -27 83 -12 37 -27 67 -32 67 -6 0
-9 3 -5 6 3 4 0 19 -9 35 -8 16 -12 29 -10 29 6 0 -40 113 -62 155 -9 17 -16
32 -17 35 -2 17 -49 120 -54 120 -4 0 -8 6 -8 13 0 16 -114 249 -126 258 -5 3
-7 9 -5 12 1 4 -4 15 -13 25 -9 10 -26 42 -39 70 -13 29 -28 52 -32 52 -5 0
-7 4 -4 8 3 5 -4 18 -14 30 -11 12 -20 25 -20 31 0 5 -15 31 -33 59 -19 27
-37 57 -40 66 -4 9 -11 16 -17 16 -6 0 -8 5 -5 10 3 6 -1 13 -9 16 -9 3 -13
10 -11 15 3 4 -3 14 -15 21 -11 7 -20 18 -20 25 0 12 -96 145 -129 179 -12 12
-21 24 -21 28 0 8 -217 289 -254 329 -14 15 -26 32 -26 37 0 5 -11 17 -25 28
-14 11 -25 25 -25 31 0 6 -13 20 -30 33 -16 12 -30 27 -30 32 0 21 -347 406
-366 406 0 0 -23 21 -51 48 -44 43 -133 121 -158 140 -5 4 -33 26 -61 50 -27
23 -55 42 -60 42 -5 0 -15 9 -22 20 -7 11 -19 20 -27 20 -8 0 -15 4 -15 9 0 5
-17 20 -37 32 -21 13 -42 29 -46 36 -4 7 -12 13 -17 13 -6 0 -19 8 -29 18 -10
9 -54 43 -97 74 -44 31 -110 80 -149 109 -38 28 -76 54 -83 57 -8 2 -28 18
-45 33 -17 16 -37 29 -43 29 -7 0 -14 7 -18 15 -3 8 -12 15 -20 15 -7 0 -16 6
-19 14 -3 8 -24 24 -47 37 -43 24 -43 23 -28 90 2 8 5 16 8 19 7 6 33 93 30
99 -1 2 2 7 7 10 9 6 54 105 57 126 1 5 13 35 28 65 93 198 113 236 122 242 7
5 7 8 1 8 -7 0 -7 3 0 8 13 9 41 56 67 112 11 25 25 47 29 48 5 2 9 10 9 18 0
8 5 14 10 14 6 0 13 8 17 18 3 9 21 38 40 65 18 26 33 52 33 57 0 6 5 10 10
10 6 0 10 7 10 15 0 8 5 15 10 15 6 0 10 6 10 13 0 7 9 18 20 25 11 7 20 16
20 21 0 5 9 20 20 33 58 68 160 205 160 216 0 6 4 12 9 12 5 0 18 22 29 49 32
72 26 188 -12 258 -26 48 -101 121 -118 115 -5 -1 -8 3 -8 10 0 6 -3 8 -7 5
-3 -4 -13 -2 -20 5 -14 11 -204 23 -214 14z m-590 -733 c-8 -10 -18 -24 -24
-31 -5 -8 -21 -26 -35 -40 -13 -15 -50 -65 -82 -112 -32 -47 -71 -101 -88
-120 -61 -69 -111 -132 -125 -160 -8 -15 -18 -30 -23 -32 -11 -4 -82 -115 -82
-127 0 -5 -6 -16 -13 -23 -10 -10 -68 -137 -73 -158 0 -3 -8 -22 -17 -42 -10
-21 -17 -41 -17 -44 0 -4 -11 -35 -24 -68 -18 -45 -24 -76 -22 -121 4 -88 4
-90 24 -111 10 -10 21 -27 25 -37 4 -9 15 -20 24 -24 10 -3 42 -21 71 -40 29
-18 57 -33 62 -33 6 0 10 -4 10 -10 0 -5 6 -10 13 -10 8 0 19 -11 25 -24 10
-22 137 -116 156 -116 4 0 14 -6 21 -12 7 -7 37 -29 65 -48 28 -19 72 -52 98
-72 26 -21 52 -38 59 -38 7 0 13 -5 13 -10 0 -6 8 -14 17 -17 9 -4 24 -14 33
-22 9 -9 49 -38 89 -66 40 -27 87 -62 106 -77 18 -16 38 -28 44 -28 6 0 11 -4
11 -10 0 -5 6 -10 14 -10 8 0 16 -7 20 -15 3 -8 12 -15 20 -15 8 0 16 -3 18
-7 5 -14 96 -83 107 -83 6 0 11 -4 11 -10 0 -5 12 -16 28 -24 15 -8 41 -26 57
-41 17 -14 40 -33 53 -43 13 -9 31 -24 40 -32 168 -148 225 -202 266 -249 27
-31 54 -55 59 -53 4 1 6 -2 3 -7 -4 -5 4 -18 16 -28 13 -10 30 -29 39 -43 9
-14 38 -48 65 -77 27 -28 56 -61 64 -74 8 -13 27 -36 43 -52 15 -16 27 -32 27
-35 0 -4 15 -23 33 -44 31 -35 54 -63 99 -123 43 -56 53 -68 76 -90 12 -12 22
-27 22 -32 0 -5 16 -26 35 -47 19 -21 35 -42 35 -47 0 -5 5 -9 10 -9 6 0 10
-7 10 -15 0 -8 5 -15 10 -15 6 0 10 -5 10 -11 0 -11 32 -55 65 -90 8 -9 15
-20 15 -25 0 -5 11 -21 25 -36 14 -15 25 -31 25 -35 0 -7 75 -129 97 -158 5
-6 23 -40 42 -75 19 -36 39 -68 44 -71 5 -3 8 -9 7 -13 -1 -4 15 -39 36 -79
21 -40 39 -78 40 -84 1 -7 12 -24 23 -39 12 -15 21 -33 21 -42 0 -8 20 -57 44
-108 24 -51 42 -95 38 -98 -3 -3 0 -6 6 -6 7 0 11 -3 10 -7 -4 -13 35 -113 44
-113 4 0 7 -3 7 -7 -1 -5 0 -10 1 -13 1 -3 3 -12 5 -20 2 -8 7 -26 13 -40 5
-14 11 -29 12 -35 1 -5 6 -16 12 -22 6 -7 8 -13 5 -13 -3 0 5 -25 18 -55 14
-30 22 -55 19 -55 -3 0 -2 -6 3 -12 4 -7 8 -17 9 -23 5 -34 38 -135 44 -135 4
0 7 -6 8 -12 1 -20 12 -69 24 -113 7 -22 12 -43 12 -47 1 -3 4 -9 8 -13 4 -4
4 -13 2 -20 -3 -7 0 -16 5 -20 6 -3 9 -10 6 -15 -3 -5 0 -21 6 -37 6 -15 11
-30 12 -33 8 -37 18 -91 22 -115 3 -16 8 -41 12 -55 3 -14 7 -38 9 -53 2 -16
11 -57 19 -90 15 -61 20 -85 31 -149 11 -69 13 -84 18 -123 3 -22 8 -56 12
-75 10 -50 12 -60 19 -105 3 -22 8 -48 11 -58 3 -10 8 -35 11 -55 2 -20 6 -48
8 -62 3 -14 7 -50 10 -80 3 -30 8 -68 12 -85 9 -42 10 -51 18 -125 4 -36 9
-69 13 -74 3 -6 7 -22 9 -36 1 -14 5 -47 8 -75 7 -58 12 -102 19 -165 2 -25 7
-70 11 -100 12 -110 14 -137 20 -230 3 -52 8 -111 10 -130 21 -149 20 -851 -1
-1030 -2 -19 -11 -105 -20 -190 -17 -160 -19 -178 -28 -245 -12 -79 -14 -91
-25 -130 -5 -22 -13 -58 -16 -80 -10 -62 -11 -69 -18 -90 -4 -11 -9 -36 -11
-55 -10 -68 -15 -95 -25 -127 -5 -18 -7 -33 -4 -33 3 0 1 -6 -5 -12 -9 -12
-24 -65 -27 -98 0 -9 -5 -21 -9 -28 -4 -7 -5 -16 -2 -19 3 -3 1 -12 -4 -19 -6
-6 -10 -16 -9 -20 2 -5 -3 -27 -9 -49 -6 -22 -13 -51 -16 -65 -2 -14 -5 -26
-7 -27 -1 -2 -2 -6 -4 -10 -1 -5 -6 -19 -12 -33 -6 -14 -14 -43 -18 -65 -5
-22 -9 -42 -10 -45 -4 -12 -13 -37 -24 -70 -10 -28 -49 -149 -61 -188 -4 -12
-17 -45 -33 -84 -8 -20 -13 -39 -9 -42 3 -3 1 -6 -5 -6 -6 0 -14 -15 -18 -32
-10 -43 -9 -40 -23 -64 -6 -12 -8 -24 -5 -28 3 -3 2 -6 -3 -6 -8 0 -33 -52
-39 -80 -1 -3 -20 -45 -43 -93 -24 -49 -43 -94 -45 -100 -1 -7 -4 -14 -8 -17
-5 -5 -59 -108 -131 -250 -18 -36 -36 -67 -39 -70 -10 -9 -119 -193 -119 -202
0 -4 -4 -8 -10 -8 -5 0 -10 -5 -10 -10 0 -6 -9 -20 -20 -32 -11 -12 -20 -28
-20 -35 0 -7 -4 -13 -10 -13 -5 0 -10 -6 -10 -14 0 -8 -3 -16 -7 -18 -14 -5
-93 -114 -93 -126 0 -7 -4 -12 -10 -12 -5 0 -23 -20 -39 -44 -17 -25 -37 -50
-44 -58 -32 -33 -147 -188 -147 -197 0 -6 -4 -11 -9 -11 -7 0 -47 -53 -96
-128 -14 -21 -45 -58 -80 -96 -35 -38 -59 -67 -99 -121 -30 -41 -137 -154
-234 -248 -30 -29 -66 -64 -81 -79 -16 -16 -32 -28 -38 -28 -5 0 -25 -15 -45
-32 -20 -18 -55 -44 -78 -57 -48 -26 -123 -79 -158 -110 -12 -12 -25 -21 -27
-21 -8 0 -97 -64 -129 -92 -17 -16 -36 -28 -43 -28 -7 0 -13 -4 -13 -8 0 -4
-20 -21 -44 -36 -24 -15 -52 -35 -62 -45 -18 -16 -102 -81 -166 -127 -16 -12
-43 -34 -61 -50 -18 -16 -45 -36 -61 -44 -16 -8 -31 -21 -33 -28 -3 -7 -20
-19 -37 -27 -17 -8 -49 -26 -71 -40 -22 -14 -54 -31 -70 -39 -17 -8 -39 -24
-49 -35 -11 -12 -47 -37 -81 -56 -34 -19 -68 -41 -75 -50 -7 -8 -16 -12 -21
-9 -5 3 -9 0 -9 -5 0 -6 -6 -11 -14 -11 -8 0 -46 -18 -85 -40 -39 -22 -73 -40
-77 -40 -3 0 -19 -9 -35 -21 -16 -11 -29 -18 -29 -15 0 3 -62 -26 -137 -65
-76 -38 -139 -69 -141 -68 -8 3 -62 -25 -62 -32 0 -5 -3 -8 -7 -7 -14 4 -83
-26 -83 -35 0 -4 -4 -5 -10 -2 -5 3 -10 1 -10 -6 0 -7 -3 -10 -6 -6 -4 3 -30
-6 -58 -20 -28 -15 -53 -28 -56 -28 -43 -11 -60 -19 -60 -27 0 -5 -4 -6 -10
-3 -5 3 -10 1 -10 -6 0 -7 -3 -9 -7 -6 -3 4 -15 -1 -26 -10 -10 -10 -20 -16
-21 -13 -3 9 -188 -71 -198 -85 -5 -6 -8 -6 -8 0 0 5 -5 4 -12 -3 -7 -7 -19
-12 -27 -12 -9 0 -41 -12 -71 -27 -30 -14 -60 -27 -66 -28 -13 -3 -188 -71
-224 -87 -14 -7 -28 -12 -32 -14 -5 -1 -9 -2 -10 -4 -2 -1 -10 -3 -18 -5 -8
-1 -33 -11 -55 -20 -22 -10 -44 -19 -50 -20 -45 -11 -99 -28 -129 -40 -20 -8
-39 -16 -43 -17 -5 0 -33 -10 -63 -20 -30 -11 -62 -21 -70 -23 -8 -2 -16 -4
-17 -4 -2 -1 -6 -2 -10 -3 -5 -1 -35 -10 -68 -20 -70 -23 -239 -67 -320 -84
-16 -3 -36 -11 -42 -16 -7 -6 -13 -8 -13 -6 0 5 -16 2 -110 -18 -14 -2 -32 -6
-40 -8 -8 -2 -42 -6 -75 -11 -33 -4 -64 -10 -69 -13 -5 -3 -27 -7 -49 -9 -21
-2 -44 -6 -51 -10 -12 -8 -20 -10 -91 -18 -27 -3 -63 -7 -80 -10 -16 -2 -61
-6 -100 -10 -38 -3 -77 -8 -85 -10 -14 -4 -128 -16 -160 -17 -8 0 -51 -5 -95
-10 -44 -5 -96 -11 -115 -13 -57 -6 -399 -24 -560 -30 -133 -4 -739 -5 -885 0
-203 6 -430 19 -555 32 -36 4 -84 7 -107 7 -24 1 -43 5 -43 9 0 4 -15 7 -32 6
-18 0 -73 4 -121 10 -49 6 -119 14 -155 17 -37 3 -78 7 -92 9 -14 2 -54 6 -90
10 -36 4 -76 9 -90 11 -14 2 -81 13 -150 24 -108 17 -185 27 -265 34 -11 1
-40 6 -65 10 -25 4 -56 8 -70 10 -14 1 -30 5 -36 8 -5 4 -59 14 -119 23 -61 8
-117 18 -125 20 -8 2 -40 7 -70 11 -85 10 -91 11 -155 27 -33 9 -78 18 -100
21 -22 2 -47 7 -55 9 -8 3 -35 9 -60 12 -25 4 -58 9 -75 12 -16 2 -37 5 -45 5
-8 1 -20 4 -26 9 -5 5 -28 11 -50 14 -58 9 -65 11 -109 23 -22 6 -60 14 -85
17 -54 7 -75 11 -115 20 -16 4 -37 8 -45 9 -8 2 -22 6 -30 9 -20 7 -157 36
-195 41 -16 2 -41 6 -55 9 -62 15 -208 46 -240 52 -19 3 -42 7 -50 9 -8 1 -26
5 -40 9 -14 4 -38 9 -53 11 -16 3 -43 10 -60 15 -18 6 -43 12 -57 15 -50 10
-88 20 -110 29 -8 4 -28 9 -45 11 -16 2 -37 6 -45 9 -28 9 -135 38 -150 40 -8
2 -21 6 -27 10 -7 5 -17 6 -22 2 -5 -3 -12 -1 -15 4 -3 4 -25 12 -48 16 -24 4
-47 9 -53 11 -34 12 -432 146 -440 148 -5 2 -32 13 -59 26 -27 12 -54 23 -60
24 -6 1 -21 8 -34 14 -12 7 -22 10 -22 7 0 -3 -27 8 -60 25 -33 17 -60 27 -60
23 0 -5 -4 -3 -8 3 -7 10 -104 50 -111 45 -2 -2 -7 2 -11 9 -4 6 -13 12 -21
14 -8 1 -33 12 -55 24 -23 11 -44 18 -48 15 -3 -4 -6 -1 -6 5 0 6 -7 9 -15 6
-8 -4 -15 -2 -15 4 0 10 -106 65 -127 65 -7 0 -13 4 -13 9 0 5 -5 6 -10 3 -6
-3 -10 -1 -10 5 0 6 -4 8 -10 5 -5 -3 -10 -1 -10 5 0 6 -4 8 -10 5 -5 -3 -10
-1 -10 5 0 6 -4 8 -10 5 -5 -3 -10 -1 -10 5 0 6 -4 8 -10 5 -5 -3 -10 -1 -10
6 0 7 -3 9 -6 6 -7 -7 -52 15 -93 45 -13 10 -27 15 -32 12 -5 -3 -9 0 -9 6 0
6 -4 8 -10 5 -5 -3 -10 -1 -10 4 0 6 -6 11 -13 11 -16 0 -79 30 -87 40 -10 14
-88 49 -94 43 -3 -4 -6 -1 -6 6 0 7 -4 9 -10 6 -5 -3 -10 -2 -10 3 0 6 -20 18
-45 29 -25 10 -45 21 -45 26 0 4 -9 7 -20 7 -11 0 -20 5 -20 12 0 6 -3 9 -6 5
-3 -3 -14 2 -25 11 -10 9 -53 35 -96 57 -43 21 -84 45 -91 52 -7 7 -18 13 -23
13 -6 0 -39 20 -76 45 -36 25 -72 45 -79 45 -8 0 -14 5 -14 10 0 6 -4 10 -10
10 -5 0 -18 7 -27 15 -10 9 -54 39 -98 69 -44 29 -137 92 -207 139 -70 48
-132 87 -138 87 -5 0 -10 4 -10 9 0 4 -21 22 -48 39 -74 49 -84 56 -101 70
-65 53 -107 84 -125 94 -12 6 -27 19 -34 30 -7 10 -20 18 -28 18 -8 0 -14 4
-14 9 0 4 -25 28 -56 52 -64 51 -94 80 -310 290 -138 136 -264 268 -394 412
-19 22 -43 47 -52 55 -10 9 -18 22 -18 29 0 7 -11 20 -25 29 -14 9 -25 21 -25
28 0 6 -17 32 -37 58 -21 26 -54 70 -73 98 -19 28 -41 58 -47 65 -7 7 -13 18
-13 24 0 6 -4 11 -10 11 -5 0 -10 7 -10 15 0 9 -7 18 -15 21 -8 4 -15 11 -15
16 0 13 -67 123 -86 143 -9 8 -12 15 -7 15 4 0 4 4 -2 8 -10 7 -26 32 -71 117
-15 28 -31 52 -35 53 -5 2 -7 7 -5 11 3 4 -6 20 -20 36 -13 15 -24 34 -24 42
0 17 -39 96 -52 104 -4 3 -10 14 -12 25 -2 10 -21 55 -41 99 -48 105 -57 127
-61 147 -2 9 -17 45 -33 80 -34 74 -43 96 -48 122 -2 10 -13 40 -25 65 -11 25
-22 51 -23 56 -8 31 -48 162 -53 170 -4 6 -7 15 -8 20 -1 6 -9 29 -18 53 -8
23 -13 42 -10 42 3 0 2 6 -3 13 -4 6 -9 23 -11 37 -5 39 -39 155 -51 179 -7
12 -10 21 -7 21 2 0 0 17 -5 38 -5 20 -12 53 -15 72 -3 19 -10 53 -15 75 -5
22 -12 55 -15 74 -2 19 -8 39 -11 45 -8 13 -10 22 -18 91 -3 28 -8 58 -11 68
-3 10 -7 31 -10 47 -4 31 -12 76 -19 120 -3 14 -7 50 -11 80 -3 30 -10 60 -15
66 -5 6 -7 13 -4 16 3 3 0 38 -6 79 -11 79 -18 149 -19 189 0 14 -5 57 -10 95
-18 126 -23 236 -24 470 -1 215 10 515 21 595 2 19 6 58 9 85 5 61 11 124 24
235 5 46 7 86 5 88 -2 3 0 12 4 21 5 9 12 44 15 78 3 34 8 72 10 85 3 12 8 50
12 83 6 62 11 105 18 165 7 65 18 135 31 195 7 33 13 67 14 75 1 19 6 47 14
80 4 14 8 39 11 55 2 17 10 54 16 83 7 30 13 59 14 65 2 7 6 19 9 27 8 19 56
199 60 226 1 10 6 24 10 31 4 6 23 58 42 115 51 152 78 227 104 283 12 28 30
68 38 90 8 22 24 59 34 82 10 23 20 48 21 55 2 7 6 15 10 18 9 7 81 163 80
173 -1 4 3 7 9 7 5 0 7 5 4 10 -3 6 -1 10 5 10 6 0 9 4 6 9 -4 5 -3 11 1 13 7
3 61 102 140 258 15 30 31 57 34 60 4 3 9 15 13 28 4 12 12 22 17 22 6 0 7 5
4 10 -3 6 -2 10 3 10 5 0 16 15 23 33 7 17 20 40 29 49 8 9 31 47 50 84 19 37
45 78 57 92 12 13 25 34 29 46 4 11 10 23 14 26 13 10 80 115 80 126 0 7 7 14
15 18 8 3 15 12 15 21 0 8 5 15 10 15 6 0 10 7 10 15 0 8 5 15 10 15 6 0 10 6
10 14 0 8 7 16 15 20 8 3 15 12 15 20 0 8 4 16 8 18 4 2 37 41 72 88 93 124
158 203 225 274 123 130 270 276 311 311 26 22 55 48 65 58 11 9 22 17 26 17
4 0 16 9 28 20 27 27 204 150 215 150 5 0 13 6 17 13 7 11 30 22 182 88 30 13
68 39 85 57 17 18 47 43 66 55 19 12 45 31 58 42 13 11 28 21 33 21 5 1 11 3
14 4 3 1 8 3 13 4 22 4 72 30 72 37 0 5 7 9 15 9 8 0 15 3 15 8 0 4 14 15 30
24 38 21 70 94 68 151 -1 41 -31 117 -46 117 -4 0 -20 12 -37 28 -16 15 -47
36 -67 47 -21 11 -38 23 -38 27 0 5 -32 24 -72 43 -40 20 -75 39 -78 43 -6 9
-140 75 -200 98 -25 9 -59 27 -76 40 -16 12 -59 34 -95 49 -70 30 -205 92
-229 106 -8 5 -26 14 -40 20 -52 24 -70 32 -67 34 3 2 263 -14 322 -20 108
-11 142 -17 260 -46 44 -10 90 -20 102 -22 12 -2 26 -6 29 -10 4 -4 13 -7 21
-7 7 0 66 -21 131 -46 64 -26 123 -47 130 -47 6 0 12 -4 12 -9 0 -5 5 -6 10
-3 5 3 10 2 10 -4 0 -6 12 -14 28 -17 15 -4 29 -10 32 -13 7 -9 172 -84 210
-96 101 -31 164 -30 252 4 35 13 108 79 108 97 0 8 3 14 8 14 4 0 13 12 19 28
8 17 33 38 70 57 32 16 60 32 63 36 3 3 25 16 50 27 45 21 110 57 186 103 21
14 56 33 77 44 20 11 37 23 37 27 0 5 6 8 14 8 8 0 21 6 28 13 8 6 45 28 83
47 39 18 73 38 76 42 3 5 15 10 26 12 27 6 83 34 106 54 9 8 17 12 17 8 0 -4
43 15 95 43 52 28 95 49 95 46 0 -4 85 34 110 50 8 5 17 10 20 10 16 2 106 40
111 48 3 5 8 7 10 5 3 -1 25 5 49 16 60 24 84 33 90 33 3 0 16 6 30 13 14 8
30 15 35 16 22 6 170 59 175 64 3 3 14 7 25 8 11 2 37 13 57 23 21 11 38 17
38 14 0 -4 6 -3 13 2 6 4 20 9 31 10 14 3 116 34 184 58 7 2 16 5 20 6 4 1 18
6 32 11 14 6 38 12 53 14 16 2 34 7 40 11 6 4 23 8 36 9 14 2 27 8 29 14 2 5
8 8 13 4 5 -3 15 -2 22 3 12 8 24 11 68 18 14 2 84 18 155 35 71 17 140 34
154 37 14 3 39 7 55 9 17 2 41 7 55 10 14 4 32 8 40 10 45 9 69 13 109 18 24
4 65 11 90 17 25 6 71 13 101 16 30 2 62 9 72 14 10 6 23 7 28 4 5 -3 30 0 57
6 26 6 66 12 88 15 22 2 63 8 90 14 50 11 81 15 165 25 25 3 63 7 85 10 22 2
49 5 60 5 11 1 56 6 100 13 44 6 83 10 87 9 4 -1 42 3 85 9 158 20 302 29 459
28 62 0 114 3 117 8 3 4 171 6 374 4 470 -6 568 -10 773 -31 52 -5 131 -12
175 -15 44 -2 122 -9 173 -16 51 -6 106 -7 123 -4 17 4 36 2 43 -5 8 -6 36
-10 62 -10 27 1 72 -2 99 -5 97 -11 160 -17 195 -18 19 -1 37 -5 40 -9 4 -5
52 -12 165 -23 17 -2 32 -4 35 -6 3 -1 19 -3 35 -5 17 -2 44 -5 60 -8 17 -2
46 -7 65 -10 19 -3 67 -12 105 -21 39 -8 84 -17 100 -20 17 -2 48 -9 69 -14
22 -5 43 -8 47 -5 4 2 10 0 14 -5 3 -5 13 -9 23 -9 18 1 21 0 160 -37 52 -14
108 -27 125 -29 18 -2 47 -9 66 -15 19 -6 37 -9 39 -6 3 3 10 1 16 -4 11 -8
101 -32 141 -37 11 -1 20 -3 20 -4 0 -2 9 -4 20 -6 11 -2 31 -6 45 -9 14 -3
36 -7 50 -9 51 -9 76 -14 103 -25 16 -6 32 -9 37 -6 5 3 12 0 15 -6 4 -5 13
-8 21 -5 7 3 16 1 20 -5 3 -6 12 -8 19 -5 7 2 16 1 21 -4 5 -5 26 -11 46 -13
21 -2 41 -7 45 -10 3 -4 14 -7 23 -7 10 0 45 -9 79 -20 34 -11 74 -21 89 -24
15 -2 29 -5 32 -7 3 -1 10 -3 15 -4 6 -1 17 -5 25 -8 8 -4 24 -8 35 -10 11 -2
27 -7 35 -10 79 -30 134 -47 138 -42 3 2 11 0 19 -6 7 -6 13 -8 13 -4 0 4 7 2
15 -5 8 -7 15 -9 15 -5 0 4 7 2 15 -5 8 -7 15 -10 15 -7 0 3 24 -4 53 -17 28
-13 66 -27 82 -31 34 -10 29 -8 75 -26 19 -7 38 -12 43 -11 4 1 7 -3 7 -10 0
-6 3 -8 7 -5 3 4 21 -3 40 -14 18 -11 33 -18 33 -15 0 4 11 -1 25 -10 14 -9
25 -14 25 -11 0 3 16 -1 35 -9 19 -8 35 -11 35 -7 0 4 5 2 12 -5 7 -7 30 -12
52 -12 45 0 146 29 146 42 0 5 5 6 10 3 6 -3 10 -1 10 5 0 6 4 9 9 6 4 -3 24
11 44 32 48 51 88 84 131 106 20 11 36 23 36 28 0 5 4 7 9 3 6 -3 13 1 18 8 4
7 15 17 23 20 8 4 38 20 65 37 28 16 68 39 90 51 22 12 42 25 45 29 3 4 46 27
95 50 50 24 97 48 105 55 8 6 50 26 93 45 42 18 77 35 77 39 0 6 65 31 88 33
6 1 12 6 12 11 0 6 3 7 6 4 4 -3 16 -1 28 5 11 7 26 13 31 14 6 1 28 10 50 20
22 10 45 19 50 20 6 1 37 12 70 24 97 34 349 120 365 125 8 2 15 4 15 5 0 1 7
3 15 5 43 8 139 35 165 46 39 16 44 17 85 24 19 3 42 9 50 12 8 3 21 7 28 9 8
1 16 5 20 8 13 13 13 5 1 -11z"/>
<path d="M12693 15730 c-22 -5 -60 -19 -83 -32 -24 -13 -54 -29 -69 -37 -37
-19 -194 -122 -206 -135 -5 -6 -27 -20 -49 -31 -21 -11 -40 -26 -43 -32 -3 -7
-10 -13 -16 -13 -6 0 -21 -9 -33 -21 l-23 -21 -21 51 c-13 28 -26 51 -30 51
-4 0 -10 9 -13 19 -6 23 -66 51 -111 51 -38 0 -76 -25 -76 -50 0 -10 -6 -20
-12 -23 -15 -4 -17 -240 -3 -273 4 -10 10 -30 12 -44 8 -58 39 -117 80 -157
25 -24 47 -43 51 -44 4 0 16 -3 27 -5 60 -14 131 -12 188 6 58 18 197 99 242
141 11 10 43 37 70 59 181 148 336 306 318 324 -3 3 -1 6 6 6 18 0 12 108 -8
144 -27 48 -123 81 -198 66z"/>
<path d="M7719 15483 c-34 -14 -89 -66 -89 -83 0 -5 -3 -10 -7 -10 -10 0 -77
-148 -78 -170 0 -3 -9 -17 -20 -32 l-20 -27 -130 20 c-71 10 -140 20 -152 21
-13 1 -23 5 -23 9 0 4 -10 7 -22 7 -13 1 -48 5 -78 11 -30 5 -118 8 -195 6
-156 -4 -165 -5 -165 -17 0 -4 -7 -8 -15 -8 -22 0 -61 -88 -48 -109 11 -18 80
-57 103 -58 17 -1 171 -29 210 -39 14 -3 44 -10 68 -15 23 -4 51 -13 61 -18
10 -6 29 -12 42 -15 13 -3 33 -7 44 -10 28 -8 97 -26 118 -31 9 -3 26 -7 38
-10 18 -3 124 -51 217 -98 13 -6 42 -10 65 -10 43 2 137 40 137 55 0 4 6 8 13
8 15 1 65 79 78 122 5 18 11 57 14 88 4 30 10 95 16 144 13 119 -3 208 -44
249 -28 28 -97 38 -138 20z"/>
<path d="M14020 15084 c-63 -7 -135 -18 -160 -24 -25 -6 -63 -13 -85 -16 -22
-2 -47 -7 -55 -10 -8 -4 -31 -8 -50 -11 -19 -2 -42 -7 -50 -10 -8 -3 -26 -8
-39 -10 -13 -2 -42 -11 -65 -19 -23 -8 -52 -17 -66 -20 -14 -3 -41 -10 -60
-16 -19 -7 -40 -13 -46 -14 -22 -4 -60 -17 -104 -36 -25 -10 -54 -23 -65 -27
-56 -22 -224 -106 -250 -125 -35 -25 -63 -42 -90 -55 -11 -5 -30 -19 -42 -30
-12 -12 -27 -21 -32 -21 -6 0 -22 -11 -37 -25 -15 -14 -30 -25 -33 -25 -3 0
-20 -13 -36 -28 -17 -16 -36 -31 -42 -33 -10 -4 -59 -46 -191 -164 -91 -81
-281 -277 -320 -329 -12 -17 -34 -44 -47 -61 -53 -66 -94 -125 -116 -166 -13
-24 -29 -49 -35 -55 -6 -7 -21 -39 -33 -71 -13 -32 -29 -73 -37 -92 -8 -18
-20 -68 -26 -110 -15 -109 1 -178 54 -234 22 -23 51 -63 64 -89 13 -27 29 -48
34 -48 6 0 10 -4 10 -10 0 -36 221 -241 309 -287 19 -10 43 -26 53 -35 10 -10
24 -18 32 -18 8 0 16 -4 18 -8 17 -41 438 -212 562 -227 21 -3 41 -7 45 -9 42
-26 568 -27 691 -2 14 3 43 8 65 11 40 5 146 34 221 61 23 8 51 17 63 19 40 8
61 16 61 25 0 5 17 12 38 16 41 8 303 120 312 133 3 5 29 18 57 29 29 11 75
36 103 56 28 20 55 36 60 36 6 0 10 5 10 10 0 6 7 10 15 10 8 0 20 9 27 20 7
11 17 20 23 20 29 1 255 248 255 280 0 6 5 10 10 10 6 0 10 6 10 14 0 8 3 16
8 18 11 5 107 181 109 201 0 5 7 23 16 40 29 60 87 206 87 217 0 7 7 26 14 43
49 106 60 160 59 285 0 81 -5 127 -13 137 -7 8 -9 15 -6 15 4 0 1 10 -6 23 -6
12 -13 29 -15 38 -1 9 -8 29 -14 45 -7 16 -13 32 -14 37 -2 4 -3 8 -5 10 -1 1
-3 9 -5 18 -1 10 -9 28 -16 41 -8 14 -28 53 -46 86 -17 34 -46 81 -64 104 -43
56 -139 154 -139 142 0 -5 -4 -4 -8 3 -12 20 -134 113 -147 113 -7 0 -15 7
-19 15 -3 8 -12 15 -21 15 -8 0 -15 4 -15 8 0 5 -12 15 -27 23 -16 8 -48 26
-72 41 -49 31 -181 83 -232 93 -153 28 -226 29 -399 9z m352 -357 c21 -9 39
-17 40 -16 8 4 108 -49 138 -73 19 -15 38 -28 43 -28 4 0 18 -10 30 -21 12
-12 39 -34 59 -49 52 -38 160 -159 155 -173 -2 -7 -25 -12 -53 -13 -27 -1 -65
-4 -84 -7 -49 -9 -99 -17 -140 -22 -20 -3 -60 -10 -90 -15 -30 -6 -67 -13 -82
-15 -15 -2 -46 -9 -70 -16 -24 -7 -50 -14 -58 -15 -8 -2 -30 -6 -47 -9 -18 -3
-34 -6 -35 -6 -4 0 -159 -38 -178 -43 -8 -3 -42 -12 -75 -21 -33 -9 -67 -18
-75 -20 -8 -1 -35 -8 -60 -15 -25 -7 -46 -12 -48 -11 -1 1 -19 -6 -40 -15 -20
-8 -45 -17 -55 -19 -46 -10 -195 -58 -219 -71 -15 -8 -30 -14 -33 -14 -9 2
-69 -12 -80 -19 -5 -3 -13 -6 -17 -7 -5 -1 -10 -3 -13 -4 -3 -1 -9 -4 -15 -5
-5 -1 -11 -3 -12 -4 -2 -2 -14 -5 -28 -7 -13 -2 -27 -9 -31 -15 -3 -6 -10 -11
-15 -11 -14 -1 -26 -4 -64 -17 -19 -7 -39 -14 -45 -15 -5 -2 -19 -6 -30 -11
-11 -4 -47 -18 -80 -30 -104 -40 -120 -46 -125 -46 -3 -1 -21 -9 -40 -19 -32
-18 -108 -50 -120 -52 -3 0 -29 -13 -59 -29 -30 -16 -60 -29 -67 -29 -8 0 -14
-5 -14 -11 0 -5 -4 -7 -10 -4 -5 3 -10 1 -10 -4 0 -6 -3 -10 -8 -9 -9 4 -125
-54 -134 -67 -4 -5 -8 -6 -8 -2 0 5 -24 -5 -52 -21 -95 -54 -129 -72 -133 -72
-8 0 29 74 48 94 9 11 17 25 17 32 0 7 3 14 8 16 4 2 40 45 81 97 89 114 84
108 200 223 106 105 151 147 212 198 23 19 49 42 59 50 9 8 36 31 61 50 24 19
46 38 47 42 2 4 8 8 13 8 6 0 22 11 37 25 15 14 30 25 34 25 4 0 38 19 75 43
37 24 83 49 101 56 17 8 32 18 32 23 0 5 5 6 10 3 6 -3 10 -1 10 4 0 6 5 11
10 11 6 0 29 9 51 19 22 11 53 23 69 26 17 4 30 11 30 16 0 5 3 8 8 7 4 -1 23
4 42 11 19 8 42 15 50 17 8 2 51 15 95 30 96 31 180 54 219 59 15 3 38 8 50
11 23 8 31 10 91 19 22 3 54 9 70 13 17 5 95 8 175 7 114 -1 153 -5 182 -18z
m588 -722 c0 -3 -13 -27 -30 -53 -16 -27 -30 -54 -30 -59 0 -5 -9 -18 -20 -28
-11 -10 -20 -24 -20 -32 0 -7 -4 -13 -8 -13 -7 0 -55 -85 -56 -101 -1 -3 -9
-13 -18 -23 -10 -10 -18 -23 -18 -30 0 -7 -11 -26 -25 -42 -14 -16 -25 -32
-25 -36 0 -4 -6 -16 -14 -25 -8 -10 -38 -49 -67 -88 -58 -76 -104 -122 -189
-191 -30 -24 -60 -48 -66 -53 -6 -5 -20 -12 -32 -15 -12 -4 -22 -12 -22 -17 0
-5 -5 -9 -10 -9 -6 0 -16 -4 -23 -10 -28 -23 -414 -203 -462 -216 -5 -1 -28
-10 -49 -19 -44 -19 -51 -20 -151 -40 -22 -5 -47 -10 -55 -11 -20 -4 -95 -14
-145 -20 -57 -5 -280 -5 -340 1 -27 3 -88 12 -135 21 -47 9 -96 18 -110 21
-23 4 -150 44 -195 62 -45 18 -240 117 -243 124 -2 4 -10 7 -18 7 -8 0 -14 4
-14 8 0 5 -17 18 -38 30 -21 11 -46 30 -57 42 -10 11 -25 20 -33 20 -9 0 -12
3 -9 6 6 7 95 40 127 49 8 2 16 4 18 5 2 3 2 3 52 14 19 5 40 11 45 14 6 4 17
7 25 9 8 1 30 9 50 17 56 25 94 39 114 43 10 2 49 17 87 33 38 17 99 40 136
51 37 12 79 27 93 34 20 10 109 39 188 61 6 2 13 -2 13 -9 1 -14 5 -29 9 -39
1 -5 3 -11 4 -15 14 -57 103 -173 132 -173 8 0 14 -4 14 -9 0 -9 28 -23 40
-19 3 0 24 -9 47 -20 111 -57 294 -44 423 31 46 26 170 155 192 198 17 35 29
66 33 84 2 6 8 30 15 54 10 38 8 76 -6 126 -10 36 -13 65 -7 66 5 0 15 2 23 4
8 2 31 7 50 10 19 4 53 11 75 17 22 7 43 11 47 10 4 -1 19 3 34 8 23 9 134 34
204 46 14 3 33 7 43 10 10 3 33 8 52 10 19 2 46 9 62 15 15 6 39 13 53 15 14
2 36 7 50 10 14 3 36 8 50 11 14 2 43 8 65 13 49 10 75 12 75 5z"/>
<path d="M6470 14547 c-3 -3 -39 -7 -80 -11 -99 -7 -148 -14 -187 -27 -17 -5
-44 -12 -60 -15 -15 -3 -36 -7 -45 -10 -21 -6 -55 -14 -93 -21 -16 -2 -48 -12
-70 -20 -22 -8 -56 -19 -75 -25 -19 -5 -39 -14 -44 -19 -6 -5 -18 -9 -28 -9
-9 0 -57 -21 -105 -46 -48 -25 -97 -47 -108 -50 -11 -2 -25 -10 -31 -19 -6 -8
-14 -12 -17 -8 -4 3 -7 1 -7 -5 0 -7 -3 -11 -7 -10 -10 3 -115 -56 -134 -74
-8 -8 -17 -14 -21 -14 -6 1 -103 -68 -118 -84 -3 -3 -14 -11 -25 -18 -51 -32
-76 -50 -125 -92 -146 -124 -250 -223 -250 -237 0 -7 -4 -13 -10 -13 -5 0 -10
-7 -10 -15 0 -8 -5 -15 -10 -15 -10 0 -27 -35 -36 -75 -20 -86 -32 -165 -29
-181 2 -10 6 -50 9 -89 3 -38 8 -85 12 -104 12 -70 113 -271 135 -271 6 0 7
-5 4 -10 -3 -6 1 -13 9 -16 9 -3 16 -11 16 -18 0 -12 15 -28 132 -143 40 -40
78 -73 85 -73 7 0 17 -9 23 -20 6 -11 15 -20 20 -20 4 0 19 -10 32 -21 25 -22
83 -59 128 -81 14 -7 27 -16 30 -20 8 -11 123 -68 137 -68 6 0 13 -3 15 -8 5
-11 133 -72 152 -72 9 0 16 -5 16 -10 0 -6 3 -9 8 -8 4 1 17 -3 29 -10 12 -6
32 -14 45 -16 13 -3 24 -5 26 -7 1 -1 5 -2 10 -4 4 -1 14 -4 22 -7 73 -27 117
-42 130 -43 8 -1 22 -5 30 -8 8 -4 26 -9 40 -11 45 -9 74 -16 135 -32 33 -9
72 -17 88 -18 15 0 27 -5 27 -10 0 -4 7 -5 16 -2 8 3 23 2 32 -3 9 -5 44 -12
77 -15 33 -4 74 -8 90 -11 175 -25 426 -25 585 0 14 2 45 6 70 9 67 9 152 27
180 39 29 12 25 11 75 21 22 4 46 12 53 18 6 6 12 7 12 3 0 -4 6 -3 13 3 6 6
15 11 19 11 15 3 43 12 73 25 48 21 78 33 112 46 18 7 42 21 54 31 12 10 30
19 41 19 10 0 18 4 18 9 0 5 11 12 24 15 14 3 37 16 53 29 15 13 49 36 76 51
26 15 47 30 47 34 0 4 12 13 28 19 15 7 42 25 61 40 48 40 151 140 151 148 0
3 9 15 20 27 10 11 28 39 40 62 11 23 24 48 29 56 19 31 40 87 46 120 3 19 14
42 25 50 35 27 49 69 45 134 -4 71 -11 111 -28 140 -6 12 -10 24 -9 28 1 3 -5
12 -13 18 -8 7 -15 19 -15 27 0 27 -110 240 -142 277 -10 11 -18 25 -18 31 0
7 -13 26 -29 43 -16 16 -27 32 -25 35 7 7 -220 236 -291 293 -103 84 -171 134
-183 134 -5 0 -12 3 -14 8 -6 13 -81 59 -143 88 -33 15 -63 32 -67 38 -4 6 -8
7 -8 2 0 -5 -6 -4 -13 2 -11 9 -129 54 -172 66 -5 1 -34 10 -64 19 -29 9 -57
14 -61 12 -5 -3 -10 -1 -12 5 -2 6 -24 11 -51 12 -26 1 -47 6 -47 11 0 5 -10
7 -22 6 -13 -1 -34 1 -48 4 -32 9 -70 16 -145 27 -72 11 -358 25 -365 17z
m315 -391 c70 -7 103 -12 166 -27 26 -6 53 -12 60 -13 8 -2 27 -8 42 -14 16
-7 33 -12 39 -12 10 0 67 -17 148 -45 3 -1 37 -16 75 -34 162 -75 236 -129
397 -290 131 -132 158 -162 158 -172 0 -5 5 -9 10 -9 6 0 10 -6 10 -14 0 -8
10 -22 23 -32 22 -16 21 -16 -18 -10 -54 9 -58 10 -71 19 -6 3 -26 8 -45 11
-19 2 -41 7 -49 10 -8 3 -34 7 -57 10 -23 2 -46 6 -50 9 -4 3 -32 8 -61 11
-30 3 -61 10 -70 15 -10 5 -30 12 -47 15 -16 3 -50 10 -75 16 -25 6 -58 13
-75 16 -16 2 -37 6 -45 7 -36 8 -110 19 -116 17 -4 -1 -10 3 -13 8 -3 5 -28
13 -56 16 -27 4 -59 9 -70 11 -11 2 -38 7 -59 10 -22 3 -51 7 -65 10 -30 5
-82 11 -161 20 -30 3 -77 9 -105 14 -27 5 -57 10 -65 10 -8 0 -42 2 -75 5
-254 20 -738 26 -1040 12 l-140 -6 40 25 c22 13 57 32 78 42 20 10 37 21 37
26 0 4 5 5 10 2 6 -3 10 -1 10 6 0 7 3 9 7 6 3 -4 16 2 29 14 12 11 28 21 35
23 22 3 139 59 139 66 0 4 6 7 13 7 7 0 56 20 110 46 53 25 97 43 97 40 0 -3
7 0 15 7 8 7 15 9 15 5 0 -4 7 -2 15 5 8 7 15 10 15 6 0 -3 12 -1 28 5 33 13
62 20 82 21 8 0 20 4 25 8 6 5 34 11 64 15 30 4 63 9 75 11 12 2 50 7 86 10
36 3 90 9 120 12 62 8 265 6 355 -2z m-777 -795 l112 -1 0 -42 c0 -24 9 -62
19 -85 11 -23 17 -44 13 -47 -3 -3 0 -6 6 -6 7 0 11 -3 10 -7 -6 -21 92 -143
114 -143 4 0 17 -9 28 -20 30 -30 125 -54 215 -54 106 -1 205 31 260 82 53 49
86 87 89 103 2 8 7 22 11 33 4 10 9 43 9 72 l1 54 38 -5 c21 -3 48 -7 60 -10
12 -2 49 -7 81 -10 81 -8 126 -15 161 -25 17 -5 55 -12 85 -15 70 -8 111 -15
130 -20 8 -2 38 -7 65 -10 28 -3 61 -7 75 -10 53 -11 146 -27 165 -29 11 -2
34 -6 50 -10 34 -7 86 -16 132 -21 59 -6 58 -15 -16 -86 -39 -38 -75 -69 -81
-69 -5 0 -13 -6 -17 -13 -9 -14 -160 -107 -174 -107 -5 0 -9 -5 -9 -11 0 -5
-4 -7 -10 -4 -5 3 -10 2 -10 -3 0 -5 -13 -12 -29 -15 -16 -3 -36 -13 -45 -22
-9 -9 -16 -13 -16 -9 0 4 -9 -1 -20 -11 -11 -10 -20 -15 -20 -11 0 4 -12 0
-27 -8 -24 -12 -48 -22 -73 -31 -3 -1 -17 -5 -32 -9 -16 -5 -28 -13 -28 -19 0
-6 -3 -8 -6 -4 -3 3 -26 -3 -50 -13 -24 -11 -44 -17 -44 -15 0 3 -16 -1 -35
-9 -19 -8 -35 -13 -35 -10 0 2 -17 -3 -37 -12 -21 -8 -49 -18 -63 -20 -14 -2
-36 -7 -50 -11 -44 -11 -54 -13 -105 -18 -27 -3 -59 -8 -69 -12 -31 -9 -293
-6 -371 5 -38 6 -77 10 -85 11 -31 1 -76 9 -92 16 -10 4 -25 5 -33 2 -8 -4
-17 -1 -21 4 -3 6 -15 9 -25 6 -10 -3 -21 -1 -24 3 -3 5 -24 11 -47 15 -23 4
-67 16 -97 26 -30 11 -57 17 -59 14 -3 -3 -10 -1 -16 3 -6 5 -31 14 -56 22
-25 7 -49 17 -55 22 -5 4 -17 8 -26 8 -9 0 -30 7 -45 15 -16 8 -36 15 -44 15
-8 0 -33 12 -55 25 -22 14 -47 25 -55 25 -8 0 -55 25 -105 55 -49 30 -93 55
-97 55 -5 0 -17 8 -27 18 -24 21 -37 31 -80 62 -19 13 -50 41 -69 62 -19 21
-38 35 -43 32 -5 -3 -8 -2 -7 3 3 9 -90 125 -104 131 -5 2 -8 9 -8 16 0 6 -8
19 -17 28 -21 19 -33 35 -50 65 l-12 22 442 -3 c243 -2 493 -4 555 -5z"/>
<path d="M12108 12190 c-22 -17 -34 -84 -24 -127 7 -27 128 -153 147 -153 6 0
19 -8 30 -18 10 -11 32 -25 47 -33 15 -8 31 -20 35 -26 4 -7 15 -13 22 -13 8
0 15 -4 15 -8 0 -4 14 -16 31 -26 18 -10 40 -26 50 -35 10 -9 24 -21 31 -26 7
-6 36 -29 64 -53 27 -23 54 -42 58 -42 5 0 17 -11 28 -25 11 -14 26 -25 34
-25 8 0 14 -4 14 -10 0 -5 7 -10 15 -10 8 0 15 -4 15 -10 0 -5 7 -10 15 -10 8
0 15 -4 15 -9 0 -5 11 -12 25 -15 14 -4 25 -11 25 -16 0 -6 6 -10 14 -10 8 0
38 -13 68 -28 64 -34 169 -43 215 -18 75 40 110 100 107 183 -3 49 -26 113
-42 113 -4 0 -15 14 -24 30 -10 17 -25 33 -35 37 -10 3 -26 13 -35 22 -36 34
-53 46 -60 44 -5 -2 -8 2 -8 7 0 6 -7 10 -15 10 -8 0 -15 4 -15 8 0 8 -76 48
-210 110 -153 71 -247 108 -320 127 -35 9 -73 21 -83 27 -10 5 -26 11 -35 13
-9 1 -42 10 -73 19 -65 19 -115 18 -141 -4z"/>
<path d="M8235 12100 c-4 -6 -11 -8 -16 -5 -5 4 -9 1 -9 -5 0 -6 -4 -9 -9 -5
-5 3 -12 1 -16 -5 -4 -6 -11 -8 -16 -5 -5 4 -9 1 -9 -5 0 -6 -4 -9 -8 -6 -5 3
-35 -11 -68 -30 -32 -19 -72 -41 -89 -50 -16 -8 -48 -26 -70 -39 -22 -13 -65
-36 -95 -51 -30 -15 -58 -32 -62 -38 -4 -6 -8 -7 -8 -2 0 5 -8 2 -17 -7 -10
-8 -37 -23 -60 -32 -24 -10 -43 -21 -43 -26 0 -5 -5 -9 -11 -9 -18 0 -101 -61
-162 -119 -82 -79 -99 -121 -88 -228 0 -6 8 -19 17 -27 8 -9 13 -16 9 -16 -4
0 7 -12 24 -26 38 -31 118 -42 188 -25 77 19 207 87 342 179 127 86 222 154
252 182 8 8 26 22 39 30 21 13 72 57 104 89 6 7 19 20 29 29 9 9 17 22 17 29
0 7 4 13 9 13 16 0 33 69 28 111 -3 28 -14 51 -35 72 -27 26 -38 30 -96 33
-36 2 -68 -1 -71 -6z"/>
<path d="M15950 11859 c-30 -5 -79 -11 -109 -14 -30 -4 -63 -11 -72 -16 -10
-5 -22 -9 -26 -8 -4 1 -11 0 -15 -1 -5 -1 -11 -3 -15 -4 -46 -9 -103 -31 -103
-39 0 -6 -3 -8 -6 -4 -4 3 -30 -6 -58 -20 -28 -15 -54 -26 -57 -25 -4 1 -19
-10 -33 -23 -15 -14 -30 -25 -34 -25 -18 0 -113 -110 -138 -160 -34 -67 -40
-156 -11 -184 9 -10 15 -21 12 -26 -8 -12 53 -55 95 -66 33 -10 98 -10 240 0
36 3 122 7 193 10 70 3 132 8 138 12 22 13 381 17 474 4 164 -22 172 -23 181
-33 4 -4 15 -7 24 -7 9 0 30 -6 46 -14 16 -8 36 -16 44 -18 8 -2 17 -5 20 -8
3 -3 36 -21 75 -40 38 -19 78 -43 89 -52 10 -10 23 -15 27 -12 4 2 11 -2 16
-9 4 -7 35 -32 68 -55 33 -23 71 -50 85 -61 14 -11 28 -21 32 -21 4 0 18 -10
31 -22 13 -13 38 -34 56 -48 18 -14 39 -31 46 -37 8 -7 16 -13 19 -13 3 0 14
-8 24 -17 10 -10 43 -40 75 -67 31 -27 72 -63 90 -80 18 -17 42 -39 53 -48 29
-26 98 -106 154 -178 28 -36 55 -70 60 -77 6 -7 10 -16 10 -21 0 -4 8 -17 18
-28 9 -10 30 -47 46 -81 16 -35 34 -63 40 -63 5 0 6 -3 3 -6 -3 -4 -1 -16 5
-28 7 -11 13 -23 13 -26 0 -3 14 -43 30 -90 16 -47 30 -92 31 -100 1 -8 5 -31
9 -50 19 -99 29 -420 14 -420 -6 0 -10 -18 -8 -42 1 -24 -2 -51 -6 -61 -4 -9
-5 -29 -2 -42 2 -14 0 -28 -4 -31 -5 -3 -9 -17 -9 -32 1 -15 -11 -76 -25 -137
-15 -60 -29 -119 -31 -130 -7 -42 -14 -62 -40 -125 -9 -20 -17 -45 -19 -55 -2
-11 -4 -21 -5 -22 -2 -2 -3 -6 -5 -10 -5 -17 -37 -90 -50 -114 -8 -14 -12 -29
-8 -33 3 -3 1 -6 -5 -6 -7 0 -11 -3 -10 -7 1 -5 -6 -22 -15 -40 -9 -18 -17
-37 -17 -43 0 -6 -9 -20 -20 -32 -10 -12 -17 -25 -14 -30 3 -4 0 -8 -5 -8 -6
0 -11 -7 -11 -15 0 -8 -4 -15 -10 -15 -5 0 -10 -5 -10 -10 0 -14 -111 -182
-130 -197 -8 -7 -12 -13 -8 -13 4 0 -9 -17 -27 -37 -19 -21 -35 -41 -35 -45 0
-22 -427 -448 -448 -448 -4 0 -24 -16 -45 -35 -21 -19 -42 -35 -47 -35 -6 0
-15 -9 -22 -20 -7 -11 -18 -20 -25 -20 -7 0 -13 -4 -13 -10 0 -5 -5 -10 -10
-10 -13 0 -174 -109 -178 -121 -2 -5 -10 -9 -18 -9 -8 0 -14 -4 -14 -10 0 -5
-6 -10 -13 -10 -8 0 -28 -15 -45 -32 -17 -18 -41 -42 -52 -52 -14 -14 -20 -32
-20 -63 0 -36 4 -45 28 -60 15 -10 29 -20 32 -24 10 -12 66 -37 100 -44 58
-13 232 -15 280 -4 68 16 61 14 115 35 11 4 22 8 25 8 17 4 70 32 70 37 0 4
12 9 28 12 15 3 37 15 49 27 13 11 24 20 25 19 6 -3 104 58 125 79 13 12 28
22 32 22 11 0 135 99 139 111 2 5 9 9 15 9 6 0 23 11 37 25 258 255 358 361
369 388 2 5 10 17 18 26 37 41 83 107 83 119 0 6 5 12 10 12 6 0 10 6 10 14 0
8 7 17 16 20 8 3 13 10 10 15 -4 5 -2 11 2 13 10 4 82 125 82 138 0 5 6 15 13
22 15 16 70 128 92 188 9 25 26 62 37 83 10 20 17 37 13 37 -3 0 1 10 10 23 8
12 17 34 19 47 2 14 5 25 6 25 1 0 3 8 5 17 2 9 10 31 18 48 13 25 41 110 52
155 1 6 4 17 7 25 11 32 37 126 41 150 3 14 10 45 17 69 6 23 9 49 6 57 -3 8
-1 14 5 14 6 0 9 15 8 33 -2 18 0 38 4 44 4 7 8 29 8 50 0 21 3 76 7 123 11
158 7 286 -13 440 -3 25 -6 54 -6 65 0 10 -5 25 -10 32 -6 6 -8 17 -4 23 3 5
3 16 -2 23 -4 6 -8 17 -8 22 -2 31 -18 95 -24 95 -4 0 -7 9 -8 21 -2 28 -46
152 -56 160 -5 3 -7 8 -6 10 5 7 -36 99 -44 99 -5 0 -5 5 -2 10 3 6 1 10 -5
10 -6 0 -9 4 -5 9 3 5 -2 16 -10 24 -8 9 -15 20 -15 26 0 6 -3 11 -7 11 -5 0
-16 20 -26 45 -11 25 -23 45 -29 45 -5 0 -7 4 -4 8 3 5 -6 20 -20 35 -13 14
-24 30 -24 36 0 8 -65 96 -125 170 -21 25 -267 270 -321 319 -62 57 -232 192
-240 192 -5 0 -15 9 -22 20 -7 11 -18 20 -26 20 -8 0 -17 7 -20 16 -3 8 -10
13 -15 9 -6 -3 -15 4 -21 16 -7 11 -14 19 -16 16 -3 -3 -17 6 -31 19 -14 13
-30 24 -35 24 -5 0 -21 11 -36 25 -15 14 -32 25 -39 25 -7 0 -13 5 -13 10 0 6
-5 10 -10 10 -6 0 -20 9 -32 20 -12 10 -25 17 -30 14 -4 -3 -8 -1 -8 4 0 5
-49 35 -110 66 -60 32 -110 55 -110 51 0 -3 -10 1 -22 9 -13 8 -26 15 -31 15
-4 1 -24 8 -44 16 -62 26 -159 51 -238 60 -11 1 -27 5 -35 8 -66 24 -511 35
-640 16z"/>
<path d="M4649 11616 c-2 -2 -26 -7 -54 -10 -102 -12 -193 -33 -212 -49 -7 -5
-13 -7 -13 -3 0 3 -22 -5 -50 -19 -27 -14 -50 -23 -50 -21 0 6 -93 -35 -100
-44 -3 -3 -36 -22 -75 -40 -38 -18 -84 -44 -101 -57 -17 -13 -34 -23 -38 -23
-8 0 -123 -80 -171 -118 -119 -96 -245 -215 -305 -287 -14 -16 -41 -49 -60
-71 -19 -23 -44 -54 -55 -70 -11 -15 -31 -42 -45 -59 -49 -58 -152 -216 -187
-285 -10 -19 -20 -37 -23 -40 -13 -13 -40 -70 -33 -70 4 0 2 -4 -5 -8 -7 -5
-14 -17 -16 -28 -3 -10 -20 -50 -39 -89 -19 -38 -38 -83 -42 -100 -5 -16 -9
-33 -10 -37 -2 -5 -4 -10 -5 -13 -1 -3 -4 -9 -5 -15 -1 -5 -4 -12 -5 -15 -1
-3 -3 -8 -5 -12 -1 -5 -7 -20 -13 -36 -7 -15 -14 -38 -16 -50 -12 -55 -15 -68
-21 -77 -3 -5 -7 -22 -9 -37 -2 -16 -11 -56 -20 -90 -26 -101 -50 -252 -52
-338 -6 -188 0 -468 11 -484 3 -5 8 -33 10 -63 3 -29 13 -78 21 -108 9 -30 17
-64 17 -75 1 -11 6 -26 10 -32 5 -7 6 -13 3 -13 -8 0 34 -144 50 -167 8 -13
12 -23 8 -23 -4 0 -1 -7 6 -15 7 -8 9 -15 6 -15 -4 0 -1 -10 6 -22 6 -13 13
-30 15 -39 1 -9 16 -45 33 -80 16 -35 30 -70 30 -76 0 -7 5 -13 11 -13 5 0 7
-4 4 -10 -3 -5 -1 -10 4 -10 6 0 10 -3 9 -7 -3 -11 54 -127 64 -131 4 -2 8 -9
8 -16 0 -7 12 -31 28 -52 15 -21 36 -56 47 -77 11 -22 30 -50 43 -63 12 -14
22 -27 22 -30 0 -3 21 -33 47 -67 98 -128 415 -427 453 -427 6 0 10 -4 10 -10
0 -5 5 -10 10 -10 6 0 21 -9 33 -21 12 -11 51 -34 87 -52 36 -17 67 -34 70
-38 8 -10 90 -50 113 -54 11 -3 27 -11 36 -18 14 -12 76 -41 91 -42 3 0 15 -6
28 -13 12 -7 22 -10 22 -8 0 3 21 -5 48 -19 39 -19 88 -36 147 -50 6 -1 17 -5
25 -8 8 -4 26 -8 40 -10 14 -2 37 -9 51 -15 74 -30 280 -43 364 -21 123 31
166 52 227 109 53 51 58 59 58 98 0 47 -8 59 -55 84 -52 29 -162 78 -174 78
-6 0 -19 4 -29 10 -9 5 -48 21 -87 35 -38 15 -83 34 -100 43 -16 9 -31 15 -33
14 -1 -1 -42 18 -91 42 -49 25 -91 42 -95 39 -3 -4 -6 -2 -6 4 0 10 -49 38
-62 35 -5 -1 -8 2 -8 7 0 5 -20 17 -45 28 -25 10 -45 22 -45 26 0 5 -4 5 -10
2 -5 -3 -10 -2 -10 3 0 5 -36 32 -81 61 -44 29 -105 73 -135 97 -29 24 -57 44
-62 44 -5 0 -18 13 -30 30 -13 16 -27 30 -33 30 -5 0 -26 18 -46 40 -20 21
-39 37 -43 35 -4 -2 -13 7 -20 20 -7 14 -19 25 -27 25 -7 0 -12 4 -10 9 1 5
-17 27 -40 49 -24 22 -43 44 -43 49 0 5 -10 19 -22 31 -27 24 -48 49 -48 56 0
5 -66 106 -83 126 -6 8 -10 16 -7 17 3 1 -3 11 -12 22 -9 11 -14 22 -11 25 4
3 1 6 -6 6 -7 0 -9 5 -6 10 3 6 1 10 -6 10 -7 0 -10 3 -6 6 3 4 -10 38 -30 78
-20 39 -38 76 -39 81 -2 6 -12 35 -24 65 -12 30 -27 71 -33 90 -6 19 -14 37
-17 40 -3 3 -6 14 -8 25 -2 11 -6 27 -9 35 -3 8 -8 24 -9 35 -5 27 -25 106
-31 125 -17 47 -24 153 -22 355 3 296 3 305 10 305 4 0 10 24 14 53 5 28 10
59 12 67 1 8 5 26 7 40 7 35 12 52 19 70 3 8 8 29 11 45 2 17 12 50 21 75 9
25 18 50 19 55 1 6 5 16 9 23 5 6 6 12 3 12 -2 0 12 37 31 83 19 45 35 88 36
95 0 6 4 12 9 12 4 0 7 3 6 8 -3 11 105 224 125 246 9 11 22 35 29 53 7 18 15
33 19 33 4 0 11 9 14 20 4 11 17 32 31 47 13 14 24 32 24 39 0 8 5 14 10 14 6
0 10 7 10 15 0 8 4 15 8 15 4 0 25 26 47 57 70 100 338 353 374 353 6 0 11 4
11 9 0 17 348 169 425 186 75 17 91 20 158 29 27 4 59 9 70 12 12 2 39 7 60 9
51 7 83 30 90 64 8 38 0 65 -25 82 -11 8 -33 23 -47 35 -40 33 -62 41 -129 54
-62 11 -246 23 -253 16z"/>
<path d="M11459 11566 c-3 -3 -126 -7 -274 -11 -149 -3 -328 -8 -400 -11 -71
-4 -161 -8 -200 -9 -72 -3 -259 -14 -330 -20 -22 -2 -83 -6 -135 -9 -52 -4
-106 -8 -120 -11 -26 -5 -144 -17 -170 -17 -13 0 -79 -7 -220 -23 -19 -2 -80
-6 -135 -10 -55 -3 -127 -8 -160 -10 -33 -3 -96 -7 -140 -10 -103 -7 -189 -27
-270 -64 -36 -17 -68 -30 -70 -30 -3 -1 -6 -1 -7 -2 -2 0 -13 -2 -26 -5 -29
-5 -86 -41 -115 -72 -7 -7 -21 -22 -31 -32 -11 -11 -16 -20 -11 -20 4 0 0 -9
-11 -21 -10 -12 -18 -22 -16 -23 2 0 -4 -17 -12 -37 -8 -20 -17 -47 -19 -60
-2 -13 -7 -32 -12 -42 -17 -39 29 -237 55 -237 4 0 11 -11 14 -25 8 -32 91
-114 142 -140 22 -11 41 -23 44 -27 8 -10 100 -48 100 -41 0 3 7 -1 17 -8 9
-8 17 -12 17 -10 1 2 33 -6 71 -17 89 -25 219 -45 244 -37 11 3 22 1 26 -5 4
-6 20 -8 41 -4 23 4 34 2 34 -6 0 -8 10 -9 30 -5 20 4 30 3 30 -5 0 -8 10 -11
29 -7 16 4 31 3 33 -2 4 -11 205 -52 223 -45 8 4 15 1 15 -6 0 -7 8 -10 20 -7
11 3 23 1 26 -4 3 -6 14 -7 25 -4 11 4 19 2 19 -4 0 -6 7 -11 15 -11 8 0 54
-14 102 -31 48 -17 94 -31 101 -31 6 -1 12 -5 12 -10 0 -5 5 -6 10 -3 6 3 10
2 10 -4 0 -6 15 -13 33 -16 22 -4 40 -18 56 -41 13 -19 37 -46 53 -59 33 -28
36 -46 42 -250 4 -137 13 -223 32 -330 17 -98 18 -93 -18 -111 -18 -9 -35 -20
-38 -23 -3 -4 -23 -18 -45 -31 -60 -36 -204 -146 -280 -215 -42 -37 -49 -43
-111 -90 -53 -40 -200 -179 -249 -235 -165 -189 -192 -292 -100 -385 24 -24
36 -27 105 -30 48 -2 70 5 158 46 57 27 120 62 141 79 22 16 44 30 49 30 6 0
17 8 24 18 7 9 26 25 41 35 16 10 36 26 46 36 9 9 28 25 41 34 68 48 370 339
435 420 l38 48 61 -59 c65 -63 176 -151 215 -172 14 -7 34 -21 45 -32 55 -51
205 -55 247 -6 28 33 37 57 37 108 1 44 -33 140 -49 140 -5 0 -9 6 -9 13 0 7
-12 25 -27 40 -16 15 -46 48 -68 73 -67 76 -159 163 -172 164 -7 0 -13 4 -13
8 0 8 -51 32 -127 62 -24 9 -30 17 -28 33 2 12 6 40 10 62 14 91 18 158 19
312 l1 163 30 11 c16 7 32 13 35 13 35 11 50 19 50 27 0 5 4 9 10 9 14 0 130
91 130 102 0 4 7 8 15 8 9 0 18 7 21 15 4 8 12 15 19 15 7 0 25 14 40 32 15
18 44 40 65 49 38 17 91 52 118 77 7 6 18 12 23 12 9 0 88 49 99 60 3 4 20 12
38 19 17 8 32 17 32 22 0 5 4 9 9 9 9 0 165 69 306 135 28 13 79 37 115 53 36
16 75 39 88 51 12 12 22 19 22 15 0 -20 92 87 116 135 31 62 41 160 22 221
-17 58 -69 161 -84 167 -8 3 -14 10 -14 16 0 27 -102 105 -170 131 -88 32
-331 61 -351 42z"/>
<path d="M4510 10511 c0 -7 -4 -10 -9 -7 -10 6 -75 -53 -68 -61 3 -2 1 -22 -4
-44 -10 -45 5 -92 40 -123 11 -11 21 -16 21 -13 0 3 11 0 26 -7 17 -10 36 -11
62 -5 20 5 40 9 45 9 4 0 21 13 38 30 26 25 32 39 35 81 3 61 -8 90 -45 117
-32 24 -141 41 -141 23z"/>
<path d="M16171 10280 c-18 -4 -36 -12 -40 -17 -3 -4 -14 -12 -24 -18 -10 -5
-17 -13 -15 -16 2 -4 -6 -17 -17 -28 -13 -16 -19 -38 -21 -79 -1 -31 1 -61 5
-67 3 -5 6 -16 8 -24 2 -16 68 -80 84 -82 5 -1 13 -2 18 -3 5 0 13 -4 17 -8
11 -12 49 -10 81 4 15 6 32 12 36 12 4 1 11 6 15 12 4 6 15 13 25 17 9 3 17
13 17 22 0 8 4 15 9 15 22 0 40 123 21 146 -7 7 -9 14 -6 14 14 0 -49 72 -75
85 -36 19 -96 26 -138 15z"/>
<path d="M17225 10211 c-7 -6 -12 -7 -39 -10 -14 -1 -105 -86 -107 -99 0 -4
-3 -16 -6 -27 -10 -39 -6 -149 6 -153 6 -2 9 -8 5 -13 -3 -5 0 -9 7 -9 7 0 9
-3 6 -7 -9 -9 44 -64 55 -57 4 3 8 0 8 -6 0 -6 5 -8 10 -5 6 3 10 2 10 -4 0
-12 63 -31 103 -31 19 0 26 4 21 12 -5 7 -3 8 5 4 13 -9 71 11 71 24 0 4 8 10
18 12 10 3 32 29 49 59 23 42 30 67 31 112 0 31 -4 57 -9 57 -6 0 -8 4 -4 9 3
5 -2 17 -11 25 -8 9 -13 16 -9 16 11 0 -63 71 -77 74 -7 2 -20 6 -28 9 -24 9
-109 15 -115 8z"/>
<path d="M3895 9868 c-81 -46 -113 -139 -73 -217 13 -24 32 -49 43 -55 11 -6
23 -16 28 -23 9 -15 91 -28 114 -18 10 5 21 7 26 7 4 -1 7 3 7 8 0 6 6 10 14
10 18 0 78 68 71 80 -3 5 -1 11 5 15 21 13 3 125 -20 125 -4 0 -10 9 -13 19
-8 34 -66 61 -127 61 -30 0 -64 -6 -75 -12z"/>
<path d="M4913 9518 c-13 -6 -23 -15 -23 -20 0 -4 -6 -8 -14 -8 -26 0 -47 -49
-48 -111 -1 -56 1 -63 34 -96 28 -28 46 -37 82 -40 78 -8 143 35 152 99 3 18
7 43 9 56 3 12 1 22 -5 22 -5 0 -10 8 -10 18 0 17 -46 67 -62 67 -3 0 -9 3
-13 7 -4 4 -14 4 -23 1 -10 -4 -13 -2 -8 5 9 15 -40 15 -71 0z"/>
<path d="M16245 9464 c-39 -17 -93 -65 -97 -84 -2 -8 -6 -18 -11 -21 -4 -3
-10 -28 -14 -56 -4 -41 -1 -61 18 -100 21 -45 43 -70 62 -71 5 0 15 -9 22 -19
11 -14 27 -18 86 -18 49 0 74 4 77 13 2 6 8 10 13 6 5 -3 9 0 9 6 0 6 4 9 8 6
5 -3 22 8 37 24 16 17 25 30 19 30 -5 0 -3 4 5 9 16 10 26 147 11 156 -6 4 -8
11 -5 16 4 5 1 9 -5 9 -6 0 -9 4 -6 8 6 10 -48 64 -80 80 -34 18 -116 21 -149
6z"/>
<path d="M17359 9122 c-19 -9 -35 -20 -37 -24 -2 -4 -10 -8 -17 -8 -21 0 -62
-59 -74 -107 -12 -46 -12 -112 0 -128 4 -5 8 -14 9 -20 9 -40 67 -105 94 -105
9 0 15 -4 12 -9 -7 -10 61 -31 103 -31 17 0 48 7 68 15 46 20 125 84 118 96
-4 5 -1 9 4 9 6 0 10 3 9 8 -1 4 3 18 9 32 9 20 11 118 3 128 -3 3 -7 19 -9
33 -2 18 -88 98 -118 110 -46 18 -137 18 -174 1z"/>
<path d="M4148 8442 c-47 -30 -67 -65 -69 -121 -2 -38 3 -59 18 -79 62 -84
200 -74 237 18 28 71 20 117 -31 167 -32 33 -116 41 -155 15z"/>
<path d="M16325 8372 c-46 -24 -73 -53 -90 -99 -44 -114 29 -223 152 -227 78
-3 158 38 167 86 2 7 6 21 10 30 5 10 6 43 3 73 -4 50 -9 61 -45 96 -22 22
-50 42 -63 45 -49 11 -109 10 -134 -4z"/>
<path d="M5165 8260 c-4 -6 -11 -8 -16 -5 -5 4 -9 1 -9 -5 0 -6 -4 -8 -10 -5
-5 3 -10 2 -10 -2 0 -5 -10 -13 -22 -18 -13 -6 -27 -20 -33 -32 -5 -13 -13
-23 -18 -23 -4 0 -5 -5 -1 -12 4 -6 -1 -17 -10 -23 -25 -19 -25 -110 2 -161
18 -36 82 -99 100 -99 4 0 12 -3 17 -6 69 -43 208 13 256 104 14 25 21 138 9
152 -4 5 -8 12 -8 15 -1 19 -24 58 -44 76 -51 44 -185 73 -203 44z"/>
<path d="M8535 6788 c-30 -17 -66 -58 -72 -82 -10 -39 -15 -116 -8 -134 3 -9
5 -17 3 -18 -2 0 3 -8 11 -17 7 -10 10 -17 7 -17 -4 0 0 -12 8 -27 8 -16 25
-52 38 -80 13 -29 26 -53 30 -53 5 0 8 -5 8 -11 0 -18 129 -206 145 -213 8 -3
15 -12 15 -19 0 -25 238 -258 298 -291 9 -5 26 -18 37 -28 11 -10 29 -21 42
-24 12 -3 24 -12 27 -20 3 -8 12 -14 20 -14 8 0 21 -6 28 -13 23 -23 144 -87
151 -80 4 3 7 0 7 -7 0 -7 2 -11 6 -8 3 3 32 -7 65 -23 33 -16 68 -31 77 -33
9 -1 25 -6 34 -10 9 -4 22 -8 30 -10 7 -1 19 -5 26 -9 6 -5 12 -6 12 -3 0 2
30 -7 67 -20 36 -13 68 -22 71 -19 3 3 11 0 17 -5 7 -6 30 -12 51 -15 22 -2
53 -7 69 -10 43 -9 73 -13 130 -21 68 -8 77 -10 97 -19 10 -4 38 -5 62 -4 24
2 42 1 40 -3 -3 -4 89 -5 203 -2 115 3 223 5 241 5 17 -1 32 3 32 9 0 5 7 7
15 4 8 -3 38 -1 67 6 29 6 73 13 98 16 25 3 68 12 95 20 28 9 60 17 72 20 12
2 42 13 67 24 25 10 46 17 46 13 0 -3 7 0 15 7 8 7 15 9 15 5 0 -4 7 -2 15 5
8 7 15 9 15 6 0 -4 10 -1 23 6 12 6 29 13 37 14 8 2 16 8 18 13 2 6 9 11 17
11 20 0 155 62 155 71 0 5 5 9 11 9 20 0 139 59 139 69 0 5 15 15 34 21 19 6
53 24 75 41 23 16 45 29 51 29 5 0 10 5 10 10 0 6 6 10 14 10 8 0 21 6 28 13
7 7 39 30 71 51 31 21 57 41 57 45 0 4 22 22 50 40 53 34 200 187 200 208 0 7
5 13 10 13 6 0 10 7 10 15 0 8 4 15 8 15 9 0 47 71 44 83 -1 4 2 7 7 7 8 0 18
35 28 95 2 11 6 62 9 113 5 75 3 98 -10 117 -29 44 -87 26 -172 -52 -14 -13
-33 -27 -44 -33 -15 -8 -122 -97 -196 -163 -29 -26 -43 -37 -49 -37 -3 0 -13
-7 -22 -16 -33 -28 -148 -104 -183 -119 -19 -9 -42 -25 -52 -35 -10 -11 -31
-23 -46 -26 -15 -4 -32 -11 -38 -16 -6 -4 -40 -22 -75 -39 -35 -16 -77 -36
-92 -44 -16 -8 -35 -15 -42 -15 -7 0 -15 -5 -17 -11 -2 -5 -10 -11 -18 -13
-28 -4 -95 -29 -107 -39 -7 -5 -13 -6 -13 -2 0 4 -7 2 -15 -5 -8 -7 -15 -10
-15 -6 0 4 -18 -3 -40 -14 -22 -11 -40 -18 -40 -15 0 2 -12 0 -27 -6 -30 -12
-57 -19 -88 -23 -11 -2 -20 -4 -20 -5 0 -1 -13 -4 -28 -6 -16 -2 -59 -11 -96
-19 -97 -22 -177 -28 -346 -26 -201 3 -243 6 -360 30 -55 11 -109 22 -120 23
-11 2 -27 7 -35 10 -8 3 -28 8 -45 11 -57 8 -260 82 -342 124 -46 23 -83 39
-83 35 0 -5 -4 -3 -8 3 -4 6 -44 34 -90 62 -46 29 -89 57 -97 64 -8 7 -30 27
-50 43 -33 28 -298 291 -362 360 -15 17 -36 42 -46 58 -9 15 -24 27 -32 27 -8
0 -15 4 -15 10 0 30 -134 52 -175 28z"/>
</g>
</svg>
