<?xml version="1.0" standalone="no"?>
<!DOCTYPE svg PUBLIC "-//W3C//DTD SVG 20010904//EN"
 "http://www.w3.org/TR/2001/REC-SVG-20010904/DTD/svg10.dtd">
<svg version="1.0" xmlns="http://www.w3.org/2000/svg"
 width="2048.000000pt" height="2048.000000pt" viewBox="0 0 2048.000000 2048.000000"
 preserveAspectRatio="xMidYMid meet">
<metadata>
Created by potrace 1.16, written by Peter Selinger 2001-2019
</metadata>
<g transform="translate(0.000000,2048.000000) scale(0.100000,-0.100000)"
fill="#474973" stroke="none">
<path d="M2830 17937 c-3 -3 -47 -8 -99 -11 -51 -4 -97 -9 -102 -12 -5 -3 -18
-7 -29 -9 -42 -8 -92 -39 -125 -77 -55 -65 -65 -94 -62 -189 2 -75 7 -92 42
-161 21 -43 42 -78 47 -78 4 0 7 -3 6 -7 -3 -10 22 -57 78 -150 24 -40 44 -77
44 -83 0 -5 5 -10 11 -10 5 0 7 -4 4 -10 -3 -5 -1 -10 4 -10 6 0 11 -6 11 -14
0 -8 6 -21 13 -28 7 -7 14 -16 15 -21 1 -4 17 -35 37 -68 19 -33 35 -65 35
-71 0 -6 13 -36 29 -67 15 -31 35 -72 43 -91 8 -19 20 -46 26 -60 6 -14 14
-36 18 -49 3 -13 13 -40 22 -60 9 -20 17 -40 18 -46 9 -42 227 -569 244 -590
5 -5 8 -13 7 -16 -1 -3 9 -29 22 -57 14 -29 23 -53 20 -55 -2 -1 -38 -25 -79
-51 -41 -27 -83 -60 -93 -72 -10 -13 -22 -23 -26 -21 -5 1 -19 -8 -32 -20 -13
-12 -51 -46 -84 -76 -33 -30 -102 -97 -153 -148 -51 -52 -124 -126 -162 -164
-39 -39 -70 -75 -70 -80 0 -5 -24 -33 -52 -62 -99 -97 -148 -150 -148 -161 0
-6 -4 -12 -9 -14 -5 -1 -39 -39 -75 -83 -36 -44 -72 -87 -80 -95 -7 -8 -33
-41 -57 -74 -24 -32 -56 -75 -71 -95 -15 -20 -27 -41 -28 -47 0 -7 -7 -15 -16
-18 -8 -3 -12 -10 -9 -16 3 -5 1 -10 -4 -10 -6 0 -11 -7 -11 -15 0 -8 -4 -15
-8 -15 -10 0 -112 -172 -112 -188 0 -7 -4 -12 -8 -12 -9 0 -40 -50 -40 -64 0
-5 -4 -12 -9 -15 -5 -3 -32 -49 -59 -101 -27 -52 -52 -97 -55 -100 -12 -10
-189 -370 -181 -370 4 0 3 -4 -3 -8 -13 -9 -81 -153 -78 -164 2 -4 -2 -8 -8
-8 -5 0 -8 -4 -4 -9 3 -5 1 -12 -5 -16 -6 -4 -8 -11 -5 -16 4 -5 1 -9 -4 -9
-6 0 -10 -3 -9 -7 1 -5 -3 -19 -9 -33 -6 -14 -18 -42 -26 -62 -9 -21 -14 -38
-11 -38 2 0 -2 -10 -10 -22 -19 -29 -67 -158 -59 -158 3 0 1 -6 -4 -12 -10
-12 -33 -77 -32 -88 0 -3 -7 -23 -17 -45 -9 -22 -17 -42 -17 -45 0 -3 -6 -20
-14 -37 -7 -18 -15 -40 -16 -50 -2 -10 -9 -29 -14 -43 -6 -14 -14 -41 -19 -60
-11 -50 -11 -50 -14 -55 -1 -3 -3 -8 -4 -12 -1 -5 -5 -14 -9 -20 -5 -7 -6 -13
-3 -13 3 0 -1 -18 -9 -40 -8 -22 -12 -40 -8 -40 3 0 1 -6 -4 -12 -11 -13 -40
-98 -46 -133 -2 -11 -7 -27 -10 -35 -4 -8 -8 -24 -10 -35 -1 -11 -6 -26 -11
-33 -4 -7 -5 -16 -2 -19 3 -3 2 -11 -3 -17 -5 -6 -11 -27 -14 -46 -5 -31 -12
-63 -21 -95 -2 -5 -7 -28 -11 -50 -12 -51 -10 -46 -23 -78 -7 -16 -14 -43 -16
-60 -3 -18 -7 -41 -10 -52 -18 -70 -23 -95 -19 -95 3 0 1 -6 -5 -12 -8 -11
-19 -57 -27 -118 -1 -8 -5 -22 -9 -31 -4 -9 -6 -20 -5 -25 1 -5 0 -16 -3 -24
-5 -13 -38 -177 -52 -263 -3 -15 -7 -35 -10 -45 -2 -9 -7 -37 -11 -62 -8 -66
-10 -74 -18 -86 -4 -7 -8 -34 -11 -62 -2 -27 -6 -54 -9 -58 -5 -10 -26 -166
-32 -240 -1 -17 -5 -36 -9 -43 -4 -6 -6 -21 -5 -34 1 -12 -1 -29 -4 -37 -9
-24 -49 -404 -51 -497 -1 -13 -5 -23 -10 -23 -5 0 -6 -29 -4 -65 3 -37 2 -68
-4 -71 -5 -3 -9 -38 -9 -78 0 -39 -2 -129 -5 -201 -8 -175 -8 -941 0 -1090 10
-167 18 -273 30 -375 2 -19 7 -71 11 -115 4 -44 11 -87 16 -96 4 -9 6 -18 4
-21 -3 -3 2 -38 10 -79 8 -41 17 -87 20 -104 4 -16 8 -39 10 -50 2 -11 7 -36
10 -55 3 -19 8 -44 10 -55 2 -11 6 -37 10 -59 3 -21 8 -43 11 -48 3 -5 8 -24
11 -41 6 -42 51 -210 65 -245 6 -15 12 -29 13 -32 1 -3 5 -24 10 -48 4 -23 10
-42 14 -42 3 0 7 -10 7 -23 1 -12 10 -40 19 -62 10 -22 19 -43 20 -47 2 -5 3
-9 5 -10 1 -2 3 -10 5 -19 2 -14 56 -154 88 -229 6 -14 10 -28 9 -32 -1 -5 2
-8 6 -8 5 0 9 -6 9 -12 0 -22 193 -408 203 -408 6 0 9 -3 8 -7 -4 -15 13 -53
23 -53 6 0 7 -4 4 -10 -3 -5 -1 -10 5 -10 6 0 8 -4 5 -10 -3 -5 -1 -10 4 -10
6 0 11 -5 11 -11 0 -6 12 -30 28 -53 15 -22 45 -71 67 -108 21 -38 43 -68 47
-68 4 0 8 -7 8 -15 0 -8 5 -15 10 -15 6 0 10 -7 10 -15 0 -8 5 -15 10 -15 6 0
10 -7 10 -15 0 -8 5 -15 10 -15 6 0 10 -7 10 -15 0 -8 5 -15 10 -15 6 0 10 -7
10 -15 0 -8 5 -15 10 -15 6 0 10 -6 10 -13 0 -7 12 -26 28 -43 15 -17 34 -43
42 -58 8 -15 25 -39 37 -52 13 -14 23 -27 23 -30 0 -11 143 -190 166 -207 13
-10 24 -25 24 -33 0 -8 7 -17 15 -20 9 -4 21 -17 28 -29 11 -22 79 -101 178
-209 26 -28 75 -82 110 -121 94 -103 412 -417 504 -498 44 -38 103 -90 130
-115 28 -24 61 -52 75 -61 14 -9 33 -26 43 -38 10 -13 25 -23 33 -23 8 0 14
-5 14 -10 0 -6 8 -14 17 -17 9 -4 24 -13 32 -20 33 -29 119 -93 125 -93 4 0
16 -8 27 -18 10 -11 32 -25 47 -33 15 -8 29 -16 32 -19 13 -14 95 -70 102 -70
4 0 17 -8 28 -18 11 -9 24 -17 28 -17 4 -1 32 -17 63 -37 31 -21 79 -47 105
-60 27 -13 51 -26 52 -31 2 -4 8 -5 13 -1 5 3 9 1 9 -4 0 -5 102 -61 227 -123
126 -62 246 -122 268 -133 22 -11 40 -19 40 -17 0 1 26 -10 58 -24 32 -15 63
-28 70 -29 7 -1 22 -7 33 -14 12 -6 24 -8 28 -5 3 3 6 1 6 -6 0 -8 7 -11 15
-7 8 3 15 0 15 -6 0 -6 3 -9 6 -6 3 4 25 -2 48 -13 24 -10 52 -20 62 -22 10
-1 25 -6 32 -11 22 -13 215 -76 220 -71 3 3 11 0 19 -6 7 -6 13 -9 13 -6 0 3
16 -1 35 -9 19 -8 35 -11 35 -8 0 4 6 2 13 -4 7 -6 24 -13 37 -15 14 -2 32 -7
40 -10 41 -18 100 -35 100 -30 0 3 6 0 14 -6 8 -6 18 -11 22 -10 5 1 22 -3 38
-10 16 -6 40 -13 55 -14 15 -2 32 -7 39 -11 7 -4 16 -5 21 -1 5 3 13 0 16 -6
4 -5 13 -8 21 -5 7 3 16 1 19 -4 3 -5 13 -9 23 -9 18 -1 64 -8 72 -12 3 -1 10
-3 15 -4 6 -1 17 -4 25 -7 31 -12 139 -38 147 -37 4 1 15 0 23 -4 33 -13 120
-26 135 -21 8 4 15 1 15 -6 0 -8 10 -9 30 -5 20 4 30 3 30 -5 0 -8 10 -10 25
-8 14 3 28 1 31 -4 3 -5 19 -6 35 -3 19 4 29 3 29 -5 0 -8 9 -10 26 -6 15 4
32 2 40 -5 7 -6 21 -8 31 -5 9 4 19 2 23 -3 3 -6 28 -12 55 -15 28 -2 57 -6
65 -10 31 -11 233 -45 241 -40 5 3 9 0 9 -7 0 -7 10 -9 25 -7 14 3 28 1 31 -4
4 -5 17 -7 30 -4 15 4 24 2 24 -5 0 -7 9 -9 24 -5 14 3 28 1 31 -5 4 -6 18 -8
30 -5 13 3 27 1 30 -5 4 -6 14 -8 22 -5 9 4 22 1 29 -5 8 -6 20 -9 29 -6 8 4
17 2 20 -3 3 -5 13 -9 23 -9 9 0 37 -5 62 -11 91 -23 302 -59 316 -53 8 3 14
0 14 -7 0 -8 10 -9 30 -5 20 4 30 3 30 -5 0 -8 10 -11 30 -7 16 4 32 2 36 -4
3 -6 19 -7 35 -4 19 4 29 3 29 -5 0 -8 10 -11 30 -7 16 4 32 2 36 -4 3 -6 15
-8 26 -6 11 3 28 2 37 -3 16 -9 253 -52 268 -49 4 1 15 0 23 -3 34 -12 158
-27 179 -21 18 5 22 3 16 -7 -6 -10 1 -12 38 -7 31 4 47 3 47 -4 0 -7 14 -8
41 -4 32 6 40 4 34 -5 -6 -10 2 -12 38 -7 32 5 47 3 47 -4 0 -8 16 -9 50 -5
35 5 50 3 50 -5 0 -8 15 -10 50 -6 29 4 52 2 56 -4 3 -5 31 -10 62 -10 32 1
104 -3 162 -9 283 -26 684 -32 2360 -35 410 0 906 20 1091 45 72 10 106 14
199 25 25 2 63 7 85 10 22 3 58 7 80 10 22 2 54 7 70 9 17 3 53 7 80 10 44 5
82 10 230 31 17 2 55 6 86 10 31 3 99 12 150 21 52 8 117 17 144 19 28 3 64 8
80 11 17 4 46 8 65 10 36 3 101 11 155 20 17 2 39 5 50 6 11 0 39 5 63 9 23 5
59 12 80 15 20 3 46 7 57 9 11 2 43 6 70 10 28 3 95 15 150 27 55 11 109 22
120 24 45 7 81 14 105 19 14 3 39 8 55 10 44 6 84 13 140 25 28 6 59 12 70 15
11 2 37 6 59 10 21 3 73 14 115 24 42 11 90 23 106 27 17 4 39 9 50 10 11 2
31 7 45 10 36 10 62 14 82 15 10 0 20 5 23 10 4 5 10 7 14 4 5 -2 23 0 42 6
41 12 52 15 107 24 23 4 42 11 42 16 0 6 4 8 8 5 8 -5 68 7 102 21 18 7 29 10
55 16 45 11 111 28 125 34 8 4 18 7 23 8 4 2 9 4 12 5 3 1 8 3 13 4 4 1 22 6
40 10 17 4 32 12 32 18 0 6 3 8 6 5 4 -3 16 -1 28 5 11 7 24 13 29 14 4 1 8 2
10 4 1 1 9 3 17 5 35 8 166 58 178 67 6 6 12 7 12 4 0 -4 10 -1 23 6 12 7 25
12 28 13 5 0 67 26 159 67 25 11 59 25 75 32 34 14 181 83 264 124 30 14 62
27 70 29 9 1 17 7 19 13 2 5 8 8 13 4 5 -3 9 0 9 6 0 6 5 8 10 5 6 -3 10 -1
10 5 0 6 5 8 10 5 6 -3 10 -1 10 5 0 6 5 8 10 5 6 -3 10 -1 10 4 0 6 7 11 15
11 18 0 85 32 85 40 0 4 20 15 45 24 25 10 45 22 45 27 0 5 6 9 14 9 8 0 21 6
28 13 7 7 26 18 43 25 16 8 66 38 111 68 46 29 94 59 108 66 14 6 26 15 26 20
0 4 5 8 11 8 15 0 270 184 334 242 11 10 54 47 97 82 42 35 84 70 93 77 14 13
63 56 106 95 9 8 20 14 25 14 5 0 29 20 54 45 25 24 50 44 55 45 13 0 190 152
339 290 111 102 485 478 552 555 94 108 194 233 194 243 0 6 7 12 15 16 8 3
15 12 15 20 0 7 7 16 15 20 8 3 15 12 15 21 0 8 4 15 9 15 4 0 27 28 51 63 24
34 54 77 68 95 13 17 22 32 19 32 -2 0 9 15 27 34 17 19 42 56 56 83 14 26 28
50 33 51 4 2 7 10 7 18 0 8 4 14 10 14 9 0 76 120 94 170 5 14 12 27 16 30 10
7 121 240 126 264 2 11 8 22 13 25 8 5 91 201 95 226 1 6 5 16 9 23 5 6 6 12
2 12 -3 0 1 13 10 30 22 43 89 242 100 300 2 8 4 16 5 18 2 1 4 7 5 12 1 6 3
11 5 13 1 1 3 9 5 17 1 8 12 40 23 70 20 54 47 144 58 191 8 36 12 53 15 59 1
3 3 10 4 15 1 6 4 17 7 25 12 31 38 139 37 147 -1 4 1 15 5 23 11 25 55 264
49 272 -2 5 0 8 5 8 9 0 23 85 27 161 1 14 5 31 9 37 4 6 6 26 6 44 0 18 4 67
10 108 6 41 9 86 7 99 -3 14 -2 34 3 45 4 12 13 158 19 326 11 287 7 485 -14
640 -3 25 -8 63 -10 85 -3 36 -8 71 -20 155 -2 14 -7 50 -10 80 -3 30 -8 62
-12 70 -4 8 -8 24 -9 35 -11 87 -34 225 -41 245 -3 8 -7 29 -9 45 -2 17 -7 37
-10 45 -4 8 -8 29 -10 45 -2 17 -7 41 -10 55 -4 14 -8 32 -10 40 -1 8 -5 29
-9 45 -3 17 -7 41 -9 55 -2 14 -5 25 -6 25 -1 0 -4 9 -6 20 -2 11 -5 31 -8 45
-3 14 -7 39 -11 55 -3 17 -7 39 -9 50 -3 11 -7 36 -10 55 -3 19 -15 76 -26
125 -12 50 -24 101 -27 115 -7 29 -10 43 -18 90 -3 19 -8 46 -12 60 -3 14 -6
28 -5 31 0 3 -6 30 -14 60 -8 30 -17 65 -20 79 -10 57 -27 126 -33 135 -6 10
-10 26 -15 60 -2 11 -4 20 -5 20 -1 0 -4 15 -7 33 -2 18 -8 41 -14 51 -5 10
-7 21 -3 24 3 3 2 14 -2 24 -9 20 -14 39 -19 68 -4 26 -25 106 -33 125 -3 8
-8 24 -10 34 -4 21 -29 100 -40 126 -3 8 -7 18 -8 23 -2 4 -3 8 -5 10 -1 1 -3
10 -5 20 -11 59 -83 278 -97 294 -6 7 -8 13 -5 13 6 0 -17 85 -35 129 -6 14
-13 37 -15 51 -2 14 -8 27 -14 28 -5 2 -7 7 -4 12 6 10 -66 202 -80 212 -5 4
-6 8 -1 8 5 0 3 7 -4 15 -7 8 -9 15 -5 15 4 0 0 11 -9 25 -9 14 -14 25 -10 25
3 0 -1 11 -10 25 -9 14 -14 25 -12 25 6 0 -14 47 -73 173 -22 49 -41 94 -41
102 0 7 -7 21 -16 29 -8 9 -13 16 -10 16 9 0 -35 84 -48 92 -6 4 -8 8 -3 8 4
0 -4 22 -17 49 -14 27 -22 51 -19 55 4 3 1 6 -6 6 -7 0 -9 5 -6 10 3 6 1 10
-6 10 -7 0 -10 3 -6 6 5 6 -148 323 -162 334 -3 3 -24 40 -46 82 -22 43 -44
78 -48 78 -5 0 -6 4 -3 8 3 5 -4 18 -14 30 -11 12 -20 24 -20 26 0 10 -64 111
-72 114 -4 2 -8 10 -8 17 0 8 -6 20 -12 27 -7 7 -22 30 -32 51 -11 20 -23 37
-28 37 -4 0 -8 7 -8 15 0 8 -5 15 -11 15 -5 0 -8 4 -5 8 3 5 -2 18 -12 28 -9
11 -26 37 -36 57 -11 21 -30 49 -43 63 -13 14 -23 28 -23 31 0 13 -103 163
-111 163 -5 0 -9 5 -9 12 0 6 -7 18 -15 27 -48 53 -55 62 -55 71 0 5 -16 22
-35 37 -19 15 -35 33 -35 38 0 6 -27 40 -61 75 -33 36 -72 81 -87 101 -27 36
-87 103 -304 339 -82 89 -221 218 -277 257 -2 1 1 8 6 15 6 7 23 42 38 78 38
89 58 135 88 200 21 46 36 85 42 110 1 3 7 19 14 35 7 17 14 35 15 40 2 6 8
23 14 38 7 16 12 34 12 41 0 6 4 16 9 22 8 9 35 84 33 94 0 3 4 11 10 18 6 6
7 12 3 12 -4 0 -2 7 5 15 7 8 9 15 5 15 -4 0 -2 7 5 15 7 8 9 15 5 15 -4 0 -2
7 5 15 7 8 9 15 5 15 -4 0 -2 7 5 15 7 8 9 15 5 15 -4 0 -2 7 5 15 7 8 9 15 5
15 -4 0 -2 7 5 15 7 8 9 15 5 15 -4 0 -3 6 2 13 10 12 52 131 58 165 2 9 4 18
5 20 2 1 3 5 4 10 1 4 20 63 43 132 23 69 45 139 49 155 4 17 8 32 9 35 8 24
16 60 19 85 2 17 16 59 31 95 15 36 30 76 33 90 6 28 5 137 -1 160 -16 60 -20
70 -28 70 -5 0 -8 3 -7 8 3 13 -78 91 -107 102 -58 22 -71 24 -210 24 -132 0
-163 -3 -225 -19 -14 -4 -34 -8 -45 -9 -11 -2 -20 -4 -20 -5 0 -3 -23 -9 -65
-17 -19 -3 -41 -11 -47 -16 -7 -6 -13 -8 -13 -5 0 8 -102 -23 -117 -35 -7 -6
-13 -8 -13 -5 0 4 -18 0 -40 -8 -22 -8 -42 -14 -45 -15 -3 0 -6 0 -7 -1 -2 0
-16 -3 -31 -5 -15 -3 -40 -10 -55 -16 -15 -6 -36 -13 -47 -15 -11 -2 -65 -19
-120 -39 -55 -19 -104 -36 -110 -37 -5 -2 -16 -6 -22 -10 -7 -5 -13 -6 -13 -3
0 5 -41 -9 -115 -39 -11 -4 -26 -9 -33 -11 -11 -2 -131 -48 -217 -83 -11 -5
-22 -8 -25 -7 -3 0 -18 -7 -33 -17 -15 -9 -27 -15 -27 -12 0 3 -17 -3 -37 -14
-21 -10 -42 -19 -46 -19 -4 0 -41 -19 -82 -42 -41 -22 -75 -38 -75 -35 0 8
-64 -26 -72 -39 -4 -6 -8 -8 -8 -3 0 4 -18 -4 -40 -18 -22 -14 -44 -25 -50
-25 -5 0 -10 -4 -10 -9 0 -5 -11 -12 -25 -15 -14 -4 -25 -11 -25 -17 0 -6 -4
-7 -10 -4 -5 3 -10 2 -10 -3 0 -6 -11 -13 -25 -16 -14 -4 -25 -11 -25 -16 0
-6 -5 -10 -11 -10 -6 0 -28 -13 -49 -30 -21 -16 -42 -30 -47 -30 -5 0 -22 -12
-39 -27 -51 -45 -65 -51 -96 -39 -15 6 -28 14 -28 19 0 4 -4 5 -10 2 -5 -3
-10 -2 -10 4 0 5 -9 12 -20 16 -11 3 -61 29 -112 57 -51 28 -98 51 -105 51 -7
0 -13 4 -13 9 0 5 -4 6 -10 3 -5 -3 -10 -1 -10 4 0 6 -3 10 -7 9 -5 -1 -49 17
-100 41 -51 24 -95 42 -99 41 -4 -1 -10 2 -13 7 -8 11 -202 89 -213 85 -4 -1
-8 2 -8 7 0 8 -55 32 -80 36 -3 0 -15 6 -27 13 -12 6 -32 14 -45 16 -13 3 -24
5 -25 7 -2 1 -6 2 -10 3 -5 2 -19 7 -33 14 -25 10 -155 53 -175 56 -5 1 -16 5
-22 9 -7 5 -13 6 -13 2 0 -3 -8 -1 -18 4 -11 6 -32 13 -48 16 -47 10 -48 10
-61 18 -7 5 -17 6 -22 2 -5 -3 -12 -1 -15 4 -3 5 -26 12 -52 16 -25 3 -56 9
-67 12 -20 4 -47 10 -87 17 -8 2 -33 8 -55 14 -22 6 -56 14 -75 17 -19 3 -87
14 -150 25 -63 11 -137 22 -165 25 -27 4 -63 8 -80 11 -48 7 -96 13 -150 19
-27 2 -61 7 -75 10 -14 2 -54 7 -89 10 -35 3 -67 7 -71 10 -3 2 -40 7 -81 10
-41 4 -92 9 -114 11 -160 15 -309 19 -735 19 -442 0 -717 -5 -1210 -22 -96 -3
-199 -5 -228 -4 -45 2 -285 -9 -517 -24 -38 -2 -126 -7 -195 -10 -69 -3 -154
-8 -190 -10 -36 -2 -110 -7 -165 -10 -55 -3 -125 -7 -155 -10 -30 -2 -100 -6
-155 -10 -55 -3 -107 -8 -115 -10 -8 -2 -51 -7 -95 -10 -129 -10 -141 -12
-300 -31 -22 -2 -47 -5 -55 -5 -13 -1 -64 -8 -260 -34 -19 -3 -57 -8 -85 -11
-116 -12 -139 -15 -220 -28 -16 -3 -55 -8 -85 -11 -30 -3 -63 -8 -73 -11 -10
-3 -31 -7 -47 -10 -17 -2 -45 -7 -62 -10 -18 -2 -46 -6 -63 -8 -16 -2 -70 -12
-120 -21 -49 -10 -99 -18 -110 -20 -11 -2 -36 -6 -55 -10 -19 -3 -48 -8 -65
-10 -87 -10 -132 -17 -145 -22 -8 -2 -33 -7 -55 -10 -21 -2 -60 -9 -85 -14
-25 -5 -63 -12 -85 -15 -22 -3 -58 -10 -80 -16 -22 -6 -44 -13 -50 -14 -10 -2
-73 -13 -110 -19 -11 -2 -31 -6 -45 -10 -14 -3 -45 -8 -70 -12 -25 -3 -50 -10
-57 -15 -7 -5 -16 -7 -22 -4 -5 3 -22 1 -38 -5 -15 -6 -41 -13 -58 -15 -16 -3
-70 -16 -120 -31 -49 -14 -96 -27 -103 -29 -7 -2 -14 -4 -17 -4 -3 0 -21 -6
-40 -14 -20 -9 -39 -15 -43 -16 -21 -1 -78 -13 -87 -19 -5 -3 -13 -6 -17 -7
-5 -1 -9 -2 -10 -3 -2 -2 -14 -4 -27 -7 -14 -2 -30 -9 -38 -15 -7 -6 -13 -9
-13 -6 0 3 -51 -13 -112 -35 -62 -22 -130 -47 -151 -55 -21 -7 -62 -26 -90
-41 -29 -15 -59 -30 -68 -34 -10 -4 -37 8 -75 33 -33 21 -63 39 -67 39 -5 0
-23 11 -41 25 -18 14 -36 22 -39 18 -4 -3 -7 -1 -7 5 0 7 -7 12 -15 12 -8 0
-15 4 -15 8 0 5 -12 15 -27 23 -16 8 -32 18 -38 22 -18 15 -169 107 -205 124
-19 10 -36 21 -38 25 -2 4 -19 12 -38 18 -19 6 -34 16 -34 21 0 6 -4 7 -10 4
-5 -3 -10 -2 -10 2 0 5 -9 14 -21 21 -17 11 -20 11 -14 0 3 -7 1 -6 -7 3 -15
18 -60 44 -70 41 -5 -1 -8 2 -8 6 0 5 -24 19 -52 33 -29 13 -55 27 -56 32 -2
4 -8 5 -13 1 -5 -3 -9 0 -9 6 0 6 -4 9 -9 6 -5 -4 -11 -2 -13 3 -5 13 -205
111 -212 104 -3 -4 -6 -1 -6 6 0 7 -4 9 -10 6 -5 -3 -10 -1 -10 5 0 6 -4 8
-10 5 -5 -3 -10 -2 -10 4 0 8 -26 21 -50 26 -3 0 -24 11 -47 23 -24 12 -43 20
-43 17 0 -3 -11 2 -25 11 -14 9 -25 14 -25 10 0 -3 -17 3 -37 14 -64 32 -153
69 -153 63 0 -3 -6 0 -14 6 -16 14 -186 72 -186 64 0 -3 -6 -1 -12 5 -7 6 -15
10 -18 11 -3 0 -21 6 -40 14 -51 22 -140 47 -140 40 0 -3 -6 -1 -12 5 -7 5
-29 12 -48 15 -33 5 -47 8 -102 23 -40 10 -112 24 -145 28 -18 3 -36 7 -41 10
-18 11 -343 33 -352 23z m391 -581 c8 -2 21 -6 29 -9 8 -4 26 -9 40 -11 14 -3
26 -5 28 -5 1 -1 4 0 5 2 2 1 11 -4 20 -12 10 -7 17 -10 17 -6 0 4 6 3 13 -2
6 -6 25 -13 41 -17 17 -4 71 -23 120 -43 50 -19 96 -36 101 -38 6 -1 24 -8 40
-14 17 -7 35 -14 40 -15 6 -1 19 -7 30 -13 11 -6 25 -12 30 -13 17 -4 48 -17
117 -48 37 -17 69 -28 72 -24 3 3 6 0 6 -6 0 -7 3 -11 8 -10 4 1 33 -11 66
-25 32 -15 64 -27 72 -27 7 0 19 -6 26 -14 8 -7 84 -49 169 -91 84 -43 156
-82 159 -86 3 -5 23 -16 44 -24 22 -9 62 -32 90 -51 28 -19 56 -34 63 -34 7 0
13 -3 13 -7 0 -5 26 -21 57 -38 32 -16 64 -36 71 -42 7 -7 20 -13 28 -13 8 0
14 -4 14 -10 0 -5 6 -10 14 -10 8 0 16 -4 18 -8 3 -8 131 -90 206 -132 14 -8
32 -21 40 -27 7 -7 20 -13 28 -13 8 0 14 -4 14 -10 0 -5 7 -10 15 -10 8 0 15
-4 15 -9 0 -5 14 -12 30 -16 17 -4 30 -10 30 -15 0 -8 13 -14 62 -27 51 -14
152 -7 187 13 18 10 44 25 57 32 12 7 35 27 50 45 23 27 39 35 108 49 44 10
97 20 116 23 19 3 46 8 60 11 14 4 32 8 40 9 8 1 33 5 55 10 49 10 63 13 95
18 161 28 339 65 352 73 5 3 21 7 36 9 15 3 38 7 52 10 14 3 40 8 59 11 18 2
41 9 51 14 9 5 20 7 23 3 3 -3 14 -2 24 2 10 4 27 9 38 11 11 1 63 12 115 24
52 11 102 21 110 22 8 0 42 7 75 15 33 8 78 17 100 19 22 2 51 7 65 11 14 3
32 7 40 8 8 2 33 6 55 10 52 9 96 15 115 16 8 1 31 5 50 10 20 5 53 11 75 14
22 3 51 8 65 10 14 2 47 6 74 9 26 4 67 11 90 17 55 13 81 17 151 25 33 3 68
10 78 15 9 6 21 8 26 5 4 -3 32 -1 62 5 80 15 120 20 157 19 19 0 38 3 44 6 6
4 29 9 52 10 46 4 442 51 496 59 48 8 114 15 185 20 33 2 85 6 115 9 30 3 83
5 117 5 33 0 64 4 68 10 3 7 28 8 65 4 32 -3 67 -2 77 2 10 5 56 9 103 10 47
1 164 7 260 13 96 7 225 14 285 17 817 35 1147 43 1850 42 580 0 607 -1 780
-22 72 -8 153 -18 180 -21 99 -9 125 -13 177 -22 29 -6 62 -10 73 -11 11 -1
37 -4 57 -7 21 -3 53 -7 70 -9 18 -3 50 -7 70 -10 21 -3 53 -7 70 -10 18 -2
51 -7 73 -11 22 -3 47 -7 55 -8 8 -2 33 -8 55 -14 22 -6 57 -13 77 -16 21 -2
41 -7 46 -10 5 -3 24 -8 43 -10 41 -6 74 -14 74 -17 0 -1 9 -3 20 -4 11 -2 59
-15 108 -28 48 -14 87 -22 87 -19 0 3 5 1 11 -5 6 -6 18 -9 25 -6 8 3 14 1 14
-4 0 -8 45 -27 93 -39 4 -1 9 -3 12 -4 3 -1 10 -4 15 -5 6 -1 12 -3 15 -4 3 0
8 -1 11 0 4 0 10 -3 13 -8 6 -8 93 -42 118 -47 7 -1 16 -5 19 -9 4 -4 16 -7
26 -7 10 0 18 -4 18 -9 0 -7 42 -26 80 -36 3 -1 32 -14 65 -30 33 -15 65 -28
70 -29 6 -1 43 -19 84 -40 41 -21 81 -39 90 -41 9 -2 45 -19 81 -39 36 -20 81
-44 100 -53 19 -10 37 -21 40 -24 8 -10 150 -78 150 -72 0 3 6 1 13 -4 26 -20
150 -22 173 -2 8 6 14 8 14 4 0 -4 6 -2 13 4 8 6 16 9 18 6 3 -2 29 15 58 39
44 36 151 99 171 101 11 2 58 19 100 38 25 11 47 21 50 22 38 9 80 29 80 37 0
6 3 9 6 5 6 -6 53 11 139 49 22 10 42 18 45 19 22 5 67 23 132 55 42 21 79 35
82 32 3 -3 6 1 6 8 0 7 3 10 7 7 3 -4 17 0 30 8 13 9 23 13 23 9 0 -3 11 1 25
10 13 9 29 16 34 16 5 0 30 9 55 20 26 11 49 19 52 19 3 0 16 7 30 15 13 9 24
14 24 10 0 -4 7 -1 15 6 8 7 15 10 15 7 0 -4 30 5 68 19 86 32 97 36 97 34 0
-1 32 10 70 25 39 15 77 28 85 30 8 2 16 4 18 5 2 3 2 3 52 14 19 5 40 11 45
14 6 4 19 8 30 9 10 2 48 12 83 23 35 11 68 20 72 20 5 0 -12 -39 -36 -87 -66
-132 -155 -325 -160 -347 -2 -11 -9 -23 -15 -26 -6 -4 -10 -10 -9 -14 2 -10
-82 -178 -97 -194 -7 -7 -16 -24 -19 -38 -3 -13 -10 -24 -14 -24 -5 0 -12 -10
-16 -22 -3 -12 -15 -31 -25 -42 -11 -11 -19 -26 -19 -33 0 -7 -4 -13 -10 -13
-5 0 -10 -7 -10 -15 0 -8 -3 -15 -8 -15 -4 0 -22 -27 -40 -60 -18 -33 -37 -62
-41 -65 -13 -8 -63 -106 -57 -112 3 -3 -1 -18 -10 -34 -8 -16 -12 -29 -8 -29
4 0 2 -6 -5 -13 -13 -17 -26 -170 -16 -194 5 -10 9 -20 10 -23 16 -46 46 -85
148 -190 126 -129 287 -280 299 -280 8 0 135 -117 157 -145 9 -10 39 -43 67
-71 28 -29 67 -72 86 -96 20 -24 51 -59 69 -79 33 -36 68 -76 159 -184 23 -27
51 -59 61 -70 38 -40 102 -120 126 -157 14 -21 30 -38 34 -38 5 0 9 -6 9 -13
0 -7 11 -24 25 -39 14 -15 25 -30 25 -33 0 -3 35 -61 78 -128 43 -67 90 -143
105 -169 15 -26 33 -53 40 -60 7 -7 26 -39 42 -71 17 -32 39 -68 50 -80 11
-12 19 -24 19 -27 -2 -5 32 -67 64 -120 9 -14 15 -27 13 -29 -1 -2 1 -7 6 -10
8 -6 138 -261 138 -272 0 -12 60 -134 68 -137 4 -2 5 -8 1 -13 -3 -5 0 -9 5
-9 6 0 10 -3 9 -7 -3 -17 15 -63 25 -63 6 0 8 -3 4 -6 -3 -4 2 -23 12 -43 11
-20 19 -39 20 -44 0 -4 15 -35 33 -70 17 -34 33 -66 34 -72 1 -5 12 -32 25
-60 12 -27 23 -55 24 -61 2 -9 33 -89 80 -209 5 -11 9 -23 10 -27 2 -5 4 -10
5 -13 1 -3 4 -9 5 -15 1 -5 4 -12 5 -15 1 -3 4 -9 5 -15 1 -5 4 -12 5 -15 1
-3 4 -9 5 -15 1 -5 4 -12 5 -15 1 -3 4 -9 5 -15 1 -5 4 -12 5 -15 1 -3 4 -9 5
-15 1 -5 4 -12 5 -15 1 -3 4 -9 5 -15 1 -5 3 -11 5 -12 1 -2 3 -10 5 -18 3
-17 44 -148 52 -170 4 -8 7 -18 8 -22 2 -5 4 -10 5 -13 1 -3 4 -9 5 -15 1 -5
3 -11 4 -12 2 -2 4 -13 7 -25 2 -12 22 -77 45 -145 22 -68 42 -128 43 -135 1
-7 5 -15 8 -19 4 -3 4 -12 2 -19 -3 -7 0 -16 5 -20 6 -3 9 -11 6 -16 -4 -5 -3
-15 2 -21 8 -13 11 -27 17 -63 2 -11 4 -20 5 -20 1 0 4 -15 7 -33 2 -18 8 -41
14 -51 5 -10 7 -21 4 -24 -3 -3 -2 -12 2 -19 5 -7 9 -17 9 -23 3 -30 19 -86
26 -91 5 -3 7 -9 4 -13 -2 -5 0 -23 6 -42 5 -19 12 -47 14 -63 2 -15 8 -38 11
-50 7 -21 11 -37 18 -86 2 -14 9 -45 15 -70 14 -55 18 -74 26 -125 3 -22 13
-65 21 -95 15 -57 16 -60 29 -145 4 -27 10 -54 13 -60 3 -5 7 -16 8 -25 4 -21
13 -71 19 -95 2 -11 6 -33 10 -50 3 -16 7 -41 10 -55 3 -14 7 -36 10 -50 6
-27 8 -43 20 -110 4 -25 10 -49 13 -54 3 -6 7 -19 8 -30 1 -12 5 -32 8 -46 3
-14 7 -45 11 -70 3 -25 8 -56 12 -70 3 -14 7 -34 9 -45 1 -11 5 -36 8 -55 6
-34 8 -46 21 -120 3 -19 8 -53 10 -75 3 -22 7 -53 9 -70 31 -208 25 -824 -10
-1100 -9 -66 -17 -134 -18 -151 -2 -17 -6 -36 -9 -41 -4 -6 -7 -22 -7 -34 1
-34 -44 -269 -70 -369 -12 -47 -24 -94 -26 -105 -2 -11 -10 -41 -18 -68 -8
-26 -12 -47 -9 -47 3 0 1 -6 -5 -12 -5 -7 -12 -26 -15 -43 -3 -16 -10 -42 -16
-57 -6 -16 -8 -28 -5 -28 4 0 2 -6 -3 -12 -10 -13 -42 -102 -48 -136 -2 -9 -4
-18 -5 -19 -2 -2 -3 -6 -5 -10 -1 -5 -7 -20 -13 -35 -12 -29 -52 -158 -56
-180 -1 -7 -9 -26 -18 -43 -14 -28 -92 -224 -93 -235 0 -3 -26 -55 -57 -116
-32 -61 -55 -114 -51 -118 3 -3 1 -6 -6 -6 -7 0 -9 -4 -6 -10 3 -5 1 -10 -5
-10 -6 0 -8 -4 -5 -10 3 -5 1 -10 -5 -10 -6 0 -8 -4 -5 -10 3 -5 2 -10 -3 -10
-9 0 -37 -50 -34 -62 1 -5 -1 -8 -6 -8 -4 0 -19 -21 -32 -47 -14 -26 -31 -54
-37 -61 -7 -7 -13 -19 -13 -27 0 -7 -7 -15 -15 -19 -8 -3 -15 -10 -15 -15 0
-6 -11 -22 -25 -37 -14 -15 -25 -33 -25 -40 0 -8 -4 -14 -10 -14 -5 0 -10 -7
-10 -15 0 -9 -7 -18 -15 -21 -8 -4 -15 -12 -15 -19 0 -7 -7 -15 -15 -19 -8 -3
-15 -12 -15 -21 0 -8 -4 -15 -8 -15 -10 0 -97 -122 -94 -133 1 -4 -2 -7 -8 -7
-5 0 -37 -35 -71 -77 -93 -118 -127 -154 -359 -386 -315 -313 -393 -384 -634
-570 -15 -12 -39 -32 -52 -44 -13 -13 -27 -23 -31 -23 -4 0 -19 -11 -33 -24
-75 -72 -96 -90 -100 -89 -3 1 -35 -25 -70 -58 -35 -32 -66 -59 -68 -59 -1 0
-33 -24 -70 -53 -37 -29 -96 -73 -132 -97 -36 -24 -66 -47 -68 -52 -2 -4 -10
-8 -18 -8 -8 0 -14 -4 -14 -10 0 -5 -7 -10 -15 -10 -8 0 -15 -4 -15 -10 0 -5
-7 -10 -15 -10 -8 0 -15 -5 -15 -12 0 -6 -3 -9 -6 -5 -3 3 -44 -19 -90 -49
-47 -30 -108 -66 -137 -80 -29 -15 -55 -32 -59 -38 -4 -6 -8 -7 -8 -3 0 11
-80 -34 -80 -45 0 -5 -4 -6 -10 -3 -6 3 -10 1 -10 -6 0 -7 -3 -10 -6 -7 -5 6
-82 -28 -261 -113 -46 -21 -87 -39 -93 -39 -5 0 -10 -5 -10 -12 0 -6 -3 -8 -7
-5 -3 4 -22 -3 -42 -15 -20 -13 -37 -21 -39 -19 -6 6 -62 -22 -62 -31 0 -5 -4
-7 -10 -3 -5 3 -17 2 -27 -4 -29 -14 -78 -33 -78 -29 -1 1 -13 -5 -28 -15 -15
-9 -27 -15 -27 -13 0 3 -17 -2 -37 -11 -21 -8 -49 -20 -63 -26 -14 -6 -27 -11
-30 -11 -3 -1 -41 -14 -85 -30 -86 -30 -107 -37 -115 -37 -3 -1 -11 -5 -17
-11 -7 -6 -13 -7 -13 -3 0 4 -7 2 -15 -5 -8 -7 -15 -10 -15 -7 0 5 -84 -16
-120 -30 -8 -3 -22 -7 -30 -9 -8 -2 -51 -13 -95 -24 -44 -12 -95 -23 -114 -26
-18 -2 -41 -9 -51 -14 -9 -5 -20 -7 -23 -3 -3 3 -14 2 -24 -2 -10 -5 -21 -8
-24 -7 -3 1 -30 -6 -60 -14 -30 -8 -65 -17 -79 -20 -55 -10 -126 -26 -140 -31
-8 -3 -22 -7 -30 -9 -8 -1 -26 -5 -40 -8 -14 -3 -41 -8 -60 -11 -19 -3 -44 -8
-55 -10 -51 -10 -72 -14 -105 -20 -59 -10 -84 -15 -105 -19 -11 -3 -36 -7 -55
-10 -19 -3 -48 -9 -65 -12 -29 -7 -37 -9 -95 -18 -14 -2 -65 -11 -115 -21 -49
-9 -101 -18 -115 -20 -14 -2 -45 -6 -70 -10 -25 -3 -60 -8 -78 -11 -17 -2 -49
-6 -70 -9 -20 -3 -50 -8 -67 -10 -16 -2 -52 -6 -80 -9 -27 -3 -63 -9 -80 -13
-16 -3 -46 -7 -65 -8 -58 -4 -154 -17 -164 -23 -4 -2 -25 -6 -45 -8 -20 -1
-54 -5 -76 -8 -22 -4 -58 -8 -80 -11 -50 -5 -111 -13 -233 -30 -20 -3 -57 -7
-82 -10 -25 -2 -79 -9 -120 -15 -41 -6 -93 -13 -115 -16 -22 -2 -58 -6 -80 -9
-22 -3 -69 -7 -105 -10 -36 -3 -116 -10 -179 -16 -189 -18 -612 -35 -831 -33
-1200 8 -1990 15 -2050 18 -41 3 -131 9 -200 14 -69 5 -134 10 -145 10 -61 1
-365 32 -480 49 -16 2 -48 6 -70 9 -22 3 -53 7 -70 9 -16 2 -48 7 -70 9 -22 3
-53 8 -70 11 -16 2 -57 9 -90 14 -33 5 -80 14 -105 19 -25 6 -67 14 -95 17
-27 4 -59 8 -70 10 -11 2 -38 6 -60 9 -23 4 -52 9 -65 12 -61 12 -129 24 -170
29 -25 3 -52 7 -60 10 -8 2 -31 7 -50 9 -46 6 -134 24 -179 36 -20 5 -54 12
-76 15 -22 4 -51 8 -65 11 -14 3 -32 6 -40 8 -8 1 -28 6 -45 9 -31 7 -88 18
-115 22 -8 1 -26 5 -40 9 -14 3 -41 8 -60 10 -19 2 -46 7 -60 10 -14 3 -41 8
-60 10 -19 2 -53 9 -75 14 -22 6 -94 20 -160 31 -66 11 -136 23 -155 26 -19 4
-44 8 -55 9 -11 2 -33 6 -50 10 -16 3 -43 8 -60 11 -47 7 -216 43 -255 54 -19
6 -46 12 -60 15 -14 3 -58 14 -97 25 -40 10 -73 17 -73 14 0 -3 -6 -1 -12 5
-7 5 -29 13 -48 16 -19 3 -81 21 -137 40 -57 19 -103 32 -103 29 0 -3 -6 -1
-12 5 -7 5 -29 13 -48 18 -50 11 -50 11 -52 14 -2 1 -10 3 -18 5 -8 2 -34 10
-57 19 -24 8 -43 13 -43 9 0 -3 -7 0 -15 7 -8 7 -15 9 -15 4 0 -4 -5 -3 -11 3
-6 6 -18 9 -25 6 -8 -3 -14 -1 -14 4 0 7 -116 55 -140 58 -3 0 -15 6 -28 13
-12 7 -22 10 -22 6 0 -3 -7 -1 -15 6 -8 7 -15 9 -15 4 0 -5 -4 -4 -8 1 -6 9
-61 33 -87 38 -5 1 -12 5 -15 8 -10 12 -90 49 -90 42 0 -5 -4 -3 -8 3 -9 15
-139 74 -146 66 -3 -3 -6 0 -6 7 0 7 -4 9 -10 6 -6 -3 -10 -2 -10 3 0 9 -50
37 -62 34 -5 -1 -8 3 -8 9 0 5 -5 7 -10 4 -6 -3 -10 -1 -10 5 0 6 -5 8 -10 5
-6 -3 -10 -1 -10 4 0 6 -5 11 -10 11 -6 0 -50 22 -98 49 -48 27 -90 50 -95 50
-4 0 -17 10 -29 20 -11 11 -25 18 -30 15 -4 -3 -8 0 -8 6 0 6 -4 9 -9 6 -5 -4
-11 -3 -13 1 -4 10 -131 93 -142 93 -4 0 -16 8 -27 18 -10 11 -32 25 -47 33
-15 8 -31 20 -35 26 -4 7 -14 13 -21 13 -8 0 -16 7 -20 15 -3 8 -12 15 -20 15
-7 0 -17 7 -20 16 -3 8 -10 13 -15 9 -6 -3 -15 4 -21 15 -6 11 -17 20 -25 20
-8 0 -15 5 -15 10 0 6 -8 14 -17 17 -10 4 -27 16 -39 27 -42 43 -119 101 -129
98 -5 -2 -7 -1 -3 3 3 3 -40 48 -95 98 -130 116 -517 504 -517 517 0 6 -7 10
-16 10 -8 0 -13 4 -10 9 3 4 -7 20 -22 34 -15 14 -65 72 -112 128 -47 57 -97
116 -113 132 -15 16 -27 33 -27 38 0 4 -11 16 -25 25 -14 9 -23 20 -20 24 3 5
0 12 -8 17 -7 4 -20 19 -29 33 -8 14 -27 37 -40 51 -14 15 -27 33 -30 40 -3 8
-32 50 -63 94 -32 44 -83 118 -113 165 -30 47 -59 88 -65 92 -6 3 -11 12 -13
20 -2 14 -73 140 -84 148 -4 3 -13 20 -21 38 -8 17 -18 32 -22 32 -5 0 -5 5
-2 10 3 6 1 10 -4 10 -6 0 -10 3 -9 8 2 7 -58 129 -101 205 -11 19 -17 38 -14
41 4 3 0 6 -7 6 -7 0 -11 3 -7 6 3 4 0 19 -9 35 -8 16 -14 31 -14 34 0 3 -7
20 -17 38 -9 17 -18 34 -18 37 -10 38 -18 60 -24 60 -4 0 -7 10 -8 22 -1 11
-8 25 -15 29 -7 5 -9 9 -4 9 5 0 3 7 -4 15 -7 8 -10 15 -6 15 5 0 -1 19 -30
95 -4 11 -8 23 -9 28 -2 4 -4 9 -5 12 -1 3 -4 10 -5 15 -1 6 -3 11 -5 13 -1 1
-3 10 -5 19 -6 33 -28 93 -38 106 -5 6 -6 12 -3 12 4 0 4 5 0 12 -4 7 -9 23
-10 36 -2 14 -6 32 -10 41 -10 23 -15 43 -19 71 -1 14 -3 25 -4 25 -3 0 -10
30 -16 65 -2 14 -13 70 -25 125 -11 55 -21 107 -21 115 -1 8 -8 47 -16 85 -8
39 -16 81 -18 95 -1 14 -6 52 -9 85 -15 126 -22 209 -33 345 -7 95 -5 1128 3
1260 3 47 8 119 11 160 3 41 8 100 10 130 2 30 6 80 9 110 7 94 52 450 70 555
10 55 18 111 19 125 2 14 6 33 10 43 4 9 5 23 2 31 -3 7 -1 18 4 23 4 4 10 31
13 58 2 28 7 58 11 68 4 9 5 24 2 32 -4 8 -2 17 4 21 6 3 9 16 8 27 -1 12 1
29 4 37 5 13 26 116 41 200 2 14 10 48 16 75 7 28 13 57 14 65 1 9 6 21 10 28
4 7 5 19 2 27 -2 7 -1 15 4 17 5 2 10 21 12 43 2 22 8 46 12 53 4 7 5 19 2 27
-3 8 -1 17 4 20 5 3 14 29 19 58 15 70 20 93 26 117 3 11 7 29 10 40 8 32 16
64 20 80 2 8 4 17 6 20 1 3 3 10 4 15 2 6 4 12 5 15 1 3 3 12 5 20 2 8 8 30
14 48 5 17 7 32 4 32 -3 0 0 7 7 15 7 9 10 18 7 22 -4 3 -2 12 4 20 6 7 8 13
4 13 -4 0 -3 6 2 13 10 11 51 136 58 175 2 9 4 19 6 22 1 3 3 10 4 15 1 6 5
17 8 25 9 24 29 90 32 108 2 9 4 18 4 20 1 1 1 5 2 10 1 4 10 24 20 44 10 21
20 45 22 55 2 10 9 29 17 43 7 14 13 26 12 27 -2 4 2 16 34 108 16 44 29 82
30 85 0 3 13 32 29 65 15 33 28 65 29 70 1 6 8 21 16 35 7 14 13 26 11 28 -1
1 5 15 13 31 9 16 12 31 9 35 -4 3 -1 6 5 6 7 0 11 3 10 8 -1 4 23 57 55 118
31 62 53 114 50 118 -4 3 0 6 7 6 7 0 11 2 8 5 -3 3 14 40 38 83 24 42 44 82
44 89 0 7 5 13 11 13 5 0 7 5 4 10 -3 6 -1 10 5 10 6 0 8 5 5 10 -3 6 -3 10 2
10 4 0 26 35 48 77 22 43 44 82 48 88 22 28 75 125 69 125 -4 0 -2 4 4 8 11 7
104 148 104 157 0 3 29 43 65 89 36 46 65 87 65 90 0 3 23 29 50 58 28 29 50
56 50 61 0 5 15 23 33 41 72 73 117 122 117 129 0 16 410 431 521 527 29 25
70 61 91 80 57 52 70 62 116 94 23 16 42 32 42 35 0 4 20 17 45 31 25 14 45
28 45 32 0 5 7 8 15 8 8 0 15 5 15 10 0 6 6 10 13 10 7 0 22 8 33 18 10 9 43
32 71 51 58 36 94 74 114 121 8 16 17 30 21 30 13 0 46 79 58 137 12 57 6 138
-11 148 -5 4 -7 10 -4 15 3 5 1 11 -5 15 -6 4 -8 11 -5 16 4 5 2 9 -3 9 -6 0
-12 10 -16 23 -3 12 -18 37 -34 55 -16 18 -58 66 -93 107 -35 41 -67 75 -71
75 -5 0 -8 5 -8 10 0 6 -9 21 -21 33 -11 12 -43 55 -71 95 -28 39 -54 72 -59
72 -5 0 -9 7 -9 15 0 8 -3 15 -8 15 -4 0 -13 13 -19 28 -7 15 -34 61 -61 102
-26 41 -54 87 -61 103 -8 15 -18 27 -23 27 -5 0 -7 4 -4 8 3 5 -4 19 -15 30
-11 12 -17 22 -14 22 4 0 -2 12 -13 28 -11 15 -50 81 -87 147 -37 66 -73 123
-79 127 -6 5 -7 8 -1 8 6 0 6 3 0 8 -6 4 -19 26 -29 50 -11 23 -22 42 -26 42
-4 0 -7 7 -7 15 0 10 7 13 22 9 12 -3 28 -7 36 -8z"/>
<path d="M12459 14436 c-20 -14 -41 -37 -46 -53 -16 -45 -31 -96 -37 -128 -3
-16 -9 -46 -13 -65 -11 -55 -7 -218 5 -233 7 -8 9 -17 5 -20 -3 -4 -1 -7 5 -7
7 0 12 -6 12 -14 0 -25 38 -62 97 -91 48 -25 69 -30 123 -29 36 1 79 7 95 14
17 6 31 11 32 11 10 -2 181 95 208 118 11 10 33 26 50 36 74 46 215 179 215
203 0 6 3 12 8 12 14 0 53 134 45 157 -10 26 -64 44 -143 48 -97 5 -147 -8
-295 -79 -60 -30 -118 -56 -127 -59 -19 -6 -28 11 -28 52 0 15 -5 32 -12 39
-7 7 -9 12 -5 12 16 0 -26 62 -48 72 -14 6 -25 15 -25 20 0 19 -86 8 -121 -16z"/>
<path d="M7702 14280 c-32 -16 -76 -48 -100 -74 -44 -48 -112 -148 -112 -166
0 -5 -4 -10 -10 -10 -5 0 -10 -4 -10 -10 0 -5 -8 -18 -18 -28 -18 -18 -20 -18
-53 4 -19 13 -40 23 -46 23 -7 1 -13 6 -13 11 0 6 -7 10 -15 10 -8 0 -15 4
-15 8 0 19 -215 145 -285 166 -34 10 -104 14 -112 6 -2 -1 -8 -3 -13 -4 -19
-2 -30 -30 -30 -76 0 -42 4 -49 52 -93 29 -26 118 -111 198 -188 80 -78 170
-166 201 -196 69 -67 111 -89 170 -92 60 -2 151 39 181 83 12 17 25 33 28 36
27 25 104 194 140 309 40 127 46 250 14 281 -31 31 -86 31 -152 0z"/>
<path d="M13463 13689 c-23 -4 -51 -13 -63 -19 -11 -6 -20 -8 -20 -6 0 17
-220 -84 -271 -125 -20 -16 -42 -29 -48 -29 -6 0 -11 -4 -11 -8 0 -5 -10 -13
-23 -19 -45 -21 -242 -208 -317 -301 -19 -24 -45 -56 -58 -70 -12 -15 -35 -45
-50 -67 -15 -22 -34 -48 -43 -58 -9 -10 -25 -35 -35 -55 -11 -20 -22 -38 -26
-40 -5 -2 -8 -10 -8 -18 0 -8 -4 -14 -9 -14 -15 0 -87 -150 -115 -239 -33
-103 -40 -192 -20 -240 8 -20 19 -38 25 -42 5 -3 11 -37 13 -75 2 -68 38 -174
57 -174 5 0 9 -6 9 -14 0 -8 8 -21 18 -28 9 -7 22 -22 28 -33 6 -11 35 -39 65
-63 30 -23 59 -47 66 -52 7 -6 15 -10 18 -10 3 0 17 -11 31 -23 14 -13 58 -39
97 -57 40 -18 84 -39 99 -47 15 -7 30 -14 33 -14 2 0 20 -6 40 -14 19 -8 42
-17 52 -18 10 -2 31 -9 48 -16 16 -7 47 -14 70 -17 22 -3 58 -8 80 -11 61 -8
312 -7 385 2 35 4 94 16 130 26 36 11 76 22 90 25 13 3 28 11 32 17 4 7 8 8 8
3 0 -6 5 -5 12 2 7 7 18 12 26 12 25 0 192 78 247 115 17 11 47 29 68 39 20
11 37 23 37 28 0 4 6 8 13 8 32 0 279 242 337 330 8 12 20 28 26 34 30 32 116
175 135 224 23 61 37 204 22 225 -11 14 -10 23 6 62 7 17 10 47 8 68 -5 37
-41 87 -64 87 -7 0 -24 21 -39 48 -49 85 -173 221 -303 332 -22 19 -60 52 -83
72 -23 21 -50 41 -60 44 -10 3 -18 9 -18 13 0 4 -22 18 -50 32 -27 13 -50 27
-50 32 0 4 -7 7 -15 7 -8 0 -15 4 -15 9 0 16 -227 101 -315 118 -50 9 -257 11
-302 2z m257 -362 c8 -2 29 -8 45 -12 63 -17 365 -203 421 -259 8 -8 35 -30
60 -47 24 -18 41 -36 37 -40 -5 -4 -33 -11 -63 -14 -30 -4 -57 -8 -61 -11 -4
-2 -27 -7 -51 -10 -24 -4 -50 -10 -59 -15 -9 -4 -19 -6 -21 -3 -3 2 -17 0 -32
-6 -15 -5 -39 -12 -54 -15 -35 -6 -71 -13 -102 -20 -54 -11 -71 -15 -92 -20
-13 -3 -36 -8 -53 -11 -55 -10 -230 -55 -260 -67 -16 -6 -35 -12 -41 -13 -6
-1 -38 -10 -70 -19 -33 -10 -66 -19 -74 -20 -8 -2 -16 -4 -17 -4 -2 -1 -5 -1
-8 -1 -3 -1 -24 -8 -47 -16 -24 -9 -50 -17 -58 -19 -8 -2 -16 -4 -17 -5 -2 -2
-7 -4 -13 -5 -5 -1 -12 -3 -15 -4 -3 0 -7 -1 -10 -1 -3 0 -22 -7 -43 -16 -20
-8 -66 -25 -102 -36 -36 -11 -78 -26 -95 -32 -31 -14 -147 -54 -178 -63 -14
-4 -4 15 32 66 28 39 51 73 51 74 0 2 18 23 40 47 22 24 40 48 40 53 0 10 36
49 194 211 55 55 109 108 122 116 12 9 40 31 61 51 47 44 251 169 275 169 9 0
20 5 23 10 4 6 9 9 13 6 4 -2 16 0 27 4 20 7 166 5 195 -3z m619 -787 c-39
-44 -75 -80 -78 -80 -3 0 -26 -18 -50 -41 -25 -22 -69 -54 -98 -72 -29 -17
-53 -35 -53 -39 0 -5 -6 -8 -14 -8 -8 0 -16 -3 -18 -7 -6 -14 -255 -139 -266
-134 -1 1 -17 -6 -35 -15 -62 -32 -69 -35 -74 -30 -3 2 -17 0 -32 -6 -14 -5
-39 -12 -56 -14 -16 -3 -41 -8 -55 -12 -14 -4 -43 -8 -65 -7 -31 0 -39 4 -36
15 11 41 12 133 1 165 -6 19 -23 49 -36 65 -26 31 -25 33 21 45 45 12 45 12
48 15 1 1 9 3 17 5 8 2 26 7 40 10 14 3 39 9 55 11 17 3 89 21 160 40 72 20
143 38 159 40 16 3 41 11 55 16 34 14 33 14 131 38 115 28 107 26 175 44 33 9
71 19 85 22 14 2 32 7 40 11 8 3 18 7 22 7 3 1 10 5 14 9 5 5 10 3 12 -2 2 -6
-29 -47 -69 -91z"/>
<path d="M6170 13310 c-67 -14 -206 -56 -265 -80 -11 -4 -34 -13 -52 -20 -38
-14 -160 -90 -189 -117 -7 -7 -16 -13 -20 -13 -11 0 -155 -141 -231 -226 -61
-68 -90 -166 -59 -196 12 -13 17 -44 21 -135 2 -65 7 -138 10 -161 8 -56 91
-309 113 -342 9 -14 25 -42 35 -62 11 -21 23 -38 28 -38 5 0 9 -7 9 -15 0 -9
7 -18 15 -21 8 -4 15 -11 15 -18 0 -16 179 -196 195 -196 7 0 15 -6 18 -13 2
-7 23 -22 46 -32 22 -11 41 -23 41 -27 0 -3 16 -12 35 -18 19 -6 35 -16 35
-21 0 -5 3 -8 8 -7 4 1 26 -8 50 -20 23 -12 42 -20 42 -17 0 3 10 -1 23 -9 35
-22 158 -59 234 -71 12 -2 26 -6 32 -9 16 -10 124 -17 266 -16 160 1 194 4
285 24 14 3 39 9 55 12 17 3 35 9 40 12 6 4 15 7 21 8 6 1 50 20 98 43 48 22
91 41 97 41 5 0 9 5 9 10 0 6 6 10 14 10 8 0 35 16 60 35 26 19 49 35 52 35
18 0 111 77 194 159 52 52 113 104 134 115 22 12 45 30 50 41 6 11 16 23 21
27 6 4 10 42 10 85 -1 75 -21 158 -82 331 -8 23 -16 49 -17 57 -1 8 -5 18 -9
21 -4 4 -7 15 -7 24 0 26 -120 270 -132 270 -4 0 -8 7 -8 15 0 8 -4 15 -10 15
-5 0 -10 6 -10 13 0 7 -8 20 -17 29 -10 9 -27 29 -38 44 -52 72 -174 179 -263
231 -114 67 -172 93 -282 129 -42 14 -55 17 -120 30 -14 3 -47 12 -75 21 -59
18 -451 28 -525 13z m280 -289 c36 -6 85 -16 110 -21 25 -6 54 -12 65 -15 97
-19 252 -88 348 -154 58 -39 159 -139 183 -180 10 -17 22 -31 26 -31 4 0 8 -5
8 -12 0 -6 8 -21 19 -32 10 -12 33 -55 51 -96 18 -41 46 -102 63 -135 17 -33
36 -74 43 -92 10 -27 9 -30 -5 -25 -9 3 -18 9 -21 12 -5 7 -107 61 -112 59 -4
-1 -40 12 -73 26 -16 7 -52 20 -78 29 -26 9 -65 25 -85 35 -20 10 -40 20 -44
20 -4 1 -24 9 -45 17 -20 9 -44 18 -52 19 -27 7 -184 66 -228 87 -24 11 -49
21 -55 22 -7 2 -24 8 -38 13 -14 6 -59 21 -100 33 -41 13 -103 33 -138 47 -35
13 -71 24 -80 26 -9 1 -21 5 -27 9 -5 3 -26 9 -45 14 -19 4 -41 9 -47 11 -7 2
-19 4 -25 6 -7 2 -35 11 -63 20 -27 9 -59 18 -70 20 -11 2 -27 7 -35 10 -51
19 -140 44 -192 54 -37 7 -35 19 5 38 17 8 46 23 62 33 55 32 247 104 285 105
3 0 21 4 40 9 19 5 49 11 65 13 17 3 50 8 75 13 58 10 130 8 210 -7z m-680
-596 c67 -25 92 -36 125 -53 17 -9 32 -16 35 -16 3 1 19 -5 37 -13 18 -7 39
-13 46 -13 8 0 17 -3 21 -7 4 -5 11 -8 14 -9 4 0 19 -5 33 -11 14 -6 45 -17
70 -24 24 -7 54 -19 67 -27 12 -8 22 -10 22 -6 0 5 4 3 8 -3 4 -7 17 -14 27
-16 11 -2 34 -10 50 -16 17 -7 37 -14 45 -16 8 -2 16 -4 18 -5 1 -2 7 -4 12
-5 6 -1 12 -4 15 -5 3 -1 10 -4 15 -5 6 -1 12 -4 15 -5 3 -1 8 -3 13 -5 4 -1
14 -4 22 -8 8 -3 32 -11 53 -17 l38 -12 -26 -20 c-14 -11 -25 -26 -25 -34 0
-8 -4 -14 -9 -14 -10 0 -36 -74 -46 -131 l-7 -36 -41 8 c-23 4 -58 10 -77 14
-47 8 -53 10 -65 17 -10 6 -70 20 -80 19 -3 -1 -22 8 -42 19 -21 11 -42 20
-46 20 -28 0 -185 110 -244 171 -63 65 -132 175 -147 234 -3 13 -9 31 -13 41
-5 13 -3 16 8 12 8 -3 34 -13 59 -23z"/>
<path d="M12181 11263 c-33 -27 -45 -93 -24 -134 37 -74 132 -166 268 -261 56
-39 146 -87 174 -93 9 -2 68 -22 131 -44 136 -49 185 -52 256 -16 39 19 56 35
72 69 12 24 22 55 22 68 0 77 -78 168 -187 218 -37 17 -70 35 -73 39 -7 11
-70 43 -70 36 0 -3 -10 1 -22 9 -19 11 -82 35 -110 42 -5 1 -10 3 -13 4 -3 1
-8 3 -12 4 -5 1 -42 12 -83 25 -41 13 -84 25 -95 27 -139 30 -203 32 -234 7z"/>
<path d="M8090 11049 c-30 -17 -62 -39 -71 -48 -8 -9 -29 -25 -45 -36 -53 -37
-305 -289 -330 -332 -37 -62 -41 -148 -9 -196 28 -40 46 -48 116 -51 52 -3
120 21 150 52 25 26 60 54 99 80 35 24 44 32 183 163 70 67 128 138 133 164 1
6 9 29 17 51 12 32 13 52 5 88 -13 62 -49 87 -131 93 -56 4 -68 1 -117 -28z"/>
<path d="M11020 10597 c-5 -5 -89 -12 -255 -22 -49 -3 -108 -8 -130 -10 -22
-2 -67 -7 -100 -10 -33 -3 -67 -8 -75 -10 -8 -2 -28 -7 -45 -10 -16 -2 -41 -7
-55 -10 -14 -3 -41 -8 -60 -11 -19 -2 -57 -9 -85 -15 -27 -6 -66 -13 -85 -15
-19 -3 -53 -10 -75 -15 -51 -14 -61 -16 -126 -24 -59 -7 -139 -22 -219 -41
-14 -3 -41 -8 -60 -11 -63 -9 -362 -95 -415 -118 -16 -7 -63 -23 -102 -36 -40
-12 -73 -25 -73 -29 0 -4 -6 -7 -13 -7 -26 0 -106 -55 -140 -97 -76 -92 -102
-170 -87 -257 13 -78 65 -170 129 -227 31 -26 150 -90 177 -95 11 -1 24 -6 30
-10 6 -3 26 -9 45 -11 19 -3 50 -8 69 -11 106 -15 137 -19 280 -29 96 -7 157
-14 215 -22 54 -8 55 -8 96 -22 20 -7 52 -14 70 -16 19 -2 41 -6 49 -9 8 -3
39 -11 68 -17 29 -7 77 -25 107 -42 l55 -30 -6 -171 c-14 -341 -11 -508 12
-662 6 -40 7 -48 18 -120 4 -22 9 -47 12 -55 3 -8 8 -28 11 -45 3 -16 9 -35
14 -41 6 -8 4 -14 -6 -18 -8 -3 -15 -12 -15 -20 0 -8 -4 -16 -8 -18 -6 -2
-114 -249 -142 -323 -4 -11 -13 -33 -20 -50 -27 -63 -52 -133 -52 -142 0 -4
-4 -13 -8 -18 -5 -6 -11 -22 -14 -35 -3 -14 -10 -43 -16 -65 -13 -50 -11 -190
4 -231 12 -32 40 -70 69 -93 22 -18 124 -23 152 -9 66 34 144 163 159 263 5
35 15 89 22 125 2 14 6 36 9 50 2 14 6 41 9 60 3 19 9 46 12 60 4 14 13 66 22
115 8 50 17 92 18 94 6 6 43 -43 44 -56 0 -7 5 -13 10 -13 6 0 10 -7 10 -15 0
-8 4 -15 9 -15 5 0 14 -13 21 -30 7 -16 16 -30 21 -30 5 0 9 -7 9 -15 0 -8 5
-15 10 -15 6 0 10 -6 10 -13 0 -30 270 -307 299 -307 5 0 11 -4 13 -9 7 -21
139 -30 146 -10 2 5 9 9 16 9 7 0 21 9 31 20 10 11 15 20 11 20 -3 0 1 11 9
24 23 34 12 109 -26 184 -17 34 -34 64 -39 67 -4 3 -18 25 -30 49 -11 24 -32
56 -45 70 -14 15 -25 30 -25 34 0 7 -209 222 -251 259 -14 12 -48 32 -77 44
-43 19 -51 26 -46 43 15 60 8 480 -10 626 -3 19 -7 60 -11 90 -3 30 -9 69 -14
85 -5 17 -13 53 -17 80 -4 28 -9 57 -10 64 -2 8 -4 31 -6 50 -3 32 0 35 27 38
17 2 80 28 140 57 61 29 131 61 157 70 26 10 50 22 53 27 4 5 13 9 21 9 26 0
218 90 281 132 23 15 46 28 52 28 6 0 11 5 11 10 0 6 7 10 15 10 8 0 15 5 15
10 0 6 7 10 15 10 8 0 15 3 15 8 0 4 8 12 18 17 26 14 114 72 129 85 7 5 14
10 17 10 3 0 49 29 102 66 190 128 257 217 258 345 1 39 -4 72 -11 81 -7 8
-10 18 -6 21 3 4 1 7 -6 7 -7 0 -9 5 -6 10 3 6 1 10 -4 10 -6 0 -11 7 -11 15
0 8 -4 15 -10 15 -5 0 -10 7 -10 15 0 26 -132 145 -195 175 -66 31 -134 52
-146 44 -4 -2 -11 0 -14 6 -4 6 -25 11 -48 11 -23 0 -114 2 -202 5 -88 3 -162
4 -165 1z"/>
<path d="M15788 10139 c-10 -5 -18 -7 -18 -4 0 7 -60 -23 -76 -39 -6 -6 -21
-19 -33 -28 -16 -13 -21 -29 -21 -62 0 -41 19 -74 33 -59 4 3 7 2 7 -4 0 -6
28 -21 63 -33 144 -52 219 -102 293 -195 27 -33 51 -62 54 -65 3 -3 28 -40 55
-83 26 -43 53 -84 59 -90 11 -12 117 -225 114 -230 -1 -1 5 -13 12 -27 8 -14
15 -29 16 -35 1 -5 10 -37 19 -70 10 -33 19 -69 20 -80 1 -11 3 -20 4 -20 8 0
33 -231 37 -345 3 -69 7 -133 9 -143 7 -35 -16 -338 -31 -415 -9 -42 -17 -86
-19 -97 -1 -11 -5 -27 -9 -35 -3 -8 -7 -24 -9 -35 -2 -11 -7 -28 -11 -37 -4
-9 -9 -22 -10 -30 -1 -7 -14 -40 -30 -73 -15 -33 -30 -69 -32 -80 -2 -11 -8
-21 -14 -23 -6 -2 -8 -8 -4 -13 3 -5 0 -9 -6 -9 -6 0 -8 -4 -5 -10 3 -5 1 -10
-5 -10 -6 0 -8 -4 -5 -10 3 -5 1 -10 -5 -10 -6 0 -8 -4 -5 -10 3 -5 1 -10 -5
-10 -6 0 -8 -4 -5 -10 3 -5 1 -10 -4 -10 -6 0 -11 -5 -11 -11 0 -6 -8 -23 -18
-37 -10 -15 -36 -61 -58 -102 -21 -41 -42 -77 -45 -80 -3 -3 -34 -48 -69 -100
-56 -83 -85 -122 -163 -222 -11 -12 -24 -33 -30 -45 -5 -13 -14 -23 -18 -23
-11 0 -89 -106 -89 -120 0 -5 -4 -10 -8 -10 -15 0 -62 -109 -62 -143 0 -59
169 -102 289 -73 81 19 175 62 214 98 14 13 36 30 48 38 49 32 279 269 344
355 11 14 28 34 38 43 9 9 17 22 17 28 0 7 4 14 9 16 14 4 101 139 101 155 0
7 5 13 10 13 6 0 18 17 28 38 9 20 22 40 27 44 6 4 7 8 2 8 -4 0 4 21 17 48
52 102 100 228 110 287 1 6 5 16 10 23 4 7 5 16 2 19 -3 3 -1 12 6 20 6 7 8
16 5 20 -4 3 -2 12 3 18 6 7 12 33 14 58 2 25 6 49 10 55 3 5 6 21 6 33 2 50
8 105 15 121 12 31 11 428 -2 518 -7 47 -15 103 -18 125 -5 41 -15 96 -29 165
-3 14 -8 43 -12 65 -3 22 -10 45 -15 51 -5 6 -6 14 -3 17 3 3 2 12 -2 19 -5 7
-10 23 -12 35 -1 13 -12 44 -24 70 -12 27 -22 51 -23 56 -2 4 -4 9 -5 12 -1 3
-3 8 -4 13 -4 24 -52 132 -59 132 -4 0 -5 5 -2 10 3 6 1 10 -4 10 -6 0 -10 3
-9 8 3 6 -39 81 -51 92 -4 3 -15 22 -25 43 -11 20 -23 37 -28 37 -4 0 -8 6 -8
13 0 25 -260 307 -283 307 -3 0 -18 11 -33 25 -15 14 -50 37 -78 51 -28 14
-66 35 -84 46 -55 34 -166 58 -266 58 -50 0 -99 -5 -108 -11z"/>
<path d="M15815 9205 c-63 -27 -95 -84 -90 -164 3 -52 28 -88 81 -118 96 -55
210 5 229 119 5 25 2 44 -5 53 -7 8 -9 15 -6 15 4 0 -1 14 -11 30 -18 32 -54
60 -82 65 -9 2 -16 4 -16 5 0 9 -77 6 -100 -5z"/>
<path d="M4249 9044 c-19 -12 -44 -33 -56 -47 -31 -37 -94 -137 -85 -137 4 0
2 -4 -4 -8 -11 -8 -67 -161 -79 -219 -2 -10 -13 -56 -25 -103 -35 -135 -37
-524 -3 -610 3 -8 7 -22 9 -30 8 -40 16 -86 16 -90 0 -3 5 -16 10 -30 5 -14
11 -32 13 -40 8 -39 39 -137 48 -155 6 -11 11 -22 12 -25 1 -17 109 -240 117
-240 4 0 8 -5 8 -11 0 -15 120 -189 130 -189 5 0 12 -9 15 -20 4 -11 73 -86
153 -168 156 -156 196 -192 212 -192 6 0 10 -5 10 -10 0 -6 8 -14 18 -17 9 -4
26 -16 37 -26 11 -10 29 -23 40 -28 27 -12 55 -31 76 -51 18 -17 259 -140 259
-132 0 2 11 -3 24 -12 14 -8 27 -15 30 -15 3 0 11 -1 18 -4 59 -18 90 -27 110
-30 13 -3 34 -7 48 -10 65 -14 187 -26 219 -21 20 3 56 8 81 12 59 7 190 51
211 70 23 21 29 60 12 83 -7 11 -37 28 -66 39 -28 11 -83 36 -122 56 -38 20
-75 36 -80 36 -11 0 -242 109 -285 135 -14 8 -45 25 -70 37 -25 13 -47 25 -50
28 -17 18 -80 60 -89 60 -6 0 -11 5 -11 10 0 6 -5 10 -11 10 -6 0 -27 16 -47
35 -20 19 -41 35 -45 35 -10 0 -257 246 -257 256 0 4 -15 23 -32 43 -50 56
-71 83 -90 112 -9 14 -23 32 -30 40 -7 8 -26 39 -42 69 -16 30 -32 57 -35 60
-3 3 -7 10 -8 16 -1 7 -16 35 -32 63 -17 28 -28 51 -25 51 4 0 -1 11 -10 25
-9 14 -14 25 -10 25 3 0 -1 11 -10 25 -9 14 -14 25 -11 25 4 0 0 14 -31 95 -4
11 -8 25 -9 31 -2 6 -11 38 -20 70 -19 64 -22 78 -31 139 -8 54 -7 332 1 419
3 39 8 88 9 110 2 23 6 48 9 56 5 13 14 96 19 175 5 72 -11 108 -59 133 -30
16 -64 12 -104 -14z"/>
<path d="M15093 9040 c-13 -5 -23 -16 -23 -25 0 -8 -4 -15 -10 -15 -13 0 -13
-76 0 -101 34 -62 145 -55 168 10 21 59 -2 116 -50 126 -18 4 -40 8 -48 10 -8
2 -25 0 -37 -5z"/>
<path d="M5111 8964 c-31 -13 -109 -84 -112 -102 -7 -33 -5 -132 3 -132 5 0 6
-4 3 -10 -6 -10 91 -111 103 -108 4 1 26 -1 50 -5 32 -6 53 -3 85 12 49 23 95
68 103 102 10 38 13 113 6 124 -4 5 -7 17 -9 25 -1 8 -23 33 -48 56 -61 55
-118 67 -184 38z"/>
<path d="M15995 8406 c-16 -6 -44 -26 -62 -44 -29 -29 -33 -39 -33 -87 0 -48
4 -59 33 -89 38 -41 72 -56 121 -52 44 4 102 42 115 76 13 34 17 82 8 98 -5 6
-6 12 -2 12 3 0 -1 13 -10 30 -14 27 -75 70 -75 53 0 -4 -5 -2 -12 5 -14 14
-43 14 -83 -2z"/>
<path d="M5905 8326 c-28 -12 -102 -86 -87 -86 4 0 1 -4 -6 -9 -7 -4 -16 -33
-19 -65 -7 -65 10 -108 64 -163 48 -49 66 -53 190 -44 6 1 19 9 29 19 10 9 19
16 21 15 2 -2 14 7 28 19 37 32 70 159 48 182 -4 3 -8 14 -9 23 -5 30 -27 62
-46 69 -10 3 -18 10 -18 15 0 33 -138 50 -195 25z"/>
<path d="M14872 8130 c-41 -25 -59 -55 -67 -111 -8 -56 15 -115 52 -132 12 -5
23 -13 23 -17 0 -4 6 -7 13 -8 85 -9 107 -9 107 -1 0 6 4 8 9 5 14 -9 79 61
86 93 14 64 -16 148 -56 158 -10 3 -17 9 -14 12 5 9 0 10 -71 15 -38 3 -59 0
-82 -14z"/>
<path d="M4865 8120 c-23 -9 -47 -35 -52 -56 -13 -54 -14 -81 -3 -115 7 -21
19 -39 25 -39 7 0 18 -7 25 -15 7 -9 21 -13 31 -10 11 4 19 2 19 -4 0 -16 32
-13 58 5 12 8 22 12 22 9 0 -4 7 0 15 9 8 8 15 19 15 25 0 5 7 14 15 19 10 5
17 24 18 49 1 46 -32 105 -71 122 -27 13 -88 13 -117 1z"/>
<path d="M6230 7379 c0 -6 -4 -7 -10 -4 -5 3 -10 1 -10 -4 0 -6 -6 -11 -12
-11 -27 -1 -53 -54 -52 -107 0 -47 4 -56 37 -89 30 -31 44 -37 84 -39 58 -2
117 26 132 64 18 45 24 101 10 101 -7 0 -9 3 -6 6 9 10 -22 58 -46 74 -26 16
-127 23 -127 9z"/>
<path d="M5497 7361 c-87 -44 -104 -165 -33 -248 10 -12 23 -20 27 -17 5 3 9
1 9 -5 0 -16 87 -25 118 -12 15 6 43 28 62 47 32 34 35 40 35 100 0 36 -5 68
-11 72 -6 4 -14 15 -17 25 -4 11 -16 21 -27 24 -11 3 -20 9 -20 12 0 4 -6 8
-12 9 -76 9 -102 7 -131 -7z"/>
<path d="M15473 7280 c-24 -10 -63 -65 -63 -90 0 -21 46 -86 62 -88 73 -8 104
2 123 39 22 41 18 83 -9 116 -26 31 -71 40 -113 23z"/>
<path d="M11497 6562 c-26 -15 -61 -38 -78 -52 -17 -14 -40 -33 -52 -42 -12
-10 -27 -22 -33 -27 -6 -5 -25 -16 -41 -25 -17 -8 -44 -27 -61 -41 -16 -14
-74 -48 -129 -76 -54 -29 -105 -57 -113 -63 -14 -11 -43 -25 -122 -60 -18 -8
-87 -32 -153 -54 -108 -36 -128 -39 -205 -36 -47 1 -92 4 -100 6 -50 13 -209
109 -292 178 -53 44 -101 80 -106 80 -5 0 -12 6 -15 13 -3 8 -26 22 -53 32
-57 22 -130 12 -148 -20 -6 -11 -17 -24 -24 -30 -23 -19 -17 -107 13 -173 15
-34 31 -62 35 -62 4 0 10 -10 14 -22 17 -68 230 -284 324 -329 26 -12 49 -25
52 -28 9 -11 70 -42 70 -36 0 3 10 -1 23 -9 23 -14 111 -43 137 -45 132 -9
357 0 381 15 5 3 19 7 31 9 56 10 108 28 108 38 0 6 3 7 7 4 3 -4 17 0 30 8
13 9 23 13 23 10 0 -13 179 88 247 138 136 102 301 265 385 382 83 116 104
196 69 267 -26 54 -50 69 -120 74 -47 3 -64 0 -104 -24z"/>
</g>
</svg>
