<?xml version="1.0" standalone="no"?>
<!DOCTYPE svg PUBLIC "-//W3C//DTD SVG 20010904//EN"
 "http://www.w3.org/TR/2001/REC-SVG-20010904/DTD/svg10.dtd">
<svg version="1.0" xmlns="http://www.w3.org/2000/svg"
 width="2048.000000pt" height="2048.000000pt" viewBox="0 0 2048.000000 2048.000000"
 preserveAspectRatio="xMidYMid meet">
<metadata>
Created by potrace 1.16, written by Peter Selinger 2001-2019
</metadata>
<g transform="translate(0.000000,2048.000000) scale(0.100000,-0.100000)"
fill="#474973" stroke="none">
<path d="M15974 17358 c-3 -4 -11 -8 -19 -8 -8 0 -53 -18 -102 -41 -94 -43
-140 -64 -188 -84 -83 -34 -464 -228 -550 -280 -22 -13 -53 -31 -70 -39 -16
-9 -43 -25 -60 -36 -16 -11 -37 -23 -45 -26 -12 -6 -116 -68 -245 -147 -11 -6
-41 -27 -68 -44 -26 -18 -52 -33 -57 -33 -6 0 -10 -4 -10 -10 0 -5 -7 -10 -15
-10 -8 0 -15 -4 -15 -10 0 -5 -7 -10 -15 -10 -8 0 -15 -4 -15 -9 0 -5 -8 -12
-17 -15 -10 -3 -31 -17 -47 -31 -16 -14 -32 -25 -35 -25 -3 0 -20 -13 -38 -28
-17 -15 -44 -36 -59 -47 -15 -11 -32 -25 -38 -30 -6 -6 -21 -18 -34 -27 -33
-22 -149 -127 -265 -238 -54 -52 -104 -93 -110 -92 -16 5 -24 7 -178 46 -75
19 -153 37 -174 40 -21 4 -47 8 -59 11 -12 3 -34 7 -51 10 -16 3 -55 9 -85 15
-30 5 -80 12 -110 16 -69 8 -90 11 -137 18 -21 3 -56 8 -78 11 -22 3 -56 7
-75 9 -19 3 -53 8 -75 10 -22 3 -56 8 -75 11 -19 3 -55 8 -80 11 -25 3 -61 7
-80 10 -19 2 -55 7 -80 9 -25 3 -63 8 -85 10 -22 3 -60 7 -85 9 -25 3 -70 8
-100 11 -30 3 -75 8 -100 10 -25 2 -70 7 -100 10 -234 24 -518 39 -720 39
-224 0 -563 -15 -865 -39 -38 -3 -97 -7 -130 -10 -33 -2 -87 -7 -120 -10 -90
-8 -154 -14 -215 -20 -60 -5 -114 -11 -200 -20 -30 -3 -73 -8 -95 -10 -22 -2
-69 -7 -105 -10 -36 -3 -72 -8 -80 -10 -8 -3 -44 -7 -80 -10 -36 -3 -92 -10
-125 -15 -33 -5 -80 -12 -105 -15 -43 -5 -108 -14 -141 -20 -9 -2 -40 -6 -70
-10 -30 -3 -67 -8 -82 -11 -16 -3 -38 -7 -50 -9 -100 -13 -129 -17 -182 -27
-33 -5 -76 -12 -95 -14 -51 -7 -363 -61 -395 -70 -5 -1 -28 -5 -50 -9 -22 -3
-48 -8 -57 -11 -18 -5 -45 -11 -93 -20 -16 -3 -50 -10 -75 -15 -25 -6 -56 -13
-70 -15 -14 -3 -43 -10 -65 -16 -22 -6 -44 -11 -50 -12 -5 -1 -19 -5 -30 -9
-11 -3 -31 -8 -45 -11 -42 -8 -226 -57 -325 -86 -16 -4 -55 -16 -85 -24 -30
-9 -62 -18 -70 -20 -8 -3 -15 -5 -15 -6 0 -1 -8 -3 -17 -5 -30 -6 -423 -137
-433 -145 -5 -4 -50 -20 -100 -35 -49 -15 -108 -35 -130 -45 -22 -10 -65 -28
-95 -40 -64 -26 -191 -91 -235 -120 -16 -11 -38 -23 -47 -26 -10 -4 -18 -10
-18 -15 0 -5 -7 -9 -15 -9 -8 0 -15 -4 -15 -9 0 -5 -9 -11 -20 -14 -20 -5 -37
2 -115 49 -22 13 -58 33 -80 45 -22 12 -62 34 -90 50 -27 16 -68 38 -90 50
-22 12 -67 36 -100 55 -33 19 -98 53 -145 76 -47 23 -87 45 -90 48 -7 8 -260
131 -395 191 -22 10 -67 30 -99 45 -33 14 -64 27 -70 29 -21 4 -51 17 -81 33
-16 9 -30 15 -30 13 0 -5 -48 13 -117 43 -20 9 -42 16 -50 16 -8 0 -18 4 -24
9 -7 7 -69 31 -96 37 -5 1 -10 3 -13 4 -3 1 -9 4 -15 5 -5 1 -12 4 -15 5 -3 1
-8 3 -12 4 -5 1 -14 5 -20 9 -7 5 -13 6 -13 3 0 -3 -17 2 -37 11 -21 8 -38 14
-38 13 0 -1 -18 3 -40 8 -100 26 -224 34 -295 20 -19 -4 -45 -10 -57 -12 -30
-6 -79 -44 -109 -84 -21 -26 -26 -44 -26 -95 -1 -71 0 -72 148 -297 49 -74 95
-146 102 -160 7 -14 20 -32 28 -41 8 -8 14 -19 14 -24 0 -4 11 -23 25 -41 14
-18 25 -36 25 -40 0 -3 16 -29 35 -55 19 -27 35 -52 35 -55 0 -3 56 -89 125
-190 69 -102 125 -187 125 -190 0 -3 9 -14 20 -26 11 -12 26 -34 32 -50 7 -15
16 -28 20 -28 5 0 8 -7 8 -15 0 -8 5 -15 10 -15 6 0 10 -6 10 -14 0 -8 3 -16
8 -18 4 -2 33 -41 64 -88 31 -47 69 -98 84 -115 15 -16 36 -40 47 -53 l21 -22
-29 -30 c-15 -16 -31 -27 -35 -25 -10 6 -55 -43 -47 -52 8 -7 85 15 104 30 9
6 18 5 28 -3 9 -7 18 -10 22 -7 3 4 12 2 20 -4 10 -9 3 -19 -36 -48 -118 -88
-403 -360 -478 -456 -17 -22 -50 -60 -72 -85 -22 -25 -41 -48 -41 -52 0 -4 -6
-13 -13 -20 -7 -7 -36 -44 -65 -83 -28 -38 -55 -75 -60 -80 -5 -6 -17 -24 -28
-40 -10 -17 -21 -32 -25 -35 -3 -3 -23 -32 -44 -65 -21 -33 -41 -62 -45 -65
-10 -7 -110 -158 -110 -165 0 -4 -20 -35 -45 -69 -25 -35 -45 -68 -45 -74 0
-5 -6 -15 -14 -21 -8 -7 -22 -26 -31 -44 -9 -18 -25 -45 -35 -62 -11 -16 -23
-37 -26 -45 -4 -8 -13 -22 -19 -30 -24 -29 -214 -397 -263 -510 -11 -25 -32
-71 -46 -102 -14 -31 -26 -62 -26 -68 0 -5 -4 -18 -9 -28 -8 -16 -17 -36 -40
-94 -5 -13 -18 -44 -30 -69 -11 -26 -23 -59 -27 -75 -4 -15 -13 -39 -20 -53
-8 -14 -14 -31 -14 -37 0 -7 -7 -25 -15 -40 -8 -16 -15 -37 -15 -46 0 -9 -4
-19 -9 -22 -4 -3 -14 -27 -21 -53 -7 -27 -16 -52 -20 -58 -4 -5 -15 -35 -24
-65 -10 -30 -20 -62 -23 -70 -4 -8 -7 -17 -7 -20 -1 -3 -4 -9 -7 -15 -7 -11
-79 -228 -83 -248 -2 -7 -15 -52 -30 -102 -55 -185 -66 -222 -81 -285 -9 -36
-18 -72 -20 -80 -21 -74 -35 -131 -40 -160 -3 -19 -12 -57 -20 -85 -8 -27 -16
-61 -19 -75 -2 -14 -11 -54 -20 -90 -8 -36 -17 -76 -20 -90 -2 -14 -12 -58
-20 -97 -9 -40 -18 -85 -21 -100 -3 -16 -7 -39 -10 -53 -3 -14 -7 -36 -10 -50
-2 -14 -9 -47 -15 -75 -5 -27 -11 -61 -14 -75 -2 -14 -11 -65 -20 -115 -8 -49
-18 -106 -21 -125 -3 -19 -11 -78 -20 -130 -8 -52 -17 -120 -20 -150 -4 -30
-8 -68 -10 -85 -9 -72 -24 -227 -30 -300 -2 -27 -7 -86 -10 -130 -16 -190 -30
-468 -30 -605 0 -111 8 -251 20 -355 3 -27 6 -57 7 -65 0 -8 4 -37 9 -65 10
-54 16 -90 24 -132 7 -46 15 -87 20 -113 3 -14 8 -41 11 -60 3 -19 10 -53 16
-75 5 -22 12 -51 15 -65 4 -23 43 -177 63 -245 4 -16 16 -56 24 -89 9 -32 27
-86 41 -120 13 -33 27 -73 31 -89 3 -15 10 -30 15 -33 5 -3 9 -12 9 -20 0 -8
7 -30 15 -50 8 -19 14 -37 14 -39 0 -3 6 -18 14 -33 8 -15 23 -47 34 -72 56
-124 119 -254 128 -264 6 -6 21 -33 34 -59 13 -26 28 -47 32 -47 5 0 9 -7 9
-15 0 -8 5 -15 10 -15 6 0 10 -7 10 -16 0 -29 64 -169 107 -234 62 -93 138
-199 168 -233 6 -7 50 -66 100 -132 96 -130 313 -354 410 -426 33 -24 62 -46
65 -50 3 -3 32 -25 65 -50 33 -24 66 -50 73 -57 8 -7 30 -25 50 -40 21 -15 46
-35 57 -45 30 -29 193 -140 251 -173 74 -41 205 -117 229 -131 11 -7 29 -17
40 -23 11 -6 34 -19 50 -30 17 -11 37 -23 45 -26 8 -4 22 -13 30 -19 8 -7 38
-25 65 -40 28 -15 77 -42 110 -61 66 -38 244 -127 321 -161 27 -12 80 -35 117
-52 38 -17 74 -31 81 -31 6 0 16 -4 22 -8 5 -5 32 -17 59 -26 28 -10 64 -24
80 -31 17 -7 50 -19 75 -25 25 -7 50 -15 55 -20 11 -8 164 -60 253 -85 28 -8
76 -22 105 -31 66 -20 233 -63 271 -70 16 -2 33 -7 36 -9 4 -3 90 -18 191 -35
101 -17 195 -33 209 -36 14 -2 59 -9 100 -15 41 -5 86 -12 100 -15 14 -2 68
-9 120 -15 52 -5 102 -12 110 -14 8 -2 44 -7 79 -10 35 -3 78 -8 95 -10 85
-11 208 -22 326 -30 47 -3 114 -7 150 -10 36 -2 139 -7 230 -10 91 -3 188 -8
217 -10 379 -27 1242 -27 1663 0 36 2 108 7 160 10 52 3 120 7 150 10 30 2 91
6 135 10 44 3 103 7 130 10 125 11 164 15 214 20 30 3 77 8 105 10 57 6 107
11 181 20 28 3 73 8 100 11 28 3 64 7 80 9 17 2 55 6 85 9 30 4 67 9 82 12 15
3 42 7 60 10 45 6 109 15 133 19 11 1 45 6 75 9 30 4 69 9 85 13 17 3 39 7 50
8 56 7 222 33 300 49 11 2 36 7 55 11 19 4 45 8 58 11 12 2 32 6 45 8 12 3 38
8 57 11 19 4 53 11 75 16 22 5 51 12 65 15 28 6 95 22 123 29 9 3 26 7 37 10
11 3 29 7 40 10 45 11 66 16 87 21 12 2 75 20 140 39 65 20 129 38 142 41 13
3 39 11 57 19 19 8 34 12 34 10 0 -2 19 3 43 11 23 9 51 17 61 19 22 5 84 24
106 32 8 4 17 7 20 7 3 1 11 5 18 9 6 5 12 6 12 3 0 -3 33 7 73 20 39 14 79
27 87 29 8 2 16 4 18 5 1 2 7 4 12 5 6 1 12 4 15 5 3 1 10 4 15 5 6 1 12 4 15
5 3 1 8 3 13 4 17 4 148 49 157 55 6 3 15 6 20 7 14 3 172 62 215 81 19 8 45
19 58 24 12 5 34 14 50 20 15 7 36 15 47 19 22 8 55 21 98 39 15 6 39 16 55
22 15 7 36 15 47 19 11 5 36 14 55 22 19 8 51 21 70 28 19 7 39 17 45 22 5 4
15 8 22 8 11 0 48 15 158 65 17 8 64 28 105 46 41 17 120 53 175 79 214 102
296 140 300 140 5 0 152 68 375 173 41 19 111 52 155 72 238 110 640 303 695
334 19 11 62 27 95 36 33 9 89 32 125 50 86 43 254 145 258 156 2 5 8 9 13 9
13 0 133 81 137 92 2 4 9 8 14 8 12 0 121 79 126 92 2 4 10 8 18 8 8 0 17 7
20 15 4 8 11 15 16 15 11 0 123 83 151 112 10 10 21 18 25 18 4 0 24 15 45 33
20 17 52 43 69 57 17 14 41 34 53 45 12 11 42 35 66 54 24 19 58 47 74 62 17
15 57 51 89 81 155 140 330 325 386 408 8 12 22 30 30 40 63 74 173 257 164
272 -3 4 -1 8 4 8 5 0 19 26 31 58 12 31 32 73 45 92 35 54 272 540 286 585 6
22 13 45 14 50 2 6 4 15 6 20 1 6 6 16 12 23 6 6 7 12 3 12 -4 0 -2 7 5 15 7
8 9 15 5 15 -4 0 -3 6 3 13 6 7 13 24 15 37 3 14 10 36 15 50 5 14 10 27 10
30 0 3 5 23 10 45 6 22 13 51 16 65 3 14 7 35 10 47 4 13 8 31 10 41 2 9 9 35
15 57 5 22 13 58 16 80 2 22 7 58 10 80 3 22 8 60 10 85 4 46 12 114 21 185
15 122 18 226 18 575 -1 495 -13 724 -48 950 -2 14 -7 48 -10 77 -4 29 -14 89
-22 135 -8 46 -17 101 -20 123 -3 21 -7 42 -10 46 -2 4 -7 27 -10 51 -3 24
-21 111 -40 193 -19 83 -37 161 -40 175 -3 14 -19 84 -35 155 -16 72 -32 141
-35 155 -3 14 -10 43 -16 65 -6 22 -12 46 -14 53 -8 42 -155 493 -178 547 -7
16 -26 64 -41 105 -15 41 -31 80 -35 85 -4 6 -10 23 -14 39 -4 15 -15 47 -26
70 -10 22 -22 52 -25 66 -4 14 -16 45 -27 70 -11 25 -24 55 -29 68 -5 12 -13
33 -19 47 -40 100 -52 129 -79 190 -33 73 -117 245 -138 280 -10 17 -33 57
-52 90 -19 33 -38 62 -41 65 -4 3 -10 12 -13 20 -4 8 -18 33 -32 55 -14 22
-31 50 -37 63 -6 12 -15 22 -20 22 -4 0 -8 7 -8 15 0 8 -4 15 -10 15 -5 0 -10
7 -10 15 0 8 -4 15 -10 15 -5 0 -10 7 -10 15 0 8 -3 15 -8 15 -4 0 -16 16 -26
35 -10 19 -26 42 -35 52 -9 10 -29 37 -44 59 -15 23 -40 55 -55 72 -15 17 -49
57 -77 89 -27 32 -60 68 -72 80 -12 12 -59 69 -104 125 -46 57 -227 247 -404
423 -342 341 -400 396 -524 495 -17 14 -43 35 -58 48 -16 12 -46 35 -68 50
-22 15 -42 30 -45 33 -12 13 -100 69 -109 69 -6 0 -11 3 -11 8 0 4 -21 19 -47
32 -27 14 -50 28 -53 31 -3 3 -49 27 -102 54 -81 41 -94 51 -81 60 20 15 9 35
-18 35 -11 0 -17 4 -14 10 3 5 8 24 10 42 3 18 7 51 11 73 3 22 7 56 9 75 6
57 13 121 20 180 4 30 8 69 10 85 1 17 5 50 9 75 3 25 8 61 10 80 2 19 7 46
10 60 3 14 8 48 12 75 3 28 7 59 9 70 7 38 14 80 20 119 3 22 7 51 10 65 2 14
7 43 10 65 4 21 9 48 11 60 4 19 13 69 18 106 2 8 5 29 9 45 3 17 9 46 11 65
5 32 8 48 20 105 2 11 12 49 21 85 9 36 18 73 20 82 2 9 9 26 15 37 6 12 8 21
4 21 -3 0 -2 6 4 13 6 6 11 15 11 19 1 4 4 13 6 20 48 134 52 233 11 274 -9 8
-16 19 -16 24 0 5 -20 21 -44 35 -35 20 -55 25 -100 24 -31 -1 -59 -6 -62 -11z
m-292 -570 c-35 -72 -87 -188 -118 -263 -17 -41 -45 -106 -56 -127 -12 -26
-90 -221 -92 -233 -1 -5 -8 -21 -16 -35 -7 -14 -12 -25 -11 -25 1 0 -3 -13 -9
-30 -7 -16 -13 -34 -14 -40 -1 -5 -4 -14 -7 -20 -7 -11 -57 -160 -64 -191 -3
-10 -18 -73 -34 -139 -58 -233 -59 -346 -6 -427 18 -27 46 -47 109 -77 47 -23
90 -41 95 -41 5 0 23 -18 40 -39 23 -29 64 -56 154 -102 149 -76 183 -95 222
-120 17 -11 38 -22 48 -25 9 -4 17 -10 17 -15 0 -5 4 -9 10 -9 5 0 35 -18 67
-40 32 -22 66 -46 76 -53 11 -6 29 -20 40 -29 25 -20 26 -21 87 -68 25 -19 50
-39 56 -45 6 -5 45 -40 85 -76 78 -70 242 -232 394 -389 216 -222 304 -317
343 -367 41 -54 76 -96 162 -192 46 -53 91 -104 100 -114 8 -10 23 -28 33 -39
9 -12 17 -24 17 -27 0 -3 10 -17 23 -31 22 -25 171 -246 194 -288 18 -33 87
-146 93 -152 11 -11 106 -199 171 -340 12 -25 25 -53 30 -62 5 -10 9 -22 9
-28 0 -6 9 -32 21 -58 27 -60 33 -76 54 -137 10 -27 22 -54 26 -60 5 -5 9 -15
9 -23 0 -8 6 -28 14 -45 16 -37 28 -68 32 -82 1 -5 8 -23 15 -40 7 -16 13 -32
13 -35 3 -17 40 -107 47 -115 5 -5 9 -15 9 -23 0 -8 6 -28 14 -45 23 -53 131
-388 142 -442 1 -5 10 -39 19 -75 9 -36 19 -76 22 -90 2 -14 11 -54 19 -90 9
-36 18 -76 20 -90 3 -14 10 -43 15 -65 5 -22 12 -51 15 -64 3 -13 12 -51 20
-85 8 -34 17 -72 20 -86 2 -14 9 -47 15 -75 6 -27 12 -61 15 -75 5 -32 16 -91
21 -110 1 -8 5 -28 8 -45 2 -16 7 -43 10 -60 13 -76 17 -102 21 -135 2 -19 7
-51 10 -70 6 -36 10 -66 19 -160 20 -201 26 -375 26 -735 0 -320 -5 -416 -26
-605 -2 -19 -6 -60 -9 -90 -14 -151 -61 -353 -132 -575 -25 -77 -47 -149 -49
-160 -2 -11 -4 -21 -6 -22 -1 -2 -3 -7 -4 -13 -1 -5 -4 -12 -5 -15 -1 -3 -3
-8 -5 -12 -1 -5 -7 -21 -14 -38 -7 -16 -14 -43 -16 -60 -8 -68 -92 -282 -175
-442 -63 -122 -90 -163 -198 -299 -34 -43 -69 -88 -77 -99 -50 -66 -159 -178
-369 -380 -12 -11 -43 -38 -71 -59 -27 -22 -55 -44 -60 -50 -6 -6 -30 -27 -55
-46 -25 -19 -53 -42 -63 -50 -10 -8 -27 -22 -37 -30 -10 -8 -28 -22 -40 -30
-12 -8 -28 -20 -34 -26 -6 -5 -26 -19 -43 -29 -18 -11 -33 -23 -33 -27 0 -4
-7 -8 -15 -8 -8 0 -15 -4 -15 -10 0 -5 -7 -10 -15 -10 -8 0 -15 -4 -15 -10 0
-5 -5 -10 -12 -10 -6 0 -26 -11 -44 -25 -18 -14 -37 -25 -43 -25 -6 0 -11 -4
-11 -10 0 -5 -5 -10 -10 -10 -6 0 -65 -36 -131 -80 -67 -44 -125 -80 -130 -80
-5 0 -9 -4 -9 -10 0 -5 -5 -10 -11 -10 -10 0 -98 -57 -109 -70 -16 -20 -315
-174 -515 -265 -16 -8 -88 -41 -158 -74 -71 -34 -130 -61 -132 -61 -3 0 -115
-52 -322 -151 -163 -77 -253 -119 -258 -119 -2 0 -73 -33 -157 -74 -198 -95
-348 -166 -352 -166 -5 0 -174 -77 -198 -91 -10 -5 -22 -9 -28 -9 -6 0 -33
-11 -62 -25 -28 -14 -55 -25 -60 -25 -4 0 -33 -12 -65 -26 -60 -27 -91 -40
-130 -55 -13 -5 -33 -13 -45 -18 -13 -5 -93 -37 -178 -70 -85 -34 -163 -66
-172 -71 -10 -6 -22 -10 -27 -10 -5 0 -22 -5 -38 -11 -15 -6 -30 -11 -33 -12
-3 0 -39 -14 -80 -30 -41 -15 -79 -30 -85 -31 -5 -2 -17 -5 -25 -8 -80 -29
-111 -39 -130 -43 -13 -3 -53 -14 -89 -26 -36 -12 -67 -22 -68 -21 -2 1 -33
-9 -70 -22 -72 -24 -186 -59 -190 -58 -2 1 -22 -6 -45 -14 -24 -9 -54 -18 -67
-20 -14 -3 -28 -7 -33 -10 -4 -3 -18 -7 -29 -9 -12 -3 -45 -11 -73 -19 -28 -8
-53 -15 -56 -16 -3 0 -48 -12 -100 -26 -52 -14 -108 -27 -125 -30 -16 -3 -48
-10 -70 -16 -58 -16 -92 -24 -155 -34 -19 -3 -55 -10 -80 -16 -25 -5 -58 -11
-75 -14 -39 -5 -269 -42 -315 -50 -39 -8 -45 -9 -110 -18 -25 -3 -58 -8 -75
-11 -84 -12 -115 -16 -165 -21 -30 -2 -62 -7 -70 -9 -8 -3 -37 -7 -65 -10 -27
-3 -63 -8 -80 -10 -16 -2 -55 -6 -85 -9 -30 -3 -77 -8 -105 -11 -27 -3 -75 -8
-105 -11 -74 -7 -124 -11 -193 -18 -122 -12 -182 -17 -377 -31 -36 -2 -112 -7
-170 -10 -58 -3 -134 -8 -170 -10 -390 -25 -1263 -25 -1550 0 -19 2 -105 6
-190 9 -85 4 -186 8 -225 11 -38 2 -115 7 -170 10 -107 6 -198 13 -255 20 -19
2 -62 6 -95 10 -33 3 -76 8 -95 10 -19 2 -60 7 -90 10 -55 6 -94 12 -140 20
-14 2 -50 7 -81 10 -31 3 -67 8 -80 10 -32 7 -134 22 -189 29 -25 3 -55 8 -66
10 -12 2 -39 7 -60 10 -22 4 -88 17 -149 31 -60 13 -125 27 -144 30 -45 8
-115 29 -396 121 -207 68 -265 88 -330 115 -11 4 -56 22 -100 40 -176 69 -458
209 -580 287 -27 17 -56 32 -62 32 -7 0 -13 4 -13 9 0 5 -10 13 -22 17 -13 4
-25 10 -28 13 -6 9 -106 70 -134 82 -12 5 -34 18 -51 29 -16 11 -41 26 -55 33
-28 14 -43 23 -185 116 -55 36 -105 70 -111 76 -6 5 -26 21 -44 35 -18 14 -49
40 -69 57 -20 18 -39 33 -42 33 -3 0 -17 9 -30 20 -13 11 -28 23 -34 27 -5 5
-24 19 -41 33 -18 14 -46 36 -65 50 -18 14 -125 117 -239 230 -196 194 -261
271 -414 488 -74 106 -232 412 -286 557 -13 33 -27 64 -32 70 -4 5 -8 15 -8
23 0 8 -6 28 -14 45 -34 74 -123 374 -151 508 -2 9 -13 61 -25 115 -35 159
-38 175 -46 224 -3 19 -12 73 -19 120 -15 85 -19 113 -32 225 -10 80 -9 490 1
635 21 295 26 371 31 415 2 22 6 65 9 95 17 162 27 243 51 410 2 14 10 66 19
115 8 50 17 108 21 130 3 22 7 47 10 55 2 8 6 31 9 51 3 20 17 89 30 155 14
65 28 133 31 149 8 47 14 75 19 93 3 9 7 29 10 45 3 15 7 35 10 45 3 9 7 28
10 42 3 14 14 62 25 107 11 45 22 92 25 105 6 27 8 36 37 143 11 44 22 87 24
95 6 24 54 190 69 240 50 159 130 400 141 425 7 17 16 41 20 55 3 14 15 48 25
75 11 28 33 88 51 135 17 47 38 99 45 117 8 17 14 36 14 42 0 6 4 19 9 29 14
27 36 79 76 182 55 142 73 182 177 391 99 199 105 209 176 327 34 57 62 105
62 107 0 2 23 38 50 79 28 42 50 80 50 86 0 5 5 10 10 10 6 0 10 4 10 8 0 8
164 258 187 287 5 6 29 39 53 75 25 35 50 71 57 80 7 8 26 33 42 55 17 22 34
45 39 50 4 6 23 30 42 55 19 24 40 50 45 56 138 160 177 201 285 296 67 58
197 168 215 180 5 4 26 20 45 35 50 40 98 73 106 73 12 0 74 71 75 86 1 8 2
18 3 23 0 4 15 22 31 38 57 58 60 65 60 134 0 47 -5 73 -16 85 -9 11 -22 35
-29 54 -15 39 -54 99 -94 145 -14 17 -29 38 -32 48 -3 9 -10 17 -15 17 -5 0
-9 6 -9 13 0 6 -16 30 -35 52 -19 22 -47 55 -62 74 -15 18 -37 44 -48 57 -11
13 -33 40 -50 60 -16 20 -42 50 -58 67 -15 16 -27 33 -27 37 0 9 -244 254
-308 310 -54 48 -95 81 -126 105 -15 11 -34 27 -44 36 -9 9 -35 29 -57 44
l-40 27 35 -7 c19 -4 41 -11 50 -16 25 -13 123 -55 160 -68 39 -14 63 -25 163
-70 37 -17 71 -31 74 -31 12 0 399 -191 528 -261 39 -21 88 -48 110 -60 22
-11 63 -34 90 -50 28 -16 68 -38 90 -50 22 -11 58 -31 80 -45 121 -72 258
-141 300 -150 80 -17 147 3 197 60 52 59 62 67 106 85 19 8 39 19 45 25 28 26
245 119 407 174 294 99 737 236 830 257 8 2 69 17 135 33 66 17 172 43 235 57
156 36 151 35 230 50 14 3 36 7 50 10 14 3 41 8 60 10 19 3 46 8 60 11 37 8
53 12 94 18 20 3 52 9 72 12 20 3 46 7 58 10 11 2 44 6 71 9 28 3 57 8 65 10
8 3 35 7 60 10 25 3 74 10 110 16 36 6 81 13 100 15 43 5 179 25 202 29 9 2
41 6 70 10 29 3 69 8 88 10 19 3 53 7 75 10 123 15 173 20 265 30 30 3 71 8
90 10 19 2 62 7 95 10 33 3 78 8 100 10 22 2 74 7 115 10 41 4 93 8 115 10 42
4 157 13 240 20 28 2 91 7 140 10 50 4 110 8 135 10 320 27 968 27 1245 0 17
-2 64 -6 105 -10 41 -3 89 -8 105 -10 17 -2 57 -7 89 -10 33 -4 74 -8 90 -10
17 -2 54 -6 81 -10 28 -3 66 -7 85 -10 19 -3 58 -7 85 -10 70 -7 112 -13 143
-19 15 -3 52 -8 82 -11 75 -8 104 -12 137 -19 15 -3 53 -8 83 -12 30 -3 66 -7
80 -9 14 -2 43 -6 65 -9 36 -5 97 -14 135 -21 8 -1 35 -5 60 -9 66 -11 72 -12
105 -19 17 -4 42 -9 58 -11 15 -3 35 -7 45 -10 9 -3 28 -7 42 -10 23 -5 41 -9
90 -21 11 -3 29 -7 40 -10 11 -3 28 -7 38 -10 9 -2 37 -9 62 -15 24 -6 50 -15
56 -21 13 -10 40 -18 91 -26 48 -8 134 39 186 100 42 52 215 222 296 293 24
22 51 46 60 54 9 8 32 27 51 41 19 15 45 35 57 45 11 11 29 25 40 32 10 7 73
51 141 97 68 47 125 85 127 85 3 0 34 18 69 40 77 47 294 174 351 205 22 12
67 37 100 55 82 45 309 159 312 157 1 -2 -10 -28 -25 -59z"/>
<path d="M8892 13350 c-52 -48 -64 -88 -69 -240 -5 -164 -12 -240 -22 -240 -9
0 -69 25 -156 65 -66 30 -164 70 -205 83 -37 12 -144 13 -170 2 -33 -14 -40
-26 -33 -64 4 -19 16 -32 37 -41 29 -13 144 -65 191 -87 21 -10 37 -19 100
-59 22 -14 47 -29 55 -32 8 -4 31 -17 50 -29 172 -106 211 -116 292 -76 70 34
81 85 62 297 -8 86 -23 206 -34 266 -10 61 -20 126 -22 145 -4 47 -32 51 -76
10z"/>
<path d="M12490 13322 c-68 -33 -64 -30 -163 -125 -92 -86 -84 -88 -112 23 -9
36 -23 74 -31 84 -20 28 -81 24 -114 -9 -25 -25 -25 -27 -27 -213 -3 -250 9
-296 90 -339 32 -16 98 -12 137 9 27 14 86 72 110 107 13 20 32 44 58 76 5 6
17 24 28 40 10 17 29 41 42 55 13 14 33 41 45 60 12 19 29 44 39 54 10 11 18
25 18 32 0 6 7 17 15 24 23 19 57 98 53 123 -3 20 -10 22 -68 24 -53 2 -75 -3
-120 -25z"/>
<path d="M13428 12715 c-1 -1 -25 -6 -53 -10 -97 -12 -232 -52 -261 -76 -8 -6
-14 -9 -14 -5 0 4 -15 -1 -32 -11 -18 -9 -39 -18 -47 -19 -8 -2 -26 -11 -40
-21 -14 -11 -41 -25 -58 -32 -18 -8 -33 -17 -33 -21 0 -4 -10 -10 -23 -14 -12
-3 -32 -14 -44 -26 -12 -11 -26 -20 -31 -20 -5 0 -21 -11 -36 -25 -15 -14 -30
-25 -33 -25 -22 0 -220 -188 -294 -280 -11 -14 -34 -40 -50 -59 -16 -19 -29
-41 -29 -48 0 -7 -4 -13 -9 -13 -12 0 -87 -146 -112 -218 -26 -74 -36 -209
-19 -242 7 -14 12 -47 11 -75 -1 -49 0 -51 67 -120 74 -77 120 -115 140 -115
6 0 12 -4 12 -10 0 -5 11 -12 25 -16 14 -3 25 -10 25 -16 0 -5 5 -6 10 -3 6 3
10 1 10 -4 0 -6 6 -11 13 -11 7 0 44 -16 83 -35 38 -19 76 -35 84 -35 9 0 20
-4 25 -9 11 -9 153 -57 195 -65 36 -7 60 -13 105 -24 22 -6 62 -13 89 -17 27
-3 52 -8 56 -10 8 -5 193 -20 245 -20 136 0 289 25 375 61 77 33 160 77 160
85 0 5 5 9 12 9 6 0 18 6 27 14 9 8 40 36 69 62 28 26 52 52 52 58 0 6 9 17
20 24 11 7 20 19 20 27 0 8 4 15 9 15 16 0 169 264 172 295 0 2 7 22 16 42 8
21 17 45 18 53 2 8 4 16 5 18 2 1 3 5 4 10 1 4 4 12 8 18 4 6 9 21 12 35 2 13
9 38 16 54 6 17 11 30 10 30 -2 0 3 27 15 85 1 3 4 19 8 35 25 110 37 322 23
412 -9 56 -50 127 -81 141 -35 16 -86 15 -111 -3 -18 -12 -26 -12 -48 -2 -14
7 -26 15 -26 20 0 4 -5 7 -10 7 -6 0 -23 9 -38 19 -31 22 -200 81 -277 96
-125 25 -196 33 -307 33 -69 0 -128 -1 -130 -3z m237 -310 c53 -10 108 -25
209 -57 l100 -31 -125 -60 c-129 -61 -177 -83 -256 -118 -46 -19 -63 -27 -151
-65 -20 -8 -50 -22 -65 -30 -16 -8 -32 -14 -37 -14 -5 0 -29 -9 -54 -20 -26
-11 -50 -20 -54 -21 -4 0 -18 -7 -32 -14 -14 -7 -68 -30 -120 -50 -52 -20
-101 -41 -107 -47 -7 -6 -13 -8 -13 -5 0 3 -19 -2 -42 -13 -109 -47 -124 -53
-134 -55 -6 -2 -37 -15 -70 -29 -32 -15 -72 -33 -89 -40 -16 -7 -48 -21 -70
-31 -56 -26 -105 -44 -105 -38 0 11 75 148 82 151 5 2 8 10 8 18 0 8 5 14 10
14 6 0 13 7 17 16 11 30 142 165 228 236 23 18 49 40 58 48 36 30 43 35 69 49
15 8 37 22 47 33 11 10 25 18 30 18 5 0 16 6 23 13 15 13 164 86 188 92 3 0
28 8 55 18 94 32 178 44 275 41 52 -2 109 -6 125 -9z m506 -384 c-10 -33 -17
-61 -15 -61 3 0 -2 -13 -11 -30 -8 -16 -15 -31 -14 -32 0 -2 -5 -16 -11 -33
-7 -16 -13 -34 -14 -40 -1 -5 -12 -29 -24 -51 -11 -23 -18 -44 -15 -48 4 -3 1
-6 -6 -6 -7 0 -9 -4 -6 -10 3 -5 1 -10 -5 -10 -6 0 -8 -4 -5 -10 3 -5 3 -10
-2 -10 -4 0 -21 -26 -38 -58 -16 -31 -33 -58 -37 -60 -5 -2 -8 -10 -8 -17 0
-7 -7 -15 -15 -19 -8 -3 -15 -10 -15 -16 0 -10 -7 -20 -62 -80 -64 -70 -189
-136 -298 -158 -73 -14 -379 -5 -432 13 -7 2 -29 6 -49 9 -20 3 -42 8 -50 10
-8 3 -25 8 -39 10 -45 9 -64 14 -92 25 -16 6 -28 8 -28 5 0 -4 -6 -2 -12 4 -7
5 -29 13 -48 17 -19 4 -39 10 -45 14 -5 3 -12 6 -15 7 -3 0 -18 6 -35 13 -16
7 -47 18 -67 24 -35 11 -52 27 -29 27 5 0 22 5 38 12 15 6 31 12 35 12 3 1 10
4 14 9 4 4 13 7 20 7 7 0 25 5 41 12 15 6 33 12 38 13 6 2 40 14 78 29 l67 25
35 -34 c19 -19 39 -35 45 -35 5 0 10 -5 10 -11 0 -5 5 -7 10 -4 6 3 10 1 10
-4 0 -6 3 -10 8 -9 4 1 20 -4 35 -10 75 -31 261 -37 317 -10 19 9 46 21 60 27
28 10 75 46 99 74 50 58 61 73 61 85 0 6 5 12 11 12 5 0 7 5 4 10 -3 6 -1 10
4 10 6 0 10 3 9 8 -1 4 3 17 10 30 7 12 10 22 6 22 -3 0 -2 6 4 13 5 6 13 38
17 70 5 41 12 60 24 64 25 8 84 33 103 43 10 6 22 10 28 10 5 0 48 18 95 40
47 22 89 40 93 40 4 0 34 18 67 39 33 21 61 37 63 36 1 -1 -6 -30 -17 -64z"/>
<path d="M7405 12563 c-47 -7 -216 -53 -255 -69 -149 -65 -272 -137 -319 -188
-29 -31 -38 -32 -46 -7 -4 13 -19 22 -43 26 -58 9 -88 -7 -114 -62 -32 -69
-32 -243 0 -362 20 -72 103 -266 121 -281 3 -3 15 -22 25 -42 11 -21 23 -38
28 -38 4 0 8 -7 8 -15 0 -8 5 -15 10 -15 6 0 10 -6 10 -14 0 -7 11 -24 24 -38
12 -14 26 -33 29 -42 4 -9 11 -16 17 -16 5 0 10 -5 10 -12 0 -7 9 -21 19 -33
22 -22 71 -76 112 -121 54 -60 132 -122 214 -171 127 -75 373 -183 448 -197
15 -2 30 -7 34 -9 5 -3 24 -8 43 -11 60 -10 93 -17 99 -21 13 -8 172 -20 261
-20 117 0 205 10 307 36 43 10 86 21 96 24 35 8 62 17 97 32 19 8 44 19 55 23
161 66 341 176 422 258 78 79 92 107 98 192 3 46 -23 118 -51 141 -8 6 -14 15
-14 20 0 12 -52 93 -62 97 -5 2 -8 8 -8 14 0 6 -11 26 -25 44 -14 18 -25 37
-25 43 0 6 -4 11 -9 11 -5 0 -12 8 -15 18 -3 9 -17 31 -31 47 -13 17 -32 41
-42 54 -47 62 -177 202 -220 237 -26 21 -49 42 -51 46 -7 15 -199 155 -284
206 -76 46 -108 62 -203 102 -11 4 -36 15 -55 23 -73 31 -203 66 -305 83 -47
7 -367 13 -410 7z m300 -308 c118 -19 282 -71 380 -122 74 -38 191 -109 213
-130 7 -7 16 -13 20 -13 4 0 25 -17 47 -36 22 -20 49 -44 60 -53 29 -25 133
-137 113 -122 -10 8 -18 10 -18 6 0 -4 -6 -3 -12 2 -15 12 -323 112 -393 128
-19 4 -128 33 -150 39 -80 23 -102 29 -115 31 -8 2 -27 8 -42 14 -16 6 -28 9
-28 6 0 -2 -17 3 -37 12 -21 8 -38 15 -38 13 0 -1 -12 3 -27 9 -15 6 -38 12
-50 14 -13 2 -30 7 -38 10 -24 9 -90 29 -108 32 -9 2 -18 4 -19 4 -2 1 -5 1
-8 1 -2 1 -20 7 -40 16 -19 8 -35 12 -35 10 0 -3 -17 2 -37 11 -21 8 -40 15
-43 14 -3 0 -18 3 -35 9 -16 5 -43 12 -60 15 -16 3 -37 8 -45 10 -8 2 -19 4
-25 5 -9 1 25 19 48 25 4 2 8 3 10 4 1 2 13 4 27 7 14 2 32 7 40 10 8 4 30 9
49 11 19 2 40 7 47 11 27 15 250 13 349 -3z m-787 -255 c15 -9 143 -55 182
-65 8 -2 16 -4 18 -5 1 -2 7 -4 12 -5 6 -1 12 -4 15 -5 3 -1 8 -3 13 -5 4 -1
21 -7 37 -14 17 -7 37 -14 45 -16 8 -2 16 -4 18 -5 1 -2 5 -3 10 -5 4 -1 21
-7 37 -14 17 -7 35 -14 40 -15 6 -1 28 -10 50 -20 22 -10 48 -18 57 -19 14 -1
16 -6 10 -22 -4 -11 -6 -55 -5 -97 2 -123 31 -197 106 -275 28 -29 57 -53 64
-53 7 0 13 -4 13 -9 0 -12 79 -42 145 -56 52 -11 220 -8 233 5 1 1 5 3 10 4
61 15 133 64 164 113 12 21 23 41 23 45 0 3 3 10 8 14 4 4 7 20 7 36 0 21 5
28 19 28 11 0 22 -4 26 -9 3 -5 20 -13 37 -17 18 -3 39 -10 48 -14 29 -15 85
-39 145 -60 33 -12 74 -28 90 -35 17 -7 58 -23 92 -35 66 -24 69 -30 25 -53
-119 -62 -197 -98 -257 -117 -38 -12 -77 -24 -85 -27 -20 -8 -41 -13 -65 -17
-11 -2 -20 -4 -20 -5 0 -12 -258 -17 -340 -7 -87 11 -267 53 -301 71 -16 8
-37 15 -46 15 -9 0 -19 4 -22 9 -3 4 -27 16 -53 26 -143 53 -306 190 -440 370
-20 28 -39 52 -42 55 -4 3 -12 17 -20 33 -8 15 -18 27 -23 27 -4 0 -8 7 -8 15
0 8 -3 15 -8 15 -8 0 -13 8 -55 96 -38 77 -57 121 -57 128 0 10 29 7 48 -4z"/>
<path d="M12234 11011 c-32 -14 -53 -49 -48 -80 12 -73 19 -86 87 -154 92 -92
124 -118 224 -184 110 -72 219 -123 273 -127 101 -7 152 33 131 103 -11 40
-71 102 -117 123 -13 6 -24 15 -24 20 0 4 -5 8 -10 8 -6 0 -23 11 -38 25 -15
14 -32 25 -39 25 -7 0 -13 3 -13 8 0 4 -24 23 -53 42 -28 19 -57 40 -64 45
-44 36 -111 85 -117 85 -3 0 -25 13 -48 30 -46 32 -110 45 -144 31z"/>
<path d="M9158 10826 c-58 -14 -96 -43 -223 -171 -216 -217 -261 -283 -249
-360 15 -102 126 -113 228 -23 15 13 40 34 58 48 113 90 218 195 218 219 0 6
4 11 8 11 18 0 75 125 77 170 6 87 -36 124 -117 106z"/>
<path d="M15120 10510 c-36 -5 -84 -14 -108 -20 -59 -14 -153 -60 -146 -71 3
-5 1 -9 -3 -9 -5 0 -7 -17 -5 -37 8 -69 34 -78 272 -87 69 -3 136 -8 150 -11
14 -3 37 -7 52 -10 15 -3 37 -9 50 -14 13 -5 25 -9 28 -9 21 -2 68 -17 79 -26
8 -6 16 -10 18 -8 2 1 17 -5 33 -13 16 -8 33 -16 37 -17 11 -1 117 -52 123
-58 3 -3 39 -27 80 -54 276 -180 414 -356 508 -646 63 -193 81 -301 82 -500 1
-106 -3 -152 -21 -270 -17 -111 -22 -137 -39 -200 -7 -25 -13 -52 -15 -60 -2
-8 -8 -27 -14 -42 -6 -16 -9 -28 -7 -28 3 0 -8 -35 -24 -77 -15 -43 -31 -87
-35 -98 -7 -19 -14 -38 -34 -87 -34 -83 -158 -328 -184 -362 -25 -34 -107
-158 -107 -162 0 -3 -5 -10 -10 -17 -6 -7 -20 -24 -33 -38 -12 -15 -35 -44
-52 -65 -61 -78 -168 -175 -267 -244 -64 -44 -75 -79 -33 -106 29 -19 160 -25
225 -11 43 9 144 58 185 89 50 39 235 228 235 241 0 3 14 21 30 39 17 18 30
36 30 40 0 4 11 19 24 33 13 14 30 38 38 53 7 15 30 52 49 82 118 182 274 518
304 653 2 12 13 56 24 97 11 41 22 89 25 105 2 17 7 44 10 60 36 191 41 494
10 640 -3 17 -7 39 -9 50 -12 67 -20 98 -47 189 -16 56 -34 105 -39 111 -5 5
-9 15 -9 22 0 7 -9 32 -19 56 -10 23 -31 68 -45 100 -53 120 -175 283 -286
383 -24 21 -53 48 -65 59 -55 50 -101 85 -112 85 -7 0 -13 5 -13 10 0 6 -7 10
-15 10 -8 0 -15 5 -15 10 0 6 -5 10 -10 10 -6 0 -20 9 -32 20 -12 10 -25 17
-30 14 -4 -3 -8 -1 -8 4 0 8 -50 36 -58 33 -1 -1 -10 5 -18 14 -9 8 -20 13
-25 10 -5 -4 -9 -1 -9 5 0 6 -4 8 -10 5 -5 -3 -10 -1 -10 4 0 6 -3 10 -7 9 -5
-1 -23 6 -40 15 -18 10 -36 18 -40 18 -5 1 -19 6 -33 11 -14 6 -29 11 -35 12
-5 1 -14 4 -20 7 -5 4 -23 10 -40 14 -39 9 -52 12 -100 25 -56 14 -287 21
-365 10z"/>
<path d="M11485 10383 c-16 -2 -82 -13 -145 -24 -63 -11 -126 -22 -140 -24
-14 -2 -36 -7 -50 -10 -14 -3 -45 -8 -70 -11 -25 -3 -85 -12 -135 -19 -86 -13
-117 -17 -265 -30 -159 -15 -380 -69 -470 -115 -19 -10 -67 -28 -106 -39 -57
-17 -78 -29 -112 -65 -23 -25 -42 -50 -42 -55 0 -6 -4 -11 -9 -11 -5 0 -16
-20 -24 -45 -17 -50 -15 -140 5 -190 13 -32 71 -95 88 -95 5 0 10 -4 10 -9 0
-4 18 -20 40 -35 22 -14 40 -24 40 -20 0 3 7 -1 15 -9 8 -9 43 -24 77 -36 66
-21 109 -30 228 -45 99 -13 124 -17 198 -32 42 -9 113 -32 157 -51 110 -49
135 -59 175 -72 19 -6 49 -23 65 -37 l30 -26 4 -204 3 -204 -31 -39 c-17 -21
-31 -42 -31 -45 0 -4 -34 -42 -76 -86 -111 -115 -182 -148 -380 -176 -103 -14
-135 -15 -170 -6 -116 31 -174 1 -174 -90 0 -89 31 -125 162 -189 60 -30 224
-31 376 -4 40 8 162 53 178 66 8 6 15 -5 24 -37 19 -67 82 -158 137 -198 120
-88 289 -96 423 -18 98 57 189 184 205 288 4 21 8 48 10 59 2 11 4 23 4 26 1
4 18 6 39 6 39 0 132 9 168 17 12 2 39 7 60 10 53 9 153 35 189 50 49 21 95
71 102 110 15 96 -28 122 -182 111 -182 -13 -359 -15 -399 -4 -21 6 -48 12
-59 15 -29 5 -127 55 -151 77 -11 9 -23 17 -28 17 -4 0 -16 7 -25 16 -10 9
-45 40 -78 69 l-60 54 -1 73 c-1 40 -4 102 -8 138 -4 36 -9 73 -9 83 -2 20 84
115 153 169 25 19 97 66 160 104 63 38 120 72 125 76 6 5 69 47 140 94 129 84
225 166 225 191 0 7 4 13 9 13 8 0 20 23 27 53 1 4 3 8 4 10 1 1 4 23 6 48 7
76 -43 200 -101 255 -26 24 -51 42 -55 39 -5 -3 -10 0 -12 5 -2 6 -10 12 -18
13 -8 2 -19 5 -25 8 -18 11 -79 28 -120 34 -51 8 -261 13 -300 8z m-224 -1755
c15 -13 45 -38 66 -56 31 -26 86 -57 191 -109 2 0 -5 -25 -15 -53 -30 -88
-121 -166 -205 -177 -70 -10 -153 44 -209 136 -26 43 -24 55 14 94 54 58 77
88 77 103 0 8 4 14 9 14 5 0 15 16 22 35 7 19 15 35 17 35 2 0 17 -10 33 -22z"/>
<path d="M14796 9738 c-110 -56 -65 -228 59 -228 46 0 105 27 105 48 0 6 5 12
11 12 5 0 7 5 4 10 -3 6 -2 10 4 10 15 0 5 95 -13 121 -9 13 -16 19 -16 14 0
-6 -3 -6 -8 0 -26 36 -89 42 -146 13z"/>
<path d="M6925 9660 c-60 -13 -132 -48 -211 -105 -73 -52 -314 -308 -314 -334
0 -6 -4 -11 -8 -11 -9 0 -92 -124 -92 -138 0 -6 -3 -12 -8 -14 -7 -3 -84 -155
-115 -228 -36 -87 -80 -249 -92 -345 -17 -140 -20 -189 -20 -355 1 -189 17
-327 52 -430 9 -25 17 -49 18 -55 1 -5 5 -18 8 -27 11 -29 18 -53 17 -56 -3
-8 84 -162 91 -162 5 0 9 -6 9 -13 0 -7 9 -23 20 -35 11 -12 20 -24 20 -27 0
-6 11 -20 38 -50 6 -7 12 -17 12 -22 0 -5 8 -16 18 -26 9 -9 28 -31 42 -49 26
-33 158 -167 201 -204 44 -38 126 -94 138 -94 6 0 11 -4 11 -9 0 -13 129 -69
200 -85 129 -31 360 -7 368 37 5 27 -13 43 -86 72 -103 41 -226 99 -240 113
-7 6 -20 12 -28 12 -8 0 -14 5 -14 10 0 6 -6 10 -14 10 -8 0 -16 4 -18 8 -1 5
-32 31 -68 58 -76 58 -136 117 -199 194 -24 30 -47 57 -50 60 -4 3 -17 22 -31
42 -14 21 -28 38 -32 38 -5 0 -8 7 -8 15 0 8 -4 15 -10 15 -5 0 -10 7 -10 15
0 8 -3 15 -7 15 -5 0 -13 10 -19 23 -6 12 -28 56 -50 97 -51 97 -83 202 -99
320 -15 104 -8 407 10 513 3 15 7 37 9 50 2 12 12 51 21 87 9 36 19 72 20 80
2 8 4 16 5 18 2 1 3 5 5 10 1 4 7 21 14 37 7 17 14 35 15 40 3 13 78 166 89
180 4 5 34 48 67 95 77 110 82 116 170 208 88 92 171 155 232 177 24 8 108 20
187 25 79 6 152 15 162 21 22 11 26 74 6 100 -14 18 -109 65 -153 75 -45 11
-235 14 -279 4z"/>
<path d="M15640 9215 c-41 -23 -52 -83 -25 -135 16 -32 39 -42 92 -42 79 0
117 112 56 168 -29 27 -82 31 -123 9z"/>
<path d="M7302 9043 c-49 -40 -32 -126 28 -136 31 -6 89 17 92 35 9 75 -8 106
-62 114 -25 3 -42 -1 -58 -13z"/>
<path d="M14580 8657 c-33 -25 -49 -60 -44 -91 12 -66 24 -84 69 -99 38 -14
46 -13 82 3 51 23 73 57 68 106 -5 57 -50 94 -113 94 -26 0 -54 -6 -62 -13z"/>
<path d="M6818 8580 c-19 -11 -25 -83 -10 -107 19 -31 112 -22 126 12 4 12 -8
82 -16 90 -10 11 -85 14 -100 5z"/>
<path d="M7650 8419 c-18 -4 -40 -15 -47 -25 -20 -27 -16 -77 8 -103 19 -20
28 -22 68 -16 56 8 79 33 73 78 -4 28 -32 84 -32 64 0 -4 -8 -4 -17 1 -10 5
-34 5 -53 1z"/>
<path d="M15692 8225 c-33 -14 -52 -47 -52 -90 0 -44 20 -71 67 -88 41 -15 48
-15 77 -2 45 21 71 90 50 131 -9 16 -21 35 -28 42 -20 20 -76 24 -114 7z"/>
<path d="M15010 7809 c-13 -5 -28 -15 -32 -22 -16 -25 -8 -74 16 -99 21 -23
28 -25 66 -18 23 4 46 14 51 21 13 21 11 83 -3 102 -16 21 -66 30 -98 16z"/>
<path d="M6933 7773 c-25 -28 -26 -32 -23 -82 4 -80 117 -119 173 -60 33 35
44 119 16 119 -5 0 -9 6 -9 14 0 18 -52 36 -99 35 -26 0 -42 -8 -58 -26z"/>
<path d="M7786 7597 c-19 -14 -33 -97 -16 -97 6 0 10 -6 10 -14 0 -30 78 -34
109 -5 18 17 22 29 18 62 -3 23 -12 46 -23 54 -23 17 -75 17 -98 0z"/>
<path d="M12231 7512 c-25 -26 -53 -58 -61 -71 -8 -13 -23 -33 -33 -44 -9 -12
-26 -33 -37 -47 -12 -14 -31 -37 -43 -52 -43 -54 -204 -215 -220 -221 -10 -4
-17 -11 -17 -17 0 -5 -6 -10 -13 -10 -7 0 -22 -8 -33 -17 -11 -10 -51 -33 -89
-51 -39 -19 -78 -38 -87 -43 -9 -5 -31 -11 -49 -14 -17 -3 -39 -10 -48 -14 -9
-5 -38 -12 -66 -16 -27 -5 -57 -10 -65 -12 -25 -5 -232 -4 -274 2 -78 11 -102
16 -171 41 -38 13 -78 26 -88 29 -9 2 -24 11 -33 19 -8 9 -26 19 -40 22 -13 3
-24 10 -24 15 0 5 -5 9 -10 9 -6 0 -23 11 -38 25 -15 14 -32 25 -39 25 -7 0
-13 4 -13 9 0 4 -19 21 -42 37 -23 16 -51 38 -63 49 -12 11 -39 34 -59 50 -21
17 -48 39 -61 50 -85 76 -117 95 -163 95 -54 0 -66 -17 -60 -88 6 -55 43 -152
60 -152 4 0 8 -5 8 -10 0 -6 4 -16 10 -23 84 -104 115 -140 161 -180 30 -27
65 -59 79 -72 58 -54 263 -169 318 -180 9 -2 18 -4 20 -5 1 -2 5 -3 10 -4 4
-2 27 -8 52 -15 130 -38 418 -53 550 -30 107 19 115 21 133 30 9 5 17 7 17 5
0 -3 33 6 73 20 81 29 227 104 227 116 0 4 7 8 15 8 8 0 15 5 15 10 0 6 5 10
12 10 13 0 16 3 114 97 77 74 144 154 144 171 0 6 4 12 8 14 12 4 72 95 72
107 0 6 4 11 8 11 5 0 28 42 52 93 36 76 44 103 44 153 1 83 -20 114 -76 114
-36 0 -46 -6 -87 -48z"/>
</g>
</svg>
